# https://github.com/mikedh/trimesh
v 0.20500000 -0.00866025 0.17100000
v 0.20866029 -0.00500000 0.17100000
v 0.20999999 -0.00000000 0.17100000
v 0.20866029 0.00500000 0.17100000
v 0.20500000 0.00866025 0.17100000
v 0.19133979 0.00500000 0.17100000
v 0.19000000 -0.00000000 0.17100000
v 0.19499999 0.00866025 0.17100000
v 0.19999999 0.01000000 0.17100000
v 0.19999999 -0.01000000 0.17100000
v 0.19499999 -0.00866025 0.17100000
v 0.19133979 -0.00500000 0.17100000
v 0.02255824 0.06942712 0.12450000
v 0.00763058 0.07260010 0.12450000
v 0.05905824 -0.04290832 0.12450000
v 0.04884653 -0.05424957 0.12450000
v -0.00763058 -0.07260010 0.12450000
v 0.03650000 -0.06321985 0.12450000
v 0.00763058 -0.07260010 0.12450000
v 0.02255824 -0.06942712 0.12450000
v -0.00763058 0.07260010 0.12450000
v -0.02255824 0.06942712 0.12450000
v -0.06668882 -0.02969177 0.12450000
v -0.05905824 -0.04290832 0.12450000
v 0.06668882 -0.02969177 0.12450000
v 0.07140478 -0.01517755 0.12450000
v 0.04884653 0.05424957 0.12450000
v 0.03650000 0.06321985 0.12450000
v -0.07140478 -0.01517755 0.12450000
v -0.07300000 0.00000000 0.12450000
v -0.06668882 0.02969177 0.12450000
v -0.07140478 0.01517755 0.12450000
v -0.02255824 -0.06942712 0.12450000
v -0.03650000 -0.06321985 0.12450000
v -0.04884653 -0.05424957 0.12450000
v 0.06668882 0.02969177 0.12450000
v 0.05905824 0.04290832 0.12450000
v 0.07140478 0.01517755 0.12450000
v 0.07300000 -0.00000000 0.12450000
v -0.05905824 0.04290832 0.12450000
v -0.04884653 0.05424957 0.12450000
v -0.03650000 0.06321985 0.12450000
v -0.36403900 -0.19014721 0.07757980
v -0.34671488 -0.19014721 0.06025568
v -0.36403900 -0.21714719 0.07757980
v -0.34671488 -0.21714719 0.06025568
v -0.29792449 -0.21714719 0.14369430
v -0.28060040 -0.21714719 0.12637019
v -0.29792449 -0.19014721 0.14369430
v -0.28060040 -0.19014721 0.12637019
v -0.36403900 0.21714719 0.07757980
v -0.34671488 0.21714719 0.06025568
v -0.36403900 0.19014721 0.07757980
v -0.34671488 0.19014721 0.06025568
v -0.29792449 0.19014721 0.14369430
v -0.28060040 0.19014721 0.12637019
v -0.29792449 0.21714719 0.14369430
v -0.28060040 0.21714719 0.12637019
v 0.19000000 -0.00000000 0.10300000
v 0.19133979 -0.00500000 0.10300000
v 0.19499999 -0.00866025 0.10300000
v 0.19999999 -0.01000000 0.10300000
v 0.20500000 -0.00866025 0.10300000
v 0.20866029 -0.00500000 0.10300000
v 0.20999999 -0.00000000 0.10300000
v 0.20866029 0.00500000 0.10300000
v 0.20500000 0.00866025 0.10300000
v 0.19999999 0.01000000 0.10300000
v 0.19499999 0.00866025 0.10300000
v 0.19133979 0.00500000 0.10300000
v 0.07300000 -0.00000000 0.13150001
v 0.07140478 0.01517755 0.13150001
v 0.06668882 0.02969177 0.13150001
v 0.05905824 0.04290832 0.13150001
v 0.04884653 0.05424957 0.13150001
v 0.03650000 0.06321985 0.13150001
v 0.02255824 0.06942712 0.13150001
v 0.00763058 0.07260010 0.13150001
v -0.00763058 0.07260010 0.13150001
v -0.02255824 0.06942712 0.13150001
v -0.03650000 0.06321985 0.13150001
v -0.04884653 0.05424957 0.13150001
v -0.05905824 0.04290832 0.13150001
v -0.06668882 0.02969177 0.13150001
v -0.07140478 0.01517755 0.13150001
v -0.07300000 0.00000000 0.13150001
v -0.07140478 -0.01517755 0.13150001
v -0.06668882 -0.02969177 0.13150001
v -0.05905824 -0.04290832 0.13150001
v -0.04884653 -0.05424957 0.13150001
v -0.03650000 -0.06321985 0.13150001
v -0.02255824 -0.06942712 0.13150001
v -0.00763058 -0.07260010 0.13150001
v 0.00763058 -0.07260010 0.13150001
v 0.02255824 -0.06942712 0.13150001
v 0.03650000 -0.06321985 0.13150001
v 0.04884653 -0.05424957 0.13150001
v 0.05905824 -0.04290832 0.13150001
v 0.06668882 -0.02969177 0.13150001
v 0.07140478 -0.01517755 0.13150001
v -0.30358139 -0.22514720 0.13803740
v -0.28625721 -0.22514720 0.12071330
v -0.35838211 -0.22514720 0.08323664
v -0.34105799 -0.22514720 0.06591254
v -0.34105799 -0.18214719 0.06591254
v -0.35007361 -0.18214719 0.05689693
v -0.35360920 -0.18714720 0.05336139
v -0.35360920 -0.22014721 0.05336139
v -0.35007361 -0.22514720 0.05689692
v -0.35838211 -0.18214719 0.08323664
v -0.30358139 -0.18214719 0.13803740
v -0.28625721 -0.18214719 0.12071330
v -0.27724162 -0.22514720 0.12972890
v -0.27370608 -0.22014721 0.13326450
v -0.27370608 -0.18714720 0.13326450
v -0.27724162 -0.18214719 0.12972890
v -0.35838211 0.22514720 0.08323664
v -0.34105799 0.22514720 0.06591254
v -0.30358139 0.22514720 0.13803740
v -0.28625721 0.22514720 0.12071330
v -0.30358139 0.18214719 0.13803740
v -0.28625721 0.18214719 0.12071330
v -0.35838211 0.18214719 0.08323664
v -0.34105799 0.18214719 0.06591254
v -0.35007361 0.22514720 0.05689693
v -0.35360920 0.22014721 0.05336139
v -0.35360920 0.18714720 0.05336139
v -0.35007361 0.18214719 0.05689692
v -0.27724162 0.18214719 0.12972890
v -0.27370608 0.18714720 0.13326450
v -0.27370608 0.22014721 0.13326450
v -0.27724162 0.22514720 0.12972890
v -0.18200000 0.16223249 0.14749999
v -0.17173250 0.17250000 0.14749999
v -0.17173250 0.21249999 0.14749999
v -0.23226751 0.17250000 0.14749999
v -0.22200000 0.16223249 0.14749999
v -0.23226751 0.21249999 0.14749999
v -0.22200000 0.22276750 0.14749999
v -0.18200000 0.22276750 0.14749999
v -0.15177189 0.16559030 0.14950000
v -0.15562782 0.16825192 0.14950000
v -0.16027901 0.16881670 0.14950000
v -0.14959450 0.16144170 0.14950000
v -0.14959450 0.15675639 0.14950000
v -0.15177189 0.15260769 0.14950000
v -0.15562782 0.14994611 0.14950000
v -0.16465980 0.15104280 0.14950000
v -0.16027901 0.14938140 0.14950000
v -0.16888799 0.15909900 0.14950000
v -0.16776679 0.15454981 0.14950000
v -0.16776679 0.16364820 0.14950000
v -0.16465980 0.16715521 0.14950000
v 0.21363640 -0.01363644 0.10300000
v 0.21781690 -0.00737999 0.10300000
v 0.21928489 -0.00000000 0.10300000
v 0.18636359 -0.01363644 0.10300000
v 0.19261999 -0.01781687 0.10300000
v 0.19999999 -0.01928484 0.10300000
v 0.20738000 -0.01781687 0.10300000
v 0.18636359 0.01363644 0.10300000
v 0.18218310 0.00737999 0.10300000
v 0.18071519 0.00000000 0.10300000
v 0.18218310 -0.00737999 0.10300000
v 0.21781690 0.00737999 0.10300000
v 0.21363640 0.01363644 0.10300000
v 0.20738000 0.01781687 0.10300000
v 0.19999999 0.01928484 0.10300000
v 0.19261999 0.01781687 0.10300000
v -0.08042999 0.02545361 0.13150001
v -0.08337287 0.01287773 0.13150001
v -0.08436154 0.00000000 0.13150001
v 0.03450966 0.07698021 0.13150001
v 0.02235425 0.08134591 0.13150001
v 0.00967487 0.08380492 0.13150001
v 0.07251462 0.04311032 0.13150001
v 0.06508401 0.05367438 0.13150001
v 0.05612790 0.06298038 0.13150001
v 0.04585620 0.07081016 0.13150001
v 0.03450966 -0.07698021 0.13150001
v 0.04585620 -0.07081016 0.13150001
v 0.05612790 -0.06298038 0.13150001
v -0.08337287 -0.01287773 0.13150001
v -0.08042999 -0.02545361 0.13150001
v -0.07560191 -0.03743289 0.13150001
v -0.06900178 -0.04853477 0.13150001
v -0.00323128 0.08429963 0.13150001
v -0.01606169 0.08281843 0.13150001
v -0.02851562 0.07939602 0.13150001
v 0.06508401 -0.05367438 0.13150001
v 0.07251462 -0.04311032 0.13150001
v 0.07824554 -0.03153578 0.13150001
v 0.08214244 -0.01922207 0.13150001
v -0.01606169 -0.08281843 0.13150001
v -0.00323128 -0.08429963 0.13150001
v 0.00967487 -0.08380492 0.13150001
v 0.02235425 -0.08134591 0.13150001
v -0.04030119 0.07411265 0.13150001
v -0.05114211 0.06709211 0.13150001
v -0.06078431 0.05849903 0.13150001
v -0.06900178 0.04853477 0.13150001
v -0.07560191 0.03743289 0.13150001
v 0.08411402 -0.00645781 0.13150001
v 0.08411402 0.00645781 0.13150001
v 0.08214244 0.01922207 0.13150001
v 0.07824554 0.03153578 0.13150001
v -0.06078431 -0.05849903 0.13150001
v -0.05114211 -0.06709211 0.13150001
v -0.04030119 -0.07411265 0.13150001
v -0.02851562 -0.07939602 0.13150001
v -0.26522079 -0.22014721 0.12477919
v -0.26875630 -0.22514720 0.12124360
v -0.35007361 -0.22514720 0.05689693
v -0.34158829 -0.22514720 0.04841164
v -0.34512389 -0.22014721 0.04487611
v -0.34512389 -0.18714720 0.04487611
v -0.34158829 -0.18214719 0.04841164
v -0.35007361 -0.18214719 0.05689692
v -0.26875630 -0.18214719 0.12124360
v -0.26522079 -0.18714720 0.12477919
v -0.34158829 0.18214719 0.04841164
v -0.35007361 0.18214719 0.05689693
v -0.34512389 0.18714720 0.04487611
v -0.34512389 0.22014721 0.04487611
v -0.34158829 0.22514720 0.04841164
v -0.35007361 0.22514720 0.05689692
v -0.26875630 0.22514720 0.12124360
v -0.26522079 0.22014721 0.12477919
v -0.26522079 0.18714720 0.12477919
v -0.26875630 0.18214719 0.12124360
v -0.23226751 0.17250000 0.13000000
v -0.23226751 0.21249999 0.13000000
v -0.22200000 0.22276750 0.13000000
v -0.18200000 0.22276750 0.13000000
v -0.17173250 0.21249999 0.13000000
v -0.17173250 0.17250000 0.13000000
v -0.18200000 0.16223249 0.13000000
v -0.22200000 0.16223249 0.13000000
v -0.16425420 0.14883910 0.11719140
v -0.16425420 0.14743760 0.09300000
v -0.16063589 0.14644189 0.09300000
v -0.16425420 0.16980880 0.10948890
v -0.16425420 0.16860171 0.13000000
v -0.16425420 0.14959630 0.13000000
v -0.16524039 0.16799630 0.13000000
v -0.16867170 0.16412309 0.13000000
v -0.16991001 0.15909900 0.13000000
v -0.16867170 0.15407491 0.13000000
v -0.16524039 0.15020180 0.13000000
v -0.16425420 0.17076050 0.09300000
v -0.16063589 0.17175612 0.09300000
v -0.15457781 0.17102048 0.09300000
v -0.14955550 0.16755390 0.09300000
v -0.14671950 0.16215031 0.09300000
v -0.14671950 0.15604769 0.09300000
v -0.14955550 0.15064420 0.09300000
v -0.15457781 0.14717750 0.09300000
v 0.21781690 0.00737999 0.09300000
v 0.21928489 0.00000000 0.09300000
v 0.21781690 -0.00737999 0.09300000
v 0.21363640 -0.01363644 0.09300000
v 0.20738000 -0.01781687 0.09300000
v 0.19999999 -0.01928484 0.09300000
v 0.19261999 -0.01781687 0.09300000
v 0.18636359 -0.01363644 0.09300000
v 0.18218310 -0.00737999 0.09300000
v 0.18071519 0.00000000 0.09300000
v 0.18218310 0.00737999 0.09300000
v 0.18636359 0.01363644 0.09300000
v 0.19261999 0.01781687 0.09300000
v 0.19999999 0.01928484 0.09300000
v 0.20738000 0.01781687 0.09300000
v 0.21363640 0.01363644 0.09300000
v -0.13453391 0.02078003 0.09300000
v -0.12978509 0.04107299 0.09300000
v -0.12199430 0.06040324 0.09300000
v -0.11134410 0.07831769 0.09300000
v -0.09808405 0.09439643 0.09300000
v -0.08252500 0.10826261 0.09300000
v -0.06503163 0.11959121 0.09300000
v -0.04601398 0.12811670 0.09300000
v -0.02591780 0.13363920 0.09300000
v -0.00521412 0.13602930 0.09300000
v 0.01561177 0.13523109 0.09300000
v 0.03607173 0.13126311 0.09300000
v 0.05568620 0.12421840 0.09300000
v 0.07399543 0.11426219 0.09300000
v 0.09057026 0.10162770 0.09300000
v 0.10502220 0.08661120 0.09300000
v 0.11701250 0.06956458 0.09300000
v 0.12626021 0.05088742 0.09300000
v 0.13254839 0.03101752 0.09300000
v 0.13572979 0.01042059 0.09300000
v 0.13572979 -0.01042059 0.09300000
v 0.13254839 -0.03101752 0.09300000
v 0.12626021 -0.05088742 0.09300000
v 0.11701250 -0.06956458 0.09300000
v 0.10502220 -0.08661120 0.09300000
v 0.09057026 -0.10162770 0.09300000
v 0.07399543 -0.11426219 0.09300000
v 0.05568620 -0.12421840 0.09300000
v 0.03607173 -0.13126311 0.09300000
v 0.01561177 -0.13523109 0.09300000
v -0.00521412 -0.13602930 0.09300000
v -0.02591780 -0.13363920 0.09300000
v -0.04601398 -0.12811670 0.09300000
v -0.06503163 -0.11959121 0.09300000
v -0.08252500 -0.10826261 0.09300000
v -0.09808405 -0.09439643 0.09300000
v -0.11134410 -0.07831769 0.09300000
v -0.12199430 -0.06040324 0.09300000
v -0.12978509 -0.04107299 0.09300000
v -0.13453391 -0.02078003 0.09300000
v -0.13612920 0.00000000 0.09300000
v 0.22934540 0.06351430 0.09300000
v 0.23447670 0.04252039 0.09300000
v 0.24099711 0.06066179 0.08403104
v 0.23991001 0.04221064 0.08857029
v 0.24546979 0.04189322 0.08403104
v 0.23959371 0.06655107 0.08403104
v 0.23298150 0.08487082 0.08403104
v 0.22050001 0.08802138 0.09300000
v 0.23032539 0.09222988 0.08403104
v 0.22241759 0.10807140 0.08403104
v 0.20886329 0.11133290 0.09300000
v 0.21813239 0.11665600 0.08403104
v 0.20940530 0.12998801 0.08403104
v 0.19459350 0.13313220 0.09300000
v 0.20318028 0.13949750 0.08403104
v 0.19409719 0.15036450 0.08403104
v 0.17788430 0.15312320 0.09300000
v 0.18567221 0.16044439 0.08403104
v 0.17667289 0.16896299 0.08403104
v 0.15896270 0.17103429 0.09300000
v 0.16584590 0.17921190 0.08403104
v 0.15733591 0.18556601 0.08403104
v 0.13808560 0.18662241 0.09300000
v 0.14397071 0.19554530 0.08403104
v 0.13631199 0.19997880 0.08403104
v 0.11553679 0.19967559 0.09300000
v 0.12034369 0.20922260 0.08403104
v 0.11384661 0.21203199 0.08403104
v 0.09162236 0.21001668 0.09300000
v 0.09528586 0.22005811 0.08403104
v 0.09020174 0.22158368 0.08403104
v 0.06666719 0.21750520 0.09300000
v 0.06913751 0.22790460 0.08403104
v 0.06565339 0.22852029 0.08403104
v 0.04101024 0.22203931 0.09300000
v 0.01500000 0.23424640 0.08403104
v 0.01500000 0.22355761 0.09300000
v 0.04048814 0.23275861 0.08403104
v 0.04225385 0.23265550 0.08403104
v 0.24885249 0.04028392 0.06101694
v 0.25221571 0.03867442 0.03800000
v 0.22532560 0.03867442 0.03800000
v 0.22147959 0.04252039 0.09300000
v 0.22147959 -0.04252039 0.09300000
v 0.22532560 -0.03867442 0.03800000
v 0.23447670 -0.04252039 0.09300000
v 0.22934540 -0.06351430 0.09300000
v 0.23991001 -0.04221064 0.08857029
v 0.24099711 -0.06066179 0.08403104
v 0.24546979 -0.04189322 0.08403104
v 0.01500000 -0.23424640 0.08403104
v 0.04048814 -0.23275861 0.08403104
v 0.01500000 -0.22355761 0.09300000
v 0.04101024 -0.22203931 0.09300000
v 0.04225385 -0.23265550 0.08403104
v 0.06565339 -0.22852029 0.08403104
v 0.06666719 -0.21750520 0.09300000
v 0.06913751 -0.22790460 0.08403104
v 0.09020174 -0.22158368 0.08403104
v 0.09162236 -0.21001668 0.09300000
v 0.09528586 -0.22005811 0.08403104
v 0.11384661 -0.21203199 0.08403104
v 0.11553679 -0.19967559 0.09300000
v 0.12034369 -0.20922260 0.08403104
v 0.13631199 -0.19997880 0.08403104
v 0.13808560 -0.18662241 0.09300000
v 0.14397071 -0.19554530 0.08403104
v 0.15733591 -0.18556601 0.08403104
v 0.15896270 -0.17103429 0.09300000
v 0.16584590 -0.17921190 0.08403104
v 0.17667289 -0.16896299 0.08403104
v 0.17788430 -0.15312320 0.09300000
v 0.18567221 -0.16044439 0.08403104
v 0.19409719 -0.15036450 0.08403104
v 0.19459350 -0.13313220 0.09300000
v 0.20318028 -0.13949750 0.08403104
v 0.20940530 -0.12998801 0.08403104
v 0.20886329 -0.11133290 0.09300000
v 0.21813239 -0.11665600 0.08403104
v 0.22241759 -0.10807140 0.08403104
v 0.22050001 -0.08802138 0.09300000
v 0.23032539 -0.09222988 0.08403104
v 0.23298150 -0.08487082 0.08403104
v 0.23959371 -0.06655107 0.08403104
v 0.24885249 -0.04028392 0.06101694
v 0.25221571 -0.03867442 0.03800000
v -0.08483527 -0.22355761 0.09300000
v -0.08358741 -0.23424640 0.08403104
v -0.09146017 -0.18598591 0.09300000
v -0.09468732 -0.18983190 0.03800000
v -0.08578005 -0.24034759 0.03800000
v -0.16183759 -0.18598591 0.09300000
v -0.15799159 -0.18983190 0.03800000
v -0.11698931 -0.22113129 -0.00000000
v -0.11574999 -0.21650630 0.03800000
v -0.11574999 -0.21650630 -0.00000000
v -0.11698931 -0.21188131 0.03800000
v -0.11698931 -0.21188131 -0.00000000
v -0.12037500 -0.20849562 0.03800000
v -0.12037500 -0.20849562 -0.00000000
v -0.12500000 -0.20725629 0.03800000
v -0.12500000 -0.20725629 -0.00000000
v -0.12962501 -0.20849562 0.03800000
v -0.12962501 -0.20849562 -0.00000000
v -0.13301070 -0.21188131 0.03800000
v -0.13301070 -0.21188131 -0.00000000
v -0.13425000 -0.21650630 0.03800000
v -0.13425000 -0.21650630 -0.00000000
v -0.13301070 -0.22113129 0.03800000
v -0.13301070 -0.22113129 -0.00000000
v -0.12962501 -0.22451711 0.03800000
v -0.12962501 -0.22451711 -0.00000000
v -0.12500000 -0.22575630 0.03800000
v -0.12500000 -0.22575630 -0.00000000
v -0.12037500 -0.22451711 0.03800000
v -0.12037500 -0.22451711 -0.00000000
v -0.11698931 -0.22113129 0.03800000
v -0.16183759 -0.23305760 0.09300000
v -0.15799159 -0.24034759 0.03800000
v -0.34977421 -0.24005260 0.04022583
v -0.25999999 -0.22815339 0.13000000
v -0.25999999 -0.14600000 0.13000000
v -0.34977421 -0.14600000 0.04022583
v -0.16425420 -0.22815339 0.13000000
v -0.16425420 -0.14600000 0.13000000
v -0.38226223 0.14600000 0.14019780
v -0.38226223 0.14600000 0.13499999
v -0.38224021 0.13560450 0.14019780
v -0.38216740 0.09309767 0.13499999
v -0.38216868 0.09402229 0.14019780
v -0.38212299 0.05244009 0.14019780
v -0.38226223 -0.14600000 0.13499999
v -0.38226223 -0.14600000 0.14019780
v -0.38224021 -0.13560450 0.13499999
v -0.38216740 -0.09309767 0.14019780
v -0.38216868 -0.09402229 0.13499999
v -0.38214159 -0.07230658 0.14019780
v -0.38212299 -0.05244009 0.13499999
v -0.38210949 -0.03072437 0.14019780
v -0.38210338 -0.01085787 0.13499999
v -0.38210490 0.00000000 0.14019780
v -0.38210490 -0.00000000 0.13499999
v -0.38210338 0.01085787 0.14019780
v -0.38210949 0.03072437 0.13499999
v -0.38214159 0.07230658 0.13499999
v -0.35907871 0.14600000 0.14019780
v -0.35907871 -0.14600000 0.14019780
v -0.35907871 -0.14600000 0.14999999
v -0.35907871 0.14600000 0.14999999
v -0.16425420 0.14600000 0.14999999
v -0.16425420 -0.14600000 0.14999999
v -0.16425420 0.14600000 0.13000000
v -0.16425420 -0.23305760 0.09300000
v -0.08483527 0.22355761 0.09300000
v -0.08358741 0.23424640 0.08403104
v -0.34977421 0.14600000 0.04022583
v -0.25999999 0.14600000 0.13000000
v -0.25999999 0.22815339 0.13000000
v -0.34977421 0.24005260 0.04022583
v -0.16425420 0.22815339 0.13000000
v -0.16425420 0.23305760 0.09300000
v -0.16183759 0.23305760 0.09300000
v -0.16183759 0.18598591 0.09300000
v -0.09146017 0.18598591 0.09300000
v -0.15799159 0.24034759 0.03800000
v -0.15799159 0.18983190 0.03800000
v -0.09468732 0.18983190 0.03800000
v -0.08578005 0.24034759 0.03800000
v -0.11698931 0.21188131 -0.00000000
v -0.11574999 0.21650630 0.03800000
v -0.11574999 0.21650630 -0.00000000
v -0.11698931 0.22113129 0.03800000
v -0.11698931 0.22113129 -0.00000000
v -0.12037500 0.22451711 0.03800000
v -0.12037500 0.22451711 -0.00000000
v -0.12500000 0.22575630 0.03800000
v -0.12500000 0.22575630 0.00000000
v -0.12962501 0.22451711 0.03800000
v -0.12962501 0.22451711 0.00000000
v -0.13301070 0.22113129 0.03800000
v -0.13301070 0.22113129 0.00000000
v -0.13425000 0.21650630 0.03800000
v -0.13425000 0.21650630 0.00000000
v -0.13301070 0.21188131 0.03800000
v -0.13301070 0.21188131 0.00000000
v -0.12962501 0.20849562 0.03800000
v -0.12962501 0.20849562 0.00000000
v -0.12500000 0.20725629 0.03800000
v -0.12500000 0.20725629 0.00000000
v -0.12037500 0.20849562 0.03800000
v -0.12037500 0.20849562 -0.00000000
v -0.11698931 0.21188131 0.03800000
v 0.25801072 -0.00462500 0.00000000
v 0.25925002 -0.00000000 0.03800000
v 0.25925002 -0.00000000 0.00000000
v 0.25801072 0.00462500 0.03800000
v 0.25801072 0.00462500 0.00000000
v 0.25462499 0.00801073 0.03800000
v 0.25462499 0.00801073 0.00000000
v 0.25000000 0.00925000 0.03800000
v 0.25000000 0.00925000 0.00000000
v 0.24537499 0.00801073 0.03800000
v 0.24537499 0.00801073 -0.00000000
v 0.24198930 0.00462500 0.03800000
v 0.24198930 0.00462500 -0.00000000
v 0.24075000 0.00000000 0.03800000
v 0.24075000 0.00000000 -0.00000000
v 0.24198930 -0.00462500 0.03800000
v 0.24198930 -0.00462500 -0.00000000
v 0.24537499 -0.00801073 0.03800000
v 0.24537499 -0.00801073 -0.00000000
v 0.25000000 -0.00925000 0.03800000
v 0.25000000 -0.00925000 0.00000000
v 0.25462499 -0.00801073 0.03800000
v 0.25462499 -0.00801073 0.00000000
v 0.25801072 -0.00462500 0.03800000
v -0.15363139 0.20720340 0.00000000
v -0.15510480 0.21650630 0.00000000
v -0.15510480 0.24176519 0.00000000
v -0.09489519 0.24176519 0.00000000
v -0.09489519 0.21650630 0.00000000
v -0.09636863 0.20720340 0.00000000
v -0.10064470 0.19881120 0.00000000
v -0.13430290 0.18787500 0.00000000
v -0.14269520 0.19215101 0.00000000
v -0.14935531 0.19881120 0.00000000
v -0.10730480 0.19215101 0.00000000
v -0.11569709 0.18787500 0.00000000
v -0.12500000 0.18640150 0.00000000
v -0.15510480 0.24176519 0.00500000
v -0.09489519 0.24176519 0.00500000
v 0.25217029 0.03895143 0.03800000
v 0.25212470 0.03922839 0.03800000
v 0.24713260 0.06230116 0.03800000
v 0.24697049 0.06279583 0.03800000
v 0.23897329 0.08719480 0.03800000
v 0.23877621 0.08762939 0.03800000
v 0.22815320 0.11105260 0.03800000
v 0.22793211 0.11142579 0.03800000
v 0.21480091 0.13359100 0.03800000
v 0.21456650 0.13390329 0.03800000
v 0.19907498 0.15454249 0.03800000
v 0.19883771 0.15479571 0.03800000
v 0.18116219 0.17365800 0.03800000
v 0.18093170 0.17385560 0.03800000
v 0.16127549 0.19071041 0.03800000
v 0.16106069 0.19085729 0.03800000
v 0.13965100 0.20549719 0.03800000
v 0.11654570 0.21784268 0.03800000
v 0.13945970 0.20559940 0.03800000
v 0.09223402 0.22760031 0.03800000
v 0.11638469 0.21790731 0.03800000
v 0.06700481 0.23465391 0.03800000
v 0.09210869 0.22763531 0.03800000
v 0.04115778 0.23892000 0.03800000
v 0.06691920 0.23466809 0.03800000
v 0.04111446 0.23892230 0.03800000
v 0.01500000 0.24034759 0.03800000
v 0.25217029 -0.03895143 0.03800000
v 0.25212470 -0.03922839 0.03800000
v 0.26066160 -0.03200164 0.03800000
v 0.26066160 0.03200164 0.03800000
v 0.26952270 0.03200164 0.03800000
v 0.27684757 0.02467669 0.03800000
v 0.27684757 -0.02467669 0.03800000
v 0.26952270 -0.03200164 0.03800000
v 0.01500000 -0.24034759 0.03800000
v 0.04111446 -0.23892230 0.03800000
v 0.04115778 -0.23892000 0.03800000
v 0.06691920 -0.23466809 0.03800000
v 0.06700481 -0.23465391 0.03800000
v 0.09210869 -0.22763531 0.03800000
v 0.09223402 -0.22760031 0.03800000
v 0.11638469 -0.21790731 0.03800000
v 0.11654570 -0.21784268 0.03800000
v 0.13945970 -0.20559940 0.03800000
v 0.13965100 -0.20549719 0.03800000
v 0.16106069 -0.19085729 0.03800000
v 0.16127549 -0.19071041 0.03800000
v 0.18093170 -0.17385560 0.03800000
v 0.18116219 -0.17365800 0.03800000
v 0.19883771 -0.15479571 0.03800000
v 0.19907498 -0.15454249 0.03800000
v 0.21456650 -0.13390329 0.03800000
v 0.21480091 -0.13359100 0.03800000
v 0.22793211 -0.11142579 0.03800000
v 0.22815320 -0.11105260 0.03800000
v 0.23877621 -0.08762939 0.03800000
v 0.23897329 -0.08719480 0.03800000
v 0.24697049 -0.06279583 0.03800000
v 0.24713260 -0.06230116 0.03800000
v -0.15536690 -0.24150310 0.00000000
v -0.15536690 -0.21650630 0.00000000
v -0.15388060 -0.20712249 0.00000000
v -0.14956731 -0.19865720 0.00000000
v -0.11561610 -0.18762571 0.00000000
v -0.10715080 -0.19193910 0.00000000
v -0.09463315 -0.24150310 0.00000000
v -0.09463315 -0.21650630 0.00000000
v -0.09611940 -0.20712249 0.00000000
v -0.10043270 -0.19865720 0.00000000
v -0.14284919 -0.19193910 0.00000000
v -0.13438390 -0.18762571 0.00000000
v -0.12500000 -0.18613951 0.00000000
v -0.09463315 -0.24150310 0.00500000
v -0.15536690 -0.24150310 0.00500000
v -0.34989083 -0.24034759 0.03800000
v -0.35067692 -0.14600000 0.02300000
v -0.35067692 -0.24087140 0.02300000
v -0.15536690 -0.24149999 0.00500000
v -0.09463315 -0.24149999 0.00500000
v -0.36474052 -0.24087140 0.02300000
v -0.36937141 -0.23624040 0.02300000
v -0.36937141 -0.14600000 0.02300000
v -0.36546031 -0.14600000 0.13499999
v -0.36546031 0.14600000 0.13499999
v -0.35067692 0.14600000 0.02300000
v -0.36937141 0.14600000 0.02300000
v -0.09489519 0.24149999 0.00500000
v -0.15510480 0.24149999 0.00500000
v -0.36937141 0.23624040 0.02300000
v -0.35067692 0.24087140 0.02300000
v -0.36474052 0.24087140 0.02300000
v -0.34989083 0.24034759 0.03800000
v 0.22640920 -0.00858635 0.00000000
v 0.24564059 -0.02472342 0.00000000
v 0.23744760 -0.02174141 0.00000000
v 0.23076861 -0.01613706 0.00000000
v 0.26923141 -0.01613706 0.00000000
v 0.26255238 -0.02174141 0.00000000
v 0.25435942 -0.02472342 0.00000000
v 0.27359077 0.00858635 0.00000000
v 0.27510479 0.00000000 0.00000000
v 0.27359077 -0.00858635 0.00000000
v 0.25435942 0.02472342 0.00000000
v 0.26255238 0.02174141 0.00000000
v 0.26923141 0.01613706 0.00000000
v 0.22489521 0.00000000 0.00000000
v 0.22640920 0.00858635 0.00000000
v 0.23076861 0.01613706 0.00000000
v 0.23744760 0.02174141 0.00000000
v 0.24564059 0.02472342 0.00000000
v -0.15510480 0.21650630 0.00500000
v -0.09489519 0.21650630 0.00500000
v -0.09636863 0.20720340 0.00500000
v -0.10064470 0.19881120 0.00500000
v -0.10730480 0.19215101 0.00500000
v -0.11569709 0.18787500 0.00500000
v -0.12500000 0.18640150 0.00500000
v -0.13430290 0.18787500 0.00500000
v -0.14269520 0.19215101 0.00500000
v -0.14935531 0.19881120 0.00500000
v -0.15363139 0.20720340 0.00500000
v 0.24810930 0.06310564 0.00500000
v 0.25319201 0.03983468 0.00500000
v 0.25265849 0.03953144 0.02150000
v 0.23987249 0.08806015 0.00500000
v 0.22897321 0.11197200 0.00500000
v 0.21554029 0.13455799 0.00500000
v 0.19973280 0.15555079 0.00500000
v 0.18173800 0.17470171 0.00500000
v 0.16176891 0.19178411 0.00500000
v 0.14006199 0.20659558 0.00500000
v 0.11687430 0.21896091 0.00500000
v 0.09248030 0.22873358 0.00500000
v 0.06716891 0.23579790 0.00500000
v 0.01500000 0.24149999 0.00500000
v 0.04123981 0.24007021 0.00500000
v 0.26108387 0.03315403 0.00500000
v 0.26999998 0.03315403 0.00500000
v 0.27800000 0.02515403 0.00500000
v 0.27800000 -0.02515403 0.00500000
v 0.26999998 -0.03315403 0.00500000
v 0.26108387 -0.03315403 0.00500000
v 0.25319201 -0.03983468 0.00500000
v 0.25265849 -0.03953144 0.02150000
v 0.24810930 -0.06310564 0.00500000
v 0.04123981 -0.24007021 0.00500000
v 0.01500000 -0.24149999 0.00500000
v 0.06716891 -0.23579790 0.00500000
v 0.09248030 -0.22873358 0.00500000
v 0.11687430 -0.21896091 0.00500000
v 0.14006199 -0.20659558 0.00500000
v 0.16176891 -0.19178411 0.00500000
v 0.18173800 -0.17470171 0.00500000
v 0.19973280 -0.15555079 0.00500000
v 0.21554029 -0.13455799 0.00500000
v 0.22897321 -0.11197200 0.00500000
v 0.23987249 -0.08806015 0.00500000
v -0.09463315 -0.21650630 0.00500000
v -0.15536690 -0.21650630 0.00500000
v -0.15388060 -0.20712249 0.00500000
v -0.14956731 -0.19865720 0.00500000
v -0.14284919 -0.19193910 0.00500000
v -0.13438390 -0.18762571 0.00500000
v -0.12500000 -0.18613951 0.00500000
v -0.11561610 -0.18762571 0.00500000
v -0.10715080 -0.19193910 0.00500000
v -0.10043270 -0.19865720 0.00500000
v -0.09611940 -0.20712249 0.00500000
v -0.36500087 -0.24149999 0.00500000
v -0.37000000 -0.23650078 0.00500000
v -0.37000000 0.23650078 0.00500000
v -0.36500087 0.24149999 0.00500000
v 0.27510479 0.00000000 0.00500000
v 0.27359077 -0.00858635 0.00500000
v 0.26923141 -0.01613706 0.00500000
v 0.26255238 -0.02174141 0.00500000
v 0.25435942 -0.02472342 0.00500000
v 0.24564059 -0.02472342 0.00500000
v 0.23744760 -0.02174141 0.00500000
v 0.23076861 -0.01613706 0.00500000
v 0.22640920 -0.00858635 0.00500000
v 0.22489521 0.00000000 0.00500000
v 0.22640920 0.00858635 0.00500000
v 0.23076861 0.01613706 0.00500000
v 0.23744760 0.02174141 0.00500000
v 0.24564059 0.02472342 0.00500000
v 0.25435942 0.02472342 0.00500000
v 0.26255238 0.02174141 0.00500000
v 0.26923141 0.01613706 0.00500000
v 0.27359077 0.00858635 0.00500000
f 1 2 3
f 3 4 5
f 6 7 8
f 8 7 3
f 8 3 9
f 9 3 5
f 10 1 11
f 11 1 3
f 11 3 12
f 12 3 7
f 13 14 15
f 15 14 16
f 16 14 17
f 16 17 18
f 18 17 19
f 18 19 20
f 21 22 14
f 14 22 23
f 14 23 24
f 25 26 15
f 15 26 27
f 15 27 13
f 13 27 28
f 29 23 30
f 30 23 31
f 30 31 32
f 33 17 34
f 34 17 14
f 34 14 35
f 35 14 24
f 36 37 38
f 38 37 27
f 38 27 39
f 39 27 26
f 40 31 41
f 41 31 23
f 41 23 42
f 42 23 22
f 43 44 45
f 45 44 46
f 47 48 49
f 49 48 50
f 51 52 53
f 53 52 54
f 55 56 57
f 57 56 58
f 6 59 7
f 7 59 60
f 7 60 12
f 12 60 61
f 12 61 11
f 11 61 62
f 11 62 10
f 10 62 63
f 10 63 1
f 1 63 64
f 1 64 2
f 2 64 65
f 2 65 3
f 3 65 66
f 3 66 4
f 4 66 67
f 4 67 5
f 5 67 68
f 5 68 9
f 9 68 69
f 9 69 8
f 8 69 70
f 8 70 6
f 6 70 59
f 26 71 39
f 39 71 72
f 39 72 38
f 38 72 73
f 38 73 36
f 36 73 74
f 36 74 37
f 37 74 75
f 37 75 27
f 27 75 76
f 27 76 28
f 28 76 77
f 28 77 13
f 13 77 78
f 13 78 14
f 14 78 79
f 14 79 21
f 21 79 80
f 21 80 22
f 22 80 81
f 22 81 42
f 42 81 82
f 42 82 41
f 41 82 83
f 41 83 40
f 40 83 84
f 40 84 31
f 31 84 85
f 31 85 32
f 32 85 86
f 32 86 30
f 30 86 87
f 30 87 29
f 29 87 88
f 29 88 23
f 23 88 89
f 23 89 24
f 24 89 90
f 24 90 35
f 35 90 91
f 35 91 34
f 34 91 92
f 34 92 33
f 33 92 93
f 33 93 17
f 17 93 94
f 17 94 19
f 19 94 95
f 19 95 20
f 20 95 96
f 20 96 18
f 18 96 97
f 18 97 16
f 16 97 98
f 16 98 15
f 15 98 99
f 15 99 25
f 25 99 100
f 25 100 26
f 26 100 71
f 101 102 47
f 47 102 48
f 45 46 103
f 103 46 104
f 105 106 44
f 44 106 107
f 44 107 46
f 46 107 108
f 46 108 104
f 104 108 109
f 110 105 43
f 43 105 44
f 101 47 103
f 103 47 49
f 43 45 110
f 110 45 103
f 110 103 111
f 111 103 49
f 49 50 111
f 111 50 112
f 102 113 48
f 48 113 114
f 48 114 50
f 50 114 115
f 50 115 112
f 112 115 116
f 117 118 51
f 51 118 52
f 57 58 119
f 119 58 120
f 121 122 55
f 55 122 56
f 121 55 123
f 123 55 57
f 51 53 117
f 117 53 123
f 117 123 119
f 119 123 57
f 53 54 123
f 123 54 124
f 118 125 52
f 52 125 126
f 52 126 54
f 54 126 127
f 54 127 124
f 124 127 128
f 122 129 56
f 56 129 130
f 56 130 58
f 58 130 131
f 58 131 120
f 120 131 132
f 133 134 135
f 136 137 138
f 138 137 133
f 138 133 139
f 139 133 135
f 139 135 140
f 141 142 143
f 144 141 145
f 145 141 143
f 145 143 146
f 146 143 147
f 147 143 148
f 147 148 149
f 150 151 152
f 152 151 148
f 152 148 153
f 153 148 143
f 63 154 64
f 64 154 155
f 64 155 65
f 65 155 156
f 65 156 66
f 60 157 61
f 61 157 158
f 61 158 62
f 62 158 159
f 62 159 63
f 63 159 160
f 63 160 154
f 69 161 70
f 70 161 162
f 70 162 59
f 59 162 163
f 59 163 60
f 60 163 164
f 60 164 157
f 156 165 66
f 66 165 166
f 66 166 67
f 67 166 167
f 67 167 68
f 68 167 168
f 68 168 69
f 69 168 169
f 69 169 161
f 84 170 85
f 85 170 171
f 85 171 86
f 86 171 172
f 86 172 87
f 76 173 77
f 77 173 174
f 77 174 78
f 78 174 175
f 78 175 79
f 73 176 74
f 74 176 177
f 74 177 75
f 75 177 178
f 75 178 76
f 76 178 179
f 76 179 173
f 95 180 96
f 96 180 181
f 96 181 97
f 97 181 182
f 97 182 98
f 172 183 87
f 87 183 184
f 87 184 88
f 88 184 185
f 88 185 89
f 89 185 186
f 89 186 90
f 175 187 79
f 79 187 188
f 79 188 80
f 80 188 189
f 80 189 81
f 182 190 98
f 98 190 191
f 98 191 99
f 99 191 192
f 99 192 100
f 100 192 193
f 100 193 71
f 92 194 93
f 93 194 195
f 93 195 94
f 94 195 196
f 94 196 95
f 95 196 197
f 95 197 180
f 189 198 81
f 81 198 199
f 81 199 82
f 82 199 200
f 82 200 83
f 83 200 201
f 83 201 84
f 84 201 202
f 84 202 170
f 193 203 71
f 71 203 204
f 71 204 72
f 72 204 205
f 72 205 73
f 73 205 206
f 73 206 176
f 186 207 90
f 90 207 208
f 90 208 91
f 91 208 209
f 91 209 92
f 92 209 210
f 92 210 194
f 211 114 212
f 212 114 113
f 104 213 214
f 212 113 102
f 101 103 102
f 102 103 104
f 102 104 212
f 212 104 214
f 214 213 215
f 215 213 108
f 215 108 216
f 216 108 107
f 216 107 217
f 217 107 218
f 112 116 219
f 217 106 105
f 110 111 105
f 105 111 112
f 105 112 217
f 217 112 219
f 219 116 220
f 220 116 115
f 220 115 211
f 211 115 114
f 221 222 223
f 223 222 127
f 223 127 224
f 224 127 126
f 224 126 225
f 225 126 226
f 120 132 227
f 225 125 118
f 117 119 118
f 118 119 120
f 118 120 225
f 225 120 227
f 227 132 228
f 228 132 131
f 228 131 229
f 229 131 130
f 229 130 230
f 230 130 129
f 124 222 221
f 230 129 122
f 121 123 122
f 122 123 124
f 122 124 230
f 230 124 221
f 231 136 232
f 232 136 138
f 232 138 233
f 233 138 139
f 233 139 234
f 234 139 140
f 234 140 235
f 235 140 135
f 235 135 236
f 236 135 134
f 236 134 237
f 237 134 133
f 237 133 238
f 238 133 137
f 238 137 231
f 231 137 136
f 239 240 241
f 242 243 143
f 143 243 153
f 239 241 244
f 243 245 153
f 153 245 246
f 153 246 152
f 152 246 247
f 152 247 150
f 150 247 248
f 150 248 151
f 151 248 249
f 151 249 148
f 148 249 149
f 250 242 251
f 251 242 143
f 251 143 252
f 252 143 142
f 252 142 253
f 253 142 141
f 253 141 254
f 254 141 144
f 254 144 255
f 255 144 145
f 255 145 256
f 256 145 146
f 256 146 257
f 257 146 147
f 257 147 241
f 241 147 149
f 241 149 244
f 244 149 249
f 258 156 259
f 259 156 155
f 259 155 260
f 260 155 154
f 260 154 261
f 261 154 160
f 261 160 262
f 262 160 159
f 262 159 263
f 263 159 158
f 263 158 264
f 264 158 157
f 264 157 265
f 265 157 164
f 265 164 266
f 266 164 163
f 266 163 267
f 267 163 162
f 267 162 268
f 268 162 161
f 268 161 269
f 269 161 169
f 269 169 270
f 270 169 168
f 270 168 271
f 271 168 167
f 271 167 272
f 272 167 166
f 272 166 273
f 273 166 165
f 273 165 258
f 258 165 156
f 274 171 275
f 275 171 170
f 275 170 276
f 276 170 202
f 276 202 277
f 277 202 201
f 277 201 278
f 278 201 200
f 278 200 279
f 279 200 199
f 279 199 280
f 280 199 198
f 280 198 281
f 281 198 189
f 281 189 282
f 282 189 188
f 282 188 283
f 283 188 187
f 283 187 284
f 284 187 175
f 284 175 285
f 285 175 174
f 285 174 286
f 286 174 173
f 286 173 287
f 287 173 179
f 287 179 288
f 288 179 178
f 288 178 289
f 289 178 177
f 289 177 290
f 290 177 176
f 290 176 291
f 291 176 206
f 291 206 292
f 292 206 205
f 292 205 293
f 293 205 204
f 293 204 294
f 294 204 203
f 294 203 295
f 295 203 193
f 295 193 296
f 296 193 192
f 296 192 297
f 297 192 191
f 297 191 298
f 298 191 190
f 298 190 299
f 299 190 182
f 299 182 300
f 300 182 181
f 300 181 301
f 301 181 180
f 301 180 302
f 302 180 197
f 302 197 303
f 303 197 196
f 303 196 304
f 304 196 195
f 304 195 305
f 305 195 194
f 305 194 306
f 306 194 210
f 306 210 307
f 307 210 209
f 307 209 308
f 308 209 208
f 308 208 309
f 309 208 207
f 309 207 310
f 310 207 186
f 310 186 311
f 311 186 185
f 311 185 312
f 312 185 184
f 312 184 313
f 313 184 183
f 313 183 314
f 314 183 172
f 314 172 274
f 274 172 171
f 315 316 317
f 317 316 318
f 317 318 319
f 317 320 315
f 315 320 321
f 315 321 322
f 321 323 322
f 322 323 324
f 322 324 325
f 324 326 325
f 325 326 327
f 325 327 328
f 327 329 328
f 328 329 330
f 328 330 331
f 330 332 331
f 331 332 333
f 331 333 334
f 333 335 334
f 334 335 336
f 334 336 337
f 336 338 337
f 337 338 339
f 337 339 340
f 339 341 340
f 340 341 342
f 340 342 343
f 342 344 343
f 343 344 345
f 343 345 346
f 345 347 346
f 346 347 348
f 346 348 349
f 350 351 352
f 352 351 349
f 352 349 353
f 353 349 348
f 354 319 318
f 355 354 356
f 356 354 318
f 356 318 357
f 357 318 316
f 357 358 356
f 356 358 359
f 360 361 362
f 362 361 363
f 362 363 364
f 365 366 367
f 367 366 368
f 366 369 368
f 368 369 370
f 368 370 371
f 370 372 371
f 371 372 373
f 371 373 374
f 373 375 374
f 374 375 376
f 374 376 377
f 376 378 377
f 377 378 379
f 377 379 380
f 379 381 380
f 380 381 382
f 380 382 383
f 382 384 383
f 383 384 385
f 383 385 386
f 385 387 386
f 386 387 388
f 386 388 389
f 388 390 389
f 389 390 391
f 389 391 392
f 391 393 392
f 392 393 394
f 392 394 395
f 394 396 395
f 395 396 397
f 395 397 361
f 361 397 398
f 361 398 363
f 399 400 359
f 364 399 362
f 362 399 359
f 362 359 360
f 360 359 358
f 401 402 367
f 367 402 365
f 403 404 401
f 401 404 405
f 401 405 402
f 403 406 404
f 404 406 407
f 408 409 410
f 410 409 411
f 410 411 412
f 412 411 413
f 412 413 414
f 414 413 415
f 414 415 416
f 416 415 417
f 416 417 418
f 418 417 419
f 418 419 420
f 420 419 421
f 420 421 422
f 422 421 423
f 422 423 424
f 424 423 425
f 424 425 426
f 426 425 427
f 426 427 428
f 428 427 429
f 428 429 430
f 430 429 431
f 430 431 408
f 408 431 409
f 406 432 407
f 407 432 433
f 434 435 212
f 436 437 217
f 217 219 436
f 436 219 220
f 436 220 435
f 435 220 211
f 435 211 212
f 212 214 434
f 434 214 215
f 434 215 437
f 437 215 216
f 437 216 217
f 435 438 436
f 436 438 439
f 440 441 442
f 442 441 443
f 442 443 444
f 444 443 445
f 446 447 448
f 448 447 449
f 448 449 450
f 450 449 451
f 450 451 452
f 452 451 453
f 452 453 454
f 454 453 455
f 454 455 456
f 456 455 457
f 456 457 458
f 458 457 445
f 458 445 459
f 459 445 443
f 440 442 460
f 460 442 444
f 460 444 445
f 453 461 455
f 455 461 460
f 455 460 457
f 457 460 445
f 453 451 461
f 461 451 449
f 461 449 447
f 461 462 460
f 460 462 463
f 463 462 464
f 464 462 465
f 244 466 239
f 239 466 467
f 239 467 240
f 438 467 439
f 439 467 466
f 439 466 465
f 465 466 464
f 351 350 468
f 468 350 469
f 470 471 230
f 472 473 225
f 230 221 470
f 470 221 223
f 470 223 473
f 473 223 224
f 473 224 225
f 225 227 472
f 472 227 228
f 472 228 471
f 471 228 229
f 471 229 230
f 474 472 233
f 471 231 472
f 472 231 232
f 472 232 233
f 249 248 237
f 248 247 237
f 237 247 246
f 237 246 236
f 244 249 466
f 466 249 237
f 466 237 471
f 471 237 238
f 471 238 231
f 233 234 474
f 474 234 235
f 474 235 243
f 243 235 236
f 243 236 245
f 245 236 246
f 250 475 242
f 242 475 474
f 242 474 243
f 343 346 349
f 476 475 477
f 477 475 250
f 361 360 358
f 325 349 322
f 322 349 357
f 322 357 315
f 315 357 316
f 395 368 371
f 395 371 392
f 392 371 374
f 392 374 389
f 389 374 377
f 389 377 386
f 386 377 380
f 386 380 383
f 272 273 357
f 337 340 334
f 334 340 343
f 334 343 331
f 331 343 349
f 331 349 328
f 328 349 325
f 273 258 357
f 357 258 259
f 357 259 358
f 358 259 260
f 358 260 261
f 253 478 252
f 252 478 477
f 252 477 251
f 251 477 250
f 275 276 478
f 478 276 277
f 478 277 278
f 290 291 270
f 270 291 292
f 270 292 269
f 269 292 293
f 269 293 268
f 253 254 478
f 478 254 255
f 478 255 275
f 275 255 256
f 275 256 274
f 274 256 257
f 406 312 313
f 261 262 358
f 358 262 368
f 358 368 361
f 361 368 395
f 301 302 368
f 268 293 267
f 267 293 294
f 267 294 266
f 266 294 295
f 266 295 265
f 265 295 296
f 265 296 297
f 309 310 406
f 406 310 311
f 406 311 312
f 467 432 240
f 240 432 406
f 240 406 241
f 241 406 313
f 241 313 257
f 257 313 314
f 257 314 274
f 278 279 478
f 478 279 280
f 478 280 468
f 351 284 349
f 349 284 285
f 349 285 286
f 403 307 406
f 406 307 308
f 406 308 309
f 262 263 368
f 368 263 264
f 368 264 265
f 368 302 367
f 280 281 468
f 468 281 282
f 468 282 351
f 351 282 283
f 351 283 284
f 286 287 349
f 349 287 288
f 349 288 289
f 297 298 265
f 265 298 299
f 265 299 368
f 368 299 300
f 368 300 301
f 302 303 367
f 367 303 304
f 367 304 401
f 401 304 305
f 401 305 403
f 403 305 306
f 403 306 307
f 272 357 271
f 271 357 349
f 271 349 270
f 270 349 289
f 270 289 290
f 476 477 479
f 479 477 480
f 477 478 480
f 480 478 481
f 469 482 468
f 468 482 481
f 468 481 478
f 483 484 485
f 485 484 486
f 485 486 487
f 487 486 488
f 487 488 489
f 489 488 490
f 489 490 491
f 491 490 492
f 491 492 493
f 493 492 494
f 493 494 495
f 495 494 496
f 495 496 497
f 497 496 498
f 497 498 499
f 499 498 500
f 499 500 501
f 501 500 502
f 501 502 503
f 503 502 504
f 503 504 505
f 505 504 506
f 505 506 483
f 483 506 484
f 507 508 509
f 509 508 510
f 509 510 511
f 511 510 512
f 511 512 513
f 513 512 514
f 513 514 515
f 515 514 516
f 515 516 517
f 517 516 518
f 517 518 519
f 519 518 520
f 519 520 521
f 521 520 522
f 521 522 523
f 523 522 524
f 523 524 525
f 525 524 526
f 525 526 527
f 527 526 528
f 527 528 529
f 529 528 530
f 529 530 507
f 507 530 508
f 499 531 497
f 497 531 532
f 497 532 495
f 495 532 533
f 495 533 493
f 534 535 485
f 485 535 536
f 485 536 483
f 483 536 537
f 483 537 505
f 485 487 534
f 534 487 489
f 534 489 533
f 533 489 491
f 533 491 493
f 503 538 501
f 501 538 539
f 501 539 499
f 499 539 540
f 499 540 531
f 537 541 505
f 505 541 542
f 505 542 503
f 503 542 543
f 503 543 538
f 544 545 533
f 533 545 534
f 355 546 354
f 354 546 547
f 354 547 548
f 319 354 317
f 317 354 548
f 317 548 320
f 320 548 549
f 320 549 321
f 321 549 550
f 321 550 323
f 323 550 551
f 323 551 324
f 324 551 552
f 324 552 326
f 326 552 553
f 326 553 327
f 327 553 554
f 327 554 329
f 329 554 555
f 329 555 330
f 555 556 330
f 330 556 557
f 330 557 332
f 332 557 558
f 332 558 333
f 333 558 559
f 333 559 335
f 335 559 560
f 335 560 336
f 336 560 561
f 336 561 338
f 338 561 562
f 338 562 339
f 563 342 341
f 339 562 341
f 341 562 564
f 341 564 563
f 565 345 344
f 342 563 344
f 344 563 566
f 344 566 565
f 567 348 347
f 345 565 347
f 347 565 568
f 347 568 567
f 569 352 353
f 348 567 353
f 353 567 570
f 353 570 569
f 352 569 350
f 350 569 571
f 350 571 572
f 573 574 575
f 518 516 576
f 576 516 514
f 576 514 577
f 577 514 512
f 577 512 578
f 524 359 526
f 526 359 400
f 526 400 528
f 512 510 578
f 578 510 508
f 578 508 579
f 579 508 530
f 579 530 580
f 580 530 528
f 580 528 575
f 575 528 400
f 575 400 573
f 547 546 576
f 576 546 355
f 576 355 518
f 518 355 356
f 518 356 520
f 520 356 359
f 520 359 522
f 522 359 524
f 400 399 573
f 573 399 364
f 573 364 574
f 574 364 363
f 365 581 582
f 365 582 366
f 366 582 583
f 366 583 369
f 369 583 584
f 369 584 370
f 370 584 585
f 370 585 372
f 372 585 586
f 372 586 373
f 373 586 587
f 373 587 375
f 375 587 588
f 375 588 376
f 376 588 589
f 376 589 378
f 378 589 590
f 378 590 379
f 379 590 591
f 379 591 381
f 381 591 592
f 381 592 382
f 382 592 593
f 382 593 384
f 384 593 594
f 384 594 385
f 385 594 595
f 385 595 387
f 387 595 596
f 387 596 388
f 388 596 597
f 388 597 390
f 390 597 598
f 390 598 391
f 391 598 599
f 391 599 393
f 393 599 600
f 393 600 394
f 394 600 601
f 394 601 396
f 396 601 602
f 396 602 397
f 397 602 603
f 397 603 398
f 398 603 604
f 398 604 363
f 363 604 605
f 363 605 574
f 606 607 422
f 422 607 608
f 422 608 420
f 420 608 609
f 420 609 418
f 416 610 414
f 414 610 611
f 414 611 412
f 422 424 606
f 606 424 426
f 606 426 612
f 612 426 428
f 428 430 612
f 612 430 408
f 612 408 613
f 613 408 410
f 613 410 614
f 614 410 412
f 614 412 615
f 615 412 611
f 609 616 418
f 418 616 617
f 418 617 416
f 416 617 618
f 416 618 610
f 619 620 612
f 612 620 606
f 405 581 402
f 402 581 365
f 425 423 433
f 433 423 421
f 433 421 407
f 409 431 405
f 405 431 429
f 405 429 433
f 433 429 427
f 433 427 425
f 409 405 411
f 411 405 404
f 411 404 413
f 421 419 407
f 407 419 417
f 407 417 404
f 404 417 415
f 404 415 413
f 433 432 621
f 621 432 467
f 621 467 434
f 434 467 438
f 434 438 435
f 434 437 621
f 621 437 622
f 621 622 623
f 624 620 625
f 625 620 619
f 626 623 627
f 627 623 622
f 627 622 628
f 447 446 461
f 461 446 629
f 436 439 465
f 465 462 436
f 436 462 461
f 436 461 437
f 437 461 629
f 437 629 622
f 622 629 628
f 446 448 629
f 629 448 450
f 629 450 452
f 458 630 456
f 456 630 629
f 456 629 454
f 454 629 452
f 458 459 630
f 630 459 443
f 630 443 441
f 464 466 471
f 631 632 470
f 470 632 630
f 470 630 471
f 441 440 630
f 630 440 460
f 630 460 471
f 471 460 463
f 471 463 464
f 572 482 350
f 350 482 469
f 545 544 633
f 633 544 634
f 632 631 635
f 635 631 636
f 635 636 637
f 636 631 638
f 638 631 470
f 638 470 473
f 475 476 479
f 472 474 473
f 473 474 475
f 473 475 638
f 638 475 479
f 506 481 484
f 484 481 482
f 484 482 486
f 506 504 481
f 481 504 502
f 481 502 480
f 502 500 480
f 480 500 498
f 480 498 479
f 479 498 496
f 479 496 494
f 494 492 479
f 479 492 490
f 479 490 482
f 482 490 488
f 482 488 486
f 521 523 639
f 527 640 525
f 525 640 641
f 525 641 523
f 523 641 642
f 523 642 639
f 507 643 529
f 529 643 644
f 529 644 527
f 527 644 645
f 527 645 640
f 511 646 509
f 509 646 647
f 509 647 507
f 507 647 648
f 507 648 643
f 515 649 513
f 513 649 650
f 513 650 511
f 511 650 651
f 511 651 646
f 639 652 521
f 521 652 653
f 521 653 519
f 519 653 654
f 519 654 517
f 517 654 655
f 517 655 515
f 515 655 656
f 515 656 649
f 544 533 634
f 634 533 532
f 634 532 657
f 535 658 659
f 535 659 536
f 536 659 660
f 536 660 537
f 537 660 661
f 537 661 541
f 541 661 662
f 541 662 542
f 542 662 663
f 542 663 543
f 543 663 664
f 543 664 538
f 538 664 665
f 538 665 539
f 539 665 666
f 539 666 540
f 540 666 667
f 540 667 531
f 531 667 657
f 531 657 532
f 658 535 633
f 633 535 534
f 633 534 545
f 668 549 548
f 669 668 670
f 670 668 548
f 670 548 547
f 549 668 550
f 550 668 671
f 550 671 551
f 551 671 552
f 552 671 672
f 552 672 553
f 553 672 554
f 554 672 673
f 554 673 555
f 555 673 556
f 556 673 674
f 556 674 557
f 557 674 558
f 558 674 675
f 558 675 559
f 559 675 560
f 560 675 676
f 560 676 561
f 561 676 562
f 562 676 677
f 562 677 564
f 564 677 563
f 563 677 678
f 563 678 566
f 679 680 570
f 570 567 679
f 679 567 568
f 679 568 678
f 678 568 565
f 678 565 566
f 681 572 682
f 682 572 571
f 682 571 680
f 680 571 569
f 680 569 570
f 683 669 576
f 576 669 670
f 576 670 547
f 576 577 683
f 683 577 684
f 577 578 684
f 684 578 685
f 578 579 685
f 685 579 686
f 579 580 686
f 686 580 687
f 580 575 687
f 687 575 688
f 689 688 690
f 690 688 575
f 690 575 574
f 690 574 605
f 691 689 690
f 692 582 693
f 693 582 581
f 694 695 586
f 586 585 694
f 694 585 584
f 694 584 692
f 692 584 583
f 692 583 582
f 696 697 590
f 590 589 696
f 696 589 588
f 696 588 695
f 695 588 587
f 695 587 586
f 698 699 594
f 594 593 698
f 698 593 592
f 698 592 697
f 697 592 591
f 697 591 590
f 700 701 598
f 598 597 700
f 700 597 596
f 700 596 699
f 699 596 595
f 699 595 594
f 702 703 602
f 602 601 702
f 702 601 600
f 702 600 701
f 701 600 599
f 701 599 598
f 690 605 691
f 691 605 604
f 691 604 703
f 703 604 603
f 703 603 602
f 619 612 625
f 625 612 613
f 625 613 704
f 607 705 706
f 607 706 608
f 608 706 707
f 608 707 609
f 609 707 708
f 609 708 616
f 616 708 709
f 616 709 617
f 617 709 710
f 617 710 618
f 618 710 711
f 618 711 610
f 610 711 712
f 610 712 611
f 611 712 713
f 611 713 615
f 615 713 714
f 615 714 614
f 614 714 704
f 614 704 613
f 606 620 607
f 607 620 624
f 607 624 705
f 626 715 623
f 623 715 624
f 621 623 433
f 433 623 624
f 433 624 405
f 405 624 625
f 405 625 581
f 581 625 693
f 715 626 716
f 716 626 627
f 716 627 717
f 717 627 628
f 635 717 632
f 632 717 628
f 632 628 630
f 630 628 629
f 635 637 717
f 717 637 718
f 718 637 634
f 634 637 636
f 572 681 482
f 482 681 633
f 482 633 479
f 479 633 634
f 479 634 638
f 638 634 636
f 646 719 647
f 647 719 720
f 647 720 648
f 648 720 721
f 648 721 643
f 643 721 722
f 643 722 644
f 644 722 723
f 644 723 645
f 645 723 724
f 645 724 640
f 640 724 725
f 640 725 641
f 641 725 726
f 641 726 642
f 642 726 727
f 642 727 639
f 639 727 728
f 639 728 652
f 652 728 729
f 652 729 653
f 653 729 730
f 653 730 654
f 654 730 731
f 654 731 655
f 655 731 732
f 655 732 656
f 656 732 733
f 656 733 649
f 649 733 734
f 649 734 650
f 650 734 735
f 650 735 651
f 651 735 736
f 651 736 646
f 646 736 719
f 678 677 676
f 689 726 725
f 716 728 727
f 722 721 686
f 686 687 722
f 722 687 688
f 722 688 723
f 723 688 689
f 723 689 724
f 724 689 725
f 712 711 727
f 717 718 634
f 721 720 686
f 686 720 719
f 686 719 685
f 732 669 733
f 733 669 683
f 733 683 734
f 734 683 684
f 734 684 735
f 735 684 685
f 735 685 736
f 736 685 719
f 666 716 667
f 667 716 717
f 667 717 657
f 657 717 634
f 666 665 716
f 716 665 664
f 716 664 663
f 731 730 716
f 716 730 729
f 716 729 728
f 711 710 727
f 727 710 709
f 727 709 716
f 716 709 708
f 716 708 707
f 624 715 705
f 705 715 716
f 705 716 706
f 706 716 707
f 658 676 675
f 658 675 659
f 659 675 674
f 659 674 673
f 693 625 704
f 663 662 716
f 716 662 669
f 716 669 731
f 731 669 732
f 662 661 669
f 669 661 660
f 669 660 668
f 668 660 659
f 668 659 671
f 671 659 673
f 671 673 672
f 681 682 680
f 689 691 726
f 726 691 714
f 726 714 727
f 727 714 713
f 727 713 712
f 658 633 676
f 676 633 681
f 676 681 678
f 678 681 680
f 678 680 679
f 692 698 697
f 692 697 694
f 694 697 696
f 694 696 695
f 691 703 714
f 714 703 702
f 714 702 701
f 692 693 698
f 698 693 704
f 698 704 699
f 699 704 714
f 699 714 700
f 700 714 701

