# https://github.com/mikedh/trimesh
v 0.00002500 0.00000000 -0.02243082
v 0.06500000 0.00000000 -0.02243082
v 0.00002500 0.00000000 -0.02843082
v 0.06500000 0.00000000 -0.15743081
v -0.00002500 0.00000000 -0.02843082
v -0.06500000 0.00000000 -0.15743081
v -0.00002500 0.00000000 -0.02243082
v -0.06500000 0.00000000 -0.02243082
v -0.00002500 -0.00500000 -0.02243082
v -0.06500000 -0.00500000 -0.02243082
v -0.00002500 -0.00500000 -0.02843082
v -0.06500000 -0.00500000 -0.15743081
v 0.00002500 -0.00500000 -0.02843082
v 0.06500000 -0.00500000 -0.15743081
v 0.00002500 -0.00500000 -0.02243082
v 0.06500000 -0.00500000 -0.02243082
f 1 2 3
f 2 4 3
f 3 4 5
f 4 6 5
f 5 6 7
f 6 8 7
f 9 10 11
f 10 12 11
f 11 12 13
f 12 14 13
f 13 14 15
f 14 16 15
f 16 14 2
f 14 4 2
f 14 12 4
f 12 6 4
f 13 15 3
f 15 1 3
f 15 16 1
f 16 2 1
f 11 13 5
f 13 3 5
f 10 9 8
f 9 7 8
f 9 11 7
f 11 5 7
f 12 10 6
f 10 8 6

