# https://github.com/mikedh/trimesh
v 0.06045542 -0.03394286 -0.21436737
v 0.06107133 -0.03017467 -0.22310092
v 0.06155183 -0.02418440 -0.23049931
v 0.05771380 0.03193117 -0.19133960
v 0.05716044 0.02700605 -0.18319778
v 0.05676174 0.02006216 -0.17668048
v 0.06186131 -0.01641628 -0.23601422
v 0.06155184 -0.02418441 -0.23049943
v 0.05654725 0.01161454 -0.17227080
v 0.05654726 0.01161454 -0.17227086
v 0.05653292 0.00228970 -0.17029619
v 0.05671977 -0.00722086 -0.17090280
v 0.05709395 -0.01621165 -0.17404567
v 0.05762773 -0.02401598 -0.17949191
v 0.06197679 -0.00744650 -0.23923633
v 0.06188973 0.00205978 -0.23992683
v 0.06160657 0.01139739 -0.23803441
v 0.05985295 0.03183936 -0.21914537
v 0.05911190 0.03444089 -0.21000561
v 0.05838078 0.03447227 -0.20050213
v 0.06054897 0.02686061 -0.22724360
v 0.06114832 0.01987388 -0.23369947
v 0.05974980 -0.03520952 -0.20494664
v 0.05900679 -0.03388068 -0.19553733
v 0.05828150 -0.03005492 -0.18683729
v 0.04889207 0.02449649 0.29013106
v 0.04855609 0.01806232 0.29573485
v 0.04839586 0.01030768 0.29930583
v 0.05281173 0.01011815 0.24190609
v 0.05242778 0.01789615 0.24540856
v 0.05302668 0.00166311 0.24073173
v 0.05190592 0.02436713 0.25095540
v 0.05128843 0.02900675 0.25809729
v 0.05128844 0.02900675 0.25809711
v 0.04937658 0.02908881 0.28294846
v 0.05062535 0.03143905 0.26625544
v 0.04997037 0.03146717 0.27476916
v 0.04842439 0.00186064 0.30055460
v 0.04863932 -0.00659440 0.29938036
v 0.05255899 -0.02097274 0.25115538
v 0.04902327 -0.01437239 0.29587790
v 0.05305519 -0.00678393 0.24198063
v 0.05289496 -0.01453857 0.24555160
v 0.04954513 -0.02084338 0.29033101
v 0.05016262 -0.02548300 0.28318915
v 0.05207447 -0.02556506 0.25833794
v 0.05207448 -0.02556506 0.25833777
v 0.05082570 -0.02791530 0.27503103
v 0.05148068 -0.02794341 0.26651734
v 0.05476505 -0.03528301 -0.20532988
v 0.05547068 -0.03401635 -0.21475062
v 0.05608658 -0.03024816 -0.22348407
v 0.05608658 -0.03024816 -0.22348416
v 0.06107133 -0.03017467 -0.22310083
v 0.05656708 -0.02425789 -0.23088256
v 0.05656710 -0.02425789 -0.23088267
v 0.05687657 -0.01648977 -0.23639748
v 0.05699205 -0.00751999 -0.23961957
v 0.05690499 0.00198629 -0.24031007
v 0.05662183 0.01132390 -0.23841766
v 0.05616358 0.01980039 -0.23408271
v 0.05556423 0.02678712 -0.22762685
v 0.05486821 0.03176587 -0.21952862
v 0.05412716 0.03436740 -0.21038885
v 0.05339604 0.03439878 -0.20088537
v 0.05272906 0.03185768 -0.19172284
v 0.05217570 0.02693256 -0.18358102
v 0.05177700 0.01998867 -0.17706372
v 0.05156251 0.01154106 -0.17265405
v 0.05156251 0.01154106 -0.17265411
v 0.05154817 0.00221621 -0.17067944
v 0.05173502 -0.00729435 -0.17128605
v 0.05210921 -0.01628515 -0.17442891
v 0.05264299 -0.02408947 -0.17987515
v 0.05329676 -0.03012841 -0.18722053
v 0.05402205 -0.03395417 -0.19592057
v 0.03266214 0.04101532 -0.29125348
v 0.03275098 0.04176097 -0.29255196
v -0.00127562 0.04051498 -0.29386273
v -0.00118678 0.04126063 -0.29516122
v 0.03219191 0.05130424 -0.28711021
v 0.03210307 0.05055859 -0.28581172
v -0.00174586 0.05080391 -0.28971943
v -0.00183470 0.05005825 -0.28842098
v 0.04804193 0.00158962 0.24034849
v 0.04782699 0.01004466 0.24152285
v 0.04744304 0.01782265 0.24502532
v 0.04692118 0.02429364 0.25057217
v 0.04630369 0.02893326 0.25771403
v 0.04630370 0.02893326 0.25771385
v 0.04564060 0.03136556 0.26587221
v 0.04498563 0.03139368 0.27438590
v 0.04439184 0.02901532 0.28256524
v 0.04390732 0.02442300 0.28974780
v 0.04357134 0.01798883 0.29535159
v 0.04341112 0.01023419 0.29892257
v 0.04343964 0.00178715 0.30017138
v 0.04365457 -0.00666789 0.29899713
v 0.04403852 -0.01444588 0.29549465
v 0.04456039 -0.02091687 0.28994778
v 0.04517788 -0.02555649 0.28280589
v 0.04584096 -0.02798879 0.27464780
v 0.04649593 -0.02801690 0.26613408
v 0.04708973 -0.02563855 0.25795472
v 0.04708974 -0.02563855 0.25795454
v 0.04757424 -0.02104622 0.25077212
v 0.04791022 -0.01461206 0.24516836
v 0.04807045 -0.00685742 0.24159738
v 0.05000731 -0.01791477 -0.14677764
v 0.04958889 -0.01426537 -0.14203510
v 0.04923753 -0.00915342 -0.13844527
v 0.04923753 -0.00915342 -0.13844539
v 0.04900583 -0.00318734 -0.13657565
v 0.04891572 0.00306835 -0.13660325
v 0.04897574 0.00902191 -0.13852555
v 0.04918018 0.01411001 -0.14216024
v 0.04949392 0.01772798 -0.14693484
v 0.04964355 0.02710629 -0.15067931
v 0.05886295 0.00560604 -0.26647094
v 0.05116669 0.05325706 -0.17550504
v 0.05050437 0.04625620 -0.16554788
v 0.04998991 0.03742336 -0.15716270
v 0.05903852 -0.00658259 -0.26641718
v 0.05902603 -0.01852342 -0.26396507
v 0.05470875 0.05871614 -0.22262242
v 0.05375739 0.06093477 -0.21067382
v 0.05282586 0.06074369 -0.19852099
v 0.05195082 0.05815043 -0.18664227
v 0.05850626 0.01756270 -0.26412421
v 0.05798247 0.02881676 -0.25946951
v 0.05731219 0.03892535 -0.25268981
v 0.05652183 0.04749053 -0.24405214
v 0.05564248 0.05417515 -0.23389651
v 0.05564247 0.05417515 -0.23389642
v 0.05882600 -0.02974639 -0.25921124
v 0.05844628 -0.03980992 -0.25234258
v 0.05790183 -0.04831782 -0.24362960
v 0.05721409 -0.05493522 -0.23341532
v 0.05042746 -0.02731754 -0.15043929
v 0.05107164 -0.03767712 -0.15683149
v 0.05184134 -0.04656506 -0.16513853
v 0.05721408 -0.05493522 -0.23341523
v 0.05641009 -0.05940161 -0.22210151
v 0.05552151 -0.06154118 -0.21013369
v 0.05458331 -0.06126989 -0.19798289
v 0.05363244 -0.05859830 -0.18612739
v 0.05270629 -0.05363145 -0.17503364
v 0.03308135 0.03612170 -0.29576755
v -0.00085642 0.03562136 -0.29837677
v 0.03198941 0.04889984 -0.28401539
v -0.00194835 0.04839950 -0.28662461
v 0.03195363 0.04662445 -0.28311366
v -0.00198413 0.04612411 -0.28572291
v 0.03200282 0.04418322 -0.28328529
v -0.00193495 0.04368288 -0.28589454
v 0.03212723 0.04205964 -0.28449622
v -0.00181054 0.04155930 -0.28710547
v 0.03230221 0.04067434 -0.28650656
v -0.00163555 0.04017400 -0.28911579
v 0.03249312 0.04030161 -0.28891820
v -0.00144464 0.03980127 -0.29152745
v 0.03186154 0.05694346 -0.28389460
v -0.00207622 0.05644312 -0.28650385
v 0.05594370 0.02865232 0.19753978
v 0.05217339 0.02861327 0.20099950
v 0.05256986 0.01818917 0.19784163
v 0.05672529 -0.02561072 0.19777909
v 0.06050634 -0.02557147 0.19433089
v 0.06057598 -0.01673573 0.19173087
v 0.05972475 0.02869157 0.19409159
v 0.06004917 0.01983892 0.19156957
v 0.05264642 0.01524934 0.19740953
v 0.06036563 0.00768772 0.18978345
v 0.05285916 0.00708078 0.19620876
v 0.06036564 0.00768772 0.18978333
v 0.05294004 0.00146562 0.19623353
v 0.06054257 -0.00459668 0.18983763
v 0.05295498 -0.02564977 0.20123881
v 0.05305146 -0.01524683 0.19798908
v 0.05304338 -0.01230994 0.19753106
v 0.06054258 -0.00459668 0.18983752
v 0.05302092 -0.00414955 0.19625828
v 0.04079384 -0.00359526 0.33561680
v 0.04083418 -0.00359700 0.33509240
v 0.03653527 -0.00328573 0.33569133
v 0.03234939 -0.00297831 0.33443761
v 0.03224738 -0.00297393 0.33576357
v 0.03211037 0.00653759 0.33572164
v 0.03221238 0.00653321 0.33439565
v 0.03638753 0.00697211 0.33564609
v 0.04067576 0.00740176 0.33504388
v 0.04063541 0.00740350 0.33556828
v 0.04356295 -0.03830589 0.30625561
v 0.04438347 -0.04510026 0.29688618
v 0.04526701 -0.04972253 0.28628057
v 0.04986959 -0.01812746 0.22035751
v 0.04061761 0.01022549 0.33525869
v 0.04060939 0.01303149 0.33482757
v 0.04153905 0.01299159 0.32274336
v 0.04089731 0.00665590 0.33230522
v 0.04108071 0.00463639 0.33030707
v 0.04085736 -0.00641923 0.33533210
v 0.04093001 -0.00922799 0.33492574
v 0.04103450 -0.00286924 0.33234721
v 0.04185967 -0.00926789 0.32284153
v 0.04115992 -0.00086298 0.33033133
v 0.04117685 0.00188428 0.32958430
v 0.04164209 0.02325105 0.31943578
v 0.04978284 0.01848488 0.21446520
v 0.04930349 0.02117408 0.22018419
v 0.04878803 0.03078160 0.22504637
v 0.04378448 0.05320362 0.28582668
v 0.04303309 0.04865151 0.29647273
v 0.04240741 0.04191922 0.30590180
v 0.04193648 0.03331923 0.31367615
v 0.04809729 0.03981176 0.23229915
v 0.04729715 0.04707212 0.24131414
v 0.04642475 0.05222572 0.25167292
v 0.04552061 0.05503321 0.26289454
v 0.04462668 0.05536430 0.27445808
v 0.04963043 -0.02770257 0.22530429
v 0.04919912 -0.03668457 0.23263650
v 0.04860727 -0.04388517 0.24171528
v 0.04225857 -0.01954879 0.31962451
v 0.04284354 -0.02965483 0.31395388
v 0.05054493 0.00803948 0.20655578
v 0.05022030 0.01391693 0.20965122
v 0.05072242 0.00147457 0.20550615
v 0.04617253 -0.05195829 0.27493137
v 0.04705802 -0.05170351 0.26336524
v 0.04788235 -0.04897021 0.25211921
v 0.05073395 -0.00508322 0.20661364
v 0.05057833 -0.01094006 0.20976084
v 0.05027200 -0.01547608 0.21461497
v 0.04561672 -0.01995089 -0.14461039
v 0.04504624 0.01965584 -0.14478506
v 0.04058056 0.02153105 -0.14262573
v 0.04031921 0.01815055 -0.13857822
v 0.04120663 -0.02193482 -0.14243405
v 0.04084751 -0.01852769 -0.13841647
v 0.04039333 -0.01191991 -0.13377617
v 0.04009385 -0.00420811 -0.13135961
v 0.03997738 0.00387798 -0.13139527
v 0.04005494 0.01157360 -0.13387978
v 0.04897573 0.00902191 -0.13852543
v 0.04158205 -0.03006080 -0.14575882
v 0.04058056 0.02153105 -0.14262585
v 0.04228863 -0.04142394 -0.15277013
v 0.04313290 -0.05117276 -0.16188197
v 0.04408164 -0.05892373 -0.17273565
v 0.04509748 -0.06437158 -0.18490383
v 0.04614047 -0.06730193 -0.19790781
v 0.04716954 -0.06759962 -0.21123563
v 0.04814419 -0.06525270 -0.22436266
v 0.04902606 -0.06035366 -0.23677234
v 0.04978044 -0.05309528 -0.24797614
v 0.05037763 -0.04376326 -0.25753310
v 0.05079412 -0.03272493 -0.26506704
v 0.05101354 -0.02041488 -0.27028140
v 0.05102723 -0.00731734 -0.27297100
v 0.05083466 0.00605193 -0.27302998
v 0.05044341 0.01916675 -0.27045596
v 0.04986889 0.03151098 -0.26535031
v 0.04913369 0.04259874 -0.25791398
v 0.04826676 0.05199360 -0.24843960
v 0.04730223 0.05932574 -0.23730016
v 0.04627805 0.06430659 -0.22493403
v 0.04523455 0.06674013 -0.21182808
v 0.04421278 0.06653054 -0.19849803
v 0.04325297 0.06368608 -0.18546858
v 0.04239290 0.05831872 -0.17325270
v 0.04166641 0.05063972 -0.16233099
v 0.04110211 0.04095133 -0.15313342
v 0.04072221 0.02963483 -0.14602210
v 0.06142999 -0.02561111 0.18232487
v 0.06298814 -0.03151242 0.16319008
v 0.06305741 -0.02373878 0.16079840
v 0.06064840 0.02865193 0.18208556
v 0.06233180 0.02663750 0.16057624
v 0.06203836 0.03442670 0.16289929
v 0.06224064 0.01427207 0.16413313
v 0.06233433 0.00146482 0.16537042
v 0.06260969 -0.01135024 0.16424613
v 0.01538952 -0.07081695 0.14326957
v 0.00048771 -0.07103664 0.14212386
v 0.01653606 -0.07086616 0.12836620
v 0.01653607 -0.07086616 0.12836608
v 0.00163425 -0.07108586 0.12722051
v -0.05145957 0.05427005 0.22630653
v -0.05058562 0.04613635 0.21649896
v -0.04982197 0.03623831 0.20846434
v -0.04873756 0.01272404 0.19886872
v -0.04845849 0.00001146 0.19767670
v -0.05765276 0.04643968 0.30836129
v -0.05632583 -0.04568447 0.30876756
v -0.04925868 -0.04598780 0.21690524
v -0.05545190 -0.05381814 0.29896024
v -0.05351040 -0.06362217 0.27558771
v -0.05450123 -0.05987496 0.28775662
v -0.05708948 -0.03578641 0.31680217
v -0.05771353 -0.02450446 0.32275563
v -0.05817389 -0.01227215 0.32639787
v -0.05845298 0.00044044 0.32759017
v -0.05156057 -0.06370586 0.25024277
v -0.05251745 -0.06491567 0.26292071
v -0.05067652 -0.06003912 0.23804106
v -0.05067650 -0.06003912 0.23804088
v -0.04989926 -0.05405647 0.22678426
v -0.05701221 0.05450838 0.29848251
v -0.05623496 0.06049102 0.28722578
v -0.05535091 0.06415771 0.27502418
v -0.05439402 0.06536754 0.26234615
v -0.05340108 0.06407402 0.24967925
v -0.04877940 -0.03614309 0.20878355
v -0.04847982 -0.02490079 0.20273118
v -0.04837146 -0.01269288 0.19898081
v -0.05813204 0.03659498 0.31648296
v -0.05843166 0.02535268 0.32253575
v -0.05853999 0.01314477 0.32628575
v -0.04919795 0.02495636 0.20251130
v -0.05241024 0.06032686 0.23751022
v 0.04030253 0.07476861 -0.14921817
v 0.02830863 0.07458714 -0.15119375
v 0.01986158 0.07445930 -0.15259403
v 0.04952964 -0.06061210 -0.13237724
v 0.05041035 -0.07064009 -0.14190938
v 0.04619722 -0.07068680 -0.14254923
v 0.01653633 0.07440897 -0.15314524
v 0.01691840 0.07828484 -0.15885794
v 0.03963942 0.06557225 -0.13882980
v 0.04882715 0.07611852 -0.14945911
v 0.04954053 0.08288953 -0.16003618
v 0.03336026 0.08230837 -0.16244769
v 0.03336027 0.08230837 -0.16244781
v 0.01732766 0.08172564 -0.16484097
v 0.04808450 0.06600837 -0.13786094
v 0.04750457 0.05415153 -0.12804431
v 0.03906222 0.05377105 -0.12905934
v 0.04710266 0.04086037 -0.12026804
v 0.03866219 0.04054233 -0.12131961
v 0.04688935 0.02648514 -0.11473706
v 0.03844988 0.02623452 -0.11581455
v 0.04687025 0.01140450 -0.11159692
v 0.03843088 0.01122463 -0.11268916
v 0.04704589 -0.00398417 -0.11093048
v 0.03860569 -0.00409176 -0.11202577
v 0.03860569 -0.00409176 -0.11202589
v 0.04741162 -0.01927538 -0.11275528
v 0.04741161 -0.01927538 -0.11275516
v 0.03896970 -0.01931126 -0.11384203
v 0.04795782 -0.03406642 -0.11702318
v 0.03951333 -0.03403274 -0.11808985
v 0.04867007 -0.04796734 -0.12362173
v 0.04022225 -0.04786846 -0.12465756
v 0.04107778 -0.06045388 -0.13337189
v 0.04198412 -0.07073309 -0.14318931
v 0.03134234 0.05315510 -0.27641499
v -0.00259543 0.05265476 -0.27902424
v -0.00222339 0.04734209 -0.28284448
v -0.00148767 0.03441066 -0.28993410
v -0.00133090 0.03106968 -0.29133251
v -0.00133091 0.03106968 -0.29133239
v 0.03260686 0.03157002 -0.28872314
v 0.03171438 0.04784243 -0.28023523
v 0.03245009 0.03491100 -0.28732485
v 0.03260686 0.03157002 -0.28872326
v -0.04999577 0.01776744 -0.28150123
v -0.04961113 0.00458207 -0.28397563
v -0.04941785 -0.00883761 -0.28391635
v -0.04962604 -0.03444823 -0.27629739
v -0.06002979 -0.01502697 -0.14470279
v -0.06032005 -0.00166398 -0.14348981
v -0.05887425 0.05573753 -0.17330211
v -0.05807936 0.06240907 -0.18492036
v -0.05716973 0.06675643 -0.19758531
v -0.04942287 -0.02200625 -0.28132582
v -0.04941784 -0.00883761 -0.28391647
v -0.05307801 0.05911821 -0.24934058
v -0.05002001 -0.04571355 -0.26901305
v -0.05059052 -0.05539535 -0.25973594
v -0.05312799 -0.07179876 -0.22358628
v -0.05217312 -0.06867796 -0.23660450
v -0.05131698 -0.06314348 -0.24880140
v -0.05955428 -0.02791545 -0.14841616
v -0.05812243 -0.05043937 -0.16272067
v -0.05891075 -0.03986356 -0.15449524
v -0.05952569 0.04698299 -0.16315031
v -0.06001012 0.03646180 -0.15483184
v -0.06031004 0.02455419 -0.14864756
v -0.06041461 0.01169070 -0.14482073
v -0.05721784 -0.05926067 -0.17279495
v -0.05622965 -0.06600878 -0.18435402
v -0.05519358 -0.07043964 -0.19698027
v -0.05414709 -0.07239314 -0.21021710
v -0.05409474 0.06473311 -0.23719287
v -0.05514076 0.06793983 -0.22420253
v -0.05617825 0.06862250 -0.21083900
v -0.05055783 0.03024225 -0.27658266
v -0.05127701 0.04155536 -0.26939791
v -0.05212731 0.05129810 -0.26020646
v 0.04298548 -0.02579675 0.20047233
v 0.04308675 -0.01248225 0.19660203
v 0.04298679 0.00131794 0.19525588
v 0.04268907 0.01512662 0.19648027
v 0.04220389 0.02846629 0.20023301
v 0.04370025 0.02840206 0.18078253
v 0.04448184 -0.02586097 0.18102184
v 0.03232588 -0.00654599 0.33542749
v 0.03667448 -0.00966118 0.33491269
v 0.03667441 -0.00966118 0.33491364
v 0.03241878 -0.01009447 0.33489960
v 0.03252262 -0.00234901 0.33206370
v 0.03263109 -0.00061405 0.33032024
v 0.03264570 0.00176179 0.32967457
v 0.03256258 0.00414183 0.33029926
v 0.03240398 0.00588825 0.33202738
v 0.03634315 0.01334181 0.33481124
v 0.03207674 0.01365222 0.33479488
v 0.03208601 0.01010733 0.33535406
v 0.03634308 0.01334181 0.33481219
v 0.03300824 0.01361224 0.32268676
v 0.03728872 0.01330078 0.32271615
v 0.04512020 0.02141453 0.21958400
v 0.04086345 0.02165745 0.21897337
v 0.04035603 0.03105847 0.22377050
v 0.03311145 0.02342384 0.31946293
v 0.03340989 0.03363114 0.31362391
v 0.03388729 0.04234985 0.30574253
v 0.03452162 0.04917511 0.29618314
v 0.03528339 0.05379008 0.28539005
v 0.03613722 0.05598059 0.27386451
v 0.03704349 0.05564493 0.26214123
v 0.03704348 0.05564493 0.26214135
v 0.03796012 0.05279868 0.25076476
v 0.03884456 0.04757400 0.24026288
v 0.03965575 0.04021334 0.23112346
v 0.04568541 -0.01849440 0.21975867
v 0.04144711 -0.01886434 0.21915208
v 0.04183858 -0.01622001 0.21355332
v 0.04133162 0.01897621 0.21339810
v 0.04133163 0.01897621 0.21339798
v 0.04178499 0.01424211 0.20840901
v 0.04212144 0.00815091 0.20520094
v 0.04230537 0.00134719 0.20411326
v 0.04231733 -0.00544915 0.20526092
v 0.04215605 -0.01151899 0.20852262
v 0.04183859 -0.01622001 0.21355321
v 0.04568541 -0.01849440 0.21975861
v 0.03761693 -0.00969995 0.32281736
v 0.03335028 -0.01013445 0.32279149
v 0.03373644 -0.01996706 0.31965429
v 0.03432948 -0.03021263 0.31390545
v 0.03505879 -0.03898312 0.30610120
v 0.03589065 -0.04587131 0.29660231
v 0.03678639 -0.05055746 0.28585026
v 0.03770442 -0.05282402 0.27434433
v 0.03860214 -0.05256577 0.26261845
v 0.03860212 -0.05256577 0.26261857
v 0.03943785 -0.04979471 0.25121722
v 0.04017278 -0.04463954 0.24066955
v 0.04077280 -0.03733947 0.23146547
v 0.04121006 -0.02823343 0.22403198
v 0.04452036 -0.08180842 -0.17405367
v 0.04566675 -0.08604386 -0.18815242
v 0.04681657 -0.08784083 -0.20276317
v 0.04174010 -0.07518335 -0.13916206
v 0.05081311 -0.07067807 -0.25803626
v 0.04341003 -0.07525503 -0.16086863
v 0.04341004 -0.07525503 -0.16086875
v 0.04793707 -0.08714808 -0.21747002
v 0.04899633 -0.08398537 -0.23185401
v 0.04124972 0.07472796 -0.16153020
v 0.04996420 -0.07844272 -0.24550572
v 0.04124971 0.07472796 -0.16153008
v 0.05065643 0.04812169 -0.27877891
v 0.04978204 0.05967104 -0.26962057
v 0.04879388 0.06950939 -0.25865451
v 0.04772010 0.07735662 -0.24619281
v 0.04659126 0.08298925 -0.23259039
v 0.04543952 0.08624688 -0.21823472
v 0.04217250 0.08119408 -0.17477253
v 0.04319823 0.08533633 -0.18890823
v 0.04429767 0.08703673 -0.20353439
v 0.05151889 -0.06091233 -0.26908880
v 0.05206145 -0.04942385 -0.27834871
v 0.05242533 -0.03653960 -0.28555220
v 0.05260016 -0.02262659 -0.29049408
v 0.05258098 -0.00808092 -0.29303384
v 0.05236832 0.00668300 -0.29309896
v 0.05196824 0.02124502 -0.29068756
v 0.05139215 0.03519026 -0.28586853
v 0.04120664 -0.02193482 -0.14243416
v 0.04877738 -0.10042165 -0.11495895
v 0.01642129 -0.10329638 -0.11757282
v 0.01794314 -0.07554168 -0.14268929
v 0.03265806 -0.10185570 -0.11625940
v 0.04777711 -0.08931820 -0.10407793
v 0.04668479 -0.07433956 -0.09274265
v 0.04573943 -0.05792436 -0.08359431
v 0.04753930 0.11810826 -0.14076009
v 0.04664881 0.10983364 -0.12759109
v 0.04570898 0.09789528 -0.11307774
v 0.04493506 0.08405242 -0.10035706
v 0.04434203 0.06857356 -0.08967551
v 0.04434202 0.06857356 -0.08967539
v 0.04394140 0.05175900 -0.08124033
v 0.04374095 0.03393483 -0.07521525
v 0.04374456 0.01544691 -0.07171693
v 0.04395216 -0.00334626 -0.07081351
v 0.04435974 -0.02208015 -0.07252239
v 0.04495937 -0.04039118 -0.07681037
v 0.01515658 0.11993355 -0.14392886
v 0.03140669 0.11901989 -0.14233744
v 0.03140668 0.11901989 -0.14233732
v 0.04462624 0.03224918 0.16800074
v 0.04439195 0.03416654 0.16154256
v 0.04442808 0.02637355 0.15919974
v 0.04471738 0.01399513 0.16271983
v 0.04493787 0.00119799 0.16390419
v 0.04473398 0.01328388 0.16292217
v 0.04515368 -0.02400273 0.15942191
v 0.04510548 -0.01379317 0.16246316
v 0.04508217 -0.01158794 0.16271771
v 0.04496274 -0.00027630 0.16402385
v 0.04493788 0.00119799 0.16390407
v 0.04534173 -0.03177258 0.16183336
v 0.04551987 -0.02979239 0.16827436
v 0.03419956 -0.06494830 0.16528422
v 0.03849503 -0.06513266 0.10944951
v 0.00163426 -0.07108586 0.12722039
v -0.01733417 -0.06595574 0.10515717
v -0.02162964 -0.06577138 0.16099188
v 0.00048772 -0.07103664 0.14212374
v -0.03838521 -0.05474830 0.22066863
v 0.04137078 -0.05357246 0.22680053
v 0.04059834 -0.06084106 0.23824117
v -0.03915764 -0.06201689 0.23210926
v 0.03970032 -0.06575720 0.25086424
v -0.04005567 -0.06693303 0.24473234
v 0.03871055 -0.06813544 0.26419395
v -0.04104543 -0.06931127 0.25806206
v 0.03766634 -0.06788617 0.27772787
v -0.04208964 -0.06906201 0.27159598
v 0.03660707 -0.06501877 0.29095566
v -0.04314891 -0.06619460 0.28482378
v 0.03557268 -0.05964138 0.30337855
v -0.04418330 -0.06081721 0.29724666
v 0.03460212 -0.05195671 0.31452885
v -0.04515387 -0.05313254 0.30839694
v 0.03373206 -0.04225444 0.32398504
v -0.04602393 -0.04343027 0.31785315
v 0.03299519 -0.03090031 0.33139208
v -0.04676080 -0.03207614 0.32526019
v 0.03241939 -0.01832238 0.33646941
v -0.04733659 -0.01949821 0.33033752
v 0.03202634 -0.00499485 0.33902603
v 0.03202627 -0.00499485 0.33902696
v -0.04772964 -0.00617068 0.33289412
v -0.04772971 -0.00617068 0.33289507
v 0.03183081 0.00858000 0.33896616
v 0.03183074 0.00858000 0.33896711
v -0.04792517 0.00740417 0.33283424
v -0.04792524 0.00740417 0.33283520
v 0.03184018 0.02189025 0.33629209
v -0.04791581 0.02071442 0.33016017
v 0.03205412 0.03443428 0.33110395
v -0.04770186 0.03325845 0.32497203
v 0.03246462 0.04573918 0.32359698
v -0.04729137 0.04456335 0.31746510
v 0.03305608 0.05537873 0.31405547
v -0.04669990 0.05420290 0.30792359
v 0.03380633 0.06298956 0.30283776
v -0.04594965 0.06181372 0.29670584
v 0.03468700 0.06828472 0.29036778
v -0.04506899 0.06710888 0.28423589
v 0.03566492 0.07106465 0.27711511
v -0.04409106 0.06988882 0.27098319
v 0.03670324 0.07122452 0.26357937
v -0.04305275 0.07004869 0.25744745
v 0.03776279 0.06875832 0.25027099
v -0.04199320 0.06758250 0.24413911
v 0.03880363 0.06375901 0.23769166
v -0.04095235 0.06258319 0.23155975
v 0.03978654 0.05641506 0.22631547
v -0.03996944 0.05523923 0.22018357
v -0.04440122 0.06488510 0.27597684
v -0.04529310 0.06118597 0.28828663
v -0.04607723 0.05515039 0.29964289
v -0.04672347 0.04701027 0.30960935
v -0.04720702 0.03707850 0.31780320
v -0.04750919 0.02573679 0.32390839
v -0.04761858 0.01342080 0.32769275
v -0.04753070 0.00060401 0.32900751
v -0.04724924 -0.01222110 0.32780582
v -0.04678471 -0.02456171 0.32413021
v -0.04615523 -0.03594342 0.31812525
v -0.04538479 -0.04592900 0.31001922
v -0.04450311 -0.05413466 0.30012485
v -0.04354403 -0.06024507 0.28882214
v -0.04254442 -0.06402545 0.27654535
v -0.04154269 -0.06533043 0.26376638
v -0.04057734 -0.06410988 0.25097626
v -0.03968547 -0.06041069 0.23866659
v -0.03890134 -0.05437509 0.22731026
v -0.03825509 -0.04623501 0.21734373
v -0.03777156 -0.03630325 0.20915006
v -0.03777156 -0.03630325 0.20915018
v -0.03746933 -0.02496154 0.20304428
v -0.03736002 -0.01264555 0.19926077
v -0.03744782 0.00017124 0.19794504
v -0.03772936 0.01299635 0.19914769
v -0.03819382 0.02533696 0.20282246
v -0.03882335 0.03671867 0.20882803
v -0.03882336 0.03671867 0.20882814
v -0.03959377 0.04670425 0.21693386
v -0.04047546 0.05490995 0.22682829
v -0.04143454 0.06102036 0.23813106
v -0.05241023 0.06032686 0.23751004
v -0.04243414 0.06480067 0.25040776
v -0.04343587 0.06610565 0.26318672
v 0.03603895 0.07474637 -0.09375869
v 0.03589680 0.07470890 -0.09190259
v 0.03593553 0.07179230 -0.09184706
v 0.03593554 0.07179230 -0.09184718
v 0.03575410 0.07466727 -0.09003852
v 0.03583876 0.06878954 -0.09001260
v 0.01415199 0.11074429 -0.12910028
v 0.01415198 0.11074429 -0.12910016
v 0.01320030 0.09865543 -0.11440388
v 0.01320031 0.09865543 -0.11440400
v 0.01349299 0.07453959 -0.11358639
v 0.01241661 0.08463804 -0.10152268
v 0.01274330 0.07451035 -0.10382982
v 0.01199543 0.07436315 -0.09407423
v 0.04261097 0.05629383 0.18960208
v -0.03714501 0.05511801 0.18347017
v -0.04847578 0.07340515 -0.16842847
v -0.04847577 0.07340515 -0.16842858
v -0.05230570 0.07356954 -0.11864521
v -0.03775724 0.01992221 -0.29758596
v -0.03833334 0.03386746 -0.29276693
v -0.03906906 0.04679888 -0.28567731
v -0.03994345 0.05834823 -0.27651897
v -0.04755298 0.07987127 -0.18167090
v -0.04652726 0.08401352 -0.19580661
v -0.04542782 0.08571392 -0.21043278
v -0.04428596 0.08492406 -0.22513309
v -0.04313423 0.08166645 -0.23948878
v -0.04200539 0.07603381 -0.25309119
v -0.04093160 0.06818659 -0.26555288
v -0.03735716 0.00536019 -0.29999733
v -0.03714451 -0.00940373 -0.29993221
v -0.03712533 -0.02394940 -0.29739246
v -0.03730016 -0.03786241 -0.29245058
v -0.03766403 -0.05074666 -0.28524712
v -0.03820659 -0.06223514 -0.27598718
v -0.03891237 -0.07200088 -0.26493463
v -0.03976129 -0.07976552 -0.25240409
v -0.04072916 -0.08530819 -0.23875239
v -0.04178842 -0.08847088 -0.22436841
v -0.04290892 -0.08916365 -0.20966154
v -0.04405873 -0.08736667 -0.19505081
v -0.04520513 -0.08313123 -0.18095204
v -0.04631546 -0.07657784 -0.16776702
v -0.04917557 -0.01515285 -0.14234489
v -0.04868966 -0.02832358 -0.14613946
v -0.04803203 -0.04053330 -0.15235175
v -0.04722646 -0.05134068 -0.16075729
v -0.04630205 -0.06035518 -0.17105216
v -0.04529222 -0.06725102 -0.18286440
v -0.04423347 -0.07177898 -0.19576709
v -0.04316406 -0.07377525 -0.20929377
v -0.04316405 -0.07377525 -0.20929392
v -0.04212264 -0.07316782 -0.22295573
v -0.04114686 -0.06997868 -0.23625906
v -0.04027197 -0.06432299 -0.24872303
v -0.03952961 -0.05640519 -0.25989705
v -0.03894659 -0.04651145 -0.26937732
v -0.03854400 -0.03499938 -0.27682120
v -0.03833639 -0.02228501 -0.28195971
v -0.03833125 -0.00882788 -0.28460699
v -0.03852877 0.00488556 -0.28466749
v -0.04961114 0.00458207 -0.28397551
v -0.03892182 0.01835979 -0.28213894
v -0.03949620 0.03110771 -0.27711272
v -0.04023112 0.04266862 -0.26977062
v -0.04110005 0.05262466 -0.26037788
v -0.04207156 0.06061604 -0.24927403
v -0.04311056 0.06635386 -0.23686031
v -0.04417948 0.06963082 -0.22358550
v -0.04523970 0.07032845 -0.20992929
v -0.04523969 0.07032845 -0.20992942
v -0.04625289 0.06842150 -0.19638540
v -0.04718243 0.06397894 -0.18344314
v -0.04799473 0.05716132 -0.17157042
v -0.04866043 0.04821503 -0.16119634
v -0.04915548 0.03746346 -0.15269572
v -0.04946197 0.02529514 -0.14637592
v -0.04956883 0.01214984 -0.14246531
v -0.06041462 0.01169070 -0.14482062
v -0.04947219 -0.00149721 -0.14110534
v -0.06002978 -0.01502697 -0.14470291
v 0.04427666 0.05651891 0.16789371
v 0.04365318 0.05638022 0.17602982
v 0.04344494 0.05633390 0.17874715
v 0.04365317 0.05638022 0.17602994
v 0.04586943 -0.05406123 0.16838138
v 0.04503646 -0.05380555 0.17916666
v 0.04420541 -0.05369413 0.18995449
v -0.03556078 -0.05486953 0.18395524
v -0.03555057 -0.05486996 0.18382259
v 0.01565331 -0.07544339 -0.11292495
v -0.05014538 -0.07641345 -0.11798376
v 0.01794313 -0.07554168 -0.14268917
v -0.04631545 -0.07657784 -0.16776714
v 0.01418841 -0.07575075 -0.09381241
v 0.01414882 -0.07513809 -0.09341503
v 0.01461352 -0.07526866 -0.09943413
v 0.01529451 -0.09091835 -0.10529066
v 0.01490186 -0.07534969 -0.10316893
v 0.03819336 -0.07482588 -0.09309905
v 0.03431224 -0.07487640 -0.09314986
v 0.02617104 -0.07498235 -0.09325638
v 0.01414882 -0.07513809 -0.09341491
v 0.03818575 -0.07470863 -0.09302249
v 0.03818573 -0.07470863 -0.09302237
v 0.03782121 -0.06884447 -0.08940561
v 0.03783749 -0.05808084 -0.08410522
v 0.03780496 -0.04051049 -0.07729910
v 0.03784701 -0.05177489 -0.08099990
v 0.03746877 -0.00343754 -0.07128903
v 0.03762009 -0.01499903 -0.07171459
v 0.03768125 -0.02217944 -0.07300011
v 0.03777952 -0.03370915 -0.07506439
v 0.03780496 -0.04051049 -0.07729898
v 0.03679535 0.03384791 -0.07570854
v 0.03703907 0.02289221 -0.07298116
v 0.03717156 0.01535771 -0.07219750
v 0.03737152 0.00399131 -0.07101551
v 0.03737153 0.00399131 -0.07101562
v 0.03584246 0.06867307 -0.08994964
v 0.03614902 0.05896300 -0.08470123
v 0.03634733 0.05168043 -0.08175614
v 0.03662890 0.04133584 -0.07757279
v 0.02401713 0.07455509 -0.09391586
v 0.01199544 0.07436315 -0.09407435
v 0.03790588 -0.07472220 -0.08937969
v 0.03804995 -0.07477615 -0.09124334
v 0.04567467 -0.05427629 0.16220559
v 0.04535861 -0.05477769 0.15211754
v 0.04496221 -0.05540646 0.13946657
v 0.04165782 0.06111110 0.08819841
v 0.04172664 0.06092516 0.09026133
v 0.03628229 0.07411112 -0.07379830
v 0.03595576 0.07451125 -0.08381225
v 0.03950939 0.06701455 0.02376838
v 0.04001538 0.06559309 0.03892760
v 0.04031560 0.06474157 0.04791935
v 0.04353904 0.05728262 0.14521028
v 0.04333070 0.05763724 0.13886556
v 0.04270925 0.05869508 0.11993915
v 0.04270924 0.05869508 0.11993927
v 0.03669736 0.07360260 -0.06107185
v 0.03747014 0.07218743 -0.03757922
v 0.03861830 -0.07373754 -0.06670398
v 0.04031807 -0.06955992 -0.01178951
v 0.03940386 -0.07207907 -0.04144639
v 0.03940387 -0.07207907 -0.04144651
v 0.03783749 -0.05808084 -0.08410516
v 0.03881295 -0.07332670 -0.06044671
v 0.04161322 -0.06533125 0.03051711
v 0.04037610 -0.06937062 -0.00989581
v 0.04423314 -0.05705052 0.11597646
v 0.04415650 -0.05726451 0.11349054
v 0.04348226 -0.05914864 0.09160739
v 0.04471738 0.01399513 0.16271995
v 0.03703906 0.02289221 -0.07298104
v 0.04270340 -0.06162710 0.06619167
v 0.04234674 -0.06283606 0.05452197
v 0.04188766 -0.06439216 0.03950085
v 0.04161323 -0.06533125 0.03051699
v 0.03754907 0.07200563 -0.03519714
v 0.03827765 0.07032715 -0.01320306
v 0.03912409 0.06809707 0.01222348
v 0.03912408 0.06809707 0.01222360
v 0.03950940 0.06701455 0.02376827
v 0.04031561 0.06474157 0.04791923
v 0.03810532 -0.05734103 0.11302424
v 0.03788183 -0.05711279 0.11588745
v 0.03588507 -0.05537780 0.14152603
v 0.03404629 -0.05430760 0.16523728
v 0.03512473 -0.05493526 0.15133074
v 0.03838694 -0.05762842 0.10941641
v -0.01744226 -0.05845150 0.10512408
v -0.01772367 -0.05818641 0.10873350
v -0.01928779 -0.05671259 0.12879494
v -0.02178290 -0.05513068 0.16094495
v -0.02070482 -0.05572975 0.14703751
v -0.02106438 -0.05548050 0.15166639
v -0.05293227 0.07284091 -0.08065546
v -0.05257464 0.07357299 -0.11485313
v -0.05296952 0.07349355 -0.10609183
v -0.05314570 0.07345812 -0.10218483
v -0.05314569 0.07345812 -0.10218489
v -0.05322019 0.07316083 -0.08946410
v -0.05301471 0.07293247 -0.08317692
v -0.05301472 0.07293248 -0.08317680
v -0.05280271 0.07269689 -0.07668996
v -0.05203672 0.07206940 -0.06366226
v -0.05203673 0.07206940 -0.06366214
v -0.05176212 0.07181877 -0.05942676
v -0.05115846 0.07126777 -0.05011464
v -0.05058877 0.07070581 -0.04197340
v -0.05016870 0.07029138 -0.03596944
v -0.04998912 0.07010430 -0.03355695
v -0.04906923 0.06914607 -0.02120057
v -0.04846919 0.06850181 -0.01343837
v -0.04781245 0.06777205 -0.00533800
v -0.04598569 0.06574218 0.01719403
v -0.04538408 0.06507369 0.02461431
v -0.04196065 0.06125170 0.06641258
v -0.04196066 0.06125170 0.06641269
v -0.03718784 0.05642989 0.13267367
v -0.03750193 0.05669010 0.12716170
v -0.03932403 0.05842651 0.10037858
v -0.04073220 0.05991045 0.08186503
v -0.04121551 0.06041975 0.07551083
v -0.03703704 0.05630495 0.13532053
v -0.03649028 0.05585186 0.14491855
v -0.03620046 0.05542363 0.15794650
v -0.03622572 0.05539537 0.15940887
v -0.03640668 0.05519310 0.16987452
v -0.03642245 0.05517540 0.17078999
v -0.03642243 0.05517540 0.17078981
v -0.05015550 -0.07465773 -0.06728527
v -0.05082552 -0.07535701 -0.07940222
v -0.05089119 -0.07548911 -0.08252130
v -0.05110075 -0.07591002 -0.09246150
v -0.05086308 -0.07626663 -0.10543366
v -0.05086309 -0.07626663 -0.10543354
v -0.05086988 -0.07626531 -0.10531546
v -0.05088509 -0.07624189 -0.10446973
v -0.04221423 -0.06479124 0.04109275
v -0.04583860 -0.06949674 -0.00473223
v -0.04984334 -0.07433201 -0.06164117
v -0.04965518 -0.07411578 -0.05878356
v -0.04808008 -0.07230517 -0.03485499
v -0.04793870 -0.07212953 -0.03292972
v -0.04673939 -0.07063925 -0.01659490
v -0.04625449 -0.07003669 -0.00999030
v -0.04166704 -0.06408574 0.04806377
v -0.04166706 -0.06408574 0.04806389
v -0.04018416 -0.06217365 0.06695697
v -0.03922670 -0.06093903 0.07915554
v -0.03720018 -0.05846374 0.10723545
v -0.03760567 -0.05893907 0.10128529
v -0.03867323 -0.06024555 0.08653247
v -0.03503809 -0.05609990 0.14196222
v -0.03539172 -0.05646084 0.13581659
v -0.03578687 -0.05686416 0.12894857
v -0.03664277 -0.05781007 0.11541537
v -0.03528772 -0.05489166 0.18010524
v -0.03471353 -0.05510218 0.16743629
v -0.03466477 -0.05534445 0.15989730
v -0.03463126 -0.05551071 0.15472238
v -0.03491120 -0.05591610 0.14594388
v -0.05176212 0.07181877 -0.05942688
v -0.05015549 -0.07465773 -0.06728539
v -0.03640669 0.05519310 0.16987458
f 1 2 3
f 4 5 6
f 7 6 3
f 8 6 9
f 8 10 11
f 11 12 3
f 8 12 13
f 8 13 14
f 7 15 6
f 6 15 16
f 6 16 17
f 18 19 20
f 20 4 18
f 18 4 6
f 18 6 21
f 21 6 17
f 21 17 22
f 23 1 24
f 24 1 3
f 24 8 25
f 25 8 14
f 26 27 28
f 29 30 31
f 31 30 26
f 30 32 26
f 26 32 33
f 26 34 35
f 35 34 36
f 35 36 37
f 38 39 40
f 40 39 41
f 42 31 43
f 43 31 26
f 43 26 40
f 40 26 28
f 40 28 38
f 41 44 40
f 40 44 45
f 40 45 46
f 47 45 48
f 47 48 49
f 24 50 23
f 23 50 51
f 23 51 1
f 1 51 52
f 1 53 54
f 2 53 55
f 2 56 3
f 8 56 57
f 8 57 7
f 7 57 58
f 7 58 15
f 15 58 59
f 15 59 16
f 16 59 60
f 16 60 17
f 17 60 61
f 17 61 22
f 22 61 62
f 22 62 21
f 21 62 63
f 21 63 18
f 18 63 64
f 18 64 19
f 19 64 65
f 19 65 20
f 20 65 66
f 20 66 4
f 4 66 67
f 4 67 5
f 5 67 68
f 5 68 6
f 6 68 69
f 6 70 9
f 10 70 71
f 10 71 11
f 11 71 72
f 11 72 12
f 12 72 73
f 12 73 13
f 13 73 74
f 13 74 14
f 14 74 75
f 14 75 25
f 25 75 76
f 25 76 24
f 24 76 50
f 77 78 79
f 79 78 80
f 81 82 83
f 83 82 84
f 42 85 31
f 31 85 86
f 31 86 29
f 29 86 87
f 29 87 30
f 30 87 88
f 30 88 32
f 32 88 89
f 32 90 33
f 34 90 91
f 34 91 36
f 36 91 92
f 36 92 37
f 37 92 93
f 37 93 35
f 35 93 94
f 35 94 26
f 26 94 95
f 26 95 27
f 27 95 96
f 27 96 28
f 28 96 97
f 28 97 38
f 38 97 98
f 38 98 39
f 39 98 99
f 39 99 41
f 41 99 100
f 41 100 44
f 44 100 101
f 44 101 45
f 45 101 102
f 45 102 48
f 48 102 103
f 48 103 49
f 49 103 104
f 49 105 46
f 47 105 106
f 47 106 40
f 40 106 107
f 40 107 43
f 43 107 108
f 43 108 42
f 42 108 85
f 109 76 75
f 75 74 109
f 109 74 73
f 109 73 110
f 110 73 72
f 110 72 111
f 112 72 71
f 112 71 113
f 113 71 114
f 115 114 116
f 116 114 71
f 116 71 117
f 117 71 69
f 117 70 118
f 118 70 68
f 60 59 119
f 66 120 67
f 67 120 121
f 67 121 68
f 68 121 122
f 68 122 118
f 119 59 123
f 123 59 58
f 123 58 124
f 63 125 64
f 64 125 126
f 64 126 65
f 65 126 127
f 65 127 66
f 66 127 128
f 66 128 120
f 119 129 60
f 60 129 130
f 60 130 61
f 61 130 131
f 61 131 62
f 62 131 132
f 62 132 63
f 63 132 133
f 63 134 125
f 124 58 135
f 135 58 57
f 135 57 136
f 136 57 55
f 136 56 137
f 137 56 52
f 137 53 138
f 109 139 76
f 76 139 140
f 76 140 141
f 142 53 143
f 143 53 51
f 143 51 144
f 144 51 50
f 144 50 145
f 145 50 76
f 145 76 146
f 146 76 141
f 146 141 147
f 78 148 80
f 80 148 149
f 84 82 150
f 84 150 151
f 151 150 152
f 151 152 153
f 153 152 154
f 153 154 155
f 155 154 156
f 155 156 157
f 157 156 158
f 157 158 159
f 159 158 160
f 159 160 161
f 161 160 77
f 161 77 79
f 162 81 163
f 163 81 83
f 164 165 166
f 167 168 169
f 164 166 170
f 170 166 171
f 171 166 172
f 171 172 173
f 172 174 173
f 175 174 176
f 175 176 177
f 178 167 179
f 179 167 169
f 179 169 180
f 180 169 177
f 180 181 182
f 182 181 176
f 183 184 185
f 185 184 186
f 185 186 187
f 188 189 190
f 190 189 191
f 190 191 192
f 193 194 195
f 196 87 86
f 197 192 198
f 198 192 191
f 198 191 199
f 199 191 200
f 199 200 201
f 183 202 184
f 184 202 203
f 184 203 204
f 204 203 205
f 204 205 206
f 206 101 100
f 97 207 98
f 98 207 206
f 98 206 99
f 99 206 100
f 95 208 96
f 96 208 199
f 96 199 97
f 97 199 201
f 97 201 207
f 196 209 87
f 87 209 210
f 87 210 88
f 211 91 210
f 210 91 89
f 210 90 88
f 92 212 93
f 93 212 213
f 93 213 94
f 94 213 214
f 94 214 95
f 95 214 215
f 95 215 208
f 216 217 211
f 211 217 218
f 211 218 91
f 91 218 219
f 91 219 92
f 92 219 220
f 92 220 212
f 86 85 196
f 196 85 108
f 196 108 221
f 221 108 107
f 221 107 222
f 222 107 106
f 222 106 223
f 223 106 104
f 206 205 101
f 101 205 224
f 101 224 225
f 226 227 228
f 228 227 209
f 225 193 101
f 101 193 195
f 101 195 102
f 102 195 229
f 102 229 103
f 103 229 230
f 103 230 104
f 105 230 231
f 105 231 223
f 232 228 233
f 233 228 209
f 233 209 234
f 234 209 196
f 235 109 110
f 236 237 238
f 239 235 240
f 240 235 110
f 240 110 241
f 241 110 111
f 241 112 242
f 242 112 113
f 242 113 243
f 243 113 114
f 243 114 244
f 244 114 245
f 244 115 238
f 238 115 116
f 238 116 236
f 236 116 117
f 236 117 118
f 235 239 246
f 236 118 247
f 109 235 139
f 139 235 246
f 139 246 140
f 140 246 248
f 140 248 141
f 141 248 249
f 141 249 147
f 147 249 250
f 147 250 146
f 146 250 251
f 146 251 145
f 145 251 252
f 145 252 144
f 144 252 253
f 144 253 143
f 143 253 254
f 143 254 138
f 142 254 255
f 142 255 137
f 137 255 256
f 137 256 136
f 136 256 257
f 136 257 135
f 135 257 258
f 135 258 124
f 124 258 259
f 124 259 123
f 123 259 260
f 123 260 119
f 119 260 261
f 119 261 129
f 129 261 262
f 129 262 130
f 130 262 263
f 130 263 131
f 131 263 264
f 131 264 132
f 132 264 265
f 132 265 133
f 134 265 266
f 134 266 125
f 125 266 267
f 125 267 126
f 126 267 268
f 126 268 127
f 127 268 269
f 127 269 128
f 128 269 270
f 128 270 120
f 120 270 271
f 120 271 121
f 121 271 272
f 121 272 122
f 122 272 273
f 122 273 118
f 118 273 274
f 118 274 247
f 169 168 275
f 275 276 277
f 170 171 278
f 278 171 173
f 278 175 275
f 275 175 177
f 275 181 169
f 279 280 281
f 281 280 278
f 281 278 282
f 282 278 275
f 282 275 283
f 283 275 277
f 284 285 286
f 287 285 288
f 289 290 291
f 292 293 294
f 295 296 297
f 297 296 298
f 297 298 299
f 295 300 301
f 295 301 296
f 296 301 302
f 296 302 303
f 304 305 306
f 307 305 298
f 307 298 308
f 308 298 296
f 309 310 311
f 309 311 294
f 294 311 312
f 294 312 313
f 314 296 315
f 315 296 294
f 315 294 316
f 316 294 293
f 317 294 318
f 318 294 296
f 318 296 319
f 319 296 303
f 320 292 291
f 291 292 294
f 291 294 289
f 289 294 313
f 289 313 321
f 322 323 324
f 325 326 327
f 324 328 329
f 330 322 331
f 331 322 324
f 331 324 332
f 332 324 329
f 332 329 333
f 334 329 335
f 331 336 330
f 330 336 337
f 330 337 338
f 338 337 339
f 338 339 340
f 340 339 341
f 340 341 342
f 342 341 343
f 342 343 344
f 344 343 345
f 344 345 346
f 347 345 348
f 347 349 350
f 350 349 351
f 350 351 352
f 352 351 353
f 352 353 354
f 354 353 325
f 354 325 355
f 355 325 327
f 355 327 356
f 357 162 358
f 358 162 163
f 359 358 151
f 151 358 84
f 84 358 163
f 84 163 83
f 151 153 359
f 359 153 155
f 359 155 360
f 155 157 360
f 360 157 159
f 360 159 361
f 362 159 161
f 362 161 149
f 149 161 79
f 149 79 80
f 148 363 149
f 149 363 361
f 148 78 77
f 364 152 357
f 357 152 150
f 357 150 162
f 162 150 82
f 162 82 81
f 365 156 364
f 364 156 154
f 364 154 152
f 148 77 366
f 363 77 160
f 363 160 365
f 365 160 158
f 365 158 156
f 367 368 369
f 370 371 372
f 373 374 370
f 370 374 375
f 376 370 369
f 377 370 378
f 370 379 380
f 381 370 382
f 382 370 380
f 382 380 383
f 371 370 384
f 384 370 385
f 384 385 386
f 387 373 388
f 388 373 370
f 388 370 389
f 389 370 372
f 389 372 390
f 391 385 392
f 392 385 370
f 392 370 393
f 393 370 381
f 393 381 394
f 395 378 396
f 396 378 370
f 396 370 397
f 397 370 375
f 398 367 399
f 399 367 369
f 399 377 400
f 400 377 378
f 178 179 401
f 401 179 402
f 179 180 402
f 402 180 182
f 402 182 403
f 182 176 403
f 403 176 174
f 403 174 404
f 165 405 166
f 166 405 404
f 166 404 172
f 172 404 174
f 170 278 164
f 164 278 406
f 164 406 165
f 165 406 405
f 178 401 167
f 167 401 407
f 167 407 168
f 168 407 275
f 185 187 408
f 409 203 202
f 183 185 202
f 202 185 408
f 202 408 410
f 409 408 411
f 186 184 412
f 412 184 204
f 412 204 413
f 413 204 206
f 413 206 414
f 414 206 207
f 414 207 415
f 415 207 201
f 415 201 416
f 416 201 200
f 416 200 189
f 189 200 191
f 417 418 419
f 190 192 197
f 419 188 190
f 190 197 419
f 419 197 198
f 419 198 420
f 421 418 422
f 422 418 420
f 422 417 199
f 199 417 198
f 422 199 208
f 423 424 425
f 421 422 426
f 426 422 208
f 426 208 427
f 427 208 215
f 427 215 428
f 428 215 214
f 428 214 429
f 429 214 213
f 429 213 430
f 430 213 212
f 430 212 431
f 431 212 220
f 431 220 432
f 433 220 219
f 433 219 434
f 434 219 218
f 434 218 435
f 435 218 217
f 435 217 436
f 436 217 216
f 436 216 425
f 425 216 211
f 425 211 423
f 423 211 210
f 423 210 209
f 437 438 439
f 424 423 440
f 441 423 209
f 441 209 442
f 442 209 227
f 442 227 443
f 443 227 226
f 443 226 444
f 444 226 228
f 444 228 445
f 445 228 232
f 445 232 446
f 446 232 233
f 446 233 439
f 447 233 234
f 447 234 448
f 437 234 196
f 437 196 221
f 449 450 451
f 437 221 438
f 205 449 224
f 224 449 451
f 224 451 225
f 225 451 452
f 225 452 193
f 193 452 453
f 193 453 194
f 194 453 454
f 194 454 195
f 195 454 455
f 195 455 229
f 229 455 456
f 229 456 230
f 230 456 457
f 230 458 231
f 231 458 459
f 231 459 223
f 223 459 460
f 223 460 222
f 222 460 461
f 222 461 221
f 221 461 462
f 221 462 438
f 205 203 449
f 449 203 410
f 449 409 450
f 450 409 411
f 338 340 342
f 463 464 465
f 356 466 467
f 467 466 468
f 467 469 463
f 465 470 471
f 238 472 244
f 244 472 322
f 244 322 330
f 463 465 467
f 467 465 471
f 467 471 473
f 256 255 467
f 238 237 474
f 472 237 274
f 472 274 273
f 256 467 257
f 263 475 264
f 264 475 476
f 264 476 265
f 265 476 477
f 265 477 266
f 266 477 478
f 266 478 267
f 267 478 479
f 267 479 268
f 268 479 480
f 268 480 269
f 255 254 467
f 467 254 253
f 467 253 356
f 356 253 252
f 356 252 251
f 273 272 474
f 472 272 271
f 472 271 481
f 481 271 270
f 481 270 482
f 482 270 269
f 482 269 483
f 483 269 480
f 467 484 257
f 257 484 485
f 257 485 258
f 258 485 486
f 258 486 259
f 259 486 487
f 259 487 260
f 260 487 488
f 260 488 261
f 261 488 489
f 261 489 262
f 262 489 490
f 262 490 263
f 263 490 491
f 263 491 475
f 251 250 356
f 356 250 249
f 356 249 355
f 355 249 248
f 355 248 354
f 330 338 244
f 244 338 342
f 244 342 243
f 243 342 344
f 243 344 242
f 242 344 346
f 242 347 241
f 241 347 350
f 241 350 240
f 240 350 352
f 240 352 492
f 239 352 354
f 239 354 246
f 246 354 248
f 327 326 493
f 494 495 496
f 496 495 466
f 496 466 493
f 493 466 356
f 493 356 327
f 493 326 497
f 497 326 325
f 497 325 498
f 498 325 353
f 498 353 499
f 499 353 351
f 332 500 331
f 331 500 501
f 331 501 336
f 336 501 502
f 336 502 337
f 502 503 337
f 337 503 504
f 337 505 339
f 339 505 506
f 339 506 341
f 341 506 507
f 341 507 343
f 343 507 508
f 343 508 345
f 345 508 509
f 345 509 348
f 349 509 510
f 349 510 351
f 351 510 511
f 351 511 499
f 335 512 333
f 334 512 513
f 334 514 332
f 332 514 500
f 406 278 515
f 515 278 280
f 515 280 516
f 279 517 280
f 280 517 516
f 279 281 517
f 517 281 518
f 282 519 281
f 281 519 520
f 281 520 518
f 283 277 521
f 521 522 283
f 283 522 523
f 283 523 282
f 282 523 524
f 282 524 525
f 276 526 277
f 277 526 521
f 275 407 276
f 276 407 527
f 276 527 526
f 528 284 529
f 529 284 286
f 530 531 286
f 287 531 529
f 285 532 288
f 530 532 531
f 284 528 533
f 285 528 532
f 534 535 536
f 534 536 537
f 537 536 538
f 537 538 539
f 539 538 540
f 539 540 541
f 541 540 542
f 541 542 543
f 543 542 544
f 543 544 545
f 545 544 546
f 545 546 547
f 547 546 548
f 547 548 549
f 549 548 550
f 549 550 551
f 551 550 552
f 551 552 553
f 553 552 554
f 553 554 555
f 555 554 556
f 555 557 558
f 559 557 560
f 559 561 562
f 563 561 564
f 563 564 565
f 565 564 566
f 565 566 567
f 567 566 568
f 567 568 569
f 569 568 570
f 569 570 571
f 571 570 572
f 571 572 573
f 573 572 574
f 573 574 575
f 575 574 576
f 575 576 577
f 577 576 578
f 577 578 579
f 579 578 580
f 579 580 581
f 581 580 582
f 581 582 583
f 583 582 584
f 583 584 585
f 586 311 587
f 587 311 310
f 587 310 588
f 588 310 309
f 588 309 589
f 589 309 294
f 589 294 590
f 590 294 317
f 590 317 591
f 591 317 318
f 591 318 592
f 592 318 319
f 592 319 593
f 593 319 303
f 593 303 594
f 594 303 302
f 594 302 595
f 595 302 301
f 595 301 596
f 596 301 300
f 596 300 597
f 597 300 295
f 597 295 598
f 598 295 297
f 598 297 599
f 599 297 299
f 599 299 600
f 600 299 298
f 600 298 601
f 601 298 305
f 601 305 602
f 602 305 304
f 602 304 603
f 603 304 306
f 603 307 604
f 604 307 308
f 604 308 605
f 605 308 296
f 605 296 606
f 607 296 314
f 607 314 608
f 608 314 315
f 608 315 609
f 609 315 316
f 609 316 610
f 610 316 293
f 610 293 611
f 611 293 292
f 611 292 612
f 612 292 320
f 612 320 613
f 614 320 291
f 614 291 615
f 615 291 290
f 615 290 616
f 616 290 289
f 616 289 617
f 617 289 321
f 617 618 619
f 619 618 313
f 619 313 620
f 620 313 312
f 620 312 586
f 586 312 311
f 621 622 623
f 624 622 625
f 624 625 626
f 627 512 335
f 335 329 628
f 627 329 328
f 627 328 629
f 630 328 631
f 630 631 632
f 632 631 633
f 632 633 634
f 584 635 585
f 585 635 636
f 323 322 324
f 324 322 474
f 324 472 328
f 328 472 637
f 328 638 631
f 631 638 639
f 362 363 490
f 362 640 360
f 360 640 641
f 360 641 642
f 490 363 491
f 364 357 476
f 643 358 642
f 642 358 359
f 642 359 360
f 363 365 491
f 491 365 364
f 491 364 475
f 475 364 476
f 638 472 481
f 638 481 644
f 644 481 482
f 644 482 645
f 645 482 483
f 645 483 646
f 646 483 480
f 646 480 647
f 647 480 479
f 647 479 648
f 648 479 478
f 648 478 649
f 649 478 477
f 649 477 650
f 650 477 476
f 650 476 643
f 643 476 357
f 643 357 358
f 362 490 640
f 640 490 489
f 640 489 651
f 651 489 488
f 651 488 652
f 652 488 487
f 652 487 653
f 653 487 486
f 653 486 654
f 654 486 485
f 654 485 655
f 655 485 484
f 655 484 656
f 656 484 467
f 656 467 657
f 657 467 473
f 657 473 658
f 658 473 471
f 658 471 659
f 659 471 470
f 659 470 660
f 660 470 465
f 660 465 661
f 661 465 464
f 661 464 662
f 662 464 463
f 662 463 663
f 663 463 468
f 663 469 664
f 665 371 666
f 666 371 384
f 666 384 667
f 667 384 386
f 667 386 668
f 668 386 385
f 668 385 669
f 669 385 391
f 669 391 670
f 670 391 392
f 670 392 671
f 671 392 393
f 671 393 672
f 673 393 394
f 673 394 674
f 674 394 381
f 674 381 675
f 675 381 382
f 675 382 676
f 676 382 383
f 676 383 677
f 677 383 380
f 677 380 678
f 678 380 379
f 678 379 679
f 679 379 370
f 679 370 680
f 680 370 376
f 680 376 681
f 681 376 369
f 681 377 682
f 682 377 683
f 682 368 684
f 684 368 367
f 684 367 685
f 685 367 398
f 685 398 686
f 686 398 399
f 686 399 687
f 687 399 400
f 687 400 688
f 688 400 378
f 688 378 689
f 689 378 395
f 689 395 690
f 690 395 396
f 690 396 691
f 692 396 397
f 692 397 693
f 693 397 375
f 693 375 694
f 694 375 374
f 694 374 695
f 695 374 373
f 695 373 696
f 696 373 387
f 696 387 697
f 697 387 388
f 697 388 698
f 698 388 389
f 698 389 699
f 699 389 390
f 699 700 701
f 701 700 372
f 701 372 665
f 665 372 702
f 187 186 412
f 703 704 515
f 515 704 406
f 407 401 535
f 582 580 584
f 584 580 405
f 584 405 635
f 635 405 406
f 635 406 705
f 705 406 706
f 707 527 708
f 708 527 407
f 708 407 709
f 709 407 535
f 188 187 189
f 189 187 412
f 189 412 416
f 416 412 413
f 416 413 415
f 415 413 414
f 554 411 556
f 557 411 408
f 418 564 419
f 419 564 560
f 419 561 188
f 188 561 556
f 188 557 187
f 187 557 408
f 401 446 439
f 580 434 435
f 461 538 401
f 401 538 536
f 401 536 535
f 580 435 405
f 405 435 436
f 405 436 425
f 447 438 401
f 401 438 462
f 401 462 461
f 434 580 432
f 433 580 578
f 433 578 431
f 431 578 576
f 431 576 430
f 430 576 574
f 430 574 429
f 429 574 572
f 429 572 428
f 428 572 570
f 428 570 427
f 427 570 568
f 427 568 426
f 446 401 445
f 445 401 402
f 445 402 444
f 444 402 403
f 444 403 443
f 443 403 404
f 443 404 442
f 442 404 405
f 442 405 440
f 441 405 425
f 441 425 424
f 418 421 564
f 564 421 426
f 564 426 566
f 566 426 568
f 461 460 538
f 538 460 459
f 538 459 540
f 540 459 457
f 540 458 542
f 542 458 456
f 542 456 544
f 544 456 455
f 544 455 546
f 546 455 454
f 546 454 548
f 548 454 453
f 548 453 550
f 550 453 452
f 550 452 552
f 552 452 451
f 552 451 554
f 554 451 450
f 554 450 411
f 535 534 709
f 709 534 710
f 709 710 711
f 712 713 714
f 495 713 664
f 495 715 466
f 466 715 468
f 716 717 718
f 716 718 719
f 719 718 720
f 719 720 494
f 494 720 712
f 494 712 714
f 514 512 628
f 496 493 497
f 719 494 496
f 497 721 722
f 496 497 719
f 719 497 722
f 719 722 716
f 716 722 723
f 716 723 724
f 721 497 725
f 726 497 498
f 726 498 727
f 727 498 499
f 727 499 728
f 511 729 499
f 499 729 730
f 499 730 728
f 510 509 731
f 731 732 510
f 510 732 733
f 510 733 511
f 511 733 734
f 511 734 735
f 508 507 736
f 736 737 508
f 508 737 738
f 508 738 509
f 509 738 739
f 509 740 731
f 506 505 741
f 741 742 506
f 506 742 743
f 506 743 507
f 507 743 744
f 507 744 736
f 626 741 623
f 624 741 504
f 624 505 621
f 621 505 503
f 621 503 745
f 746 745 632
f 632 745 503
f 632 503 629
f 630 503 502
f 630 502 628
f 627 502 501
f 627 501 513
f 514 501 500
f 727 747 725
f 726 747 748
f 726 748 721
f 526 527 707
f 707 749 526
f 526 749 750
f 526 750 521
f 521 750 751
f 752 753 517
f 754 742 741
f 754 741 755
f 755 741 626
f 755 626 625
f 756 757 758
f 703 515 759
f 759 515 516
f 759 516 760
f 760 516 517
f 760 517 761
f 762 517 753
f 754 763 742
f 742 763 764
f 742 764 743
f 747 727 765
f 765 727 728
f 729 766 730
f 730 766 767
f 730 768 728
f 769 768 770
f 769 770 765
f 734 771 735
f 729 771 772
f 729 772 766
f 751 773 521
f 521 773 774
f 521 774 775
f 775 733 521
f 521 733 732
f 521 732 522
f 522 732 731
f 522 731 523
f 524 523 525
f 519 523 731
f 519 731 520
f 520 731 739
f 520 740 518
f 776 740 738
f 776 738 517
f 517 738 777
f 517 737 752
f 775 778 733
f 733 778 779
f 733 779 734
f 734 779 780
f 734 780 781
f 764 782 743
f 743 782 783
f 743 783 744
f 744 783 784
f 744 785 736
f 736 785 786
f 736 756 777
f 737 756 758
f 737 787 752
f 788 789 790
f 791 528 792
f 792 528 529
f 792 529 790
f 790 529 793
f 790 793 788
f 793 529 794
f 794 529 531
f 794 531 795
f 795 531 532
f 795 532 796
f 796 532 797
f 796 797 798
f 798 797 799
f 797 532 791
f 791 532 528
f 604 605 534
f 534 605 710
f 710 605 606
f 710 607 608
f 608 609 710
f 710 609 610
f 710 610 636
f 636 610 611
f 636 611 612
f 594 559 593
f 593 559 562
f 593 563 592
f 592 563 565
f 592 565 591
f 591 565 567
f 591 567 590
f 590 567 569
f 590 569 589
f 589 569 571
f 589 571 588
f 588 571 573
f 588 573 587
f 587 573 575
f 587 575 586
f 586 575 577
f 586 577 620
f 620 577 579
f 620 579 619
f 619 579 581
f 619 581 617
f 617 581 583
f 617 583 616
f 616 583 585
f 616 585 615
f 615 585 636
f 615 636 613
f 614 636 612
f 604 534 603
f 603 534 537
f 603 537 602
f 602 537 539
f 602 539 601
f 601 539 541
f 601 541 600
f 600 541 543
f 600 543 599
f 599 543 545
f 599 545 598
f 598 545 547
f 598 547 597
f 597 547 549
f 597 549 596
f 596 549 551
f 596 551 595
f 595 551 553
f 595 553 594
f 594 553 555
f 594 555 558
f 754 755 800
f 800 755 625
f 622 621 745
f 801 802 639
f 639 802 803
f 639 804 631
f 631 804 805
f 631 805 633
f 633 805 806
f 633 807 634
f 746 807 800
f 746 800 745
f 745 800 625
f 745 625 622
f 800 808 754
f 754 808 809
f 754 810 763
f 810 811 763
f 763 811 812
f 763 812 764
f 764 812 813
f 764 813 782
f 782 813 814
f 782 814 815
f 815 816 782
f 782 816 817
f 782 817 783
f 783 817 818
f 783 818 784
f 785 818 819
f 785 819 786
f 756 819 757
f 757 819 820
f 757 820 758
f 787 820 821
f 787 822 752
f 823 760 824
f 824 760 761
f 824 762 825
f 825 762 753
f 825 753 826
f 826 753 752
f 826 752 827
f 827 752 821
f 823 828 760
f 760 828 829
f 760 829 759
f 759 829 703
f 829 830 703
f 703 830 831
f 703 831 706
f 831 832 706
f 704 832 833
f 704 834 705
f 705 834 636
f 705 636 635
f 697 698 639
f 639 698 699
f 639 699 713
f 699 701 713
f 713 701 665
f 713 665 666
f 666 667 713
f 713 667 668
f 713 668 664
f 715 668 669
f 715 669 663
f 663 669 670
f 663 670 662
f 662 670 671
f 662 671 661
f 661 671 672
f 661 673 660
f 660 673 674
f 660 674 659
f 659 674 675
f 659 675 658
f 658 675 676
f 658 676 657
f 657 676 677
f 657 677 656
f 656 677 678
f 644 690 637
f 638 690 691
f 638 692 693
f 693 694 637
f 638 694 695
f 638 695 639
f 639 695 696
f 639 696 697
f 687 643 686
f 686 643 642
f 686 642 685
f 685 642 641
f 685 641 684
f 684 641 640
f 684 640 682
f 682 640 651
f 682 651 681
f 681 651 652
f 681 652 680
f 680 652 653
f 680 653 679
f 679 653 654
f 679 654 678
f 678 654 655
f 678 655 656
f 644 645 646
f 644 646 690
f 690 646 647
f 690 647 689
f 689 647 648
f 689 648 688
f 688 648 649
f 688 649 687
f 687 649 650
f 687 650 643
f 717 835 836
f 836 837 724
f 717 837 838
f 717 838 718
f 721 748 722
f 722 748 747
f 770 835 765
f 765 835 724
f 765 717 747
f 747 717 723
f 747 723 722
f 713 712 839
f 840 712 720
f 840 720 841
f 841 720 718
f 841 718 842
f 842 718 838
f 843 844 772
f 845 835 846
f 846 835 770
f 846 770 847
f 847 770 767
f 847 768 848
f 848 768 766
f 848 766 849
f 849 766 772
f 849 772 850
f 850 772 844
f 772 771 843
f 843 771 780
f 843 780 851
f 852 780 779
f 852 779 853
f 853 779 778
f 853 778 854
f 795 855 794
f 794 855 856
f 778 775 854
f 854 775 794
f 854 794 857
f 857 794 856
f 798 858 859
f 798 859 796
f 796 859 860
f 796 860 795
f 795 860 861
f 795 861 855
f 709 711 862
f 862 863 797
f 797 863 864
f 797 864 799
f 799 864 865
f 799 865 798
f 798 865 866
f 798 866 858
f 709 862 708
f 708 862 797
f 708 797 791
f 707 708 749
f 749 708 791
f 749 791 750
f 750 791 792
f 750 792 751
f 751 792 790
f 751 790 773
f 773 790 789
f 773 789 774
f 774 789 788
f 774 788 775
f 775 788 793
f 775 793 794
f 813 812 867
f 639 713 801
f 801 713 839
f 801 840 802
f 840 841 802
f 802 841 842
f 802 842 803
f 804 842 838
f 815 814 847
f 847 814 846
f 814 813 846
f 846 813 867
f 846 811 845
f 845 811 809
f 845 810 868
f 835 810 808
f 835 808 836
f 836 808 800
f 836 800 837
f 837 800 806
f 837 807 838
f 838 807 805
f 838 805 803
f 847 848 815
f 815 848 849
f 815 849 816
f 816 849 850
f 816 850 817
f 817 850 844
f 817 844 818
f 824 860 823
f 823 860 859
f 823 859 828
f 828 859 829
f 825 855 824
f 824 855 861
f 824 861 860
f 818 844 819
f 819 844 843
f 819 843 820
f 820 843 851
f 820 852 821
f 822 852 853
f 822 853 827
f 827 853 854
f 827 854 826
f 826 854 857
f 826 857 825
f 825 857 856
f 825 856 855
f 863 862 636
f 636 862 711
f 636 711 710
f 859 858 829
f 829 858 866
f 829 866 830
f 830 866 865
f 830 865 831
f 831 865 864
f 831 864 869
f 832 864 863
f 832 863 833
f 834 863 636

