# https://github.com/mikedh/trimesh
v 0.00176989 -0.00805067 -0.04867544
v 0.00000270 -0.00823694 -0.04867747
v -0.00176461 -0.00805179 -0.04867546
v 0.00176461 0.00857673 -0.04849413
v 0.00176461 0.00857685 -0.04849412
v -0.00176989 0.00857561 -0.04849414
v -0.00176989 0.00857573 -0.04849413
v -0.00000270 0.00876200 -0.04849210
v 0.00345480 0.00802822 -0.04850011
v 0.00499399 0.00714030 -0.04850979
v 0.00631493 0.00595179 -0.04852275
v -0.00345479 -0.00750316 -0.04866947
v -0.00499399 -0.00661535 -0.04865979
v -0.00499399 -0.00661523 -0.04865979
v -0.00631492 -0.00542685 -0.04864683
v -0.00845372 0.00114826 -0.04857513
v -0.00808481 0.00288635 -0.04855618
v -0.00845315 -0.00062857 -0.04859450
v -0.00808314 -0.00236666 -0.04861346
v -0.00808314 -0.00236654 -0.04861346
v -0.00735986 -0.00398960 -0.04863115
v -0.00345972 0.00802603 -0.04850013
v -0.00499835 0.00713712 -0.04850982
v -0.00631853 0.00594778 -0.04852279
v -0.00736256 0.00450987 -0.04853847
v 0.00845372 -0.00062320 -0.04859445
v 0.00808482 -0.00236140 -0.04861340
v 0.00845315 0.00115363 -0.04857507
v 0.00808315 0.00289148 -0.04855612
v 0.00735987 0.00451455 -0.04853842
v 0.00345973 -0.00750096 -0.04866945
v 0.00499836 -0.00661218 -0.04865976
v 0.00499836 -0.00661206 -0.04865976
v 0.00808482 -0.00236152 -0.04861341
v 0.00631854 -0.00542284 -0.04864679
v 0.00736257 -0.00398493 -0.04863111
v -0.00102723 0.00813392 0.00339021
v -0.00203679 0.00794872 0.00338819
v -0.00176769 0.00799804 0.00338873
v -0.00395252 0.00722146 0.00338026
v -0.00345337 0.00744619 0.00338271
v -0.00345972 0.00802615 -0.04850013
v -0.00301665 0.00764290 0.00338486
v -0.00203679 0.00794860 0.00338819
v -0.00563855 0.00605703 0.00336757
v -0.00499222 0.00656349 0.00337309
v -0.00483076 0.00669025 0.00337447
v -0.00735075 0.00393707 0.00334445
v -0.00699688 0.00452283 0.00335084
v -0.00636412 0.00533098 0.00335965
v -0.00636412 0.00533086 0.00335965
v -0.00631579 0.00537927 0.00336018
v -0.00752762 0.00364426 0.00334126
v -0.00794858 0.00270815 0.00333105
v -0.00843834 0.00071851 0.00330935
v -0.00825364 0.00172821 0.00332036
v -0.00807059 0.00231617 0.00332677
v -0.00807059 0.00231629 0.00332677
v -0.00844655 0.00058202 0.00330786
v -0.00844655 0.00058214 0.00330786
v -0.00849999 -0.00030594 0.00329818
v -0.00844599 -0.00119398 0.00328850
v -0.00843769 -0.00133046 0.00328701
v -0.00843769 -0.00133034 0.00328701
v -0.00825235 -0.00233992 0.00327600
v -0.00794667 -0.00331979 0.00326531
v -0.00806892 -0.00292789 0.00326959
v -0.00699382 -0.00513386 0.00324553
v -0.00734806 -0.00454822 0.00325192
v -0.00752511 -0.00425551 0.00325511
v -0.00563451 -0.00666697 0.00322881
v -0.00631219 -0.00598976 0.00323620
v -0.00636054 -0.00594138 0.00323673
v -0.00699382 -0.00513374 0.00324553
v -0.00344845 -0.00805486 0.00321368
v -0.00394775 -0.00783056 0.00321613
v -0.00482632 -0.00729979 0.00322191
v -0.00498786 -0.00717337 0.00322329
v -0.00498786 -0.00717325 0.00322329
v -0.00301161 -0.00825129 0.00321154
v -0.00203155 -0.00855637 0.00320821
v -0.00102187 -0.00874105 0.00320620
v -0.00176241 -0.00860564 0.00320767
v -0.00176241 -0.00860575 0.00320767
v 0.00102725 -0.00874040 0.00320620
v 0.00000271 -0.00880271 0.00320552
v 0.00203682 -0.00855508 0.00320822
v 0.00176771 -0.00860452 0.00320768
v 0.00176771 -0.00860463 0.00320768
v 0.00395255 -0.00782805 0.00321615
v 0.00345340 -0.00805267 0.00321370
v 0.00301668 -0.00824937 0.00321156
v 0.00563858 -0.00666339 0.00322885
v 0.00499225 -0.00717020 0.00322332
v 0.00499225 -0.00717009 0.00322333
v 0.00483078 -0.00729673 0.00322194
v 0.00395255 -0.00782793 0.00321615
v 0.00735078 -0.00454355 0.00325197
v 0.00699691 -0.00512942 0.00324558
v 0.00636414 -0.00593734 0.00323677
v 0.00631582 -0.00598575 0.00323624
v 0.00752764 -0.00425073 0.00325516
v 0.00794861 -0.00331474 0.00326537
v 0.00843836 -0.00132498 0.00328706
v 0.00825366 -0.00233469 0.00327605
v 0.00807061 -0.00292277 0.00326964
v 0.00844658 -0.00118861 0.00328855
v 0.00850001 -0.00030054 0.00329824
v 0.00844601 0.00058738 0.00330792
v 0.00844601 0.00058750 0.00330792
v 0.00843771 0.00072386 0.00330941
v 0.00825237 0.00173345 0.00332042
v 0.00794669 0.00271331 0.00333110
v 0.00806895 0.00232129 0.00332683
v 0.00806895 0.00232141 0.00332683
v 0.00699384 0.00452727 0.00335088
v 0.00734809 0.00394174 0.00334450
v 0.00752513 0.00364903 0.00334130
v 0.00794669 0.00271319 0.00333110
v 0.00563454 0.00606061 0.00336760
v 0.00631221 0.00538328 0.00336022
v 0.00636056 0.00533502 0.00335969
v 0.00636056 0.00533490 0.00335969
v 0.00344848 0.00744838 0.00338274
v 0.00394777 0.00722397 0.00338029
v 0.00345480 0.00802834 -0.04850011
v 0.00482634 0.00669332 0.00337450
v 0.00498789 0.00656666 0.00337312
v 0.00301163 0.00764481 0.00338488
v 0.00203158 0.00794989 0.00338821
v -0.00000269 0.00819624 0.00339089
v 0.00102190 0.00813458 0.00339022
v 0.00176244 0.00799916 0.00338874
v 0.01160879 0.02178633 0.00765205
v 0.01419231 0.02022584 0.00763503
v -0.00887079 0.02301846 0.00766549
v -0.00598941 0.02391732 0.00767529
v -0.01160876 -0.02248261 0.00716932
v -0.01419229 -0.02092200 0.00718633
v 0.01157751 -0.01373534 0.00544951
v 0.01155687 -0.01379528 0.00545672
v 0.01148151 -0.01423642 0.00552380
v 0.01147854 -0.01465892 0.00560026
v 0.01148719 -0.01471400 0.00561182
v 0.01154837 -0.01510399 0.00569293
v 0.01168775 -0.01552228 0.00579208
v 0.01176001 -0.01565844 0.00582839
v 0.01420537 -0.02091299 0.00718643
v 0.01189962 -0.01592156 0.00589860
v 0.01218337 -0.01628832 0.00600988
v 0.01235151 -0.01644253 0.00606411
v 0.01251539 -0.01659267 0.00611696
v 0.01292072 -0.01685136 0.00622680
v 0.01318442 -0.01696115 0.00628783
v 0.01333419 -0.01702347 0.00632232
v 0.01380750 -0.01712937 0.00641582
v 0.01482018 -0.01705690 0.00656682
v 0.01658076 -0.01905077 0.00720673
v 0.01459134 -0.01711497 0.00653913
v 0.01414749 -0.01715159 0.00647388
v 0.01414749 -0.01715147 0.00647388
v 0.01287114 -0.01211319 0.00540175
v 0.01274245 -0.01219788 0.00539176
v 0.01249249 -0.01236203 0.00537269
v 0.01216865 -0.01266331 0.00536475
v 0.01201831 -0.01285823 0.00537169
v 0.01190307 -0.01300758 0.00537685
v 0.01169313 -0.01339903 0.00540907
v 0.01166358 -0.01348487 0.00541946
v 0.01680702 -0.01472253 0.00653744
v 0.01681400 -0.01467907 0.00653207
v 0.02057508 -0.01453961 0.00725593
v 0.01681179 -0.01424704 0.00646728
v 0.01673591 -0.01380366 0.00638771
v 0.01671509 -0.01374380 0.00637489
v 0.01671509 -0.01374392 0.00637489
v 0.01659116 -0.01338811 0.00629949
v 0.01637427 -0.01299238 0.00620080
v 0.01627392 -0.01286563 0.00616308
v 0.01609249 -0.01263653 0.00609501
v 0.01575648 -0.01233455 0.00598624
v 0.01554867 -0.01220426 0.00592686
v 0.01535841 -0.01208499 0.00587248
v 0.01494290 -0.01191479 0.00576645
v 0.00699691 -0.00512930 0.00324558
v 0.01463524 -0.01184785 0.00569672
v 0.01447011 -0.01181196 0.00565932
v 0.01414579 -0.01179156 0.00559326
v 0.01370362 -0.01182767 0.00551371
v 0.01370362 -0.01182779 0.00551370
v 0.01365518 -0.01183988 0.00550642
v 0.01327553 -0.01193582 0.00544910
v 0.01316652 -0.01198364 0.00543630
v 0.01502078 -0.01700583 0.00659087
v 0.01658076 -0.01905089 0.00720673
v 0.01511116 -0.01696620 0.00659917
v 0.01542803 -0.01682622 0.00662847
v 0.01542803 -0.01682634 0.00662847
v 0.01580328 -0.01657873 0.00665108
v 0.01594318 -0.01644806 0.00665405
v 0.01594318 -0.01644818 0.00665405
v 0.01871437 -0.01691602 0.00723001
v 0.01612911 -0.01627446 0.00665785
v 0.01639649 -0.01592533 0.00664891
v 0.01653416 -0.01566594 0.00663266
v 0.01660577 -0.01553087 0.00662436
v 0.01673208 -0.01515396 0.00658913
v 0.01674302 -0.01512138 0.00658602
v 0.01680702 -0.01472264 0.00653744
v 0.01317468 0.01133062 0.00569256
v 0.01346979 0.01122730 0.00572983
v 0.01388118 0.01115411 0.00579591
v 0.01388118 0.01115423 0.00579591
v 0.01413851 0.01114128 0.00584334
v 0.01413851 0.01114140 0.00584334
v 0.01458626 0.01117819 0.00593685
v 0.01504176 0.01129660 0.00604615
v 0.01510277 0.01132434 0.00606254
v 0.01545173 0.01148292 0.00615762
v 0.01583393 0.01174320 0.00627574
v 0.02056606 0.01385638 0.00756558
v 0.02056606 0.01385650 0.00756558
v 0.01593475 0.01184071 0.00631161
v 0.01615662 0.01205559 0.00639061
v 0.01643667 0.01244160 0.00650915
v 0.01652425 0.01262113 0.00655593
v 0.01663259 0.01284311 0.00661391
v 0.01676580 0.01330839 0.00671769
v 0.01679225 0.01356133 0.00676575
v 0.01671711 0.01447841 0.00691071
v 0.01870385 0.01623161 0.00759148
v 0.01677906 0.01422795 0.00687805
v 0.01681210 0.01375121 0.00680192
v 0.01178217 0.01255047 0.00567129
v 0.01202300 0.01218035 0.00564103
v 0.01232681 0.01184972 0.00563182
v 0.01233678 0.01184197 0.00563221
v 0.01267634 0.01157788 0.00564459
v 0.01304955 0.01137439 0.00567671
v 0.01315918 0.01133600 0.00569060
v 0.01435193 0.01647172 0.00687367
v 0.01413682 0.01648071 0.00684063
v 0.01462709 0.01642683 0.00690966
v 0.01368958 0.01644376 0.00676178
v 0.01364618 0.01643252 0.00675284
v 0.01324062 0.01632769 0.00666765
v 0.01283074 0.01614281 0.00656608
v 0.01273290 0.01607669 0.00653735
v 0.01245458 0.01588901 0.00645566
v 0.01212922 0.01557805 0.00634104
v 0.01201046 0.01541716 0.00628934
v 0.01201046 0.01541704 0.00628934
v 0.01185329 0.01520422 0.00622097
v 0.01165258 0.01480352 0.00610656
v 0.01157474 0.01454266 0.00604030
v 0.01151546 0.01434374 0.00598984
v 0.01146405 0.01390192 0.00589061
v 0.01146405 0.01390204 0.00589061
v 0.01148371 0.01356954 0.00582582
v 0.01149275 0.01341691 0.00579603
v 0.01159493 0.01298698 0.00572636
v 0.01165802 0.01283985 0.00570783
v 0.01174913 0.01262749 0.00568096
v 0.01670294 0.01453579 0.00691813
v 0.01667235 0.01465959 0.00693426
v 0.01648669 0.01508384 0.00697632
v 0.01626878 0.01541472 0.00699757
v 0.01624170 0.01545569 0.00700029
v 0.01656889 0.01836513 0.00761474
v 0.01593747 0.01578277 0.00700743
v 0.01558365 0.01605457 0.00699764
v 0.01554358 0.01607593 0.00699477
v 0.01520013 0.01625919 0.00697185
v 0.01481372 0.01638979 0.00693298
v 0.01477666 0.01640234 0.00692930
v -0.01681398 0.01399853 0.00684480
v -0.01681177 0.01356814 0.00677060
v -0.02057505 0.01384332 0.00756544
v -0.02057505 0.01384344 0.00756544
v -0.01680866 0.01355006 0.00676695
v -0.01673588 0.01312648 0.00668138
v -0.01659113 0.01271296 0.00658412
v -0.01653436 0.01261004 0.00655606
v -0.01637425 0.01231959 0.00647683
v -0.01609246 0.01196613 0.00636330
v -0.01594184 0.01183179 0.00631164
v -0.01575646 0.01166659 0.00624797
v -0.01494288 0.01125161 0.00601908
v -0.01510874 0.01131867 0.00606296
v -0.01510874 0.01131856 0.00606296
v -0.01535838 0.01141933 0.00612880
v -0.01447008 0.01115126 0.00590973
v -0.01414577 0.01113230 0.00584324
v -0.01414577 0.01113242 0.00584324
v -0.01370360 0.01117002 0.00576449
v -0.01316650 0.01132776 0.00569051
v -0.01318211 0.01132083 0.00569222
v -0.01327550 0.01127956 0.00570227
v -0.01327550 0.01127968 0.00570227
v -0.01502076 0.01632370 0.00695432
v -0.01542800 0.01614331 0.00698800
v -0.01658074 0.01835461 0.00761463
v -0.01555094 0.01606190 0.00699367
v -0.01580325 0.01589527 0.00700521
v -0.01871435 0.01621973 0.00759136
v -0.01612909 0.01559080 0.00700534
v -0.01627470 0.01540094 0.00699636
v -0.01639646 0.01524195 0.00698878
v -0.01660574 0.01484812 0.00695564
v -0.01671426 0.01452518 0.00691838
v -0.01673205 0.01447219 0.00691220
v -0.01674299 0.01443956 0.00690838
v -0.01168772 0.01485780 0.00612337
v -0.01189960 0.01525454 0.00623857
v -0.01420535 0.02021682 0.00763494
v -0.01148148 0.01357797 0.00582711
v -0.01147852 0.01399871 0.00591277
v -0.01154835 0.01444177 0.00601512
v -0.01158000 0.01453627 0.00603963
v -0.01202017 0.01540941 0.00628926
v -0.01218334 0.01561879 0.00635783
v -0.01251537 0.01592085 0.00647151
v -0.01274482 0.01606587 0.00653676
v -0.01292069 0.01617709 0.00658697
v -0.01333417 0.01634707 0.00668622
v -0.01333417 0.01634719 0.00668622
v -0.01365797 0.01641802 0.00675161
v -0.01380748 0.01645079 0.00678201
v -0.01414746 0.01647174 0.00684054
v -0.01459131 0.01643382 0.00690498
v -0.01463809 0.01642182 0.00691045
v -0.01482015 0.01637504 0.00693140
v -0.01287111 0.01145803 0.00565879
v -0.01249247 0.01170745 0.00563516
v -0.01235000 0.01183995 0.00563446
v -0.01216862 0.01200871 0.00563380
v -0.01190304 0.01235276 0.00565341
v -0.01175865 0.01262121 0.00568149
v -0.01169311 0.01274317 0.00569414
v -0.01166355 0.01282888 0.00570640
v -0.01155684 0.01313852 0.00575043
v -0.01148425 0.01356203 0.00582432
v -0.01165255 -0.01546777 0.00577647
v -0.01151543 -0.01500543 0.00566980
v -0.01175114 -0.01566579 0.00582843
v -0.01435190 -0.01715229 0.00650702
v -0.01413679 -0.01716045 0.00647379
v -0.01368955 -0.01712190 0.00639576
v -0.01324059 -0.01700369 0.00630418
v -0.01317269 -0.01697274 0.00628807
v -0.01283072 -0.01681664 0.00620667
v -0.01245456 -0.01656061 0.00610181
v -0.01234086 -0.01645096 0.00606415
v -0.01212920 -0.01624710 0.00599400
v -0.01185327 -0.01587086 0.00588211
v -0.01148247 -0.01472106 0.00561234
v -0.01146402 -0.01456167 0.00558022
v -0.01149272 -0.01407460 0.00549624
v -0.01648666 -0.01576698 0.00663991
v -0.01870383 -0.01692790 0.00722989
v -0.01652569 -0.01567763 0.00663302
v -0.01667233 -0.01534180 0.00660711
v -0.01624167 -0.01613927 0.00665576
v -0.01593900 -0.01646464 0.00665579
v -0.01656886 -0.01906141 0.00720662
v -0.01593744 -0.01646642 0.00665577
v -0.01656886 -0.01906130 0.00720662
v -0.01558362 -0.01673783 0.00664005
v -0.01520010 -0.01694184 0.00660981
v -0.01510102 -0.01697519 0.00659908
v -0.01481370 -0.01707156 0.00656810
v -0.01477663 -0.01708403 0.00656415
v -0.01364833 -0.01185297 0.00550712
v -0.01388115 -0.01181245 0.00554547
v -0.01413849 -0.01180053 0.00559317
v -0.01458624 -0.01183948 0.00568585
v -0.01583390 -0.01241174 0.00601234
v -0.01615660 -0.01272668 0.00612038
v -0.02056604 -0.01455267 0.00725579
v -0.01462910 -0.01185081 0.00569586
v -0.01504174 -0.01196024 0.00579254
v -0.01545171 -0.01214895 0.00589993
v -0.01554246 -0.01221138 0.00592667
v -0.01626463 -0.01287643 0.00616273
v -0.01643664 -0.01311518 0.00623047
v -0.01663256 -0.01351889 0.00632645
v -0.01670016 -0.01375595 0.00637393
v -0.01676578 -0.01398632 0.00642006
v -0.01681208 -0.01443075 0.00649461
v -0.01679119 -0.01473294 0.00653614
v -0.01677903 -0.01490892 0.00656033
v -0.01671709 -0.01516027 0.00658751
v -0.01157132 -0.01374281 0.00544979
v -0.01159490 -0.01364324 0.00543597
v -0.01159490 -0.01364336 0.00543597
v -0.01165800 -0.01349586 0.00542065
v -0.01178214 -0.01320576 0.00539043
v -0.01200551 -0.01286178 0.00536975
v -0.01202298 -0.01283495 0.00536825
v -0.01232678 -0.01250432 0.00536625
v -0.01267632 -0.01223270 0.00538495
v -0.01273221 -0.01220238 0.00539053
v -0.01304952 -0.01203007 0.00542150
v -0.01315916 -0.01199200 0.00543622
v -0.01346976 -0.01188395 0.00547781
v -0.01346976 -0.01188418 0.00547781
v -0.00192804 0.01737867 0.00581324
v -0.00175864 0.01723588 0.00577163
v -0.00135836 0.01699348 0.00569972
v -0.00126678 0.01694930 0.00568648
v -0.00102835 0.01686109 0.00565989
v -0.00102835 0.01686121 0.00565989
v -0.00082835 0.01678712 0.00563762
v -0.00291630 0.02039106 0.00662410
v -0.00295164 0.02018073 0.00657114
v -0.00295164 0.02018061 0.00657113
v -0.00299518 0.01992142 0.00650548
v -0.00299849 0.01944744 0.00638324
v -0.00299293 0.01938111 0.00636607
v -0.00299293 0.01938123 0.00636607
v -0.00295124 0.01914492 0.00630341
v -0.00291023 0.01891241 0.00624198
v -0.00275500 0.01846506 0.00612062
v -0.00271960 0.01838745 0.00609927
v -0.00271960 0.01838733 0.00609927
v -0.00259582 0.01817177 0.00603922
v -0.00259582 0.01817165 0.00603922
v -0.00248418 0.01797724 0.00598512
v -0.00218821 0.01761069 0.00588074
v -0.00218364 0.01760605 0.00587950
v -0.00211740 0.01753833 0.00585993
v -0.00211740 0.01753821 0.00585992
v 0.00030518 0.02263966 0.00716029
v -0.00000729 0.02265598 0.00716405
v -0.00000792 0.02464552 0.00768323
v -0.00047843 0.02261872 0.00715553
v -0.00302069 0.02446242 0.00768124
v -0.00098288 0.02249298 0.00712686
v -0.00103180 0.02247168 0.00712186
v -0.00141694 0.02230448 0.00708332
v -0.00184825 0.02202549 0.00701852
v -0.00193086 0.02195031 0.00700089
v -0.00219872 0.02170610 0.00694351
v -0.00251606 0.02130278 0.00684744
v -0.00259728 0.02115460 0.00681149
v -0.00261247 0.02112701 0.00680487
v -0.00274453 0.02088608 0.00674644
v -0.00291630 0.02039118 0.00662410
v 0.00258318 0.02115589 0.00681126
v 0.00247417 0.02134646 0.00685769
v 0.00300496 0.02446433 0.00768126
v 0.00217899 0.02171355 0.00694502
v 0.00211103 0.02178333 0.00696152
v 0.00191532 0.02194939 0.00700041
v 0.00175144 0.02208835 0.00703304
v 0.00134969 0.02233271 0.00708983
v 0.00127325 0.02237002 0.00709834
v 0.00101563 0.02246734 0.00712074
v 0.00083192 0.02253673 0.00713664
v 0.00037162 0.02263219 0.00715866
v 0.00030518 0.02263978 0.00716029
v 0.00288211 0.01885541 0.00622609
v 0.00289689 0.01890998 0.00624088
v 0.00597403 0.02392112 0.00767533
v 0.00271792 0.01841093 0.00610537
v 0.00293888 0.01914679 0.00630342
v 0.00298004 0.01937896 0.00636485
v 0.00298004 0.01937884 0.00636485
v 0.00298768 0.01985258 0.00648756
v 0.00298143 0.01993354 0.00650812
v 0.00293867 0.02018260 0.00657115
v 0.00293867 0.02018248 0.00657115
v 0.00290116 0.02040087 0.00662611
v 0.00274863 0.02084799 0.00673661
v 0.00270868 0.02093644 0.00675832
v 0.00259885 0.02112843 0.00680488
v -0.00037168 0.01669482 0.00560967
v -0.00029250 0.01668629 0.00560708
v -0.00000538 0.01667260 0.00560275
v 0.00046180 0.01670923 0.00561388
v 0.00095911 0.01683166 0.00565098
v 0.00101888 0.01685734 0.00565877
v 0.00101888 0.01685722 0.00565877
v 0.00139188 0.01701716 0.00570665
v 0.00181440 0.01728633 0.00578624
v 0.00191757 0.01737859 0.00581300
v 0.00258411 0.01817329 0.00603924
v 0.00203158 0.00795001 0.00338821
v 0.00248429 0.01799617 0.00598998
v 0.00248429 0.01799605 0.00598997
v 0.00217247 0.01760827 0.00587964
v 0.00216762 0.01760232 0.00587791
v 0.02481383 -0.00335292 0.00737791
v 0.02499511 -0.00034015 0.00741077
v 0.02427069 -0.00632171 0.00734554
v 0.02337365 -0.00920359 0.00731411
v 0.02213576 -0.01195624 0.00728410
v 0.00735078 -0.00454343 0.00325197
v 0.01535841 -0.01208487 0.00587248
v 0.01162284 -0.02247524 0.00716939
v 0.00345340 -0.00805279 0.00321370
v 0.00887081 -0.02371474 0.00715588
v 0.00302072 -0.02515847 0.00714013
v 0.00598944 -0.02461361 0.00714607
v 0.00598944 -0.02461349 0.00714608
v -0.00597400 -0.02461728 0.00714604
v -0.00300494 -0.02516038 0.00714011
v 0.00000795 -0.02534180 0.00713813
v -0.00344845 -0.00805498 0.00321368
v -0.00885595 -0.02372037 0.00715582
v -0.00597400 -0.02461740 0.00714603
v -0.01545171 -0.01214907 0.00589992
v -0.00734806 -0.00454810 0.00325192
v -0.02212836 -0.01197029 0.00728395
v -0.02336799 -0.00921842 0.00731396
v -0.02426687 -0.00633711 0.00734538
v -0.02481188 -0.00336868 0.00737775
v -0.02499509 -0.00035602 0.00741060
v -0.02481379 0.00265664 0.00744345
v -0.02427066 0.00562554 0.00747583
v -0.02427066 0.00562566 0.00747583
v -0.02337362 0.00850730 0.00750725
v -0.00794858 0.00270827 0.00333105
v -0.02213573 0.01125995 0.00753727
v -0.01162281 0.02177895 0.00765198
v -0.00887079 0.02301857 0.00766549
v 0.00885598 0.02302420 0.00766555
v 0.00885598 0.02302408 0.00766555
v 0.02212838 0.01127400 0.00753741
v 0.02426689 0.00564107 0.00747599
v 0.02336802 0.00852214 0.00750741
v 0.02481192 0.00267239 0.00744362
v 0.02426689 0.00564095 0.00747599
v -0.01420534 0.02011867 0.01663566
v -0.01162281 0.02168080 0.01665270
v -0.00887079 0.02292042 0.01666621
v -0.00887079 0.02292030 0.01666621
v -0.00724113 0.02342874 0.01667176
v -0.01871435 0.01612158 0.01659208
v -0.01838070 0.01645557 0.01659572
v -0.01658073 0.01825646 0.01661536
v -0.02336799 -0.00931657 0.01631468
v -0.02426687 -0.00643526 0.01634610
v -0.02481188 -0.00346683 0.01637847
v -0.02499508 -0.00045417 0.01641132
v -0.02481379 0.00255849 0.01644417
v -0.02427066 0.00552739 0.01647655
v -0.02427066 0.00552751 0.01647655
v -0.02337362 0.00840915 0.01650797
v -0.02213573 0.01116180 0.01653799
v -0.02091043 0.01318994 0.01656011
v -0.02057505 0.01374517 0.01656616
v -0.02057505 0.01374529 0.01656616
v -0.02090177 -0.01409580 0.01626256
v -0.02212836 -0.01206844 0.01628467
v -0.01160876 -0.02258076 0.01617004
v -0.01419229 -0.02102015 0.01618706
v -0.01656886 -0.01915956 0.01620734
v -0.01656886 -0.01915945 0.01620734
v -0.01870382 -0.01702605 0.01623061
v -0.02056604 -0.01465082 0.01625651
v -0.02060034 -0.01459409 0.01625713
v -0.02090177 -0.01409592 0.01626256
v 0.00302072 -0.02525662 0.01614085
v 0.00000795 -0.02543995 0.01613886
v -0.00300493 -0.02525853 0.01614083
v -0.00597400 -0.02471555 0.01614675
v -0.00597400 -0.02471543 0.01614676
v -0.00722597 -0.02432592 0.01615100
v -0.00885595 -0.02381852 0.01615654
v 0.01871438 -0.01701417 0.01623073
v 0.01658076 -0.01914904 0.01620745
v 0.01658076 -0.01914892 0.01620745
v 0.01420537 -0.02101114 0.01618715
v 0.01162284 -0.02257339 0.01617011
v 0.00887082 -0.02381289 0.01615660
v 0.00724116 -0.02432133 0.01615105
v 0.00598944 -0.02471176 0.01614679
v 0.00598944 -0.02471164 0.01614680
v 0.02056607 0.01375835 0.01656630
v 0.02212839 0.01117585 0.01653814
v 0.02336802 0.00842399 0.01650813
v 0.02426690 0.00554280 0.01647671
v 0.02426690 0.00554292 0.01647671
v 0.02481192 0.00257424 0.01644434
v 0.02499512 -0.00043830 0.01641149
v 0.02481383 -0.00345107 0.01637863
v 0.02427069 -0.00641986 0.01634626
v 0.02337365 -0.00930174 0.01631483
v 0.02213576 -0.01205439 0.01628482
v 0.02060935 -0.01458101 0.01625726
v 0.02057508 -0.01463776 0.01625665
v 0.01160879 0.02168818 0.01665277
v 0.01419232 0.02012769 0.01663575
v 0.01656889 0.01826698 0.01661546
v 0.01837000 0.01646724 0.01659584
v 0.01870385 0.01613346 0.01659220
v 0.02056607 0.01375823 0.01656630
v -0.00598941 0.02381917 0.01667601
v -0.00302069 0.02436427 0.01668196
v -0.00000792 0.02454737 0.01668395
v 0.00300497 0.02436618 0.01668198
v 0.00597403 0.02382297 0.01667605
v 0.00722600 0.02343334 0.01667180
v 0.00885598 0.02292605 0.01666627
v 0.00885598 0.02292593 0.01666627
v -0.01555554 0.01596428 0.01659036
v -0.01273913 0.01596518 0.01659037
v -0.01414576 0.01101581 0.01653640
v -0.01317949 0.01119659 0.01653837
v -0.01317949 0.01119671 0.01653837
v -0.01234385 0.01171443 0.01654402
v -0.01175167 0.01249909 0.01655257
v -0.01148295 0.01344457 0.01656288
v -0.01157396 0.01442343 0.01657356
v -0.01201242 0.01530324 0.01658315
v -0.01365592 0.01631999 0.01659424
v -0.01463898 0.01631968 0.01659423
v -0.01628182 0.01530188 0.01658314
v -0.01671973 0.01442179 0.01657354
v -0.01681012 0.01344288 0.01656286
v -0.01654080 0.01249757 0.01655256
v -0.01594812 0.01171329 0.01654400
v -0.01511214 0.01119598 0.01653836
v -0.01511214 0.01119610 0.01653836
v -0.01414576 0.01101569 0.01653640
v -0.00000538 0.01655271 0.01659677
v 0.00102062 0.01673399 0.01659875
v 0.00192276 0.01725507 0.01660443
v 0.00259222 0.01805346 0.01661314
v 0.00192276 0.01725519 0.01660443
v 0.00294826 0.01903258 0.01662381
v 0.00294792 0.02007441 0.01663518
v 0.00259127 0.02105330 0.01664585
v 0.00192130 0.02185115 0.01665455
v 0.00192130 0.02185127 0.01665455
v 0.00101883 0.02237178 0.01666023
v -0.00000729 0.02255240 0.01666220
v -0.00103329 0.02237112 0.01666022
v -0.00193543 0.02184992 0.01665454
v -0.00193543 0.02185004 0.01665454
v -0.00260489 0.02105165 0.01664583
v -0.00296092 0.02007253 0.01663516
v -0.00296059 0.01903071 0.01662380
v -0.00260393 0.01805181 0.01661312
v -0.00193397 0.01725397 0.01660442
v -0.00193397 0.01725385 0.01660442
v -0.00103150 0.01673334 0.01659874
v -0.00175864 0.01723577 0.00577163
v 0.01680132 0.01345355 0.01656297
v 0.01653260 0.01250807 0.01655266
v 0.01510478 0.01120569 0.01653846
v 0.01594042 0.01172341 0.01654411
v 0.01413852 0.01102479 0.01653649
v 0.01510478 0.01120557 0.01653846
v 0.01671031 0.01443241 0.01657365
v 0.01671711 0.01447853 0.00691071
v 0.01627184 0.01531222 0.01658324
v 0.01462835 0.01632897 0.01659433
v 0.01554514 0.01597416 0.01659046
v 0.01272873 0.01597326 0.01659045
v 0.01364530 0.01632866 0.01659433
v 0.01200245 0.01531086 0.01658323
v 0.01156454 0.01443077 0.01657363
v 0.01147415 0.01345186 0.01656296
v 0.01174347 0.01250655 0.01655265
v 0.01233615 0.01172227 0.01654410
v 0.01413852 0.01102467 0.01653649
v 0.01317213 0.01120496 0.01653845
v 0.01317213 0.01120508 0.01653846
v 0.01318111 -0.01707755 0.01623004
v 0.01234513 -0.01656036 0.01623568
v 0.01511376 -0.01707694 0.01623005
v 0.01414749 -0.01725796 0.01622807
v 0.01414749 -0.01725784 0.01622808
v 0.01594940 -0.01655922 0.01623569
v 0.01654158 -0.01577456 0.01624425
v 0.01681030 -0.01482896 0.01625456
v 0.01671929 -0.01385022 0.01626523
v 0.01681400 -0.01467895 0.00653207
v 0.01678735 -0.01458222 0.01625725
v 0.01628082 -0.01297041 0.01627483
v 0.01555412 -0.01230847 0.01628205
v 0.01555412 -0.01230859 0.01628205
v 0.01463733 -0.01195366 0.01628592
v 0.01365428 -0.01195397 0.01628591
v 0.01273771 -0.01230949 0.01628204
v 0.01273771 -0.01230937 0.01628204
v 0.01201143 -0.01297177 0.01627481
v 0.01157352 -0.01385186 0.01626522
v 0.01169313 -0.01339891 0.00540907
v 0.01150592 -0.01458390 0.01625723
v 0.01148313 -0.01483065 0.01625454
v 0.01175245 -0.01577608 0.01624423
v 0.01168775 -0.01552240 0.00579208
v -0.01653182 -0.01578506 0.01624414
v -0.01627284 -0.01298074 0.01627472
v -0.01554656 -0.01231834 0.01628195
v -0.01413679 -0.01726682 0.01622798
v -0.01317051 -0.01708592 0.01622996
v -0.01233487 -0.01656820 0.01623560
v -0.01174269 -0.01578354 0.01624416
v -0.01234086 -0.01645108 0.00606414
v -0.01147397 -0.01483794 0.01625447
v -0.01156498 -0.01385920 0.01626514
v -0.01149692 -0.01459120 0.01625716
v -0.01200345 -0.01297939 0.01627474
v -0.01273015 -0.01231745 0.01628195
v -0.01273015 -0.01231757 0.01628195
v -0.01364694 -0.01196264 0.01628582
v -0.01463000 -0.01196295 0.01628582
v -0.01554656 -0.01231846 0.01628194
v -0.01671075 -0.01386083 0.01626513
v -0.01680114 -0.01483963 0.01625445
v -0.01679119 -0.01473306 0.00653614
v -0.01677834 -0.01459288 0.01625714
v -0.01593914 -0.01656934 0.01623559
v -0.01510316 -0.01708653 0.01622995
v -0.01413679 -0.01726693 0.01622798
v -0.02090610 -0.00045287 0.01641134
v -0.00723892 0.01645911 0.01659575
v 0.00722822 0.01646370 0.01659580
v 0.00723358 -0.00044394 0.01641143
v 0.00723807 -0.01458525 0.01625722
v -0.00722906 -0.01458985 0.01625717
v -0.00723355 -0.00044853 0.01641138
f 1 2 3
f 1 3 4
f 5 3 6
f 5 7 8
f 5 9 1
f 1 9 10
f 1 10 11
f 3 12 6
f 7 12 13
f 7 14 15
f 16 17 18
f 18 17 6
f 18 7 19
f 20 7 15
f 20 15 21
f 22 7 23
f 23 7 17
f 23 17 24
f 24 17 25
f 26 27 28
f 28 27 1
f 28 1 29
f 29 1 11
f 29 11 30
f 31 1 32
f 33 1 34
f 33 27 35
f 35 27 36
f 8 7 37
f 22 38 6
f 7 38 39
f 7 39 37
f 40 41 42
f 22 41 43
f 22 43 44
f 24 45 23
f 23 45 46
f 23 46 42
f 22 46 47
f 22 47 40
f 48 49 25
f 25 49 50
f 25 51 24
f 24 51 52
f 24 52 45
f 48 25 53
f 53 25 17
f 53 17 54
f 55 56 17
f 17 56 57
f 17 58 54
f 55 17 59
f 60 17 16
f 60 16 61
f 61 16 18
f 61 18 62
f 62 18 63
f 64 18 19
f 64 20 65
f 21 66 19
f 20 66 67
f 20 67 65
f 68 69 21
f 21 69 70
f 21 70 66
f 14 71 15
f 15 71 72
f 15 72 21
f 21 72 73
f 21 73 74
f 75 76 12
f 12 76 77
f 12 77 13
f 14 77 78
f 14 79 71
f 75 12 80
f 80 12 3
f 80 3 81
f 2 82 3
f 3 82 83
f 3 84 81
f 1 85 2
f 2 85 86
f 2 86 82
f 31 87 1
f 1 87 88
f 1 89 85
f 90 91 31
f 31 91 92
f 31 92 87
f 35 93 32
f 33 93 94
f 33 95 31
f 31 95 96
f 31 96 97
f 98 99 36
f 36 99 100
f 36 100 35
f 35 100 101
f 35 101 93
f 98 36 102
f 102 36 34
f 102 27 103
f 104 105 34
f 27 105 106
f 27 106 103
f 104 27 107
f 107 27 26
f 107 26 108
f 108 26 28
f 108 28 109
f 110 28 111
f 111 28 29
f 111 29 112
f 30 113 29
f 29 113 114
f 29 115 112
f 116 117 30
f 30 117 118
f 30 118 119
f 10 120 11
f 11 120 121
f 11 121 30
f 30 121 122
f 30 123 116
f 124 125 126
f 9 125 127
f 9 127 10
f 10 127 128
f 10 128 120
f 124 9 129
f 129 9 4
f 129 5 130
f 37 131 8
f 8 131 132
f 8 132 4
f 5 132 133
f 5 133 130
f 134 135 127
f 136 137 44
f 138 139 77
f 93 140 94
f 95 140 141
f 95 141 96
f 96 141 142
f 142 143 96
f 96 143 144
f 96 144 145
f 146 147 148
f 148 147 149
f 148 149 150
f 150 151 148
f 148 151 152
f 148 152 153
f 153 154 148
f 148 154 155
f 148 155 156
f 157 158 159
f 159 158 148
f 159 148 160
f 161 148 156
f 162 163 100
f 100 163 164
f 100 164 101
f 101 164 165
f 101 165 93
f 93 165 166
f 93 166 167
f 167 168 93
f 93 168 169
f 93 169 140
f 170 171 172
f 171 173 172
f 172 173 174
f 172 174 175
f 176 177 172
f 172 177 178
f 172 178 179
f 179 180 172
f 172 180 181
f 172 181 182
f 183 184 185
f 99 184 186
f 186 187 185
f 99 187 188
f 99 188 189
f 190 191 185
f 99 191 192
f 99 192 100
f 100 192 193
f 100 193 162
f 157 194 195
f 158 194 196
f 158 196 197
f 198 199 195
f 158 199 200
f 158 201 202
f 201 203 202
f 202 203 204
f 202 204 205
f 205 206 202
f 202 206 207
f 202 207 172
f 172 207 208
f 172 208 209
f 210 116 122
f 210 211 116
f 116 211 212
f 116 213 214
f 215 216 116
f 116 216 217
f 116 217 218
f 219 220 221
f 222 220 223
f 223 224 221
f 222 224 225
f 222 225 226
f 226 227 221
f 222 227 228
f 222 228 229
f 230 231 232
f 232 231 221
f 232 222 233
f 233 222 229
f 120 234 235
f 120 235 121
f 121 235 236
f 121 236 122
f 123 236 237
f 123 237 238
f 238 239 122
f 123 239 240
f 123 240 210
f 241 242 135
f 241 135 243
f 242 244 135
f 135 244 245
f 135 245 246
f 246 247 135
f 135 247 248
f 135 248 249
f 249 250 135
f 135 250 251
f 135 252 127
f 252 253 127
f 127 253 254
f 127 254 255
f 255 256 127
f 127 256 257
f 127 258 259
f 259 260 127
f 127 260 261
f 127 261 128
f 128 261 262
f 128 262 120
f 120 262 263
f 120 263 234
f 230 264 231
f 231 264 265
f 231 265 266
f 266 267 231
f 231 267 268
f 231 268 269
f 268 270 269
f 269 270 271
f 269 271 272
f 272 273 269
f 269 273 274
f 269 274 135
f 135 274 275
f 135 275 243
f 276 277 278
f 279 277 280
f 279 280 281
f 281 282 278
f 279 282 283
f 279 283 284
f 284 285 278
f 279 285 286
f 279 286 287
f 288 49 289
f 290 49 291
f 288 292 49
f 49 292 293
f 49 294 295
f 296 51 297
f 297 51 49
f 297 49 298
f 299 49 295
f 300 301 302
f 301 303 302
f 302 303 304
f 302 304 305
f 305 304 306
f 306 307 305
f 305 307 308
f 305 308 309
f 309 310 305
f 305 310 311
f 305 311 278
f 279 311 312
f 279 312 276
f 313 314 315
f 316 317 47
f 47 317 318
f 47 318 319
f 314 320 315
f 315 320 321
f 315 321 322
f 322 323 315
f 315 323 324
f 315 324 325
f 326 327 315
f 315 327 328
f 315 328 329
f 329 330 315
f 315 330 331
f 315 331 302
f 302 331 332
f 302 332 300
f 296 333 50
f 51 333 334
f 51 334 52
f 52 334 335
f 52 335 45
f 335 336 45
f 45 336 337
f 45 337 338
f 338 339 45
f 45 339 340
f 45 340 46
f 46 340 341
f 46 341 47
f 47 341 342
f 47 342 316
f 343 344 77
f 343 77 345
f 346 347 139
f 139 347 348
f 139 348 349
f 349 350 139
f 139 350 351
f 139 351 352
f 352 353 139
f 139 353 354
f 139 354 77
f 77 354 355
f 77 355 345
f 344 356 77
f 77 356 357
f 77 357 358
f 359 360 361
f 361 360 362
f 359 363 360
f 360 363 364
f 360 364 365
f 364 366 365
f 367 366 368
f 367 368 369
f 369 370 365
f 367 370 371
f 367 371 139
f 139 371 372
f 139 372 346
f 373 374 74
f 68 374 375
f 68 375 376
f 377 378 379
f 376 380 74
f 68 380 381
f 68 381 382
f 377 379 383
f 378 384 379
f 379 384 385
f 379 385 386
f 386 387 379
f 379 387 388
f 379 388 389
f 389 390 379
f 379 390 391
f 379 391 360
f 360 391 392
f 360 392 362
f 358 393 77
f 77 393 394
f 77 395 78
f 79 395 396
f 79 396 71
f 71 396 397
f 397 398 71
f 71 398 399
f 71 399 72
f 72 399 400
f 72 400 73
f 73 400 401
f 73 401 402
f 402 403 73
f 73 403 404
f 73 404 74
f 68 404 405
f 68 406 373
f 407 408 37
f 37 408 409
f 409 410 37
f 37 410 411
f 37 412 413
f 137 414 415
f 416 417 137
f 137 417 418
f 137 418 419
f 420 421 137
f 137 421 422
f 137 422 44
f 422 423 44
f 38 423 424
f 38 425 426
f 427 428 44
f 38 428 429
f 38 429 39
f 39 429 430
f 39 430 37
f 37 430 431
f 37 432 407
f 433 434 435
f 435 434 436
f 435 436 437
f 437 436 438
f 438 439 437
f 437 439 440
f 437 440 441
f 441 442 437
f 437 442 443
f 437 443 444
f 444 445 437
f 437 445 446
f 437 446 137
f 137 446 447
f 137 447 448
f 449 450 451
f 450 452 451
f 451 452 453
f 451 453 454
f 454 455 451
f 451 455 456
f 451 456 457
f 457 458 451
f 451 458 459
f 451 459 435
f 435 459 460
f 435 460 461
f 462 463 464
f 462 464 465
f 463 466 464
f 464 466 467
f 464 468 469
f 469 470 464
f 464 470 471
f 464 472 473
f 473 474 464
f 464 474 475
f 464 475 451
f 451 475 476
f 451 476 449
f 413 477 37
f 37 477 478
f 37 478 131
f 131 478 479
f 131 479 132
f 479 480 132
f 132 480 481
f 132 481 482
f 483 484 132
f 132 484 485
f 132 485 486
f 487 488 489
f 490 488 133
f 490 133 491
f 491 133 132
f 491 132 492
f 492 132 486
f 493 104 107
f 493 107 494
f 104 493 105
f 105 493 495
f 105 495 106
f 106 495 496
f 106 496 103
f 103 496 102
f 102 496 497
f 102 497 498
f 98 497 172
f 98 172 185
f 99 172 182
f 99 182 499
f 145 146 96
f 96 146 148
f 96 148 97
f 90 148 500
f 90 500 501
f 91 500 502
f 503 89 504
f 505 89 87
f 505 87 502
f 502 87 92
f 502 92 501
f 506 84 507
f 507 84 82
f 507 82 508
f 508 82 86
f 508 86 503
f 503 86 85
f 503 85 88
f 77 76 138
f 138 76 509
f 138 75 510
f 510 75 80
f 510 80 511
f 506 80 81
f 506 81 83
f 512 383 74
f 68 383 379
f 68 379 513
f 69 379 514
f 69 514 70
f 70 514 66
f 66 514 515
f 66 515 67
f 67 515 516
f 67 516 65
f 65 516 63
f 64 516 517
f 64 517 62
f 62 517 518
f 62 518 61
f 61 518 59
f 60 518 519
f 60 519 55
f 55 519 56
f 56 519 520
f 56 521 57
f 58 521 522
f 58 522 54
f 523 522 53
f 53 522 524
f 53 524 48
f 48 524 278
f 48 279 49
f 49 279 287
f 49 287 291
f 319 313 47
f 47 313 315
f 47 315 40
f 40 315 525
f 40 525 41
f 41 525 526
f 41 136 43
f 43 136 44
f 487 465 130
f 488 465 464
f 488 464 129
f 129 464 527
f 129 528 124
f 124 528 134
f 124 134 125
f 125 134 127
f 218 219 116
f 116 219 221
f 116 222 117
f 117 222 529
f 530 115 531
f 531 115 119
f 531 113 529
f 529 113 118
f 529 118 117
f 107 108 494
f 494 108 109
f 494 110 532
f 532 110 111
f 532 111 533
f 530 111 112
f 530 112 114
f 302 534 315
f 315 534 535
f 315 535 525
f 525 535 536
f 525 537 526
f 136 537 538
f 136 538 137
f 279 539 305
f 305 539 540
f 305 540 302
f 302 540 541
f 302 541 534
f 514 542 515
f 515 542 543
f 515 543 516
f 516 543 544
f 516 544 517
f 517 544 545
f 517 545 518
f 518 545 546
f 518 546 519
f 519 546 547
f 519 548 520
f 521 548 549
f 521 549 522
f 522 549 550
f 522 550 524
f 524 550 551
f 524 551 278
f 279 551 552
f 279 553 539
f 379 554 514
f 514 554 555
f 514 555 542
f 510 556 138
f 138 556 557
f 138 557 139
f 139 557 558
f 139 559 365
f 367 559 560
f 367 560 360
f 360 560 561
f 360 561 379
f 379 561 562
f 379 562 563
f 505 564 503
f 503 564 565
f 503 565 508
f 508 565 566
f 508 566 507
f 507 566 567
f 507 568 511
f 506 568 569
f 506 569 510
f 510 569 570
f 510 570 556
f 172 571 202
f 202 571 572
f 202 573 195
f 158 573 574
f 158 574 148
f 148 574 575
f 148 575 500
f 500 575 576
f 500 576 502
f 502 576 577
f 502 577 504
f 505 577 578
f 505 579 564
f 231 580 221
f 222 580 581
f 222 581 529
f 529 581 582
f 529 582 531
f 531 582 583
f 531 584 533
f 530 584 585
f 530 585 532
f 532 585 586
f 532 586 494
f 494 586 587
f 494 587 493
f 493 587 588
f 493 588 495
f 495 588 589
f 495 589 496
f 496 589 590
f 496 590 497
f 497 590 591
f 497 591 172
f 172 591 592
f 172 592 571
f 528 593 134
f 134 593 594
f 134 594 135
f 135 594 595
f 135 595 269
f 269 595 596
f 269 596 231
f 231 596 597
f 231 597 598
f 538 599 137
f 137 599 600
f 137 600 437
f 437 600 601
f 437 601 435
f 435 601 602
f 435 602 451
f 451 602 603
f 451 603 464
f 464 603 604
f 464 604 527
f 528 604 605
f 528 606 593
f 304 303 607
f 324 323 608
f 294 609 295
f 295 609 610
f 295 611 298
f 299 611 297
f 297 611 296
f 296 611 612
f 296 612 333
f 336 335 612
f 612 335 334
f 612 334 333
f 340 613 341
f 341 613 614
f 340 339 613
f 613 339 338
f 613 338 612
f 612 338 337
f 612 337 336
f 317 316 614
f 614 316 342
f 614 342 341
f 314 615 320
f 320 615 616
f 320 616 321
f 314 313 615
f 615 313 319
f 615 319 614
f 614 319 318
f 614 318 317
f 608 323 616
f 616 323 322
f 616 322 321
f 329 328 617
f 617 328 327
f 617 327 608
f 608 327 325
f 608 326 324
f 607 303 618
f 618 303 301
f 618 301 300
f 300 332 618
f 618 332 331
f 618 331 617
f 617 331 330
f 617 330 329
f 304 607 306
f 306 607 619
f 306 619 307
f 307 619 308
f 308 619 620
f 308 620 309
f 277 276 620
f 620 276 312
f 312 311 620
f 620 311 310
f 620 310 309
f 277 620 280
f 280 620 621
f 280 621 281
f 281 621 622
f 281 622 282
f 286 285 623
f 623 285 284
f 623 284 622
f 622 284 283
f 622 283 282
f 286 623 287
f 287 623 624
f 287 625 291
f 294 292 626
f 609 292 288
f 609 288 624
f 625 288 289
f 625 290 291
f 481 627 482
f 483 627 628
f 483 628 484
f 491 629 489
f 490 629 630
f 491 492 631
f 629 492 486
f 629 486 628
f 628 486 485
f 628 485 484
f 462 465 630
f 630 465 487
f 630 487 489
f 469 468 632
f 632 468 466
f 632 466 630
f 630 466 463
f 630 463 462
f 474 473 633
f 633 473 471
f 633 472 632
f 632 472 470
f 632 470 469
f 634 476 633
f 633 476 475
f 633 475 474
f 452 450 634
f 634 450 449
f 634 449 476
f 456 455 635
f 636 455 454
f 636 454 634
f 634 454 453
f 634 453 452
f 460 459 637
f 637 459 458
f 637 458 635
f 636 458 457
f 636 457 456
f 460 637 461
f 433 637 638
f 433 638 434
f 434 638 436
f 436 638 639
f 436 639 438
f 442 441 640
f 641 441 440
f 641 440 639
f 639 440 439
f 639 439 438
f 442 641 443
f 443 641 642
f 443 642 444
f 414 447 643
f 643 447 446
f 643 446 642
f 642 446 445
f 642 445 444
f 420 418 644
f 644 418 417
f 644 417 643
f 643 417 415
f 643 416 448
f 425 423 645
f 645 423 422
f 645 422 644
f 644 422 421
f 644 421 419
f 432 430 646
f 430 429 646
f 647 429 428
f 647 428 645
f 645 428 426
f 645 427 424
f 410 409 648
f 648 409 649
f 648 408 646
f 647 408 407
f 647 407 431
f 481 480 627
f 627 480 479
f 627 479 478
f 478 477 627
f 627 477 413
f 627 413 648
f 648 413 411
f 648 412 410
f 233 229 650
f 227 226 651
f 220 652 223
f 223 652 653
f 223 653 224
f 217 654 218
f 218 654 655
f 218 652 219
f 219 652 220
f 651 226 653
f 653 226 225
f 653 225 224
f 650 229 651
f 651 229 228
f 651 228 227
f 265 264 656
f 656 264 657
f 656 230 650
f 650 230 232
f 650 232 233
f 270 268 658
f 658 268 267
f 658 267 656
f 656 267 266
f 656 266 265
f 275 274 659
f 659 274 273
f 659 273 660
f 660 273 272
f 660 272 658
f 658 272 271
f 658 271 270
f 242 241 659
f 659 241 243
f 659 243 275
f 248 247 661
f 661 247 246
f 661 246 662
f 662 246 245
f 662 245 659
f 659 245 244
f 659 244 242
f 248 661 249
f 249 661 663
f 249 663 250
f 255 254 664
f 664 254 253
f 664 253 663
f 663 253 251
f 663 252 250
f 255 664 256
f 256 664 665
f 256 665 257
f 262 261 666
f 666 261 260
f 666 260 665
f 665 260 259
f 665 259 257
f 236 235 667
f 667 235 234
f 667 234 666
f 666 234 263
f 666 263 262
f 239 238 667
f 667 238 237
f 667 237 236
f 217 216 668
f 654 216 214
f 654 215 669
f 670 215 212
f 213 211 669
f 670 211 210
f 670 210 667
f 667 210 240
f 667 240 239
f 155 154 671
f 152 151 672
f 198 196 673
f 673 196 674
f 675 196 194
f 675 194 157
f 198 673 199
f 199 673 676
f 199 676 200
f 677 205 204
f 677 204 676
f 676 204 203
f 676 203 200
f 205 677 206
f 206 677 678
f 206 678 207
f 679 176 174
f 174 173 679
f 679 173 680
f 679 171 681
f 681 171 209
f 681 170 678
f 678 170 208
f 678 208 207
f 176 679 177
f 177 679 682
f 177 682 178
f 182 181 683
f 684 181 180
f 684 180 682
f 682 180 179
f 682 179 178
f 182 684 499
f 183 684 685
f 183 685 184
f 190 188 686
f 686 188 187
f 686 187 685
f 685 187 186
f 685 186 184
f 687 163 162
f 162 193 688
f 687 193 192
f 687 192 686
f 686 192 191
f 686 191 189
f 163 687 164
f 164 687 689
f 164 689 165
f 168 167 689
f 689 167 166
f 689 166 165
f 142 141 690
f 690 141 140
f 690 140 689
f 689 140 169
f 689 169 691
f 142 690 143
f 143 690 692
f 143 692 144
f 144 692 693
f 144 693 145
f 151 150 672
f 672 150 149
f 672 149 694
f 694 149 147
f 694 147 693
f 693 147 695
f 693 146 145
f 671 154 672
f 672 154 153
f 672 153 152
f 157 159 674
f 675 159 160
f 675 161 671
f 671 161 156
f 671 156 155
f 359 361 696
f 385 384 697
f 377 383 698
f 347 699 348
f 348 699 700
f 348 700 349
f 349 700 350
f 350 700 351
f 351 700 701
f 351 701 352
f 345 355 702
f 702 355 354
f 702 354 701
f 701 354 703
f 701 353 352
f 345 702 343
f 343 702 704
f 343 704 344
f 705 358 706
f 706 358 357
f 706 357 704
f 704 357 356
f 704 356 344
f 397 396 707
f 707 396 394
f 707 395 705
f 705 395 393
f 705 393 358
f 707 401 400
f 400 399 707
f 707 399 398
f 707 398 397
f 401 707 402
f 402 707 708
f 402 709 403
f 374 373 710
f 710 373 405
f 710 406 708
f 709 406 404
f 709 404 403
f 381 380 711
f 711 380 376
f 711 376 710
f 710 376 375
f 710 375 374
f 712 383 711
f 711 383 382
f 711 512 381
f 697 384 698
f 712 384 378
f 712 378 377
f 713 387 697
f 697 387 386
f 697 386 385
f 392 391 714
f 714 391 715
f 714 390 716
f 716 390 389
f 716 389 713
f 713 389 388
f 713 388 387
f 696 361 714
f 714 361 362
f 714 362 392
f 717 364 696
f 696 364 363
f 696 363 359
f 370 369 718
f 718 369 368
f 718 368 717
f 717 368 366
f 717 366 364
f 347 346 719
f 699 346 372
f 699 372 718
f 718 372 371
f 718 371 370
f 555 554 720
f 648 647 721
f 648 721 627
f 630 629 722
f 722 629 628
f 538 642 599
f 599 642 640
f 599 641 600
f 600 641 639
f 600 639 601
f 601 639 638
f 601 638 602
f 647 645 721
f 721 645 644
f 721 644 538
f 538 644 643
f 538 643 642
f 638 637 602
f 602 637 635
f 602 636 603
f 603 636 634
f 603 634 604
f 604 634 633
f 604 633 722
f 722 633 632
f 722 632 630
f 606 604 593
f 593 604 722
f 593 722 594
f 594 722 596
f 594 596 595
f 653 652 586
f 723 654 669
f 664 663 722
f 663 661 722
f 722 661 662
f 722 662 596
f 596 662 659
f 670 667 723
f 723 667 666
f 723 666 722
f 722 666 665
f 722 665 664
f 586 585 653
f 653 585 583
f 653 584 651
f 659 660 596
f 596 660 658
f 596 658 597
f 597 658 656
f 597 656 598
f 580 656 650
f 580 650 581
f 581 650 651
f 581 651 582
f 582 651 583
f 687 686 723
f 723 686 586
f 723 586 668
f 654 586 655
f 590 589 679
f 679 589 682
f 724 690 723
f 723 690 689
f 723 689 688
f 589 588 682
f 682 588 587
f 682 587 683
f 684 587 586
f 684 586 685
f 685 586 686
f 694 693 724
f 724 693 692
f 724 692 690
f 590 679 591
f 591 679 681
f 591 681 592
f 592 681 678
f 592 678 571
f 571 678 677
f 571 677 572
f 677 676 572
f 573 676 673
f 573 673 574
f 574 673 674
f 574 675 575
f 575 675 671
f 575 671 576
f 576 671 672
f 576 672 577
f 577 672 694
f 565 564 724
f 694 724 577
f 577 724 564
f 577 564 578
f 700 699 557
f 725 706 704
f 704 569 725
f 725 569 567
f 725 568 566
f 557 699 558
f 557 556 700
f 700 556 570
f 700 570 701
f 701 570 569
f 701 569 702
f 702 569 704
f 726 709 707
f 726 707 725
f 725 707 705
f 725 705 706
f 697 720 713
f 713 720 563
f 713 554 716
f 716 554 562
f 716 562 714
f 714 562 561
f 714 561 696
f 696 561 560
f 696 560 717
f 717 560 558
f 717 559 718
f 718 559 719
f 697 712 720
f 720 712 711
f 720 711 726
f 726 711 710
f 726 710 708
f 543 542 544
f 544 542 545
f 551 550 720
f 720 550 549
f 542 555 545
f 545 555 720
f 545 720 546
f 546 720 549
f 546 549 547
f 612 611 726
f 726 611 626
f 726 609 720
f 721 608 616
f 620 619 540
f 609 625 720
f 720 625 623
f 720 623 551
f 619 607 540
f 540 607 618
f 540 618 721
f 721 618 617
f 721 617 608
f 616 615 721
f 721 615 614
f 721 614 726
f 726 614 613
f 726 613 612
f 623 622 551
f 551 622 621
f 551 621 552
f 553 621 620
f 553 620 539
f 539 620 540
f 541 540 534
f 534 540 721
f 534 721 535
f 535 721 538
f 535 538 536
f 628 627 722
f 722 627 721
f 722 721 723
f 723 721 726
f 723 726 724
f 724 726 725
f 724 725 565
f 565 725 566

