# https://github.com/mikedh/trimesh
v 0.12345624 0.00703207 0.30263597
v 0.12364143 0.00334358 0.30626309
v 0.12369028 -0.00166660 0.30756328
v 0.12358972 -0.00665600 0.30618829
v 0.12336667 -0.01028772 0.30250642
v 0.12262382 -0.00652167 0.28889525
v 0.12257497 -0.00151148 0.28759497
v 0.12280902 -0.01021016 0.29252228
v 0.12308091 -0.01158863 0.29750431
v 0.12318434 0.00841055 0.29765391
v 0.12289859 0.00710964 0.29265180
v 0.12267554 0.00347792 0.28897005
v 0.06645139 -0.06941635 0.12249445
v 0.06560253 -0.07247342 0.10756673
v 0.06906778 0.04263135 0.15977672
v 0.06855696 0.05405133 0.14966604
v 0.06550237 0.07283913 0.09341577
v 0.06791484 0.06311699 0.13740619
v 0.06635342 0.07272077 0.10865271
v 0.06716947 0.06943214 0.12353297
v 0.06475148 -0.07235505 0.09232979
v 0.06393544 -0.06906643 0.07744953
v 0.06198705 0.03039064 0.03413028
v 0.06248092 0.04354746 0.04184761
v 0.06942495 0.02935616 0.16729635
v 0.06961288 0.01480596 0.17189626
v 0.06799587 -0.05444332 0.14885455
v 0.06726097 -0.06331747 0.13646051
v 0.06164900 0.01591360 0.02931325
v 0.06148155 0.00074905 0.02760704
v 0.06167995 -0.02899044 0.03368614
v 0.06149202 -0.01444025 0.02908622
v 0.06465351 0.06978206 0.07848805
v 0.06384394 0.06368318 0.06452198
v 0.06310903 0.05480904 0.05212794
v 0.06911786 -0.03002492 0.16685222
v 0.06862398 -0.04318174 0.15913488
v 0.06945590 -0.01554788 0.17166924
v 0.06962335 -0.00038333 0.17337546
v 0.06203713 -0.04226563 0.04120577
v 0.06254794 -0.05368561 0.05131646
v 0.06319007 -0.06275128 0.06357632
v -0.00061169 0.19336839 -0.25892985
v -0.01694253 0.19331624 -0.24066645
v -0.00047206 0.22036725 -0.25872791
v -0.01680290 0.22031511 -0.24046451
v 0.06922559 0.21954069 -0.19640768
v 0.05289477 0.21948853 -0.17814432
v 0.06908597 0.19254182 -0.19660962
v 0.05275514 0.19248967 -0.17834626
v -0.00271796 -0.21390916 -0.26197609
v -0.01904880 -0.21396132 -0.24371268
v -0.00257833 -0.18691030 -0.26177415
v -0.01890917 -0.18696244 -0.24351074
v 0.06711932 -0.18773687 -0.19945392
v 0.05078849 -0.18778902 -0.18119057
v 0.06697969 -0.21473573 -0.19965585
v 0.05064887 -0.21478789 -0.18139249
v 0.05468169 -0.00118875 0.29138961
v 0.05478226 0.00380066 0.29276469
v 0.05500530 0.00743237 0.29644647
v 0.05529106 0.00873328 0.30144855
v 0.05556296 0.00735481 0.30643061
v 0.05574815 0.00366632 0.31005773
v 0.05579700 -0.00134387 0.31135792
v 0.05569644 -0.00633327 0.30998293
v 0.05547339 -0.00996498 0.30630109
v 0.05518763 -0.01126589 0.30129895
v 0.05491573 -0.00988742 0.29631692
v 0.05473055 -0.00619893 0.29268989
v 0.07661238 -0.00041655 0.17298482
v 0.07644492 -0.01558110 0.17127861
v 0.07610688 -0.03005815 0.16646159
v 0.07561301 -0.04321497 0.15874426
v 0.07498489 -0.05447654 0.14846393
v 0.07424999 -0.06335069 0.13606988
v 0.07344042 -0.06944957 0.12210383
v 0.07259156 -0.07250664 0.10717610
v 0.07174051 -0.07238828 0.09193916
v 0.07092446 -0.06909965 0.07705890
v 0.07017909 -0.06278450 0.06318569
v 0.06953697 -0.05371883 0.05092583
v 0.06902615 -0.04229885 0.04081514
v 0.06866898 -0.02902366 0.03329552
v 0.06848104 -0.01447347 0.02869559
v 0.06847057 0.00071583 0.02721642
v 0.06863802 0.01588038 0.02892262
v 0.06897607 0.03035742 0.03373966
v 0.06946994 0.04351424 0.04145698
v 0.07009806 0.05477582 0.05173732
v 0.07083296 0.06364996 0.06413136
v 0.07164253 0.06974884 0.07809743
v 0.07249139 0.07280591 0.09302514
v 0.07334244 0.07268754 0.10826208
v 0.07415848 0.06939892 0.12314234
v 0.07490386 0.06308377 0.13701555
v 0.07554598 0.05401811 0.14927541
v 0.07605679 0.04259812 0.15938610
v 0.07641397 0.02932294 0.16690573
v 0.07660191 0.01477274 0.17150564
v 0.06330349 0.22761109 -0.20168009
v 0.04697267 0.22755894 -0.18341665
v 0.00553273 0.22829622 -0.25333583
v -0.01079809 0.22824407 -0.23507242
v -0.01102046 0.18524584 -0.23539403
v -0.02052468 0.18535855 -0.24389225
v -0.02422598 0.19040255 -0.24718754
v -0.02405532 0.22340120 -0.24694073
v -0.02030232 0.22835678 -0.24357064
v 0.00531036 0.18529798 -0.25365743
v 0.06308112 0.18461286 -0.20200171
v 0.04675030 0.18456070 -0.18373826
v 0.05647688 0.22744623 -0.17491847
v 0.06017824 0.22240224 -0.17162323
v 0.06000758 0.18940359 -0.17187004
v 0.05625451 0.18444799 -0.17524007
v 0.00320409 -0.22197957 -0.25670367
v -0.01312673 -0.22203171 -0.23844026
v 0.06097484 -0.22266470 -0.20504794
v 0.04464403 -0.22271685 -0.18678449
v 0.06119721 -0.17966646 -0.20472632
v 0.04486640 -0.17971861 -0.18646288
v 0.00342646 -0.17898133 -0.25638205
v -0.01290436 -0.17903349 -0.23811866
v -0.02263095 -0.22191900 -0.24693848
v -0.02633225 -0.21687502 -0.25023377
v -0.02616160 -0.18387637 -0.24998696
v -0.02240860 -0.17892078 -0.24661687
v 0.05437061 -0.17983133 -0.17796470
v 0.05807196 -0.18487532 -0.17466946
v 0.05790131 -0.21787398 -0.17491628
v 0.05414824 -0.22282957 -0.17828630
v 0.07752802 -0.16074048 -0.08371690
v 0.07804750 -0.17108721 -0.07354248
v 0.07784064 -0.21108554 -0.07384165
v 0.07467172 -0.17061770 -0.13398147
v 0.07529739 -0.16043025 -0.12365346
v 0.07446486 -0.21061604 -0.13428064
v 0.07498434 -0.22096276 -0.12410621
v 0.07721497 -0.22127301 -0.08416965
v 0.08119321 -0.16434211 -0.05367346
v 0.08096442 -0.16697370 -0.05754318
v 0.08070212 -0.16750239 -0.06219122
v 0.08133609 -0.16021056 -0.05146850
v 0.08136032 -0.15552545 -0.05143346
v 0.08126035 -0.15136003 -0.05357637
v 0.08105908 -0.14866865 -0.05740627
v 0.08054974 -0.14969525 -0.06643213
v 0.08080263 -0.14806789 -0.06204586
v 0.08027229 -0.15771832 -0.07071386
v 0.08035834 -0.15317801 -0.06956042
v 0.08031129 -0.16227603 -0.06962847
v 0.08046641 -0.16580698 -0.06655264
v 0.05607031 0.01226380 0.31509051
v 0.05627108 0.00597519 0.31921762
v 0.05631478 -0.00141588 0.32062808
v 0.05454942 0.01247533 0.28786099
v 0.05491993 0.01660707 0.29413873
v 0.05533908 0.01801774 0.30151799
v 0.05574303 0.01649259 0.30887532
v 0.05440838 -0.01479642 0.28765702
v 0.05420761 -0.00850780 0.28352994
v 0.05416391 -0.00111673 0.28211954
v 0.05428394 0.00625157 0.28364033
v 0.05619476 -0.00878418 0.31910723
v 0.05592927 -0.01500795 0.31488654
v 0.05555876 -0.01913968 0.30860880
v 0.05513962 -0.02055035 0.30122951
v 0.05473566 -0.01902520 0.29387224
v 0.06792460 -0.02467910 0.01960784
v 0.06782553 -0.01208092 0.01676369
v 0.06783699 0.00080395 0.01587290
v 0.07406784 -0.07709505 0.13397980
v 0.07336740 -0.08136629 0.12181101
v 0.07264762 -0.08372686 0.10913336
v 0.07636236 -0.04352133 0.17217778
v 0.07589336 -0.05402732 0.16467996
v 0.07534579 -0.06326347 0.15566844
v 0.07473250 -0.07101326 0.14535449
v 0.07486402 0.07685900 0.13513130
v 0.07546487 0.07060120 0.14641370
v 0.07599718 0.06269208 0.15661052
v 0.06795872 0.01367348 0.01695632
v 0.06818786 0.02622601 0.01998858
v 0.06851906 0.03816735 0.02489860
v 0.06894453 0.04921758 0.03157130
v 0.07192533 -0.08412145 0.09624398
v 0.07121750 -0.08254080 0.08344500
v 0.07054070 -0.07902194 0.07103642
v 0.07644851 0.05331701 0.16548283
v 0.07680824 0.04269575 0.17282264
v 0.07706798 0.03107724 0.17845790
v 0.07722162 0.01873381 0.18225652
v 0.07207407 0.08308922 0.08468382
v 0.07279722 0.08447084 0.09750497
v 0.07351439 0.08387605 0.11038694
v 0.07420874 0.08131880 0.12302781
v 0.06991079 -0.07364737 0.05930906
v 0.06934254 -0.06654304 0.04853784
v 0.06884927 -0.05787553 0.03897521
v 0.06844255 -0.04784795 0.03084530
v 0.06813189 -0.03669534 0.02433866
v 0.07726555 0.00595479 0.18412952
v 0.07719876 -0.00696030 0.18403292
v 0.07702281 -0.01970874 0.18196899
v 0.07674181 -0.03199171 0.17798617
v 0.06945431 0.05911769 0.03985026
v 0.07003646 0.06763563 0.04954143
v 0.07067731 0.07457180 0.06041767
v 0.07136187 0.07976355 0.07222405
v 0.05217944 0.22237670 -0.16267790
v 0.04847809 0.22742069 -0.16597310
v -0.02030231 0.22835678 -0.24357064
v -0.02830109 0.22833124 -0.23462528
v -0.03205409 0.22337566 -0.23799537
v -0.03222475 0.19037701 -0.23824218
v -0.02852346 0.18533301 -0.23494688
v -0.02052469 0.18535855 -0.24389225
v 0.04825572 0.18442245 -0.16629471
v 0.05200878 0.18937805 -0.16292471
v -0.03040736 -0.17894632 -0.23767151
v -0.02240858 -0.17892078 -0.24661687
v -0.03416036 -0.18390191 -0.24104160
v -0.03433102 -0.21690056 -0.24128841
v -0.03062973 -0.22194454 -0.23799311
v -0.02263097 -0.22191900 -0.24693848
v 0.04614944 -0.22285511 -0.16934094
v 0.04990251 -0.21789952 -0.16597094
v 0.05007316 -0.18490086 -0.16572413
v 0.04637181 -0.17985687 -0.16901933
v 0.05719918 -0.17053464 -0.13300490
v 0.05699233 -0.21053298 -0.13330407
v 0.05751181 -0.22087970 -0.12312964
v 0.05974244 -0.22118995 -0.08319309
v 0.06036811 -0.21100248 -0.07286509
v 0.06057496 -0.17100415 -0.07256592
v 0.06005549 -0.16065744 -0.08274034
v 0.05782486 -0.16034719 -0.12267689
v 0.04832586 -0.14734145 -0.06420776
v 0.02417968 -0.14582519 -0.06284731
v 0.02438661 -0.14485759 -0.05922729
v 0.04052700 -0.16827372 -0.06393477
v 0.06101216 -0.16716403 -0.06507033
v 0.06111044 -0.14815940 -0.06492819
v 0.06096029 -0.16655099 -0.06605043
v 0.06078897 -0.16265133 -0.06944732
v 0.06074590 -0.15761784 -0.07064609
v 0.06084093 -0.15260357 -0.06937217
v 0.06105231 -0.14875722 -0.06591734
v 0.02405907 -0.16914712 -0.06302175
v 0.02425570 -0.17017077 -0.05941662
v 0.02459734 -0.16948214 -0.05336265
v 0.02489533 -0.16605467 -0.04832238
v 0.02508143 -0.16067329 -0.04545046
v 0.02511299 -0.15457092 -0.04540482
v 0.02498278 -0.14914565 -0.04819591
v 0.02472064 -0.14564015 -0.05318432
v 0.04621045 -0.00873672 0.31966525
v 0.04633048 -0.00136842 0.32118610
v 0.04628678 0.00602265 0.31977564
v 0.04608601 0.01231127 0.31564856
v 0.04575873 0.01654005 0.30943334
v 0.04535477 0.01806520 0.30207601
v 0.04493563 0.01665453 0.29469678
v 0.04456512 0.01252279 0.28841904
v 0.04429964 0.00629903 0.28419837
v 0.04417961 -0.00106927 0.28267759
v 0.04422330 -0.00846034 0.28408799
v 0.04442408 -0.01474896 0.28821504
v 0.04475135 -0.01897774 0.29443026
v 0.04515531 -0.02050289 0.30178756
v 0.04557446 -0.01909222 0.30916682
v 0.04594497 -0.01496049 0.31544459
v 0.02649205 -0.01940336 -0.03222687
v 0.02665193 -0.03973231 -0.02763735
v 0.02698642 -0.05912219 -0.02000350
v 0.02748770 -0.07711850 -0.00950417
v 0.02814400 -0.09329943 0.00361458
v 0.02893996 -0.10728571 0.01904525
v 0.02985691 -0.11874951 0.03642613
v 0.03087335 -0.12742215 0.05534986
v 0.03196547 -0.13310030 0.07537285
v 0.03310766 -0.13565087 0.09602582
v 0.03427317 -0.13501424 0.11682465
v 0.03543465 -0.13120510 0.13728184
v 0.03656490 -0.12431281 0.15691788
v 0.03763741 -0.11449903 0.17527252
v 0.03862706 -0.10199361 0.19191556
v 0.03951064 -0.08708981 0.20645688
v 0.04026744 -0.07013690 0.21855566
v 0.04087973 -0.05153224 0.22792839
v 0.04133315 -0.03171192 0.23435521
v 0.04161708 -0.01114052 0.23768562
v 0.04172486 0.00969980 0.23784149
v 0.04165396 0.03032055 0.23481919
v 0.04140605 0.05023840 0.22868958
v 0.04098693 0.06898651 0.21959624
v 0.04040644 0.08612542 0.20775245
v 0.03967817 0.10125339 0.19343574
v 0.03881920 0.11401591 0.17698170
v 0.03784966 0.12411372 0.15877599
v 0.03679227 0.13131027 0.13924532
v 0.03567183 0.13543677 0.11884748
v 0.03451458 0.13639648 0.09806060
v 0.03334767 0.13416706 0.07737188
v 0.03219843 0.12880065 0.05726628
v 0.03109381 0.12042300 0.03821503
v 0.03005969 0.10923056 0.02066468
v 0.02912032 0.09548563 0.00502660
v 0.02829772 0.07951040 -0.00833267
v 0.02761116 0.06167930 -0.01909996
v 0.02707673 0.04241027 -0.02702297
v 0.02670697 0.02215498 -0.03191603
v 0.02651055 0.00138818 -0.03366421
v 0.04656306 -0.06495813 0.33075562
v 0.04695777 -0.04400488 0.33603582
v 0.03827269 -0.06215353 0.34291068
v 0.04283961 -0.04371626 0.34171000
v 0.03861917 -0.04342043 0.34751666
v 0.03816397 -0.06803168 0.34146547
v 0.03770049 -0.08629940 0.33472672
v 0.04594305 -0.08939559 0.32174098
v 0.03751432 -0.09363756 0.33201978
v 0.03699141 -0.10941709 0.32400605
v 0.04517357 -0.11261589 0.30994835
v 0.03670805 -0.11796809 0.31966344
v 0.03615243 -0.13123187 0.31085047
v 0.04426507 -0.13430361 0.29553816
v 0.03575611 -0.14069268 0.30456421
v 0.03519339 -0.15148878 0.29541424
v 0.04322989 -0.15416420 0.27870595
v 0.03467144 -0.16150291 0.28692725
v 0.03412553 -0.16995135 0.27787849
v 0.04208208 -0.17192778 0.25968039
v 0.03346875 -0.18011588 0.26699200
v 0.03296133 -0.18640371 0.25844800
v 0.04083725 -0.18735333 0.23871985
v 0.03216440 -0.19627893 0.24502937
v 0.03171438 -0.20065285 0.23734964
v 0.03951229 -0.20023109 0.21610917
v 0.03077609 -0.20977241 0.22133754
v 0.03039925 -0.21253130 0.21482974
v 0.03812521 -0.21038626 0.19215533
v 0.02932269 -0.22041313 0.19623841
v 0.02903128 -0.22189920 0.19115095
v 0.03669484 -0.21768093 0.16718373
v 0.02782393 -0.22805649 0.17007285
v 0.02762645 -0.22864513 0.16658966
v 0.03524061 -0.22201586 0.14153358
v 0.02477212 -0.23397814 0.11597379
v 0.03378228 -0.22333235 0.11555323
v 0.02620118 -0.23268808 0.14143263
v 0.02630018 -0.23259868 0.14319631
v 0.01583815 -0.04172821 0.35219029
v -0.00694679 -0.04003562 0.35684463
v -0.00844634 -0.03982706 0.32999718
v 0.04623298 -0.04390407 0.32305929
v 0.04667276 0.04113319 0.32369533
v -0.00804634 0.03751858 0.33057567
v 0.04739755 0.04103239 0.33667183
v 0.04721997 0.06206522 0.33170569
v 0.04327618 0.04070153 0.34234139
v 0.03890010 0.05916502 0.34381807
v 0.03905246 0.04036254 0.34814331
v 0.02719487 0.23449530 0.11947773
v 0.02860854 0.23280989 0.14491433
v 0.03609448 0.22376437 0.11889729
v 0.03753711 0.22204441 0.14485493
v 0.02870647 0.23269308 0.14667647
v 0.02998998 0.22837655 0.17000794
v 0.03894444 0.21731150 0.17043726
v 0.03018109 0.22773388 0.17348194
v 0.03132307 0.22124983 0.19446549
v 0.04029736 0.20962973 0.19529684
v 0.03159870 0.21968490 0.19953012
v 0.03259224 0.21151516 0.21800140
v 0.04157749 0.19910358 0.21909600
v 0.03294003 0.20865549 0.22446717
v 0.03378271 0.19928822 0.24034101
v 0.04276744 0.18587606 0.24151142
v 0.03418688 0.19479550 0.24795443
v 0.03488059 0.18471296 0.26122376
v 0.04385105 0.17012666 0.26223880
v 0.03532230 0.17829311 0.26967272
v 0.03587307 0.16796064 0.28040591
v 0.04481360 0.15206955 0.28099644
v 0.03633088 0.15937261 0.28932723
v 0.03674857 0.14922778 0.29766345
v 0.04564202 0.13194978 0.29752961
v 0.03719890 0.13829079 0.30665088
v 0.03749686 0.12873341 0.31279489
v 0.04632505 0.11004070 0.31161371
v 0.03791460 0.11533426 0.32140842
v 0.03810917 0.10671678 0.32562262
v 0.04685343 0.08663990 0.32305762
v 0.03846823 0.09081458 0.33339942
v 0.03857829 0.08343523 0.33599624
v 0.03885229 0.06506494 0.34246096
v 0.01625480 0.03883630 0.35279286
v -0.00654679 0.03731002 0.35742313
v 0.03052709 0.22453871 0.01922039
v 0.02169707 0.23525995 0.02104671
v 0.02996335 0.18701994 0.01232499
v -0.02511040 0.19115184 0.01220092
v -0.02435245 0.24159637 0.02147187
v 0.02603870 0.18756579 -0.05794080
v -0.02864061 0.19164284 -0.05100293
v -0.06413259 0.22280326 -0.00771106
v -0.02614704 0.21798851 -0.00862884
v -0.06408739 0.21816885 -0.00650830
v -0.02624006 0.21337332 -0.00990078
v -0.06418042 0.21355367 -0.00778024
v -0.02644638 0.21001403 -0.01330642
v -0.06438673 0.21019438 -0.01118589
v -0.02671070 0.20881061 -0.01793336
v -0.06465106 0.20899096 -0.01581282
v -0.02696221 0.21008576 -0.02254176
v -0.06490257 0.21026611 -0.02042122
v -0.02713351 0.21349758 -0.02589676
v -0.06507386 0.21367793 -0.02377622
v -0.02717870 0.21813199 -0.02709950
v -0.06511906 0.21831234 -0.02497897
v -0.02708567 0.22274718 -0.02582758
v -0.06502603 0.22292754 -0.02370704
v -0.02687936 0.22610660 -0.02242193
v -0.06481972 0.22628695 -0.02030139
v -0.02661503 0.22730987 -0.01779499
v -0.06455538 0.22749022 -0.01567446
v -0.02636353 0.22603485 -0.01318659
v -0.06430388 0.22621520 -0.01106606
v -0.02619223 0.22262292 -0.00983160
v 0.02628213 0.23463555 -0.05758874
v -0.02837938 0.24215645 -0.05062512
v -0.03685347 0.24333836 -0.24222994
v 0.05772459 0.23031728 -0.15769683
v 0.05729974 0.14816728 -0.15831128
v -0.03733985 0.14928965 -0.24293338
v 0.06306393 0.22957468 -0.06210293
v 0.06263908 0.14742468 -0.06271736
v 0.05915346 -0.14292078 -0.28313258
v 0.05396380 -0.14289610 -0.28284252
v 0.05920844 -0.13252588 -0.28303283
v 0.05424267 -0.08999670 -0.28235218
v 0.05942747 -0.09094594 -0.28265044
v 0.05964505 -0.04936580 -0.28229383
v 0.05547385 0.14909182 -0.28065860
v 0.06066350 0.14906715 -0.28094867
v 0.05542132 0.13869658 -0.28071436
v 0.06039521 0.09616628 -0.28124964
v 0.05521027 0.09711554 -0.28095394
v 0.06028913 0.07537585 -0.28137937
v 0.05499778 0.05553471 -0.28121933
v 0.06007588 0.03379511 -0.28165835
v 0.05478383 0.01395405 -0.28151077
v 0.05991725 0.00307197 -0.28188354
v 0.05472760 0.00309664 -0.28159350
v 0.05986118 -0.00778546 -0.28196323
v 0.05456845 -0.02762642 -0.28182787
v 0.05435163 -0.06920666 -0.28217092
v 0.06044630 -0.14310059 -0.25998583
v 0.06195634 0.14888734 -0.25780192
v 0.07174315 0.14884081 -0.25834891
v 0.07023311 -0.14314711 -0.26053283
v 0.08109765 -0.14465816 -0.06601736
v 0.08260769 0.14732975 -0.06383344
v 0.06112904 -0.14456324 -0.06490129
v 0.02614736 0.23465429 -0.06000151
v 0.02821489 -0.22255802 0.01587633
v 0.01927431 -0.23321348 0.01754277
v -0.03884989 -0.14269827 -0.24511729
v 0.05578970 -0.14382064 -0.16049519
v 0.05536486 -0.22597064 -0.16110964
v -0.03933627 -0.23674698 -0.24582073
v 0.06070419 -0.22671324 -0.06551573
v 0.02373691 -0.23144165 -0.06348768
v 0.02387167 -0.23146039 -0.06107490
v 0.02411509 -0.18439065 -0.06072284
v 0.02803975 -0.18493649 0.00954294
v -0.03086523 -0.23851888 -0.05422033
v -0.03060400 -0.18800527 -0.05384251
v -0.02707379 -0.18849626 0.00936134
v -0.02683830 -0.23907895 0.01787666
v -0.06637186 -0.21019143 -0.01094964
v -0.02838631 -0.21500620 -0.01186742
v -0.06632666 -0.21482584 -0.00974689
v -0.02847934 -0.21962139 -0.01313936
v -0.06641969 -0.21944104 -0.01101883
v -0.02868565 -0.22298080 -0.01654501
v -0.06662600 -0.22280045 -0.01442447
v -0.02894998 -0.22418407 -0.02117194
v -0.06689033 -0.22400372 -0.01905140
v -0.02920149 -0.22290906 -0.02578034
v -0.06714184 -0.22272870 -0.02365981
v -0.02937278 -0.21949713 -0.02913534
v -0.06731313 -0.21931677 -0.02701481
v -0.02941797 -0.21486270 -0.03033808
v -0.06735833 -0.21468236 -0.02821755
v -0.02932495 -0.21024752 -0.02906616
v -0.06726530 -0.21006717 -0.02694562
v -0.02911863 -0.20688823 -0.02566051
v -0.06705899 -0.20670788 -0.02353998
v -0.02885431 -0.20568483 -0.02103357
v -0.06679466 -0.20550448 -0.01891304
v -0.02860280 -0.20695998 -0.01642518
v -0.06654315 -0.20677961 -0.01430465
v -0.02843150 -0.21037178 -0.01307018
v -0.04434006 0.00339742 0.36507481
v -0.00635452 -0.00141736 0.36415702
v -0.04429487 -0.00123700 0.36627755
v -0.00644754 -0.00603255 0.36288509
v -0.04438790 -0.00585220 0.36500564
v -0.00665386 -0.00939189 0.35947943
v -0.04459421 -0.00921154 0.36159995
v -0.00691818 -0.01059523 0.35485250
v -0.04485854 -0.01041488 0.35697302
v -0.00716969 -0.00932014 0.35024410
v -0.04511005 -0.00913979 0.35236466
v -0.00734099 -0.00590829 0.34688911
v -0.04528134 -0.00572794 0.34900963
v -0.00738618 -0.00127387 0.34568638
v -0.04532653 -0.00109352 0.34780690
v -0.00729315 0.00334133 0.34695828
v -0.04523351 0.00352168 0.34907883
v -0.00708684 0.00670066 0.35036394
v -0.04502719 0.00688101 0.35248446
v -0.00682251 0.00790401 0.35499087
v -0.04476287 0.00808436 0.35711139
v -0.00657101 0.00662892 0.35959926
v -0.04451136 0.00680927 0.36171979
v -0.00639971 0.00321707 0.36295429
v -0.06839104 -0.20522952 -0.04749862
v -0.06852131 -0.21452060 -0.04903927
v -0.06865194 -0.23977844 -0.04922819
v -0.06529430 -0.24024543 0.01088592
v -0.06516368 -0.21498759 0.01107483
v -0.06519774 -0.20567365 0.00967331
v -0.06539279 -0.19724864 0.00546679
v -0.06721321 -0.18605183 -0.02805623
v -0.06770333 -0.19026257 -0.03646720
v -0.06810918 -0.19687083 -0.04316655
v -0.06572976 -0.19053707 -0.00113293
v -0.06617565 -0.18619613 -0.00947993
v -0.06668681 -0.18465054 -0.01875706
v -0.06365979 -0.23980218 -0.04950720
v -0.06030215 -0.24026917 0.01060690
v -0.00695075 -0.04031226 0.35679722
v -0.00695473 -0.04058886 0.35674962
v -0.00735244 -0.06362195 0.35159287
v -0.00736403 -0.06411535 0.35142732
v -0.00793618 -0.08845129 0.34326032
v -0.00794942 -0.08888432 0.34306028
v -0.00866295 -0.11222418 0.33227894
v -0.00867721 -0.11259565 0.33205545
v -0.00952410 -0.13465808 0.31877929
v -0.00953879 -0.13496855 0.31854290
v -0.01050942 -0.15548675 0.30292159
v -0.01052396 -0.15573810 0.30268282
v -0.01160719 -0.17446253 0.28489426
v -0.01162107 -0.17465833 0.28466266
v -0.01280437 -0.19136000 0.26491156
v -0.01281711 -0.19150519 0.26469600
v -0.01408675 -0.20597844 0.24321078
v -0.01543908 -0.21814422 0.22004980
v -0.01409794 -0.20607916 0.24301903
v -0.01684530 -0.22771287 0.19570370
v -0.01544839 -0.21820760 0.21988855
v -0.01828870 -0.23457050 0.17046174
v -0.01685246 -0.22774690 0.19557831
v -0.01975214 -0.23863596 0.14462383
v -0.01829354 -0.23458402 0.17037617
v -0.01975457 -0.23863791 0.14458054
v -0.02121823 -0.23986061 0.11849685
v -0.00654789 0.03758737 0.35737985
v -0.00654900 0.03786467 0.35733640
v -0.00611030 0.03057201 0.36580572
v -0.00644129 -0.03342862 0.36532703
v -0.00594714 -0.03349735 0.37417406
v -0.00550079 -0.02622951 0.38154212
v -0.00524556 0.02312183 0.38191122
v -0.00561616 0.03050329 0.37465274
v -0.01873237 0.24081472 0.12209206
v -0.01728345 0.23918693 0.14815444
v -0.01728105 0.23918431 0.14819768
v -0.01586643 0.23473276 0.17388643
v -0.01586173 0.23471791 0.17397179
v -0.01449809 0.22750489 0.19898336
v -0.01449128 0.22746892 0.19910823
v -0.01319463 0.21758901 0.22314809
v -0.01318598 0.21752314 0.22330837
v -0.01197148 0.20510264 0.24609445
v -0.01196134 0.20499896 0.24628469
v -0.01084312 0.19019361 0.26755092
v -0.01083190 0.19004506 0.26776430
v -0.00982292 0.17303850 0.28726324
v -0.00981109 0.17283911 0.28749192
v -0.00892294 0.15384051 0.30499831
v -0.00891102 0.15358546 0.30523330
v -0.00815386 0.13282697 0.32054588
v -0.00814240 0.13251287 0.32077760
v -0.00752476 0.11024673 0.33372217
v -0.00751436 0.10987183 0.33394012
v -0.00704309 0.08636720 0.34437108
v -0.00703435 0.08593110 0.34456462
v -0.00671455 0.06147111 0.35236666
v -0.00670807 0.06097521 0.35252479
v -0.06616738 0.24347189 -0.04587541
v -0.06629666 0.21847613 -0.04606237
v -0.06626230 0.20908117 -0.04464861
v -0.06606554 0.20058279 -0.04040547
v -0.06422927 0.18928842 -0.00659062
v -0.06373490 0.19353597 0.00189351
v -0.06278052 0.24300085 0.01476200
v -0.06290979 0.21800508 0.01457505
v -0.06304120 0.20863317 0.01302096
v -0.06332552 0.20020169 0.00865119
v -0.06572564 0.19381285 -0.03374826
v -0.06527588 0.18943398 -0.02532866
v -0.06476026 0.18787506 -0.01597076
v -0.05778838 0.24297711 0.01448298
v -0.06117524 0.24344817 -0.04615443
v -0.03908078 0.24364482 -0.24221995
v -0.05458898 0.14937840 -0.24287339
v -0.05409837 0.24424589 -0.24216384
v -0.06117526 0.24344505 -0.04615445
v -0.05778839 0.24297400 0.01448296
v -0.05488264 0.24435496 -0.25620514
v -0.05516483 0.23976007 -0.26086330
v -0.05563150 0.14952341 -0.26153824
v 0.05641082 0.14896151 -0.26388332
v 0.05490078 -0.14302641 -0.26606727
v -0.05609903 -0.14260952 -0.24505731
v -0.05714154 -0.14246452 -0.26372215
v -0.06030078 -0.24000399 0.01060888
v -0.06365842 -0.23953700 -0.04950522
v -0.05760821 -0.23270120 -0.26439708
v -0.05658964 -0.23747699 -0.24576688
v -0.05737391 -0.23736791 -0.25980818
v -0.04156664 -0.23703051 -0.24581516
v -0.04608186 0.00760371 0.33355305
v -0.04492595 0.02359095 0.35287464
v -0.04539827 0.02067261 0.34467235
v -0.04579971 0.01512029 0.33796203
v -0.04365480 0.01482197 0.37636381
v -0.04399828 0.02047789 0.36973730
v -0.04443974 0.02352333 0.36157963
v -0.04353955 -0.00993423 0.38053134
v -0.04341071 -0.00135997 0.38210720
v -0.04345074 0.00723777 0.38065979
v -0.04469545 -0.02592147 0.36120981
v -0.04422314 -0.02300313 0.36941206
v -0.04382170 -0.01745081 0.37612242
v -0.04621069 -0.00097055 0.33197725
v -0.04617067 -0.00956829 0.33342463
v -0.04596661 -0.01715249 0.33772066
v -0.04562313 -0.02280841 0.34434715
v -0.04518166 -0.02585385 0.35250482
v -0.06352916 -0.21454434 -0.04931829
v -0.06017153 -0.21501133 0.01079582
v -0.06020559 -0.20569739 0.00939430
v -0.06040065 -0.19727236 0.00518777
v -0.06073761 -0.19056079 -0.00141195
v -0.06118350 -0.18621987 -0.00975895
v -0.06169466 -0.18467428 -0.01903608
v -0.06222107 -0.18607557 -0.02833524
v -0.06271119 -0.19028631 -0.03674622
v -0.06311703 -0.19689457 -0.04344557
v -0.06339889 -0.20525326 -0.04777763
v -0.04025033 -0.06427735 0.35440353
v -0.03984655 -0.04104678 0.35965222
v -0.02340063 -0.04081773 0.35820106
v -0.04083871 -0.08916695 0.34599313
v -0.04157018 -0.11299328 0.33493230
v -0.04243608 -0.13547416 0.32135177
v -0.04342616 -0.15634349 0.30541235
v -0.04452869 -0.17535403 0.28730288
v -0.04573062 -0.19228086 0.26723766
v -0.04701772 -0.20692335 0.24545443
v -0.04837474 -0.21910833 0.22221102
v -0.04978563 -0.22869140 0.19778264
v -0.05123367 -0.23555911 0.17245856
v -0.05417239 -0.24085633 0.12032975
v -0.05270172 -0.23963013 0.14653865
v -0.03937191 -0.03442762 0.36758152
v -0.03887469 -0.03449677 0.37648350
v -0.03838719 -0.02655915 0.38453066
v -0.03812703 0.02374683 0.38490692
v -0.03853179 0.03180855 0.37697941
v -0.03902900 0.03187770 0.36807746
v -0.03943455 0.03861928 0.36024809
v -0.02299177 0.03824189 0.35879236
v -0.03959765 0.06192870 0.35534748
v -0.05021873 0.24049044 0.15012971
v -0.05167462 0.24212368 0.12394220
v -0.04879487 0.23601720 0.17598571
v -0.04741989 0.22875686 0.20120412
v -0.04611008 0.21879539 0.22548632
v -0.04488095 0.20625073 0.24854475
v -0.04374704 0.19127151 0.27010646
v -0.04272179 0.17403494 0.28991613
v -0.04181733 0.15474524 0.30773914
v -0.04104438 0.13363071 0.32336453
v -0.04041208 0.11094145 0.33660722
v -0.03992793 0.08694606 0.34731036
v -0.05791764 0.21798134 0.01429603
v -0.06130451 0.21845239 -0.04634139
v -0.06127015 0.20905745 -0.04492762
v -0.06107339 0.20055905 -0.04068449
v -0.06073349 0.19378912 -0.03402728
v -0.06028373 0.18941025 -0.02560768
v -0.05976811 0.18785134 -0.01624977
v -0.05923713 0.18926468 -0.00686964
v -0.05874275 0.19351225 0.00161449
v -0.05833337 0.20017797 0.00837218
v -0.05804905 0.20860945 0.01274195
v -0.07286565 0.24507098 -0.25545591
v -0.07317029 0.24011075 -0.26048449
v -0.07561635 -0.23287126 -0.26402217
v -0.07536343 -0.23790903 -0.25906837
v -0.03841857 -0.00138371 0.38182816
v -0.03845860 0.00721403 0.38038078
v -0.03866265 0.01479824 0.37608480
v -0.03900613 0.02045416 0.36945829
v -0.03944759 0.02349960 0.36130062
v -0.03993381 0.02356722 0.35259563
v -0.04040612 0.02064888 0.34439334
v -0.04080756 0.01509656 0.33768302
v -0.04108971 0.00757998 0.33327404
v -0.04121854 -0.00099428 0.33169824
v -0.04117852 -0.00959202 0.33314559
v -0.04097446 -0.01717623 0.33744162
v -0.04063098 -0.02283214 0.34406811
v -0.04018952 -0.02587758 0.35222581
v -0.03970330 -0.02594520 0.36093080
v -0.03923099 -0.02302686 0.36913306
v -0.03882955 -0.01747454 0.37584341
v -0.03854740 -0.00995796 0.38025233
f 1 2 3
f 3 4 5
f 6 7 8
f 8 7 3
f 8 3 9
f 9 3 5
f 10 1 11
f 11 1 3
f 11 3 12
f 12 3 7
f 13 14 15
f 15 14 16
f 16 14 17
f 16 17 18
f 18 17 19
f 18 19 20
f 21 22 14
f 14 22 23
f 14 23 24
f 25 26 15
f 15 26 27
f 15 27 13
f 13 27 28
f 29 23 30
f 30 23 31
f 30 31 32
f 33 17 34
f 34 17 14
f 34 14 35
f 35 14 24
f 36 37 38
f 38 37 27
f 38 27 39
f 39 27 26
f 40 31 41
f 41 31 23
f 41 23 42
f 42 23 22
f 43 44 45
f 45 44 46
f 47 48 49
f 49 48 50
f 51 52 53
f 53 52 54
f 55 56 57
f 57 56 58
f 6 59 7
f 7 59 60
f 7 60 12
f 12 60 61
f 12 61 11
f 11 61 62
f 11 62 10
f 10 62 63
f 10 63 1
f 1 63 64
f 1 64 2
f 2 64 65
f 2 65 3
f 3 65 66
f 3 66 4
f 4 66 67
f 4 67 5
f 5 67 68
f 5 68 9
f 9 68 69
f 9 69 8
f 8 69 70
f 8 70 6
f 6 70 59
f 26 71 39
f 39 71 72
f 39 72 38
f 38 72 73
f 38 73 36
f 36 73 74
f 36 74 37
f 37 74 75
f 37 75 27
f 27 75 76
f 27 76 28
f 28 76 77
f 28 77 13
f 13 77 78
f 13 78 14
f 14 78 79
f 14 79 21
f 21 79 80
f 21 80 22
f 22 80 81
f 22 81 42
f 42 81 82
f 42 82 41
f 41 82 83
f 41 83 40
f 40 83 84
f 40 84 31
f 31 84 85
f 31 85 32
f 32 85 86
f 32 86 30
f 30 86 87
f 30 87 29
f 29 87 88
f 29 88 23
f 23 88 89
f 23 89 24
f 24 89 90
f 24 90 35
f 35 90 91
f 35 91 34
f 34 91 92
f 34 92 33
f 33 92 93
f 33 93 17
f 17 93 94
f 17 94 19
f 19 94 95
f 19 95 20
f 20 95 96
f 20 96 18
f 18 96 97
f 18 97 16
f 16 97 98
f 16 98 15
f 15 98 99
f 15 99 25
f 25 99 100
f 25 100 26
f 26 100 71
f 101 102 47
f 47 102 48
f 45 46 103
f 103 46 104
f 105 106 44
f 44 106 107
f 44 107 46
f 46 107 108
f 46 108 104
f 104 108 109
f 110 105 43
f 43 105 44
f 101 47 103
f 103 47 49
f 43 45 110
f 110 45 103
f 110 103 111
f 111 103 49
f 49 50 111
f 111 50 112
f 102 113 48
f 48 113 114
f 48 114 50
f 50 114 115
f 50 115 112
f 112 115 116
f 117 118 51
f 51 118 52
f 57 58 119
f 119 58 120
f 121 122 55
f 55 122 56
f 121 55 123
f 123 55 57
f 51 53 117
f 117 53 123
f 117 123 119
f 119 123 57
f 53 54 123
f 123 54 124
f 118 125 52
f 52 125 126
f 52 126 54
f 54 126 127
f 54 127 124
f 124 127 128
f 122 129 56
f 56 129 130
f 56 130 58
f 58 130 131
f 58 131 120
f 120 131 132
f 133 134 135
f 136 137 138
f 138 137 133
f 138 133 139
f 139 133 135
f 139 135 140
f 141 142 143
f 144 141 145
f 145 141 143
f 145 143 146
f 146 143 147
f 147 143 148
f 147 148 149
f 150 151 152
f 152 151 148
f 152 148 153
f 153 148 143
f 63 154 64
f 64 154 155
f 64 155 65
f 65 155 156
f 65 156 66
f 60 157 61
f 61 157 158
f 61 158 62
f 62 158 159
f 62 159 63
f 63 159 160
f 63 160 154
f 69 161 70
f 70 161 162
f 70 162 59
f 59 162 163
f 59 163 60
f 60 163 164
f 60 164 157
f 156 165 66
f 66 165 166
f 66 166 67
f 67 166 167
f 67 167 68
f 68 167 168
f 68 168 69
f 69 168 169
f 69 169 161
f 84 170 85
f 85 170 171
f 85 171 86
f 86 171 172
f 86 172 87
f 76 173 77
f 77 173 174
f 77 174 78
f 78 174 175
f 78 175 79
f 73 176 74
f 74 176 177
f 74 177 75
f 75 177 178
f 75 178 76
f 76 178 179
f 76 179 173
f 95 180 96
f 96 180 181
f 96 181 97
f 97 181 182
f 97 182 98
f 172 183 87
f 87 183 184
f 87 184 88
f 88 184 185
f 88 185 89
f 89 185 186
f 89 186 90
f 175 187 79
f 79 187 188
f 79 188 80
f 80 188 189
f 80 189 81
f 182 190 98
f 98 190 191
f 98 191 99
f 99 191 192
f 99 192 100
f 100 192 193
f 100 193 71
f 92 194 93
f 93 194 195
f 93 195 94
f 94 195 196
f 94 196 95
f 95 196 197
f 95 197 180
f 189 198 81
f 81 198 199
f 81 199 82
f 82 199 200
f 82 200 83
f 83 200 201
f 83 201 84
f 84 201 202
f 84 202 170
f 193 203 71
f 71 203 204
f 71 204 72
f 72 204 205
f 72 205 73
f 73 205 206
f 73 206 176
f 186 207 90
f 90 207 208
f 90 208 91
f 91 208 209
f 91 209 92
f 92 209 210
f 92 210 194
f 211 114 212
f 212 114 113
f 104 213 214
f 212 113 102
f 101 103 102
f 102 103 104
f 102 104 212
f 212 104 214
f 214 213 215
f 215 213 108
f 215 108 216
f 216 108 107
f 216 107 217
f 217 107 218
f 112 116 219
f 217 106 105
f 110 111 105
f 105 111 112
f 105 112 217
f 217 112 219
f 219 116 220
f 220 116 115
f 220 115 211
f 211 115 114
f 221 222 223
f 223 222 127
f 223 127 224
f 224 127 126
f 224 126 225
f 225 126 226
f 120 132 227
f 225 125 118
f 117 119 118
f 118 119 120
f 118 120 225
f 225 120 227
f 227 132 228
f 228 132 131
f 228 131 229
f 229 131 130
f 229 130 230
f 230 130 129
f 124 222 221
f 230 129 122
f 121 123 122
f 122 123 124
f 122 124 230
f 230 124 221
f 231 136 232
f 232 136 138
f 232 138 233
f 233 138 139
f 233 139 234
f 234 139 140
f 234 140 235
f 235 140 135
f 235 135 236
f 236 135 134
f 236 134 237
f 237 134 133
f 237 133 238
f 238 133 137
f 238 137 231
f 231 137 136
f 239 240 241
f 242 243 143
f 143 243 153
f 239 241 244
f 243 245 153
f 153 245 246
f 153 246 152
f 152 246 247
f 152 247 150
f 150 247 248
f 150 248 151
f 151 248 249
f 151 249 148
f 148 249 149
f 250 242 251
f 251 242 143
f 251 143 252
f 252 143 142
f 252 142 253
f 253 142 141
f 253 141 254
f 254 141 144
f 254 144 255
f 255 144 145
f 255 145 256
f 256 145 146
f 256 146 257
f 257 146 147
f 257 147 241
f 241 147 149
f 241 149 244
f 244 149 249
f 258 156 259
f 259 156 155
f 259 155 260
f 260 155 154
f 260 154 261
f 261 154 160
f 261 160 262
f 262 160 159
f 262 159 263
f 263 159 158
f 263 158 264
f 264 158 157
f 264 157 265
f 265 157 164
f 265 164 266
f 266 164 163
f 266 163 267
f 267 163 162
f 267 162 268
f 268 162 161
f 268 161 269
f 269 161 169
f 269 169 270
f 270 169 168
f 270 168 271
f 271 168 167
f 271 167 272
f 272 167 166
f 272 166 273
f 273 166 165
f 273 165 258
f 258 165 156
f 274 171 275
f 275 171 170
f 275 170 276
f 276 170 202
f 276 202 277
f 277 202 201
f 277 201 278
f 278 201 200
f 278 200 279
f 279 200 199
f 279 199 280
f 280 199 198
f 280 198 281
f 281 198 189
f 281 189 282
f 282 189 188
f 282 188 283
f 283 188 187
f 283 187 284
f 284 187 175
f 284 175 285
f 285 175 174
f 285 174 286
f 286 174 173
f 286 173 287
f 287 173 179
f 287 179 288
f 288 179 178
f 288 178 289
f 289 178 177
f 289 177 290
f 290 177 176
f 290 176 291
f 291 176 206
f 291 206 292
f 292 206 205
f 292 205 293
f 293 205 204
f 293 204 294
f 294 204 203
f 294 203 295
f 295 203 193
f 295 193 296
f 296 193 192
f 296 192 297
f 297 192 191
f 297 191 298
f 298 191 190
f 298 190 299
f 299 190 182
f 299 182 300
f 300 182 181
f 300 181 301
f 301 181 180
f 301 180 302
f 302 180 197
f 302 197 303
f 303 197 196
f 303 196 304
f 304 196 195
f 304 195 305
f 305 195 194
f 305 194 306
f 306 194 210
f 306 210 307
f 307 210 209
f 307 209 308
f 308 209 208
f 308 208 309
f 309 208 207
f 309 207 310
f 310 207 186
f 310 186 311
f 311 186 185
f 311 185 312
f 312 185 184
f 312 184 313
f 313 184 183
f 313 183 314
f 314 183 172
f 314 172 274
f 274 172 171
f 315 316 317
f 317 316 318
f 317 318 319
f 317 320 315
f 315 320 321
f 315 321 322
f 321 323 322
f 322 323 324
f 322 324 325
f 324 326 325
f 325 326 327
f 325 327 328
f 327 329 328
f 328 329 330
f 328 330 331
f 330 332 331
f 331 332 333
f 331 333 334
f 333 335 334
f 334 335 336
f 334 336 337
f 336 338 337
f 337 338 339
f 337 339 340
f 339 341 340
f 340 341 342
f 340 342 343
f 342 344 343
f 343 344 345
f 343 345 346
f 345 347 346
f 346 347 348
f 346 348 349
f 350 351 352
f 352 351 349
f 352 349 353
f 353 349 348
f 354 319 318
f 355 354 356
f 356 354 318
f 356 318 357
f 357 318 316
f 357 358 356
f 356 358 359
f 360 361 362
f 362 361 363
f 362 363 364
f 365 366 367
f 367 366 368
f 366 369 368
f 368 369 370
f 368 370 371
f 370 372 371
f 371 372 373
f 371 373 374
f 373 375 374
f 374 375 376
f 374 376 377
f 376 378 377
f 377 378 379
f 377 379 380
f 379 381 380
f 380 381 382
f 380 382 383
f 382 384 383
f 383 384 385
f 383 385 386
f 385 387 386
f 386 387 388
f 386 388 389
f 388 390 389
f 389 390 391
f 389 391 392
f 391 393 392
f 392 393 394
f 392 394 395
f 394 396 395
f 395 396 397
f 395 397 361
f 361 397 398
f 361 398 363
f 399 400 359
f 364 399 362
f 362 399 359
f 362 359 360
f 360 359 358
f 401 402 367
f 367 402 365
f 403 404 401
f 401 404 405
f 401 405 402
f 403 406 404
f 404 406 407
f 408 409 410
f 410 409 411
f 410 411 412
f 412 411 413
f 412 413 414
f 414 413 415
f 414 415 416
f 416 415 417
f 416 417 418
f 418 417 419
f 418 419 420
f 420 419 421
f 420 421 422
f 422 421 423
f 422 423 424
f 424 423 425
f 424 425 426
f 426 425 427
f 426 427 428
f 428 427 429
f 428 429 430
f 430 429 431
f 430 431 408
f 408 431 409
f 406 432 407
f 407 432 433
f 434 435 212
f 436 437 217
f 217 219 436
f 436 219 220
f 436 220 435
f 435 220 211
f 435 211 212
f 212 214 434
f 434 214 215
f 434 215 437
f 437 215 216
f 437 216 217
f 435 438 436
f 436 438 439
f 440 441 442
f 442 441 443
f 442 443 444
f 444 443 445
f 446 447 448
f 448 447 449
f 448 449 450
f 450 449 451
f 450 451 452
f 452 451 453
f 452 453 454
f 454 453 455
f 454 455 456
f 456 455 457
f 456 457 458
f 458 457 445
f 458 445 459
f 459 445 443
f 440 442 460
f 460 442 444
f 460 444 445
f 453 461 455
f 455 461 460
f 455 460 457
f 457 460 445
f 453 451 461
f 461 451 449
f 461 449 447
f 461 462 460
f 460 462 463
f 463 462 464
f 464 462 465
f 244 466 239
f 239 466 467
f 239 467 240
f 438 467 439
f 439 467 466
f 439 466 465
f 465 466 464
f 351 350 468
f 468 350 469
f 470 471 230
f 472 473 225
f 230 221 470
f 470 221 223
f 470 223 473
f 473 223 224
f 473 224 225
f 225 227 472
f 472 227 228
f 472 228 471
f 471 228 229
f 471 229 230
f 474 472 233
f 471 231 472
f 472 231 232
f 472 232 233
f 249 248 237
f 248 247 237
f 237 247 246
f 237 246 236
f 244 249 466
f 466 249 237
f 466 237 471
f 471 237 238
f 471 238 231
f 233 234 474
f 474 234 235
f 474 235 243
f 243 235 236
f 243 236 245
f 245 236 246
f 250 475 242
f 242 475 474
f 242 474 243
f 343 346 349
f 476 475 477
f 477 475 250
f 361 360 358
f 325 349 322
f 322 349 357
f 322 357 315
f 315 357 316
f 395 368 371
f 395 371 392
f 392 371 374
f 392 374 389
f 389 374 377
f 389 377 386
f 386 377 380
f 386 380 383
f 272 273 357
f 337 340 334
f 334 340 343
f 334 343 331
f 331 343 349
f 331 349 328
f 328 349 325
f 273 258 357
f 357 258 259
f 357 259 358
f 358 259 260
f 358 260 261
f 253 478 252
f 252 478 477
f 252 477 251
f 251 477 250
f 275 276 478
f 478 276 277
f 478 277 278
f 290 291 270
f 270 291 292
f 270 292 269
f 269 292 293
f 269 293 268
f 253 254 478
f 478 254 255
f 478 255 275
f 275 255 256
f 275 256 274
f 274 256 257
f 406 312 313
f 261 262 358
f 358 262 368
f 358 368 361
f 361 368 395
f 301 302 368
f 268 293 267
f 267 293 294
f 267 294 266
f 266 294 295
f 266 295 265
f 265 295 296
f 265 296 297
f 309 310 406
f 406 310 311
f 406 311 312
f 467 432 240
f 240 432 406
f 240 406 241
f 241 406 313
f 241 313 257
f 257 313 314
f 257 314 274
f 278 279 478
f 478 279 280
f 478 280 468
f 351 284 349
f 349 284 285
f 349 285 286
f 403 307 406
f 406 307 308
f 406 308 309
f 262 263 368
f 368 263 264
f 368 264 265
f 368 302 367
f 280 281 468
f 468 281 282
f 468 282 351
f 351 282 283
f 351 283 284
f 286 287 349
f 349 287 288
f 349 288 289
f 297 298 265
f 265 298 299
f 265 299 368
f 368 299 300
f 368 300 301
f 302 303 367
f 367 303 304
f 367 304 401
f 401 304 305
f 401 305 403
f 403 305 306
f 403 306 307
f 272 357 271
f 271 357 349
f 271 349 270
f 270 349 289
f 270 289 290
f 476 477 479
f 479 477 480
f 477 478 480
f 480 478 481
f 469 482 468
f 468 482 481
f 468 481 478
f 483 484 485
f 485 484 486
f 485 486 487
f 487 486 488
f 487 488 489
f 489 488 490
f 489 490 491
f 491 490 492
f 491 492 493
f 493 492 494
f 493 494 495
f 495 494 496
f 495 496 497
f 497 496 498
f 497 498 499
f 499 498 500
f 499 500 501
f 501 500 502
f 501 502 503
f 503 502 504
f 503 504 505
f 505 504 506
f 505 506 483
f 483 506 484
f 507 508 509
f 509 508 510
f 509 510 511
f 511 510 512
f 511 512 513
f 513 512 514
f 513 514 515
f 515 514 516
f 515 516 517
f 517 516 518
f 517 518 519
f 519 518 520
f 519 520 521
f 521 520 522
f 521 522 523
f 523 522 524
f 523 524 525
f 525 524 526
f 525 526 527
f 527 526 528
f 527 528 529
f 529 528 530
f 529 530 507
f 507 530 508
f 499 531 497
f 497 531 532
f 497 532 495
f 495 532 533
f 495 533 493
f 534 535 485
f 485 535 536
f 485 536 483
f 483 536 537
f 483 537 505
f 485 487 534
f 534 487 489
f 534 489 533
f 533 489 491
f 533 491 493
f 503 538 501
f 501 538 539
f 501 539 499
f 499 539 540
f 499 540 531
f 537 541 505
f 505 541 542
f 505 542 503
f 503 542 543
f 503 543 538
f 544 545 533
f 533 545 534
f 355 546 354
f 354 546 547
f 354 547 548
f 319 354 317
f 317 354 548
f 317 548 320
f 320 548 549
f 320 549 321
f 321 549 550
f 321 550 323
f 323 550 551
f 323 551 324
f 324 551 552
f 324 552 326
f 326 552 553
f 326 553 327
f 327 553 554
f 327 554 329
f 329 554 555
f 329 555 330
f 555 556 330
f 330 556 557
f 330 557 332
f 332 557 558
f 332 558 333
f 333 558 559
f 333 559 335
f 335 559 560
f 335 560 336
f 336 560 561
f 336 561 338
f 338 561 562
f 338 562 339
f 563 342 341
f 339 562 341
f 341 562 564
f 341 564 563
f 565 345 344
f 342 563 344
f 344 563 566
f 344 566 565
f 567 348 347
f 345 565 347
f 347 565 568
f 347 568 567
f 569 352 353
f 348 567 353
f 353 567 570
f 353 570 569
f 352 569 350
f 350 569 571
f 350 571 572
f 573 574 575
f 518 516 576
f 576 516 514
f 576 514 577
f 577 514 512
f 577 512 578
f 524 359 526
f 526 359 400
f 526 400 528
f 512 510 578
f 578 510 508
f 578 508 579
f 579 508 530
f 579 530 580
f 580 530 528
f 580 528 575
f 575 528 400
f 575 400 573
f 547 546 576
f 576 546 355
f 576 355 518
f 518 355 356
f 518 356 520
f 520 356 359
f 520 359 522
f 522 359 524
f 400 399 573
f 573 399 364
f 573 364 574
f 574 364 363
f 365 581 582
f 365 582 366
f 366 582 583
f 366 583 369
f 369 583 584
f 369 584 370
f 370 584 585
f 370 585 372
f 372 585 586
f 372 586 373
f 373 586 587
f 373 587 375
f 375 587 588
f 375 588 376
f 376 588 589
f 376 589 378
f 378 589 590
f 378 590 379
f 379 590 591
f 379 591 381
f 381 591 592
f 381 592 382
f 382 592 593
f 382 593 384
f 384 593 594
f 384 594 385
f 385 594 595
f 385 595 387
f 387 595 596
f 387 596 388
f 388 596 597
f 388 597 390
f 390 597 598
f 390 598 391
f 391 598 599
f 391 599 393
f 393 599 600
f 393 600 394
f 394 600 601
f 394 601 396
f 396 601 602
f 396 602 397
f 397 602 603
f 397 603 398
f 398 603 604
f 398 604 363
f 363 604 605
f 363 605 574
f 606 607 422
f 422 607 608
f 422 608 420
f 420 608 609
f 420 609 418
f 416 610 414
f 414 610 611
f 414 611 412
f 422 424 606
f 606 424 426
f 606 426 612
f 612 426 428
f 428 430 612
f 612 430 408
f 612 408 613
f 613 408 410
f 613 410 614
f 614 410 412
f 614 412 615
f 615 412 611
f 609 616 418
f 418 616 617
f 418 617 416
f 416 617 618
f 416 618 610
f 619 620 612
f 612 620 606
f 405 581 402
f 402 581 365
f 425 423 433
f 433 423 421
f 433 421 407
f 409 431 405
f 405 431 429
f 405 429 433
f 433 429 427
f 433 427 425
f 409 405 411
f 411 405 404
f 411 404 413
f 421 419 407
f 407 419 417
f 407 417 404
f 404 417 415
f 404 415 413
f 433 432 621
f 621 432 467
f 621 467 434
f 434 467 438
f 434 438 435
f 434 437 621
f 621 437 622
f 621 622 623
f 624 620 625
f 625 620 619
f 626 623 627
f 627 623 622
f 627 622 628
f 447 446 461
f 461 446 629
f 436 439 465
f 465 462 436
f 436 462 461
f 436 461 437
f 437 461 629
f 437 629 622
f 622 629 628
f 446 448 629
f 629 448 450
f 629 450 452
f 458 630 456
f 456 630 629
f 456 629 454
f 454 629 452
f 458 459 630
f 630 459 443
f 630 443 441
f 464 466 471
f 631 632 470
f 470 632 630
f 470 630 471
f 441 440 630
f 630 440 460
f 630 460 471
f 471 460 463
f 471 463 464
f 572 482 350
f 350 482 469
f 545 544 633
f 633 544 634
f 632 631 635
f 635 631 636
f 635 636 637
f 636 631 638
f 638 631 470
f 638 470 473
f 475 476 479
f 472 474 473
f 473 474 475
f 473 475 638
f 638 475 479
f 506 481 484
f 484 481 482
f 484 482 486
f 506 504 481
f 481 504 502
f 481 502 480
f 502 500 480
f 480 500 498
f 480 498 479
f 479 498 496
f 479 496 494
f 494 492 479
f 479 492 490
f 479 490 482
f 482 490 488
f 482 488 486
f 521 523 639
f 527 640 525
f 525 640 641
f 525 641 523
f 523 641 642
f 523 642 639
f 507 643 529
f 529 643 644
f 529 644 527
f 527 644 645
f 527 645 640
f 511 646 509
f 509 646 647
f 509 647 507
f 507 647 648
f 507 648 643
f 515 649 513
f 513 649 650
f 513 650 511
f 511 650 651
f 511 651 646
f 639 652 521
f 521 652 653
f 521 653 519
f 519 653 654
f 519 654 517
f 517 654 655
f 517 655 515
f 515 655 656
f 515 656 649
f 544 533 634
f 634 533 532
f 634 532 657
f 535 658 659
f 535 659 536
f 536 659 660
f 536 660 537
f 537 660 661
f 537 661 541
f 541 661 662
f 541 662 542
f 542 662 663
f 542 663 543
f 543 663 664
f 543 664 538
f 538 664 665
f 538 665 539
f 539 665 666
f 539 666 540
f 540 666 667
f 540 667 531
f 531 667 657
f 531 657 532
f 658 535 633
f 633 535 534
f 633 534 545
f 668 549 548
f 669 668 670
f 670 668 548
f 670 548 547
f 549 668 550
f 550 668 671
f 550 671 551
f 551 671 552
f 552 671 672
f 552 672 553
f 553 672 554
f 554 672 673
f 554 673 555
f 555 673 556
f 556 673 674
f 556 674 557
f 557 674 558
f 558 674 675
f 558 675 559
f 559 675 560
f 560 675 676
f 560 676 561
f 561 676 562
f 562 676 677
f 562 677 564
f 564 677 563
f 563 677 678
f 563 678 566
f 679 680 570
f 570 567 679
f 679 567 568
f 679 568 678
f 678 568 565
f 678 565 566
f 681 572 682
f 682 572 571
f 682 571 680
f 680 571 569
f 680 569 570
f 683 669 576
f 576 669 670
f 576 670 547
f 576 577 683
f 683 577 684
f 577 578 684
f 684 578 685
f 578 579 685
f 685 579 686
f 579 580 686
f 686 580 687
f 580 575 687
f 687 575 688
f 689 688 690
f 690 688 575
f 690 575 574
f 690 574 605
f 691 689 690
f 692 582 693
f 693 582 581
f 694 695 586
f 586 585 694
f 694 585 584
f 694 584 692
f 692 584 583
f 692 583 582
f 696 697 590
f 590 589 696
f 696 589 588
f 696 588 695
f 695 588 587
f 695 587 586
f 698 699 594
f 594 593 698
f 698 593 592
f 698 592 697
f 697 592 591
f 697 591 590
f 700 701 598
f 598 597 700
f 700 597 596
f 700 596 699
f 699 596 595
f 699 595 594
f 702 703 602
f 602 601 702
f 702 601 600
f 702 600 701
f 701 600 599
f 701 599 598
f 690 605 691
f 691 605 604
f 691 604 703
f 703 604 603
f 703 603 602
f 619 612 625
f 625 612 613
f 625 613 704
f 607 705 706
f 607 706 608
f 608 706 707
f 608 707 609
f 609 707 708
f 609 708 616
f 616 708 709
f 616 709 617
f 617 709 710
f 617 710 618
f 618 710 711
f 618 711 610
f 610 711 712
f 610 712 611
f 611 712 713
f 611 713 615
f 615 713 714
f 615 714 614
f 614 714 704
f 614 704 613
f 606 620 607
f 607 620 624
f 607 624 705
f 626 715 623
f 623 715 624
f 621 623 433
f 433 623 624
f 433 624 405
f 405 624 625
f 405 625 581
f 581 625 693
f 715 626 716
f 716 626 627
f 716 627 717
f 717 627 628
f 635 717 632
f 632 717 628
f 632 628 630
f 630 628 629
f 635 637 717
f 717 637 718
f 718 637 634
f 634 637 636
f 572 681 482
f 482 681 633
f 482 633 479
f 479 633 634
f 479 634 638
f 638 634 636
f 646 719 647
f 647 719 720
f 647 720 648
f 648 720 721
f 648 721 643
f 643 721 722
f 643 722 644
f 644 722 723
f 644 723 645
f 645 723 724
f 645 724 640
f 640 724 725
f 640 725 641
f 641 725 726
f 641 726 642
f 642 726 727
f 642 727 639
f 639 727 728
f 639 728 652
f 652 728 729
f 652 729 653
f 653 729 730
f 653 730 654
f 654 730 731
f 654 731 655
f 655 731 732
f 655 732 656
f 656 732 733
f 656 733 649
f 649 733 734
f 649 734 650
f 650 734 735
f 650 735 651
f 651 735 736
f 651 736 646
f 646 736 719
f 678 677 676
f 689 726 725
f 716 728 727
f 722 721 686
f 686 687 722
f 722 687 688
f 722 688 723
f 723 688 689
f 723 689 724
f 724 689 725
f 712 711 727
f 717 718 634
f 721 720 686
f 686 720 719
f 686 719 685
f 732 669 733
f 733 669 683
f 733 683 734
f 734 683 684
f 734 684 735
f 735 684 685
f 735 685 736
f 736 685 719
f 666 716 667
f 667 716 717
f 667 717 657
f 657 717 634
f 666 665 716
f 716 665 664
f 716 664 663
f 731 730 716
f 716 730 729
f 716 729 728
f 711 710 727
f 727 710 709
f 727 709 716
f 716 709 708
f 716 708 707
f 624 715 705
f 705 715 716
f 705 716 706
f 706 716 707
f 658 676 675
f 658 675 659
f 659 675 674
f 659 674 673
f 693 625 704
f 663 662 716
f 716 662 669
f 716 669 731
f 731 669 732
f 662 661 669
f 669 661 660
f 669 660 668
f 668 660 659
f 668 659 671
f 671 659 673
f 671 673 672
f 681 682 680
f 689 691 726
f 726 691 714
f 726 714 727
f 727 714 713
f 727 713 712
f 658 633 676
f 676 633 681
f 676 681 678
f 678 681 680
f 678 680 679
f 692 698 697
f 692 697 694
f 694 697 696
f 694 696 695
f 691 703 714
f 714 703 702
f 714 702 701
f 692 693 698
f 698 693 704
f 698 704 699
f 699 704 714
f 699 714 700
f 700 714 701

