# https://github.com/mikedh/trimesh
v -0.02350000 0.01874577 -0.02715868
v -0.02350000 0.01533540 -0.02922023
v -0.02350000 0.01170152 -0.03085572
v -0.02350000 0.02921969 -0.01533632
v -0.02350000 -0.03085539 0.01170250
v -0.02350000 0.03085530 -0.01170249
v -0.02350000 -0.02921973 0.01533627
v -0.02350000 0.00789700 -0.03204120
v -0.02350000 0.00397720 -0.03275949
v -0.02350000 -0.01874581 0.02715881
v -0.02350000 -0.01533543 0.02922024
v -0.02350000 -0.02188272 0.02470130
v -0.02350000 -0.02470057 0.02188353
v -0.02350000 -0.02921973 0.01533633
v -0.02350000 -0.02715812 0.01874652
v -0.02350000 -0.01170155 0.03085573
v -0.02350000 -0.00789703 0.03204120
v -0.02350000 -0.00397724 0.03275944
v -0.02350000 0.02188269 -0.02470117
v -0.02350000 0.02470054 -0.02188340
v -0.02350000 0.02715809 -0.01874651
v -0.02350000 0.02715809 -0.01874663
v -0.02350000 -0.00789806 -0.03204094
v -0.02350000 -0.01170254 -0.03085534
v -0.02350000 -0.00397829 -0.03275936
v -0.02350000 -0.00000058 -0.03299999
v -0.02350000 -0.01533637 -0.02921973
v -0.02350000 -0.01874668 -0.02715807
v -0.02350000 -0.03085577 -0.01170150
v -0.02350000 -0.03204124 -0.00789686
v -0.02350000 -0.03275936 -0.00397718
v -0.02350000 0.00789803 0.03204095
v -0.02350000 0.01170251 0.03085535
v -0.02350000 0.00397826 0.03275931
v -0.02350000 0.00000048 0.03300000
v -0.02350000 0.01533634 0.02921974
v -0.02350000 0.01874665 0.02715820
v -0.02350000 0.03085568 0.01170151
v -0.02350000 0.03204115 0.00789687
v -0.02350000 0.03275933 0.00397720
v -0.02350000 -0.02922022 -0.01533538
v -0.02350000 -0.02715873 -0.01874564
v -0.02350000 -0.02715873 -0.01874576
v -0.02350000 -0.01874668 -0.02715819
v -0.02350000 -0.02470128 -0.02188261
v -0.02350000 -0.02188351 -0.02470046
v -0.02350000 -0.03204099 0.00789790
v -0.02350000 -0.03275923 0.00397825
v -0.02350000 -0.03300004 0.00000054
v -0.02350000 0.02922018 0.01533539
v -0.02350000 0.02715869 0.01874565
v -0.02350000 0.02715869 0.01874577
v -0.02350000 0.02470125 0.02188274
v -0.02350000 0.02188348 0.02470059
v -0.02350000 0.03204090 -0.00789789
v -0.02350000 0.03275920 -0.00397824
v -0.02350000 0.03300001 -0.00000052
v -0.01450001 -0.03275923 0.00397825
v -0.01450001 -0.03300004 0.00000054
v -0.01450001 -0.03275936 -0.00397718
v -0.01450001 -0.03204124 -0.00789686
v -0.01450001 -0.03085577 -0.01170150
v -0.01450001 -0.02922022 -0.01533538
v -0.01450001 -0.02715873 -0.01874564
v -0.01450001 -0.02715873 -0.01874576
v -0.01450001 -0.02470128 -0.02188261
v -0.01450001 -0.02188351 -0.02470046
v -0.01450001 -0.01874668 -0.02715819
v -0.01450001 -0.01874668 -0.02715807
v -0.02350000 -0.01533637 -0.02921985
v -0.01450001 -0.01533637 -0.02921985
v -0.01450001 -0.01533637 -0.02921973
v -0.01450001 -0.01170254 -0.03085534
v -0.01450001 -0.00789806 -0.03204094
v -0.01450001 -0.00397829 -0.03275936
v -0.01450001 -0.00000058 -0.03299999
v -0.01450001 0.00397720 -0.03275949
v -0.01450001 0.00789700 -0.03204120
v -0.01450001 0.01170152 -0.03085572
v -0.02350000 0.01533540 -0.02922034
v -0.01450001 0.01533540 -0.02922034
v -0.01450001 0.01533540 -0.02922023
v -0.02350000 0.01874577 -0.02715879
v -0.01450001 0.01874577 -0.02715879
v -0.01450001 0.01874577 -0.02715868
v -0.01450001 0.02188269 -0.02470117
v -0.01450001 0.02470054 -0.02188340
v -0.01450001 0.02715809 -0.01874651
v -0.01450001 0.02715809 -0.01874663
v -0.01450001 0.02921969 -0.01533632
v -0.01450001 0.03085530 -0.01170249
v -0.01450001 0.03204090 -0.00789789
v -0.01450001 0.03275920 -0.00397824
v -0.01450001 0.03300001 -0.00000052
v -0.01450001 0.03275933 0.00397720
v -0.01450001 0.03204115 0.00789687
v -0.01450001 0.03085568 0.01170151
v -0.02350000 0.02922018 0.01533533
v -0.01450001 0.02922018 0.01533533
v -0.01450001 0.02922018 0.01533539
v -0.01450001 0.02715869 0.01874565
v -0.01450001 0.02715869 0.01874577
v -0.01450001 0.02470125 0.02188274
v -0.01450001 0.02188348 0.02470059
v -0.01450001 0.01874665 0.02715820
v -0.01450001 0.01533634 0.02921974
v -0.01450001 0.01170251 0.03085535
v -0.01450001 0.00789803 0.03204095
v -0.01450001 0.00397826 0.03275931
v -0.01450001 0.00000048 0.03300000
v -0.01450001 -0.00397724 0.03275944
v -0.01450001 -0.00789703 0.03204120
v -0.01450001 -0.01170155 0.03085573
v -0.01450001 -0.01533543 0.02922024
v -0.01450001 -0.01874581 0.02715881
v -0.01450001 -0.02188272 0.02470130
v -0.01450001 -0.02470057 0.02188353
v -0.02350000 -0.02715812 0.01874664
v -0.01450001 -0.02715812 0.01874652
v -0.01450001 -0.02715812 0.01874664
v -0.01450001 -0.02921973 0.01533627
v -0.01450001 -0.02921973 0.01533633
v -0.01450001 -0.03085539 0.01170250
v -0.01450001 -0.03204099 0.00789790
v -0.01450001 0.00227326 -0.04193846
v -0.01450001 -0.00227464 -0.04193838
v -0.01450001 -0.00679558 -0.04144663
v -0.01450001 -0.01123689 -0.04046893
v -0.01450001 -0.01554640 -0.03901677
v -0.01450001 -0.01967381 -0.03710715
v -0.01450001 -0.02357049 -0.03476248
v -0.01450001 -0.02719071 -0.03201035
v -0.01450001 -0.03049228 -0.02888278
v -0.01450001 -0.03049228 -0.02888290
v -0.01450001 0.03598758 -0.02165387
v -0.01450001 0.03343549 -0.02541786
v -0.01450001 0.03343549 -0.02541798
v -0.01450001 0.03049132 -0.02888376
v -0.01450001 0.03049132 -0.02888388
v -0.01450001 0.02718965 -0.03201123
v -0.01450001 0.02356928 -0.03476324
v -0.01450001 0.01967259 -0.03710778
v -0.01450001 0.01554511 -0.03901727
v -0.01450001 0.01123555 -0.04046929
v -0.01450001 0.00679422 -0.04144685
v -0.01450001 0.03598827 0.02165272
v -0.01450001 0.03811848 0.01763468
v -0.01450001 0.03980159 0.01341005
v -0.01450001 0.04101823 0.00902814
v -0.01450001 0.04175386 0.00454037
v -0.01450001 0.04200001 -0.00000067
v -0.01450001 0.04175371 -0.00454170
v -0.01450001 0.04101794 -0.00902933
v -0.01450001 0.03980116 -0.01341120
v -0.01450001 0.03811792 -0.01763601
v -0.01450001 0.03598758 -0.02165375
v -0.01450001 -0.00227329 0.04193799
v -0.01450001 0.00227460 0.04193791
v -0.01450001 0.00679555 0.04144694
v -0.01450001 0.01123685 0.04046888
v -0.01450001 0.01554637 0.03901684
v -0.01450001 0.01967378 0.03710715
v -0.01450001 0.02357039 0.03476260
v -0.01450001 0.02357039 0.03476248
v -0.01450001 0.02719068 0.03201036
v -0.01450001 0.03049225 0.02888291
v -0.01450001 0.03343631 0.02541674
v -0.01450001 -0.03598767 0.02165388
v -0.01450001 -0.03343552 0.02541781
v -0.01450001 -0.03049135 0.02888389
v -0.01450001 -0.02718968 0.03201123
v -0.01450001 -0.02356937 0.03476336
v -0.01450001 -0.02356937 0.03476324
v -0.01450001 -0.01967262 0.03710779
v -0.01450001 -0.01554514 0.03901733
v -0.01450001 -0.01123559 0.04046923
v -0.01450001 -0.00679425 0.04144716
v -0.01450001 -0.03343634 -0.02541691
v -0.01450001 -0.03598836 -0.02165259
v -0.01450001 -0.03598836 -0.02165271
v -0.01450001 -0.03811851 -0.01763479
v -0.01450001 -0.03980162 -0.01340992
v -0.01450001 -0.04101832 -0.00902801
v -0.01450001 -0.04175389 -0.00454036
v -0.01450001 -0.04200004 0.00000068
v -0.01450001 -0.04175374 0.00454172
v -0.01450001 -0.04101803 0.00902946
v -0.01450001 -0.03980119 0.01341133
v -0.01450001 -0.03811795 0.01763590
v -0.00188462 -0.04014095 0.01235777
v -0.00243629 -0.04017415 0.01224863
v -0.00110516 0.04011206 0.01245035
v 0.00188461 -0.04014135 -0.01235647
v 0.00243629 -0.04017455 -0.01224733
v 0.00110515 0.04011165 -0.01245175
v -0.01214281 -0.04189513 -0.00296626
v -0.01163269 0.04175037 -0.00454123
v -0.01224795 -0.04192587 -0.00243560
v -0.01183011 0.04180540 -0.00403787
v -0.01206494 0.04187252 -0.00326992
v -0.01225164 0.04192683 -0.00243748
v -0.01235662 -0.04195763 -0.00188718
v -0.01230542 0.04194246 -0.00219770
v -0.01247449 -0.04199242 -0.00079755
v -0.01187641 -0.04181867 -0.00389824
v -0.01163395 -0.04175103 -0.00454007
v -0.01153892 0.04172432 -0.00478048
v -0.01154299 -0.04172552 -0.00478069
v -0.01148793 -0.04171014 -0.00492654
v -0.01100936 -0.04158082 -0.00591914
v -0.01044000 -0.04143385 -0.00687365
v -0.01142131 0.04169159 -0.00508047
v -0.01039135 -0.04142169 -0.00694250
v -0.00918413 0.04113489 -0.00848013
v -0.00991099 0.04130341 -0.00761783
v -0.01034040 0.04140850 -0.00702399
v -0.01039008 0.04142120 -0.00694329
v -0.01092415 0.04155818 -0.00607628
v -0.00863318 -0.04101695 -0.00902783
v -0.00847050 -0.04098184 -0.00919174
v -0.00883014 0.04105925 -0.00883072
v -0.00996892 -0.04131751 -0.00754063
v -0.00925749 -0.04115176 -0.00839864
v -0.00883004 -0.04105950 -0.00882941
v -0.00760810 -0.04081240 -0.00991737
v -0.00702015 -0.04070691 -0.01034188
v -0.00862985 0.04101633 -0.00902903
v -0.00838978 0.04096495 -0.00926679
v -0.00694268 -0.04069439 -0.01038956
v -0.00492312 0.04039771 -0.01149033
v -0.00591537 0.04053064 -0.01101237
v -0.00686980 0.04068085 -0.01044362
v -0.00694315 0.04069373 -0.01039182
v -0.00753042 0.04079762 -0.00997775
v -0.00243679 -0.04017342 -0.01225096
v -0.00243629 0.04017412 -0.01224862
v -0.00326484 -0.04022956 -0.01206547
v -0.00296169 0.04020578 -0.01214473
v -0.00403242 -0.04029923 -0.01183105
v -0.00477983 -0.04038363 -0.01153833
v -0.00607178 -0.04055409 -0.01092559
v -0.00507535 -0.04041689 -0.01142258
v -0.00478152 0.04038215 -0.01154374
v -0.00389535 0.04028529 -0.01187812
v -0.00389535 0.04028529 -0.01187830
v -0.00219377 -0.04015690 -0.01230538
v -0.00110516 -0.04011209 -0.01245046
v -0.00110516 -0.04011209 -0.01245034
v -0.00188462 0.04014092 -0.01235775
v -0.00079705 0.04010444 -0.01247512
v 0.00110515 0.04011165 -0.01245163
v 0.00219376 0.04015648 -0.01230667
v -0.00000000 0.04009645 -0.01250063
v -0.00000000 -0.04009689 -0.01249934
v 0.00079705 -0.04010487 -0.01247383
v 0.00477982 0.04038323 -0.01153963
v 0.00403241 0.04029882 -0.01183234
v 0.00296168 -0.04020619 -0.01214344
v 0.00326483 0.04022914 -0.01206677
v 0.00243678 0.04017299 -0.01225226
v 0.00389534 -0.04028576 -0.01187700
v 0.00478151 -0.04038262 -0.01154244
v 0.00507534 0.04041649 -0.01142387
v 0.00492311 -0.04039811 -0.01148903
v 0.00591536 -0.04053102 -0.01101106
v 0.00694267 0.04069402 -0.01039087
v 0.00607177 0.04055371 -0.01092689
v 0.00863317 0.04101663 -0.00902915
v 0.00847049 0.04098152 -0.00919306
v 0.00883014 -0.04105956 -0.00882941
v 0.00686979 -0.04068122 -0.01044231
v 0.00694314 -0.04069409 -0.01039052
v 0.00702014 0.04070654 -0.01034319
v 0.00753041 -0.04079797 -0.00997644
v 0.00838977 -0.04096527 -0.00926547
v 0.00760809 0.04081199 -0.00991868
v 0.00862984 -0.04101665 -0.00902771
v 0.00918412 -0.04113526 -0.00847881
v 0.00925748 0.04115146 -0.00839996
v 0.00883003 0.04105919 -0.00883072
v 0.00991098 -0.04130368 -0.00761651
v 0.01039135 0.04142144 -0.00694383
v 0.00996891 0.04131724 -0.00754196
v 0.01153892 -0.04172451 -0.00477914
v 0.01154299 0.04172533 -0.00478203
v 0.01148793 0.04170990 -0.00492788
v 0.01100934 0.04158060 -0.00592048
v 0.01044000 0.04143360 -0.00687498
v 0.01142130 -0.04169179 -0.00507913
v 0.01034039 -0.04140875 -0.00702266
v 0.01039008 -0.04142145 -0.00694196
v 0.01092415 -0.04155841 -0.00607495
v 0.01163395 0.04175085 -0.00454141
v 0.01163269 -0.04175061 -0.00453989
v 0.01187641 0.04181851 -0.00389958
v 0.01183011 -0.04180555 -0.00403652
v 0.01224794 0.04192570 -0.00243695
v 0.01214280 0.04189500 -0.00296761
v 0.01206494 -0.04187272 -0.00326858
v 0.01225163 -0.04192695 -0.00243614
v 0.01235661 0.04195754 -0.00188853
v 0.01230542 -0.04194256 -0.00219635
v 0.01247449 0.04199237 -0.00079889
v 0.01245090 -0.04198546 -0.00110618
v 0.01250000 -0.04200004 0.00000068
v 0.01250000 0.04200001 -0.00000067
v 0.01247449 -0.04199240 0.00079891
v 0.01214280 -0.04189503 0.00296762
v 0.01163269 0.04175052 0.00453990
v 0.01224794 -0.04192579 0.00243696
v 0.01183011 0.04180552 0.00403642
v 0.01206494 0.04187263 0.00326841
v 0.01225163 0.04192692 0.00243615
v 0.01235661 -0.04195757 0.00188848
v 0.01230542 0.04194253 0.00219636
v 0.01245090 0.04198543 0.00110613
v 0.01245090 0.04198543 0.00110619
v 0.01187641 -0.04181854 0.00389960
v 0.01163269 0.04175052 0.00454002
v 0.01163395 -0.04175088 0.00454136
v 0.01163395 -0.04175088 0.00454124
v 0.01153892 0.04172448 0.00477909
v 0.01154299 -0.04172536 0.00478216
v 0.01148793 -0.04170999 0.00492783
v 0.01100934 -0.04158062 0.00592049
v 0.01044000 -0.04143362 0.00687499
v 0.01142130 0.04169176 0.00507902
v 0.01039135 -0.04142147 0.00694384
v 0.00918412 0.04113517 0.00847882
v 0.00991098 0.04130365 0.00761652
v 0.01034039 0.04140873 0.00702267
v 0.01039008 0.04142142 0.00694197
v 0.01092415 0.04155838 0.00607496
v 0.00863317 -0.04101666 0.00902916
v 0.00847049 -0.04098155 0.00919307
v 0.00883014 0.04105953 0.00882942
v 0.00996891 -0.04131727 0.00754197
v 0.00925748 -0.04115149 0.00840009
v 0.00883003 -0.04105922 0.00883074
v 0.00760809 -0.04081208 0.00991870
v 0.00702014 -0.04070657 0.01034320
v 0.00862984 0.04101662 0.00902772
v 0.00838977 0.04096524 0.00926554
v 0.00694267 -0.04069405 0.01039088
v 0.00492311 0.04039808 0.01148905
v 0.00591536 0.04053099 0.01101113
v 0.00686979 0.04068119 0.01044220
v 0.00694314 0.04069406 0.01039065
v 0.00753041 0.04079795 0.00997645
v 0.00243678 -0.04017302 0.01225215
v 0.00243629 0.04017452 0.01224734
v 0.00326483 -0.04022917 0.01206678
v 0.00296168 0.04020616 0.01214345
v 0.00403241 -0.04029885 0.01183235
v 0.00477982 -0.04038326 0.01153964
v 0.00607177 -0.04055374 0.01092690
v 0.00507534 -0.04041652 0.01142394
v 0.00478151 0.04038253 0.01154245
v 0.00478151 0.04038253 0.01154257
v 0.00389534 0.04028567 0.01187684
v 0.00219376 -0.04015651 0.01230669
v 0.00110515 -0.04011168 0.01245164
v 0.00188461 0.04014132 0.01235648
v 0.00079705 0.04010484 0.01247396
v -0.00219377 0.04015687 0.01230539
v -0.00000000 0.04009686 0.01249935
v -0.00000000 -0.04009648 0.01250064
v -0.00079705 -0.04010447 0.01247525
v -0.00477983 0.04038360 0.01153834
v -0.00403242 0.04029920 0.01183106
v -0.00296169 -0.04020581 0.01214474
v -0.00326484 0.04022953 0.01206549
v -0.00243679 0.04017339 0.01225086
v -0.00389535 -0.04028538 0.01187813
v -0.00478152 -0.04038224 0.01154375
v -0.00478152 -0.04038224 0.01154387
v -0.00507535 0.04041686 0.01142265
v -0.00492312 -0.04039774 0.01149034
v -0.00591537 -0.04053067 0.01101244
v -0.00694268 0.04069436 0.01038957
v -0.00607178 0.04055406 0.01092560
v -0.00863318 0.04101692 0.00902784
v -0.00847050 0.04098181 0.00919175
v -0.00883014 -0.04105928 0.00883074
v -0.00686980 -0.04068088 0.01044351
v -0.00694315 -0.04069376 0.01039195
v -0.00702015 0.04070688 0.01034189
v -0.00753042 -0.04079765 0.00997776
v -0.00838978 -0.04096498 0.00926686
v -0.00760810 0.04081231 0.00991738
v -0.00862985 -0.04101636 0.00902904
v -0.00918413 -0.04113498 0.00848014
v -0.00925749 0.04115173 0.00839877
v -0.00883004 0.04105947 0.00882942
v -0.00991099 -0.04130344 0.00761784
v -0.01039135 0.04142166 0.00694251
v -0.00996892 0.04131748 0.00754064
v -0.01153892 -0.04172435 0.00478043
v -0.01154299 0.04172549 0.00478082
v -0.01148793 0.04171005 0.00492649
v -0.01100936 0.04158079 0.00591915
v -0.01044000 0.04143382 0.00687366
v -0.01142131 -0.04169162 0.00508036
v -0.01034040 -0.04140853 0.00702401
v -0.01039008 -0.04142123 0.00694330
v -0.01092415 -0.04155821 0.00607629
v -0.01163395 0.04175100 0.00454002
v -0.01163395 0.04175100 0.00453990
v -0.01163269 -0.04175046 0.00454136
v -0.01163269 -0.04175046 0.00454124
v -0.01187641 0.04181864 0.00389813
v -0.01183011 -0.04180543 0.00403776
v -0.01224795 0.04192578 0.00243561
v -0.01214281 0.04189510 0.00296627
v -0.01245090 0.04198539 -0.00110753
v -0.01250000 0.04200001 -0.00000067
v -0.01250000 -0.04200004 0.00000068
v -0.01247449 0.04199239 0.00079756
v -0.01206494 -0.04187261 0.00326975
v -0.01225164 -0.04192686 0.00243750
v -0.01235662 0.04195760 0.00188713
v -0.01230542 -0.04194249 0.00219771
v -0.01245090 -0.04198542 0.00110748
v -0.01245090 -0.04198542 0.00110754
v -0.01187641 0.04181864 0.00389825
v 0.01450000 0.03980159 0.01341005
v 0.00686979 0.04068119 0.01044232
v 0.01450000 0.04101823 0.00902814
v 0.01450000 0.04175386 0.00454037
v 0.01450000 0.04200001 -0.00000067
v 0.01450000 0.04175371 -0.00454170
v 0.01450000 0.04101794 -0.00902933
v 0.01450000 0.03980116 -0.01341120
v -0.00838978 0.04096495 -0.00926685
v -0.01206494 0.04187252 -0.00326980
v 0.01450000 -0.04175374 0.00454172
v 0.01187641 -0.04181854 0.00389948
v 0.01450000 -0.04200004 0.00000068
v 0.01450000 -0.04101803 0.00902946
v 0.01450000 -0.03980119 0.01341133
v -0.00686980 -0.04068088 0.01044363
v 0.01450000 -0.03980162 -0.01340992
v 0.00389534 -0.04028576 -0.01187682
v 0.01450000 -0.04101832 -0.00902801
v 0.01450000 -0.04175389 -0.00454036
v 0.00838977 -0.04096527 -0.00926553
v 0.01206494 -0.04187272 -0.00326846
v 0.01450000 -0.03811851 -0.01763479
v 0.01450000 -0.03598836 -0.02165259
v 0.01450000 -0.03598836 -0.02165271
v -0.01450001 -0.03343634 -0.02541679
v 0.01450000 -0.03343634 -0.02541679
v 0.01450000 -0.03343634 -0.02541691
v 0.01450000 -0.03049228 -0.02888278
v 0.01450000 -0.03049228 -0.02888290
v 0.01450000 -0.02719071 -0.03201035
v 0.01450000 -0.02357049 -0.03476248
v 0.01450000 -0.01967381 -0.03710715
v 0.01450000 -0.01554640 -0.03901677
v 0.01450000 -0.01123689 -0.04046893
v 0.01450000 -0.00679558 -0.04144663
v 0.01450000 -0.00227464 -0.04193838
v 0.01450000 0.00227326 -0.04193846
v 0.01450000 0.00679422 -0.04144685
v 0.01450000 0.01123555 -0.04046929
v 0.01450000 0.01554511 -0.03901727
v 0.01450000 0.01967259 -0.03710778
v 0.01450000 0.02356928 -0.03476324
v 0.01450000 0.02718965 -0.03201123
v 0.01450000 0.03049132 -0.02888376
v 0.01450000 0.03049132 -0.02888388
v 0.01450000 0.03343549 -0.02541786
v 0.01450000 0.03343549 -0.02541798
v 0.01450000 0.03598758 -0.02165375
v 0.01450000 0.03598758 -0.02165387
v 0.01450000 0.03811792 -0.01763601
v 0.01450000 0.03811848 0.01763468
v 0.01450000 0.03598827 0.02165272
v 0.01450000 0.03343631 0.02541674
v 0.01450000 0.03049225 0.02888291
v 0.01450000 0.02719068 0.03201036
v 0.01450000 0.02357039 0.03476260
v 0.01450000 0.02357039 0.03476248
v 0.01450000 0.01967378 0.03710715
v 0.01450000 0.01554637 0.03901684
v 0.01450000 0.01123685 0.04046888
v 0.01450000 0.00679555 0.04144694
v 0.01450000 0.00227460 0.04193791
v 0.01450000 -0.00227329 0.04193799
v 0.01450000 -0.00679425 0.04144716
v 0.01450000 -0.01123559 0.04046923
v 0.01450000 -0.01554514 0.03901733
v 0.01450000 -0.01967262 0.03710779
v 0.01450000 -0.02356937 0.03476336
v 0.01450000 -0.02356937 0.03476324
v 0.01450000 -0.02718968 0.03201123
v 0.01450000 -0.03049135 0.02888389
v 0.01450000 -0.03343552 0.02541781
v 0.01450000 -0.03598767 0.02165388
v 0.01450000 -0.03811795 0.01763590
v 0.01450000 0.00397826 0.03275931
v 0.01450000 0.00000048 0.03300000
v 0.01450000 -0.00397724 0.03275944
v 0.01450000 -0.00789703 0.03204120
v 0.01450000 -0.01170155 0.03085573
v 0.01450000 -0.01533543 0.02922024
v 0.01450000 -0.01874581 0.02715881
v 0.01450000 -0.02188272 0.02470130
v 0.01450000 -0.02470057 0.02188353
v 0.01450000 -0.02715812 0.01874652
v 0.01450000 0.02922018 0.01533539
v 0.01450000 0.02715869 0.01874565
v 0.01450000 0.02715869 0.01874577
v 0.01450000 0.02470125 0.02188274
v 0.01450000 0.02188348 0.02470059
v 0.01450000 0.01874665 0.02715820
v 0.01450000 0.01533634 0.02921974
v 0.01450000 0.01170251 0.03085535
v 0.01450000 0.00789803 0.03204095
v 0.01450000 0.02715809 -0.01874663
v 0.01450000 0.02921969 -0.01533632
v 0.01450000 0.03085530 -0.01170249
v 0.01450000 0.03204090 -0.00789789
v 0.01450000 0.03275920 -0.00397824
v 0.01450000 0.03300001 -0.00000052
v 0.01450000 0.03275933 0.00397720
v 0.01450000 0.03204115 0.00789687
v 0.01450000 0.03085568 0.01170151
v 0.01450000 0.02922018 0.01533533
v 0.01450000 -0.00397829 -0.03275936
v 0.01450000 -0.00000058 -0.03299999
v 0.01450000 0.00397720 -0.03275949
v 0.01450000 0.00789700 -0.03204120
v 0.01450000 0.01170152 -0.03085572
v 0.01450000 0.01533540 -0.02922034
v 0.01450000 0.01533540 -0.02922023
v 0.01450000 0.01874577 -0.02715879
v 0.01450000 0.01874577 -0.02715868
v 0.01450000 0.02188269 -0.02470117
v 0.01450000 0.02470054 -0.02188340
v 0.01450000 0.02715809 -0.01874651
v 0.01450000 -0.02715812 0.01874664
v 0.01450000 -0.02921973 0.01533627
v 0.01450000 -0.02921973 0.01533633
v 0.01450000 -0.03085539 0.01170250
v 0.01450000 -0.03204099 0.00789790
v 0.01450000 -0.03275923 0.00397825
v 0.01450000 -0.03300004 0.00000054
v 0.01450000 -0.03275936 -0.00397718
v 0.01450000 -0.03204124 -0.00789686
v 0.01450000 -0.03085577 -0.01170150
v 0.01450000 -0.02922022 -0.01533538
v 0.01450000 -0.02715873 -0.01874564
v 0.01450000 -0.02715873 -0.01874576
v 0.01450000 -0.02470128 -0.02188261
v 0.01450000 -0.02188351 -0.02470046
v 0.01450000 -0.01874668 -0.02715819
v 0.01450000 -0.01874668 -0.02715807
v 0.01450000 -0.01533637 -0.02921985
v 0.01450000 -0.01533637 -0.02921973
v 0.01450000 -0.01170254 -0.03085534
v 0.01450000 -0.00789806 -0.03204094
v 0.02350000 -0.03275923 0.00397825
v 0.02350000 -0.03300004 0.00000054
v 0.02350000 -0.03275936 -0.00397718
v 0.02350000 -0.03204124 -0.00789686
v 0.02350000 -0.03085577 -0.01170150
v 0.02350000 -0.02922022 -0.01533538
v 0.02350000 -0.02715873 -0.01874564
v 0.02350000 -0.02715873 -0.01874576
v 0.02350000 -0.02470128 -0.02188261
v 0.02350000 -0.02188351 -0.02470046
v 0.02350000 -0.01874668 -0.02715819
v 0.02350000 -0.01874668 -0.02715807
v 0.02350000 -0.01533637 -0.02921985
v 0.02350000 -0.01533637 -0.02921973
v 0.02350000 -0.01170254 -0.03085534
v 0.02350000 -0.00789806 -0.03204094
v 0.02350000 -0.00397829 -0.03275936
v 0.02350000 -0.00000058 -0.03299999
v 0.02350000 0.00397720 -0.03275949
v 0.02350000 0.00789700 -0.03204120
v 0.02350000 0.01170152 -0.03085572
v 0.02350000 0.01533540 -0.02922034
v 0.02350000 0.01533540 -0.02922023
v 0.02350000 0.01874577 -0.02715879
v 0.02350000 0.01874577 -0.02715868
v 0.02350000 0.02188269 -0.02470117
v 0.02350000 0.02470054 -0.02188340
v 0.02350000 0.02715809 -0.01874651
v 0.02350000 0.02715809 -0.01874663
v 0.02350000 0.02921969 -0.01533632
v 0.02350000 0.03085530 -0.01170249
v 0.02350000 0.03204090 -0.00789789
v 0.02350000 0.03275920 -0.00397824
v 0.02350000 0.03300001 -0.00000052
v 0.02350000 0.03275933 0.00397720
v 0.02350000 0.03204115 0.00789687
v 0.02350000 0.03085568 0.01170151
v 0.02350000 0.02922018 0.01533533
v 0.02350000 0.02922018 0.01533539
v 0.02350000 0.02715869 0.01874565
v 0.02350000 0.02715869 0.01874577
v 0.02350000 0.02470125 0.02188274
v 0.02350000 0.02188348 0.02470059
v 0.02350000 0.01874665 0.02715820
v 0.02350000 0.01533634 0.02921974
v 0.02350000 0.01170251 0.03085535
v 0.02350000 0.00789803 0.03204095
v 0.02350000 0.00397826 0.03275931
v 0.02350000 0.00000048 0.03300000
v 0.02350000 -0.00397724 0.03275944
v 0.02350000 -0.00789703 0.03204120
v 0.02350000 -0.01170155 0.03085573
v 0.02350000 -0.01533543 0.02922024
v 0.02350000 -0.01874581 0.02715881
v 0.02350000 -0.02188272 0.02470130
v 0.02350000 -0.02470057 0.02188353
v 0.02350000 -0.02715812 0.01874652
v 0.02350000 -0.02715812 0.01874664
v 0.02350000 -0.02921973 0.01533627
v 0.02350000 -0.02921973 0.01533633
v 0.02350000 -0.03085539 0.01170250
v 0.02350000 -0.03204099 0.00789790
f 1 2 3
f 4 5 6
f 6 5 7
f 1 3 5
f 5 3 8
f 5 8 9
f 10 11 12
f 12 11 6
f 12 6 13
f 13 6 7
f 13 14 15
f 11 16 6
f 6 16 17
f 6 17 18
f 19 1 20
f 20 1 5
f 20 5 21
f 22 5 4
f 23 24 25
f 25 24 5
f 25 5 26
f 26 5 9
f 27 28 29
f 27 29 24
f 24 29 30
f 24 30 31
f 32 33 34
f 34 33 6
f 34 6 35
f 35 6 18
f 36 37 38
f 36 38 33
f 33 38 39
f 33 39 40
f 41 29 42
f 43 29 44
f 43 28 45
f 45 28 46
f 47 5 48
f 48 5 24
f 48 24 49
f 49 24 31
f 50 38 51
f 52 38 37
f 52 37 53
f 53 37 54
f 55 6 56
f 56 6 33
f 56 33 57
f 57 33 40
f 58 49 59
f 59 49 31
f 59 31 60
f 60 31 30
f 60 30 61
f 61 30 29
f 61 29 62
f 62 29 41
f 62 41 63
f 63 41 42
f 63 43 64
f 65 43 45
f 65 45 66
f 66 45 46
f 66 46 67
f 67 46 44
f 67 28 68
f 69 28 70
f 69 27 71
f 72 27 24
f 72 24 73
f 73 24 23
f 73 23 74
f 74 23 25
f 74 25 75
f 75 25 26
f 75 26 76
f 76 26 9
f 76 9 77
f 77 9 8
f 77 8 78
f 78 8 3
f 78 3 79
f 79 3 80
f 79 2 81
f 82 2 83
f 82 1 84
f 85 1 19
f 85 19 86
f 86 19 20
f 86 20 87
f 87 20 21
f 87 22 88
f 89 22 4
f 89 4 90
f 90 4 6
f 90 6 91
f 91 6 55
f 91 55 92
f 92 55 56
f 92 56 93
f 93 56 57
f 93 57 94
f 94 57 40
f 94 40 95
f 95 40 39
f 95 39 96
f 96 39 38
f 96 38 97
f 97 38 98
f 97 50 99
f 100 50 51
f 100 52 101
f 102 52 53
f 102 53 103
f 103 53 54
f 103 54 104
f 104 54 37
f 104 37 105
f 105 37 36
f 105 36 106
f 106 36 33
f 106 33 107
f 107 33 32
f 107 32 108
f 108 32 34
f 108 34 109
f 109 34 35
f 109 35 110
f 110 35 18
f 110 18 111
f 111 18 17
f 111 17 112
f 112 17 16
f 112 16 113
f 113 16 11
f 113 11 114
f 114 11 10
f 114 10 115
f 115 10 12
f 115 12 116
f 116 12 13
f 116 13 117
f 117 13 15
f 117 118 119
f 120 118 7
f 120 14 121
f 122 14 5
f 122 5 123
f 123 5 47
f 123 47 124
f 124 47 48
f 124 48 58
f 58 48 49
f 77 125 76
f 76 125 126
f 76 126 75
f 75 126 127
f 75 127 74
f 74 127 128
f 74 128 73
f 73 128 129
f 73 129 71
f 72 129 130
f 72 130 68
f 69 130 131
f 69 131 67
f 67 131 132
f 67 132 66
f 66 132 133
f 66 134 64
f 90 135 88
f 89 135 136
f 89 137 87
f 87 137 138
f 87 139 86
f 86 139 140
f 86 140 84
f 85 140 141
f 85 141 81
f 82 141 142
f 82 142 79
f 79 142 143
f 79 143 78
f 78 143 144
f 78 144 77
f 77 144 145
f 77 145 125
f 102 146 99
f 100 146 147
f 100 147 97
f 97 147 148
f 97 148 96
f 96 148 149
f 96 149 95
f 95 149 150
f 95 150 94
f 94 150 151
f 94 151 93
f 93 151 152
f 93 152 92
f 92 152 153
f 92 153 91
f 91 153 154
f 91 154 90
f 90 154 155
f 90 155 156
f 111 157 110
f 110 157 158
f 110 158 109
f 109 158 159
f 109 159 108
f 108 159 160
f 108 160 107
f 107 160 161
f 107 161 106
f 106 161 162
f 106 162 105
f 105 162 163
f 105 164 104
f 104 164 165
f 104 165 103
f 103 165 166
f 103 166 101
f 102 166 167
f 102 167 146
f 122 168 119
f 120 168 169
f 120 169 117
f 117 169 170
f 117 170 116
f 116 170 171
f 116 171 115
f 115 171 172
f 115 173 114
f 114 173 174
f 114 174 113
f 113 174 175
f 113 175 112
f 112 175 176
f 112 176 111
f 111 176 177
f 111 177 157
f 134 178 64
f 65 178 179
f 65 180 63
f 63 180 181
f 63 181 62
f 62 181 182
f 62 182 61
f 61 182 183
f 61 183 60
f 60 183 184
f 60 184 59
f 59 184 185
f 59 185 58
f 58 185 186
f 58 186 124
f 124 186 187
f 124 187 123
f 123 187 188
f 123 188 121
f 122 188 189
f 122 189 168
f 190 191 192
f 193 194 195
f 196 197 198
f 198 197 199
f 199 200 198
f 198 200 201
f 198 201 202
f 202 201 203
f 202 203 204
f 196 205 197
f 197 205 206
f 197 206 207
f 207 206 208
f 207 208 209
f 209 210 207
f 207 210 211
f 207 211 212
f 213 214 215
f 215 216 213
f 213 216 217
f 213 217 211
f 211 217 218
f 211 218 212
f 219 220 221
f 213 222 214
f 214 222 223
f 214 223 221
f 221 223 224
f 221 224 219
f 220 225 221
f 221 225 226
f 221 226 227
f 227 226 228
f 229 230 231
f 231 232 229
f 229 232 233
f 229 233 226
f 226 233 234
f 226 234 228
f 235 236 237
f 237 236 238
f 237 238 239
f 239 238 240
f 229 241 230
f 230 241 242
f 230 242 243
f 243 242 240
f 243 240 244
f 245 240 238
f 235 246 236
f 236 246 247
f 236 248 249
f 249 248 250
f 251 194 252
f 250 248 253
f 253 248 254
f 253 254 195
f 251 254 255
f 251 255 193
f 256 257 258
f 258 257 259
f 258 259 194
f 194 259 260
f 194 260 252
f 258 261 256
f 256 261 262
f 256 262 263
f 263 262 264
f 265 266 264
f 264 266 267
f 264 267 263
f 268 269 270
f 265 271 266
f 266 271 272
f 266 272 273
f 273 272 274
f 273 274 275
f 269 276 270
f 270 276 273
f 270 273 277
f 277 273 275
f 278 279 270
f 270 279 280
f 270 280 268
f 281 282 278
f 278 282 283
f 278 283 279
f 284 285 286
f 286 287 284
f 284 287 288
f 284 288 289
f 281 290 282
f 282 290 291
f 282 291 288
f 288 291 292
f 288 292 289
f 285 284 293
f 293 284 294
f 293 294 295
f 296 297 294
f 294 297 298
f 294 298 295
f 296 299 297
f 297 299 300
f 297 300 301
f 301 300 302
f 301 302 303
f 302 304 303
f 303 304 305
f 303 305 306
f 306 305 307
f 308 309 310
f 310 309 311
f 311 312 310
f 310 312 313
f 310 313 314
f 314 313 315
f 314 315 307
f 307 315 316
f 307 317 306
f 308 318 319
f 309 318 320
f 309 321 322
f 322 321 323
f 322 323 324
f 324 325 322
f 322 325 326
f 322 326 327
f 328 329 330
f 330 331 328
f 328 331 332
f 328 332 326
f 326 332 333
f 326 333 327
f 334 335 336
f 328 337 329
f 329 337 338
f 329 338 336
f 336 338 339
f 336 339 334
f 335 340 336
f 336 340 341
f 336 341 342
f 342 341 343
f 344 345 346
f 346 347 344
f 344 347 348
f 344 348 341
f 341 348 349
f 341 349 343
f 350 351 352
f 352 351 353
f 352 353 354
f 354 353 355
f 344 356 345
f 345 356 357
f 345 357 358
f 359 357 355
f 359 355 360
f 360 355 353
f 350 361 351
f 351 361 362
f 351 362 363
f 363 362 364
f 192 191 365
f 364 362 366
f 366 362 367
f 366 367 192
f 192 367 368
f 192 368 190
f 369 370 371
f 371 370 372
f 371 372 191
f 191 372 373
f 191 373 365
f 371 374 369
f 369 374 375
f 369 376 377
f 377 376 378
f 379 380 378
f 378 380 381
f 378 381 377
f 382 383 384
f 379 385 380
f 380 385 386
f 380 386 387
f 387 386 388
f 387 388 389
f 383 390 384
f 384 390 387
f 384 387 391
f 391 387 389
f 392 393 384
f 384 393 394
f 384 394 382
f 395 396 392
f 392 396 397
f 392 397 393
f 398 399 400
f 400 401 398
f 398 401 402
f 398 402 403
f 395 404 396
f 396 404 405
f 396 405 402
f 402 405 406
f 402 406 403
f 399 398 407
f 408 398 409
f 408 410 411
f 412 413 409
f 410 413 414
f 410 414 411
f 203 415 204
f 204 415 416
f 204 416 417
f 417 416 418
f 412 419 413
f 413 419 420
f 413 420 421
f 421 420 422
f 421 422 418
f 418 422 423
f 418 424 417
f 399 408 150
f 150 408 411
f 150 425 414
f 414 413 150
f 150 413 421
f 150 421 151
f 151 421 418
f 394 393 149
f 149 393 397
f 149 397 396
f 396 402 149
f 149 402 401
f 149 401 150
f 150 401 400
f 150 400 399
f 366 192 148
f 346 345 426
f 349 348 426
f 426 348 427
f 426 347 346
f 345 359 426
f 426 359 360
f 426 360 353
f 366 148 364
f 353 351 426
f 426 351 363
f 426 363 364
f 192 365 148
f 148 365 373
f 148 373 372
f 372 370 148
f 148 370 369
f 148 369 377
f 377 381 148
f 148 381 380
f 148 380 387
f 387 390 148
f 148 390 383
f 148 383 149
f 149 383 382
f 149 382 394
f 330 329 428
f 311 309 429
f 429 309 322
f 429 322 428
f 428 322 327
f 428 327 333
f 333 332 428
f 428 332 331
f 428 331 330
f 329 336 428
f 428 336 342
f 428 342 426
f 426 342 343
f 426 343 349
f 315 429 316
f 317 429 430
f 317 430 306
f 315 313 429
f 429 313 312
f 429 312 311
f 285 293 431
f 431 293 295
f 431 295 298
f 298 297 431
f 431 297 301
f 431 301 430
f 430 301 303
f 430 303 306
f 280 279 432
f 432 279 283
f 432 283 282
f 282 288 432
f 432 288 287
f 432 287 431
f 431 287 286
f 431 286 285
f 253 251 433
f 231 230 154
f 234 233 154
f 154 233 232
f 154 232 231
f 230 243 154
f 154 243 244
f 154 245 238
f 238 236 154
f 154 236 249
f 154 249 250
f 251 252 433
f 433 252 260
f 433 260 259
f 259 257 433
f 433 257 256
f 433 256 263
f 263 267 433
f 433 267 266
f 433 266 273
f 273 276 433
f 433 276 269
f 433 269 432
f 432 269 268
f 432 268 280
f 215 214 153
f 199 197 152
f 152 197 207
f 152 207 153
f 153 207 212
f 153 212 218
f 218 217 153
f 153 217 216
f 153 216 215
f 214 221 153
f 153 221 227
f 153 227 154
f 154 227 228
f 154 434 234
f 418 416 151
f 151 416 415
f 151 415 152
f 152 415 203
f 203 201 152
f 152 201 435
f 152 200 199
f 323 321 436
f 436 321 437
f 436 318 308
f 308 310 436
f 436 310 314
f 436 314 438
f 438 314 307
f 339 338 439
f 439 338 337
f 439 337 328
f 328 326 439
f 439 326 325
f 439 325 436
f 436 325 324
f 436 324 323
f 367 362 440
f 379 378 188
f 388 386 188
f 188 386 441
f 188 385 379
f 378 376 188
f 188 376 374
f 188 374 371
f 371 191 188
f 188 191 190
f 188 190 368
f 362 361 440
f 440 361 350
f 440 350 352
f 352 354 440
f 440 354 355
f 440 355 357
f 357 356 440
f 440 356 344
f 440 344 341
f 341 340 440
f 440 340 335
f 440 335 439
f 439 335 334
f 439 334 339
f 395 392 187
f 412 410 186
f 186 410 398
f 186 398 187
f 187 398 403
f 187 403 406
f 406 405 187
f 187 405 404
f 187 404 395
f 392 384 187
f 187 384 391
f 187 391 188
f 188 391 389
f 188 389 388
f 422 186 423
f 424 186 185
f 424 185 417
f 422 420 186
f 186 420 419
f 186 419 412
f 208 206 184
f 184 206 205
f 184 205 196
f 196 198 184
f 184 198 202
f 184 202 185
f 185 202 204
f 185 204 417
f 224 223 183
f 183 223 222
f 183 222 213
f 213 211 183
f 183 211 210
f 183 210 184
f 184 210 209
f 184 209 208
f 254 248 182
f 265 264 442
f 274 272 442
f 442 272 271
f 442 271 265
f 264 262 442
f 442 262 443
f 442 261 258
f 254 182 255
f 258 194 442
f 442 194 193
f 442 193 255
f 248 246 182
f 182 246 235
f 182 235 237
f 237 239 182
f 182 239 240
f 182 240 242
f 242 241 182
f 182 241 229
f 182 229 226
f 226 225 182
f 182 225 220
f 182 220 183
f 183 220 219
f 183 219 224
f 281 278 444
f 296 294 445
f 445 294 284
f 445 284 444
f 444 284 289
f 444 289 292
f 292 291 444
f 444 291 290
f 444 290 281
f 278 270 444
f 444 270 277
f 444 277 442
f 442 277 275
f 442 446 274
f 307 305 438
f 438 305 304
f 438 304 445
f 445 304 302
f 302 300 445
f 445 300 447
f 445 299 296
f 255 182 442
f 442 182 181
f 442 181 448
f 448 181 179
f 448 180 449
f 450 180 451
f 450 178 452
f 453 178 133
f 453 134 454
f 455 134 132
f 455 132 456
f 456 132 131
f 456 131 457
f 457 131 130
f 457 130 458
f 458 130 129
f 458 129 459
f 459 129 128
f 459 128 460
f 460 128 127
f 460 127 461
f 461 127 126
f 461 126 462
f 462 126 125
f 462 125 463
f 463 125 145
f 463 145 464
f 464 145 144
f 464 144 465
f 465 144 143
f 465 143 466
f 466 143 142
f 466 142 467
f 467 142 141
f 467 141 468
f 468 141 140
f 468 140 469
f 469 140 138
f 469 139 470
f 471 139 136
f 471 137 472
f 473 137 156
f 473 135 474
f 475 135 155
f 475 155 476
f 476 155 154
f 476 154 433
f 433 154 250
f 433 250 253
f 364 148 426
f 426 148 147
f 426 147 477
f 477 147 146
f 477 146 478
f 478 146 167
f 478 167 479
f 479 167 166
f 479 166 480
f 480 166 165
f 480 165 481
f 481 165 163
f 481 164 482
f 483 164 162
f 483 162 484
f 484 162 161
f 484 161 485
f 485 161 160
f 485 160 486
f 486 160 159
f 486 159 487
f 487 159 158
f 487 158 488
f 488 158 157
f 488 157 489
f 489 157 177
f 489 177 490
f 490 177 176
f 490 176 491
f 491 176 175
f 491 175 492
f 492 175 174
f 492 174 493
f 493 174 172
f 493 173 494
f 495 173 171
f 495 171 496
f 496 171 170
f 496 170 497
f 497 170 169
f 497 169 498
f 498 169 168
f 498 168 499
f 499 168 189
f 499 189 500
f 500 189 188
f 500 188 440
f 440 188 368
f 440 368 367
f 501 488 502
f 502 488 489
f 502 489 503
f 503 489 490
f 503 490 504
f 504 490 491
f 504 491 505
f 505 491 492
f 505 492 506
f 506 492 493
f 506 493 507
f 507 493 494
f 507 495 508
f 508 495 496
f 508 496 509
f 509 496 497
f 509 497 510
f 511 478 512
f 513 478 479
f 513 479 514
f 514 479 480
f 514 480 515
f 515 480 481
f 515 481 516
f 516 481 482
f 516 483 517
f 517 483 484
f 517 484 518
f 518 484 485
f 518 485 519
f 519 485 486
f 519 486 501
f 501 486 487
f 501 487 488
f 520 475 521
f 521 475 476
f 521 476 522
f 522 476 433
f 522 433 523
f 523 433 432
f 523 432 524
f 524 432 431
f 524 431 525
f 525 431 430
f 525 430 526
f 526 430 429
f 526 429 527
f 527 429 428
f 527 428 528
f 528 428 426
f 528 426 529
f 511 426 477
f 511 477 478
f 530 462 531
f 531 462 463
f 531 463 532
f 532 463 464
f 532 464 533
f 533 464 465
f 533 465 534
f 534 465 466
f 534 466 535
f 536 466 467
f 536 467 537
f 538 467 468
f 538 468 539
f 539 468 469
f 539 469 540
f 540 469 470
f 540 471 541
f 520 471 472
f 520 473 474
f 497 498 510
f 542 498 499
f 542 499 543
f 544 499 500
f 544 500 545
f 545 500 440
f 545 440 546
f 546 440 439
f 546 439 547
f 547 439 436
f 547 436 548
f 548 436 438
f 548 438 549
f 549 438 445
f 549 445 550
f 550 445 444
f 550 444 551
f 551 444 442
f 551 442 552
f 442 448 552
f 552 448 449
f 552 450 553
f 554 450 452
f 554 453 555
f 555 453 454
f 555 455 556
f 556 455 456
f 556 456 557
f 558 456 457
f 558 457 559
f 560 457 458
f 560 458 561
f 561 458 459
f 561 459 562
f 562 459 460
f 562 460 530
f 530 460 461
f 530 461 462
f 563 548 564
f 564 548 549
f 564 549 565
f 565 549 550
f 565 550 566
f 566 550 551
f 566 551 567
f 567 551 552
f 567 552 568
f 568 552 553
f 568 554 569
f 570 554 555
f 570 555 571
f 571 555 556
f 571 556 572
f 572 556 557
f 572 558 573
f 574 558 559
f 574 560 575
f 576 560 561
f 576 561 577
f 577 561 562
f 577 562 578
f 578 562 530
f 578 530 579
f 579 530 531
f 579 531 580
f 580 531 532
f 580 532 581
f 581 532 533
f 581 533 582
f 582 533 534
f 582 534 583
f 583 534 535
f 583 536 584
f 585 536 537
f 585 538 586
f 587 538 539
f 587 539 588
f 588 539 540
f 588 540 589
f 589 540 541
f 589 520 590
f 591 520 521
f 591 521 592
f 592 521 522
f 592 522 593
f 593 522 523
f 593 523 594
f 594 523 524
f 594 524 595
f 595 524 525
f 595 525 596
f 596 525 526
f 596 526 597
f 597 526 527
f 597 527 598
f 598 527 528
f 598 528 599
f 599 528 529
f 599 511 600
f 601 511 512
f 601 513 602
f 603 513 514
f 603 514 604
f 604 514 515
f 604 515 605
f 605 515 516
f 605 516 606
f 606 516 517
f 606 517 607
f 607 517 518
f 607 518 608
f 608 518 519
f 608 519 609
f 609 519 501
f 609 501 610
f 610 501 502
f 610 502 611
f 611 502 503
f 611 503 612
f 612 503 504
f 612 504 613
f 613 504 505
f 613 505 614
f 614 505 506
f 614 506 615
f 615 506 507
f 615 507 616
f 616 507 508
f 616 508 617
f 617 508 509
f 617 509 618
f 618 509 510
f 618 542 619
f 620 542 543
f 620 544 621
f 622 544 545
f 622 545 623
f 623 545 546
f 623 546 624
f 624 546 547
f 624 547 563
f 563 547 548
f 606 607 608
f 574 576 577
f 601 567 599
f 599 567 568
f 606 608 567
f 567 608 609
f 567 609 610
f 574 577 599
f 599 577 578
f 599 578 579
f 605 606 604
f 604 606 567
f 604 567 602
f 603 567 600
f 613 614 612
f 612 614 567
f 612 567 611
f 611 567 610
f 615 623 614
f 614 623 624
f 614 624 563
f 572 574 571
f 571 574 599
f 571 599 569
f 570 599 568
f 582 583 581
f 581 583 599
f 581 599 580
f 580 599 579
f 585 587 593
f 585 593 583
f 583 593 594
f 583 594 595
f 620 622 618
f 618 622 623
f 618 623 617
f 617 623 615
f 617 615 616
f 566 567 565
f 565 567 614
f 565 614 564
f 564 614 563
f 592 593 590
f 591 593 586
f 591 587 589
f 589 587 588
f 598 599 597
f 597 599 583
f 597 583 596
f 596 583 595

