# https://github.com/mikedh/trimesh
v -0.01874620 -0.02349800 -0.02715832
v -0.01533586 -0.02349800 -0.02921993
v -0.01170200 -0.02349800 -0.03085548
v -0.02921993 -0.02349800 -0.01533580
v 0.03085560 -0.02349800 0.01170206
v -0.03085548 -0.02349800 -0.01170194
v 0.02921999 -0.02349800 0.01533586
v -0.00789750 -0.02349800 -0.03204101
v -0.00397772 -0.02349800 -0.03275937
v 0.01874626 -0.02349800 0.02715856
v 0.01533592 -0.02349800 0.02922004
v 0.02188313 -0.02349800 0.02470100
v 0.02470094 -0.02349800 0.02188319
v 0.02921999 -0.02349800 0.01533592
v 0.02715844 -0.02349800 0.01874614
v 0.01170206 -0.02349800 0.03085560
v 0.00789756 -0.02349800 0.03204113
v 0.00397778 -0.02349800 0.03275943
v -0.02188307 -0.02349800 -0.02470076
v -0.02470088 -0.02349800 -0.02188295
v -0.02715838 -0.02349800 -0.01874602
v -0.02715838 -0.02349800 -0.01874614
v 0.00789756 -0.02349800 -0.03204101
v 0.01170206 -0.02349800 -0.03085548
v 0.00397778 -0.02349800 -0.03275937
v 0.00000006 -0.02349800 -0.03299993
v 0.01533592 -0.02349800 -0.02921993
v 0.01874626 -0.02349800 -0.02715832
v 0.03085560 -0.02349800 -0.01170194
v 0.03204113 -0.02349800 -0.00789732
v 0.03275931 -0.02349800 -0.00397766
v -0.00789750 -0.02349800 0.03204113
v -0.01170200 -0.02349800 0.03085560
v -0.00397772 -0.02349800 0.03275943
v 0.00000006 -0.02349800 0.03300005
v -0.01533586 -0.02349800 0.02922004
v -0.01874620 -0.02349800 0.02715856
v -0.03085548 -0.02349800 0.01170206
v -0.03204101 -0.02349800 0.00789744
v -0.03275925 -0.02349800 0.00397778
v 0.02921999 -0.02349800 -0.01533580
v 0.02715844 -0.02349800 -0.01874602
v 0.02715844 -0.02349800 -0.01874614
v 0.01874626 -0.02349800 -0.02715844
v 0.02470094 -0.02349800 -0.02188295
v 0.02188313 -0.02349800 -0.02470076
v 0.03204113 -0.02349800 0.00789744
v 0.03275931 -0.02349800 0.00397778
v 0.03300005 -0.02349800 0.00000006
v -0.02921993 -0.02349800 0.01533592
v -0.02715838 -0.02349800 0.01874614
v -0.02715838 -0.02349800 0.01874626
v -0.02470088 -0.02349800 0.02188319
v -0.02188307 -0.02349800 0.02470100
v -0.03204101 -0.02349800 -0.00789732
v -0.03275925 -0.02349800 -0.00397766
v -0.03299999 -0.02349800 0.00000006
v 0.03275931 -0.01449800 0.00397778
v 0.03300005 -0.01449800 0.00000006
v 0.03275931 -0.01449800 -0.00397766
v 0.03204113 -0.01449800 -0.00789732
v 0.03085560 -0.01449800 -0.01170194
v 0.02921999 -0.01449800 -0.01533580
v 0.02715844 -0.01449800 -0.01874602
v 0.02715844 -0.01449800 -0.01874614
v 0.02470094 -0.01449800 -0.02188295
v 0.02188313 -0.01449800 -0.02470076
v 0.01874626 -0.01449800 -0.02715844
v 0.01874626 -0.01449800 -0.02715832
v 0.01533592 -0.02349800 -0.02922004
v 0.01533592 -0.01449800 -0.02922004
v 0.01533592 -0.01449800 -0.02921993
v 0.01170206 -0.01449800 -0.03085548
v 0.00789756 -0.01449800 -0.03204101
v 0.00397778 -0.01449800 -0.03275937
v 0.00000006 -0.01449800 -0.03299993
v -0.00397772 -0.01449800 -0.03275937
v -0.00789750 -0.01449800 -0.03204101
v -0.01170200 -0.01449800 -0.03085548
v -0.01533586 -0.02349800 -0.02922004
v -0.01533586 -0.01449800 -0.02922004
v -0.01533586 -0.01449800 -0.02921993
v -0.01874620 -0.02349800 -0.02715844
v -0.01874620 -0.01449800 -0.02715844
v -0.01874620 -0.01449800 -0.02715832
v -0.02188307 -0.01449800 -0.02470076
v -0.02470088 -0.01449800 -0.02188295
v -0.02715838 -0.01449800 -0.01874602
v -0.02715838 -0.01449800 -0.01874614
v -0.02921993 -0.01449800 -0.01533580
v -0.03085548 -0.01449800 -0.01170194
v -0.03204101 -0.01449800 -0.00789732
v -0.03275925 -0.01449800 -0.00397766
v -0.03299999 -0.01449800 0.00000006
v -0.03275925 -0.01449800 0.00397778
v -0.03204101 -0.01449800 0.00789744
v -0.03085548 -0.01449800 0.01170206
v -0.02921993 -0.02349800 0.01533586
v -0.02921993 -0.01449800 0.01533586
v -0.02921993 -0.01449800 0.01533592
v -0.02715838 -0.01449800 0.01874614
v -0.02715838 -0.01449800 0.01874626
v -0.02470088 -0.01449800 0.02188319
v -0.02188307 -0.01449800 0.02470100
v -0.01874620 -0.01449800 0.02715856
v -0.01533586 -0.01449800 0.02922004
v -0.01170200 -0.01449800 0.03085560
v -0.00789750 -0.01449800 0.03204113
v -0.00397772 -0.01449800 0.03275943
v 0.00000006 -0.01449800 0.03300005
v 0.00397778 -0.01449800 0.03275943
v 0.00789756 -0.01449800 0.03204113
v 0.01170206 -0.01449800 0.03085560
v 0.01533592 -0.01449800 0.02922004
v 0.01874626 -0.01449800 0.02715856
v 0.02188313 -0.01449800 0.02470100
v 0.02470094 -0.01449800 0.02188319
v 0.02715844 -0.02349800 0.01874626
v 0.02715844 -0.01449800 0.01874614
v 0.02715844 -0.01449800 0.01874626
v 0.02921999 -0.01449800 0.01533586
v 0.02921999 -0.01449800 0.01533592
v 0.03085560 -0.01449800 0.01170206
v 0.03204113 -0.01449800 0.00789744
v -0.00227392 -0.01449800 -0.04193836
v 0.00227398 -0.01449800 -0.04193836
v 0.00679493 -0.01449800 -0.04144669
v 0.01123625 -0.01449800 -0.04046905
v 0.01554579 -0.01449800 -0.03901696
v 0.01967323 -0.01449800 -0.03710741
v 0.02356994 -0.01449800 -0.03476280
v 0.02719021 -0.01449800 -0.03201073
v 0.03049183 -0.01449800 -0.02888322
v 0.03049183 -0.01449800 -0.02888334
v -0.03598791 -0.01449800 -0.02165323
v -0.03343588 -0.01449800 -0.02541727
v -0.03343588 -0.01449800 -0.02541739
v -0.03049177 -0.01449800 -0.02888322
v -0.03049177 -0.01449800 -0.02888334
v -0.02719015 -0.01449800 -0.03201073
v -0.02356982 -0.01449800 -0.03476280
v -0.01967317 -0.01449800 -0.03710741
v -0.01554573 -0.01449800 -0.03901696
v -0.01123619 -0.01449800 -0.04046905
v -0.00679487 -0.01449800 -0.04144669
v -0.03598791 -0.01449800 0.02165335
v -0.03811818 -0.01449800 0.01763535
v -0.03980136 -0.01449800 0.01341075
v -0.04101807 -0.01449800 0.00902885
v -0.04175377 -0.01449800 0.00454110
v -0.04200000 -0.01449800 0.00000006
v -0.04175377 -0.01449800 -0.00454098
v -0.04101807 -0.01449800 -0.00902861
v -0.03980136 -0.01449800 -0.01341051
v -0.03811818 -0.01449800 -0.01763535
v -0.03598791 -0.01449800 -0.02165312
v 0.00227398 -0.01449800 0.04193801
v -0.00227392 -0.01449800 0.04193801
v -0.00679487 -0.01449800 0.04144710
v -0.01123619 -0.01449800 0.04046911
v -0.01554573 -0.01449800 0.03901714
v -0.01967317 -0.01449800 0.03710753
v -0.02356982 -0.01449800 0.03476304
v -0.02356982 -0.01449800 0.03476292
v -0.02719015 -0.01449800 0.03201085
v -0.03049177 -0.01449800 0.02888346
v -0.03343588 -0.01449800 0.02541733
v 0.03598803 -0.01449800 0.02165335
v 0.03343594 -0.01449800 0.02541733
v 0.03049183 -0.01449800 0.02888346
v 0.02719021 -0.01449800 0.03201085
v 0.02356994 -0.01449800 0.03476304
v 0.02356994 -0.01449800 0.03476292
v 0.01967323 -0.01449800 0.03710753
v 0.01554579 -0.01449800 0.03901714
v 0.01123625 -0.01449800 0.04046911
v 0.00679493 -0.01449800 0.04144710
v 0.03343594 -0.01449800 -0.02541739
v 0.03598803 -0.01449800 -0.02165312
v 0.03598803 -0.01449800 -0.02165323
v 0.03811824 -0.01449800 -0.01763535
v 0.03980142 -0.01449800 -0.01341051
v 0.04101819 -0.01449800 -0.00902861
v 0.04175383 -0.01449800 -0.00454098
v 0.04200006 -0.01449800 0.00000006
v 0.04175383 -0.01449800 0.00454110
v 0.04101819 -0.01449800 0.00902885
v 0.03980142 -0.01449800 0.01341075
v 0.03811824 -0.01449800 0.01763535
v 0.04014117 -0.00188261 0.01235718
v 0.04017437 -0.00243429 0.01224804
v -0.04011184 -0.00110315 0.01245105
v 0.04014117 0.00188661 -0.01235706
v 0.04017437 0.00243829 -0.01224792
v -0.04011184 0.00110715 -0.01245105
v 0.04189509 -0.01214080 -0.00296688
v -0.04175043 -0.01163069 -0.00454050
v 0.04192585 -0.01224594 -0.00243622
v -0.04180545 -0.01182811 -0.00403714
v -0.04187256 -0.01206294 -0.00326920
v -0.04192686 -0.01224963 -0.00243676
v 0.04195762 -0.01235462 -0.00188780
v -0.04194248 -0.01230342 -0.00219697
v 0.04199243 -0.01247249 -0.00079817
v 0.04181862 -0.01187441 -0.00389886
v 0.04175097 -0.01163195 -0.00454068
v -0.04172438 -0.01153692 -0.00477976
v 0.04172546 -0.01154099 -0.00478131
v 0.04171008 -0.01148593 -0.00492716
v 0.04158074 -0.01100735 -0.00591975
v 0.04143375 -0.01043800 -0.00687426
v -0.04169166 -0.01141930 -0.00507975
v 0.04142159 -0.01038935 -0.00694311
v -0.04113501 -0.00918213 -0.00847942
v -0.04130352 -0.00990899 -0.00761712
v -0.04140860 -0.01033839 -0.00702327
v -0.04142129 -0.01038808 -0.00694257
v -0.04155827 -0.01092215 -0.00607556
v 0.04101682 -0.00863117 -0.00902843
v 0.04098171 -0.00846850 -0.00919235
v -0.04105937 -0.00882814 -0.00883001
v 0.04131740 -0.00996692 -0.00754124
v 0.04115164 -0.00925548 -0.00839925
v 0.04105937 -0.00882804 -0.00883001
v 0.04081225 -0.00760609 -0.00991797
v 0.04070675 -0.00701814 -0.01034248
v -0.04101646 -0.00862784 -0.00902832
v -0.04096508 -0.00838777 -0.00926608
v 0.04069424 -0.00694067 -0.01039016
v -0.04039788 -0.00492112 -0.01148963
v -0.04053080 -0.00591337 -0.01101166
v -0.04068100 -0.00686779 -0.01044291
v -0.04069388 -0.00694114 -0.01039112
v -0.04079777 -0.00752842 -0.00997704
v 0.04017323 -0.00243478 -0.01225156
v -0.04017431 -0.00243429 -0.01224792
v 0.04022938 -0.00326283 -0.01206607
v -0.04020596 -0.00295968 -0.01214403
v 0.04029906 -0.00403042 -0.01183164
v 0.04038346 -0.00477782 -0.01153892
v 0.04055393 -0.00606977 -0.01092619
v 0.04041672 -0.00507335 -0.01142317
v -0.04038233 -0.00477952 -0.01154304
v -0.04028547 -0.00389335 -0.01187742
v -0.04028547 -0.00389335 -0.01187760
v 0.04015672 -0.00219176 -0.01230597
v 0.04011190 -0.00110315 -0.01245105
v 0.04011190 -0.00110315 -0.01245093
v -0.04014111 -0.00188261 -0.01235706
v -0.04010463 -0.00079505 -0.01247442
v -0.04011184 0.00110715 -0.01245093
v -0.04015666 0.00219576 -0.01230597
v -0.04009664 0.00000200 -0.01249993
v 0.04009670 0.00000200 -0.01249993
v 0.04010469 0.00079905 -0.01247442
v -0.04038340 0.00478182 -0.01153892
v -0.04029900 0.00403442 -0.01183164
v 0.04020602 0.00296368 -0.01214403
v -0.04022932 0.00326683 -0.01206607
v -0.04017317 0.00243878 -0.01225156
v 0.04028559 0.00389735 -0.01187760
v 0.04038244 0.00478352 -0.01154304
v -0.04041666 0.00507735 -0.01142317
v 0.04039794 0.00492512 -0.01148963
v 0.04053086 0.00591737 -0.01101166
v -0.04069418 0.00694468 -0.01039016
v -0.04055387 0.00607377 -0.01092619
v -0.04101676 0.00863518 -0.00902843
v -0.04098165 0.00847250 -0.00919235
v 0.04105943 0.00883214 -0.00883001
v 0.04068106 0.00687179 -0.01044291
v 0.04069394 0.00694514 -0.01039112
v -0.04070669 0.00702214 -0.01034248
v 0.04079783 0.00753242 -0.00997704
v 0.04096514 0.00839177 -0.00926608
v -0.04081213 0.00761009 -0.00991797
v 0.04101652 0.00863184 -0.00902832
v 0.04113513 0.00918613 -0.00847942
v -0.04115158 0.00925948 -0.00839925
v -0.04105932 0.00883204 -0.00883001
v 0.04130358 0.00991299 -0.00761712
v -0.04142153 0.01039335 -0.00694311
v -0.04131734 0.00997092 -0.00754124
v 0.04172444 0.01154092 -0.00477976
v -0.04172540 0.01154499 -0.00478131
v -0.04170996 0.01148993 -0.00492716
v -0.04158068 0.01101134 -0.00591975
v -0.04143369 0.01044200 -0.00687426
v 0.04169172 0.01142330 -0.00507975
v 0.04140866 0.01034239 -0.00702327
v 0.04142135 0.01039208 -0.00694257
v 0.04155833 0.01092615 -0.00607556
v -0.04175091 0.01163595 -0.00454068
v 0.04175055 0.01163469 -0.00454050
v -0.04181856 0.01187841 -0.00389886
v 0.04180551 0.01183211 -0.00403714
v -0.04192573 0.01224994 -0.00243622
v -0.04189503 0.01214480 -0.00296688
v 0.04187268 0.01206694 -0.00326920
v 0.04192692 0.01225363 -0.00243676
v -0.04195756 0.01235861 -0.00188780
v 0.04194254 0.01230742 -0.00219697
v -0.04199237 0.01247649 -0.00079817
v 0.04198545 0.01245290 -0.00110680
v 0.04200006 0.01250200 0.00000006
v -0.04200000 0.01250200 0.00000006
v 0.04199243 0.01247649 0.00079829
v 0.04189509 0.01214480 0.00296700
v -0.04175043 0.01163469 0.00454062
v 0.04192585 0.01224994 0.00243634
v -0.04180545 0.01183211 0.00403714
v -0.04187256 0.01206694 0.00326914
v -0.04192686 0.01225363 0.00243688
v 0.04195762 0.01235861 0.00188786
v -0.04194248 0.01230742 0.00219709
v -0.04198539 0.01245290 0.00110686
v -0.04198539 0.01245290 0.00110692
v 0.04181862 0.01187841 0.00389898
v -0.04175043 0.01163469 0.00454074
v 0.04175097 0.01163595 0.00454074
v 0.04175097 0.01163595 0.00454062
v -0.04172438 0.01154092 0.00477982
v 0.04172546 0.01154499 0.00478154
v 0.04171008 0.01148993 0.00492722
v 0.04158074 0.01101134 0.00591987
v 0.04143375 0.01044200 0.00687438
v -0.04169166 0.01142330 0.00507975
v 0.04142159 0.01039335 0.00694323
v -0.04113501 0.00918613 0.00847954
v -0.04130352 0.00991299 0.00761724
v -0.04140860 0.01034239 0.00702339
v -0.04142129 0.01039208 0.00694269
v -0.04155827 0.01092615 0.00607568
v 0.04101682 0.00863518 0.00902855
v 0.04098171 0.00847250 0.00919247
v -0.04105937 0.00883214 0.00883013
v 0.04131740 0.00997092 0.00754136
v 0.04115164 0.00925948 0.00839949
v 0.04105937 0.00883204 0.00883013
v 0.04081225 0.00761009 0.00991809
v 0.04070675 0.00702214 0.01034260
v -0.04101646 0.00863184 0.00902843
v -0.04096508 0.00839177 0.00926626
v 0.04069424 0.00694468 0.01039028
v -0.04039788 0.00492512 0.01148975
v -0.04053080 0.00591737 0.01101184
v -0.04068100 0.00687179 0.01044291
v -0.04069388 0.00694514 0.01039135
v -0.04079777 0.00753242 0.00997716
v 0.04017323 0.00243878 0.01225156
v -0.04017431 0.00243829 0.01224804
v 0.04022938 0.00326683 0.01206619
v -0.04020596 0.00296368 0.01214415
v 0.04029906 0.00403442 0.01183176
v 0.04038346 0.00478182 0.01153904
v 0.04055393 0.00607377 0.01092631
v 0.04041672 0.00507735 0.01142335
v -0.04038233 0.00478352 0.01154315
v -0.04038233 0.00478352 0.01154327
v -0.04028547 0.00389735 0.01187754
v 0.04015672 0.00219576 0.01230609
v 0.04011190 0.00110715 0.01245105
v -0.04014111 0.00188661 0.01235718
v -0.04010463 0.00079905 0.01247466
v -0.04015666 -0.00219176 0.01230609
v -0.04009664 0.00000200 0.01250005
v 0.04009670 0.00000200 0.01250005
v 0.04010469 -0.00079505 0.01247466
v -0.04038340 -0.00477782 0.01153904
v -0.04029900 -0.00403042 0.01183176
v 0.04020602 -0.00295968 0.01214415
v -0.04022932 -0.00326283 0.01206619
v -0.04017317 -0.00243478 0.01225156
v 0.04028559 -0.00389335 0.01187754
v 0.04038244 -0.00477952 0.01154315
v 0.04038244 -0.00477952 0.01154327
v -0.04041666 -0.00507335 0.01142335
v 0.04039794 -0.00492112 0.01148975
v 0.04053086 -0.00591337 0.01101184
v -0.04069418 -0.00694067 0.01039028
v -0.04055387 -0.00606977 0.01092631
v -0.04101676 -0.00863117 0.00902855
v -0.04098165 -0.00846850 0.00919247
v 0.04105943 -0.00882814 0.00883013
v 0.04068106 -0.00686779 0.01044291
v 0.04069394 -0.00694114 0.01039135
v -0.04070669 -0.00701814 0.01034260
v 0.04079783 -0.00752842 0.00997716
v 0.04096514 -0.00838777 0.00926626
v -0.04081213 -0.00760609 0.00991809
v 0.04101652 -0.00862784 0.00902843
v 0.04113513 -0.00918213 0.00847954
v -0.04115158 -0.00925548 0.00839949
v -0.04105932 -0.00882804 0.00883013
v 0.04130358 -0.00990899 0.00761724
v -0.04142153 -0.01038935 0.00694323
v -0.04131734 -0.00996692 0.00754136
v 0.04172444 -0.01153692 0.00477982
v -0.04172540 -0.01154099 0.00478154
v -0.04170996 -0.01148593 0.00492722
v -0.04158068 -0.01100735 0.00591987
v -0.04143369 -0.01043800 0.00687438
v 0.04169172 -0.01141930 0.00507975
v 0.04140866 -0.01033839 0.00702339
v 0.04142135 -0.01038808 0.00694269
v 0.04155833 -0.01092215 0.00607568
v -0.04175091 -0.01163195 0.00454074
v -0.04175091 -0.01163195 0.00454062
v 0.04175055 -0.01163069 0.00454074
v 0.04175055 -0.01163069 0.00454062
v -0.04181856 -0.01187441 0.00389886
v 0.04180551 -0.01182811 0.00403714
v -0.04192573 -0.01224594 0.00243634
v -0.04189503 -0.01214080 0.00296700
v -0.04198539 -0.01244890 -0.00110680
v -0.04200000 -0.01249800 0.00000006
v 0.04200006 -0.01249800 0.00000006
v -0.04199237 -0.01247249 0.00079829
v 0.04187268 -0.01206294 0.00326914
v 0.04192692 -0.01224963 0.00243688
v -0.04195756 -0.01235462 0.00188786
v 0.04194254 -0.01230342 0.00219709
v 0.04198545 -0.01244890 0.00110686
v 0.04198545 -0.01244890 0.00110692
v -0.04181856 -0.01187441 0.00389898
v -0.03980136 0.01450200 0.01341075
v -0.04068100 0.00687179 0.01044303
v -0.04101807 0.01450200 0.00902885
v -0.04175377 0.01450200 0.00454110
v -0.04200000 0.01450200 0.00000006
v -0.04175377 0.01450200 -0.00454098
v -0.04101807 0.01450200 -0.00902861
v -0.03980136 0.01450200 -0.01341051
v -0.04096508 -0.00838777 -0.00926614
v -0.04187256 -0.01206294 -0.00326908
v 0.04175383 0.01450200 0.00454110
v 0.04181862 0.01187841 0.00389886
v 0.04200006 0.01450200 0.00000006
v 0.04101819 0.01450200 0.00902885
v 0.03980142 0.01450200 0.01341075
v 0.04068106 -0.00686779 0.01044303
v 0.03980142 0.01450200 -0.01341051
v 0.04028559 0.00389735 -0.01187742
v 0.04101819 0.01450200 -0.00902861
v 0.04175383 0.01450200 -0.00454098
v 0.04096514 0.00839177 -0.00926614
v 0.04187268 0.01206694 -0.00326908
v 0.03811824 0.01450200 -0.01763535
v 0.03598803 0.01450200 -0.02165312
v 0.03598803 0.01450200 -0.02165323
v 0.03343594 -0.01449800 -0.02541727
v 0.03343594 0.01450200 -0.02541727
v 0.03343594 0.01450200 -0.02541739
v 0.03049183 0.01450200 -0.02888322
v 0.03049183 0.01450200 -0.02888334
v 0.02719021 0.01450200 -0.03201073
v 0.02356994 0.01450200 -0.03476280
v 0.01967323 0.01450200 -0.03710741
v 0.01554579 0.01450200 -0.03901696
v 0.01123625 0.01450200 -0.04046905
v 0.00679493 0.01450200 -0.04144669
v 0.00227398 0.01450200 -0.04193836
v -0.00227392 0.01450200 -0.04193836
v -0.00679487 0.01450200 -0.04144669
v -0.01123619 0.01450200 -0.04046905
v -0.01554573 0.01450200 -0.03901696
v -0.01967317 0.01450200 -0.03710741
v -0.02356982 0.01450200 -0.03476280
v -0.02719015 0.01450200 -0.03201073
v -0.03049177 0.01450200 -0.02888322
v -0.03049177 0.01450200 -0.02888334
v -0.03343588 0.01450200 -0.02541727
v -0.03343588 0.01450200 -0.02541739
v -0.03598791 0.01450200 -0.02165312
v -0.03598791 0.01450200 -0.02165323
v -0.03811818 0.01450200 -0.01763535
v -0.03811818 0.01450200 0.01763535
v -0.03598791 0.01450200 0.02165335
v -0.03343588 0.01450200 0.02541733
v -0.03049177 0.01450200 0.02888346
v -0.02719015 0.01450200 0.03201085
v -0.02356982 0.01450200 0.03476304
v -0.02356982 0.01450200 0.03476292
v -0.01967317 0.01450200 0.03710753
v -0.01554573 0.01450200 0.03901714
v -0.01123619 0.01450200 0.04046911
v -0.00679487 0.01450200 0.04144710
v -0.00227392 0.01450200 0.04193801
v 0.00227398 0.01450200 0.04193801
v 0.00679493 0.01450200 0.04144710
v 0.01123625 0.01450200 0.04046911
v 0.01554579 0.01450200 0.03901714
v 0.01967323 0.01450200 0.03710753
v 0.02356994 0.01450200 0.03476304
v 0.02356994 0.01450200 0.03476292
v 0.02719021 0.01450200 0.03201085
v 0.03049183 0.01450200 0.02888346
v 0.03343594 0.01450200 0.02541733
v 0.03598803 0.01450200 0.02165335
v 0.03811824 0.01450200 0.01763535
v -0.00397772 0.01450200 0.03275943
v 0.00000006 0.01450200 0.03300005
v 0.00397778 0.01450200 0.03275943
v 0.00789756 0.01450200 0.03204113
v 0.01170206 0.01450200 0.03085560
v 0.01533592 0.01450200 0.02922004
v 0.01874626 0.01450200 0.02715856
v 0.02188313 0.01450200 0.02470100
v 0.02470094 0.01450200 0.02188319
v 0.02715844 0.01450200 0.01874614
v -0.02921993 0.01450200 0.01533592
v -0.02715838 0.01450200 0.01874614
v -0.02715838 0.01450200 0.01874626
v -0.02470088 0.01450200 0.02188319
v -0.02188307 0.01450200 0.02470100
v -0.01874620 0.01450200 0.02715856
v -0.01533586 0.01450200 0.02922004
v -0.01170200 0.01450200 0.03085560
v -0.00789750 0.01450200 0.03204113
v -0.02715838 0.01450200 -0.01874614
v -0.02921993 0.01450200 -0.01533580
v -0.03085548 0.01450200 -0.01170194
v -0.03204101 0.01450200 -0.00789732
v -0.03275925 0.01450200 -0.00397766
v -0.03299999 0.01450200 0.00000006
v -0.03275925 0.01450200 0.00397778
v -0.03204101 0.01450200 0.00789744
v -0.03085548 0.01450200 0.01170206
v -0.02921993 0.01450200 0.01533586
v 0.00397778 0.01450200 -0.03275937
v 0.00000006 0.01450200 -0.03299993
v -0.00397772 0.01450200 -0.03275937
v -0.00789750 0.01450200 -0.03204101
v -0.01170200 0.01450200 -0.03085548
v -0.01533586 0.01450200 -0.02922004
v -0.01533586 0.01450200 -0.02921993
v -0.01874620 0.01450200 -0.02715844
v -0.01874620 0.01450200 -0.02715832
v -0.02188307 0.01450200 -0.02470076
v -0.02470088 0.01450200 -0.02188295
v -0.02715838 0.01450200 -0.01874602
v 0.02715844 0.01450200 0.01874626
v 0.02921999 0.01450200 0.01533586
v 0.02921999 0.01450200 0.01533592
v 0.03085560 0.01450200 0.01170206
v 0.03204113 0.01450200 0.00789744
v 0.03275931 0.01450200 0.00397778
v 0.03300005 0.01450200 0.00000006
v 0.03275931 0.01450200 -0.00397766
v 0.03204113 0.01450200 -0.00789732
v 0.03085560 0.01450200 -0.01170194
v 0.02921999 0.01450200 -0.01533580
v 0.02715844 0.01450200 -0.01874602
v 0.02715844 0.01450200 -0.01874614
v 0.02470094 0.01450200 -0.02188295
v 0.02188313 0.01450200 -0.02470076
v 0.01874626 0.01450200 -0.02715844
v 0.01874626 0.01450200 -0.02715832
v 0.01533592 0.01450200 -0.02922004
v 0.01533592 0.01450200 -0.02921993
v 0.01170206 0.01450200 -0.03085548
v 0.00789756 0.01450200 -0.03204101
v 0.03275931 0.02350200 0.00397778
v 0.03300005 0.02350200 0.00000006
v 0.03275931 0.02350200 -0.00397766
v 0.03204113 0.02350200 -0.00789732
v 0.03085560 0.02350200 -0.01170194
v 0.02921999 0.02350200 -0.01533580
v 0.02715844 0.02350200 -0.01874602
v 0.02715844 0.02350200 -0.01874614
v 0.02470094 0.02350200 -0.02188295
v 0.02188313 0.02350200 -0.02470076
v 0.01874626 0.02350200 -0.02715844
v 0.01874626 0.02350200 -0.02715832
v 0.01533592 0.02350200 -0.02922004
v 0.01533592 0.02350200 -0.02921993
v 0.01170206 0.02350200 -0.03085548
v 0.00789756 0.02350200 -0.03204101
v 0.00397778 0.02350200 -0.03275937
v 0.00000006 0.02350200 -0.03299993
v -0.00397772 0.02350200 -0.03275937
v -0.00789750 0.02350200 -0.03204101
v -0.01170200 0.02350200 -0.03085548
v -0.01533586 0.02350200 -0.02922004
v -0.01533586 0.02350200 -0.02921993
v -0.01874620 0.02350200 -0.02715844
v -0.01874620 0.02350200 -0.02715832
v -0.02188307 0.02350200 -0.02470076
v -0.02470088 0.02350200 -0.02188295
v -0.02715838 0.02350200 -0.01874602
v -0.02715838 0.02350200 -0.01874614
v -0.02921993 0.02350200 -0.01533580
v -0.03085548 0.02350200 -0.01170194
v -0.03204101 0.02350200 -0.00789732
v -0.03275925 0.02350200 -0.00397766
v -0.03299999 0.02350200 0.00000006
v -0.03275925 0.02350200 0.00397778
v -0.03204101 0.02350200 0.00789744
v -0.03085548 0.02350200 0.01170206
v -0.02921993 0.02350200 0.01533586
v -0.02921993 0.02350200 0.01533592
v -0.02715838 0.02350200 0.01874614
v -0.02715838 0.02350200 0.01874626
v -0.02470088 0.02350200 0.02188319
v -0.02188307 0.02350200 0.02470100
v -0.01874620 0.02350200 0.02715856
v -0.01533586 0.02350200 0.02922004
v -0.01170200 0.02350200 0.03085560
v -0.00789750 0.02350200 0.03204113
v -0.00397772 0.02350200 0.03275943
v 0.00000006 0.02350200 0.03300005
v 0.00397778 0.02350200 0.03275943
v 0.00789756 0.02350200 0.03204113
v 0.01170206 0.02350200 0.03085560
v 0.01533592 0.02350200 0.02922004
v 0.01874626 0.02350200 0.02715856
v 0.02188313 0.02350200 0.02470100
v 0.02470094 0.02350200 0.02188319
v 0.02715844 0.02350200 0.01874614
v 0.02715844 0.02350200 0.01874626
v 0.02921999 0.02350200 0.01533586
v 0.02921999 0.02350200 0.01533592
v 0.03085560 0.02350200 0.01170206
v 0.03204113 0.02350200 0.00789744
f 1 2 3
f 4 5 6
f 6 5 7
f 1 3 5
f 5 3 8
f 5 8 9
f 10 11 12
f 12 11 6
f 12 6 13
f 13 6 7
f 13 14 15
f 11 16 6
f 6 16 17
f 6 17 18
f 19 1 20
f 20 1 5
f 20 5 21
f 22 5 4
f 23 24 25
f 25 24 5
f 25 5 26
f 26 5 9
f 27 28 29
f 27 29 24
f 24 29 30
f 24 30 31
f 32 33 34
f 34 33 6
f 34 6 35
f 35 6 18
f 36 37 38
f 36 38 33
f 33 38 39
f 33 39 40
f 41 29 42
f 43 29 44
f 43 28 45
f 45 28 46
f 47 5 48
f 48 5 24
f 48 24 49
f 49 24 31
f 50 38 51
f 52 38 37
f 52 37 53
f 53 37 54
f 55 6 56
f 56 6 33
f 56 33 57
f 57 33 40
f 58 49 59
f 59 49 31
f 59 31 60
f 60 31 30
f 60 30 61
f 61 30 29
f 61 29 62
f 62 29 41
f 62 41 63
f 63 41 42
f 63 43 64
f 65 43 45
f 65 45 66
f 66 45 46
f 66 46 67
f 67 46 44
f 67 28 68
f 69 28 70
f 69 27 71
f 72 27 24
f 72 24 73
f 73 24 23
f 73 23 74
f 74 23 25
f 74 25 75
f 75 25 26
f 75 26 76
f 76 26 9
f 76 9 77
f 77 9 8
f 77 8 78
f 78 8 3
f 78 3 79
f 79 3 80
f 79 2 81
f 82 2 83
f 82 1 84
f 85 1 19
f 85 19 86
f 86 19 20
f 86 20 87
f 87 20 21
f 87 22 88
f 89 22 4
f 89 4 90
f 90 4 6
f 90 6 91
f 91 6 55
f 91 55 92
f 92 55 56
f 92 56 93
f 93 56 57
f 93 57 94
f 94 57 40
f 94 40 95
f 95 40 39
f 95 39 96
f 96 39 38
f 96 38 97
f 97 38 98
f 97 50 99
f 100 50 51
f 100 52 101
f 102 52 53
f 102 53 103
f 103 53 54
f 103 54 104
f 104 54 37
f 104 37 105
f 105 37 36
f 105 36 106
f 106 36 33
f 106 33 107
f 107 33 32
f 107 32 108
f 108 32 34
f 108 34 109
f 109 34 35
f 109 35 110
f 110 35 18
f 110 18 111
f 111 18 17
f 111 17 112
f 112 17 16
f 112 16 113
f 113 16 11
f 113 11 114
f 114 11 10
f 114 10 115
f 115 10 12
f 115 12 116
f 116 12 13
f 116 13 117
f 117 13 15
f 117 118 119
f 120 118 7
f 120 14 121
f 122 14 5
f 122 5 123
f 123 5 47
f 123 47 124
f 124 47 48
f 124 48 58
f 58 48 49
f 77 125 76
f 76 125 126
f 76 126 75
f 75 126 127
f 75 127 74
f 74 127 128
f 74 128 73
f 73 128 129
f 73 129 71
f 72 129 130
f 72 130 68
f 69 130 131
f 69 131 67
f 67 131 132
f 67 132 66
f 66 132 133
f 66 134 64
f 90 135 88
f 89 135 136
f 89 137 87
f 87 137 138
f 87 139 86
f 86 139 140
f 86 140 84
f 85 140 141
f 85 141 81
f 82 141 142
f 82 142 79
f 79 142 143
f 79 143 78
f 78 143 144
f 78 144 77
f 77 144 145
f 77 145 125
f 102 146 99
f 100 146 147
f 100 147 97
f 97 147 148
f 97 148 96
f 96 148 149
f 96 149 95
f 95 149 150
f 95 150 94
f 94 150 151
f 94 151 93
f 93 151 152
f 93 152 92
f 92 152 153
f 92 153 91
f 91 153 154
f 91 154 90
f 90 154 155
f 90 155 156
f 111 157 110
f 110 157 158
f 110 158 109
f 109 158 159
f 109 159 108
f 108 159 160
f 108 160 107
f 107 160 161
f 107 161 106
f 106 161 162
f 106 162 105
f 105 162 163
f 105 164 104
f 104 164 165
f 104 165 103
f 103 165 166
f 103 166 101
f 102 166 167
f 102 167 146
f 122 168 119
f 120 168 169
f 120 169 117
f 117 169 170
f 117 170 116
f 116 170 171
f 116 171 115
f 115 171 172
f 115 173 114
f 114 173 174
f 114 174 113
f 113 174 175
f 113 175 112
f 112 175 176
f 112 176 111
f 111 176 177
f 111 177 157
f 134 178 64
f 65 178 179
f 65 180 63
f 63 180 181
f 63 181 62
f 62 181 182
f 62 182 61
f 61 182 183
f 61 183 60
f 60 183 184
f 60 184 59
f 59 184 185
f 59 185 58
f 58 185 186
f 58 186 124
f 124 186 187
f 124 187 123
f 123 187 188
f 123 188 121
f 122 188 189
f 122 189 168
f 190 191 192
f 193 194 195
f 196 197 198
f 198 197 199
f 199 200 198
f 198 200 201
f 198 201 202
f 202 201 203
f 202 203 204
f 196 205 197
f 197 205 206
f 197 206 207
f 207 206 208
f 207 208 209
f 209 210 207
f 207 210 211
f 207 211 212
f 213 214 215
f 215 216 213
f 213 216 217
f 213 217 211
f 211 217 218
f 211 218 212
f 219 220 221
f 213 222 214
f 214 222 223
f 214 223 221
f 221 223 224
f 221 224 219
f 220 225 221
f 221 225 226
f 221 226 227
f 227 226 228
f 229 230 231
f 231 232 229
f 229 232 233
f 229 233 226
f 226 233 234
f 226 234 228
f 235 236 237
f 237 236 238
f 237 238 239
f 239 238 240
f 229 241 230
f 230 241 242
f 230 242 243
f 243 242 240
f 243 240 244
f 245 240 238
f 235 246 236
f 236 246 247
f 236 248 249
f 249 248 250
f 251 194 252
f 250 248 253
f 253 248 254
f 253 254 195
f 251 254 255
f 251 255 193
f 256 257 258
f 258 257 259
f 258 259 194
f 194 259 260
f 194 260 252
f 258 261 256
f 256 261 262
f 256 262 263
f 263 262 264
f 265 266 264
f 264 266 267
f 264 267 263
f 268 269 270
f 265 271 266
f 266 271 272
f 266 272 273
f 273 272 274
f 273 274 275
f 269 276 270
f 270 276 273
f 270 273 277
f 277 273 275
f 278 279 270
f 270 279 280
f 270 280 268
f 281 282 278
f 278 282 283
f 278 283 279
f 284 285 286
f 286 287 284
f 284 287 288
f 284 288 289
f 281 290 282
f 282 290 291
f 282 291 288
f 288 291 292
f 288 292 289
f 285 284 293
f 293 284 294
f 293 294 295
f 296 297 294
f 294 297 298
f 294 298 295
f 296 299 297
f 297 299 300
f 297 300 301
f 301 300 302
f 301 302 303
f 302 304 303
f 303 304 305
f 303 305 306
f 306 305 307
f 308 309 310
f 310 309 311
f 311 312 310
f 310 312 313
f 310 313 314
f 314 313 315
f 314 315 307
f 307 315 316
f 307 317 306
f 308 318 319
f 309 318 320
f 309 321 322
f 322 321 323
f 322 323 324
f 324 325 322
f 322 325 326
f 322 326 327
f 328 329 330
f 330 331 328
f 328 331 332
f 328 332 326
f 326 332 333
f 326 333 327
f 334 335 336
f 328 337 329
f 329 337 338
f 329 338 336
f 336 338 339
f 336 339 334
f 335 340 336
f 336 340 341
f 336 341 342
f 342 341 343
f 344 345 346
f 346 347 344
f 344 347 348
f 344 348 341
f 341 348 349
f 341 349 343
f 350 351 352
f 352 351 353
f 352 353 354
f 354 353 355
f 344 356 345
f 345 356 357
f 345 357 358
f 359 357 355
f 359 355 360
f 360 355 353
f 350 361 351
f 351 361 362
f 351 362 363
f 363 362 364
f 192 191 365
f 364 362 366
f 366 362 367
f 366 367 192
f 192 367 368
f 192 368 190
f 369 370 371
f 371 370 372
f 371 372 191
f 191 372 373
f 191 373 365
f 371 374 369
f 369 374 375
f 369 376 377
f 377 376 378
f 379 380 378
f 378 380 381
f 378 381 377
f 382 383 384
f 379 385 380
f 380 385 386
f 380 386 387
f 387 386 388
f 387 388 389
f 383 390 384
f 384 390 387
f 384 387 391
f 391 387 389
f 392 393 384
f 384 393 394
f 384 394 382
f 395 396 392
f 392 396 397
f 392 397 393
f 398 399 400
f 400 401 398
f 398 401 402
f 398 402 403
f 395 404 396
f 396 404 405
f 396 405 402
f 402 405 406
f 402 406 403
f 399 398 407
f 408 398 409
f 408 410 411
f 412 413 409
f 410 413 414
f 410 414 411
f 203 415 204
f 204 415 416
f 204 416 417
f 417 416 418
f 412 419 413
f 413 419 420
f 413 420 421
f 421 420 422
f 421 422 418
f 418 422 423
f 418 424 417
f 399 408 150
f 150 408 411
f 150 425 414
f 414 413 150
f 150 413 421
f 150 421 151
f 151 421 418
f 394 393 149
f 149 393 397
f 149 397 396
f 396 402 149
f 149 402 401
f 149 401 150
f 150 401 400
f 150 400 399
f 366 192 148
f 346 345 426
f 349 348 426
f 426 348 427
f 426 347 346
f 345 359 426
f 426 359 360
f 426 360 353
f 366 148 364
f 353 351 426
f 426 351 363
f 426 363 364
f 192 365 148
f 148 365 373
f 148 373 372
f 372 370 148
f 148 370 369
f 148 369 377
f 377 381 148
f 148 381 380
f 148 380 387
f 387 390 148
f 148 390 383
f 148 383 149
f 149 383 382
f 149 382 394
f 330 329 428
f 311 309 429
f 429 309 322
f 429 322 428
f 428 322 327
f 428 327 333
f 333 332 428
f 428 332 331
f 428 331 330
f 329 336 428
f 428 336 342
f 428 342 426
f 426 342 343
f 426 343 349
f 315 429 316
f 317 429 430
f 317 430 306
f 315 313 429
f 429 313 312
f 429 312 311
f 285 293 431
f 431 293 295
f 431 295 298
f 298 297 431
f 431 297 301
f 431 301 430
f 430 301 303
f 430 303 306
f 280 279 432
f 432 279 283
f 432 283 282
f 282 288 432
f 432 288 287
f 432 287 431
f 431 287 286
f 431 286 285
f 253 251 433
f 231 230 154
f 234 233 154
f 154 233 232
f 154 232 231
f 230 243 154
f 154 243 244
f 154 245 238
f 238 236 154
f 154 236 249
f 154 249 250
f 251 252 433
f 433 252 260
f 433 260 259
f 259 257 433
f 433 257 256
f 433 256 263
f 263 267 433
f 433 267 266
f 433 266 273
f 273 276 433
f 433 276 269
f 433 269 432
f 432 269 268
f 432 268 280
f 215 214 153
f 199 197 152
f 152 197 207
f 152 207 153
f 153 207 212
f 153 212 218
f 218 217 153
f 153 217 216
f 153 216 215
f 214 221 153
f 153 221 227
f 153 227 154
f 154 227 228
f 154 434 234
f 418 416 151
f 151 416 415
f 151 415 152
f 152 415 203
f 203 201 152
f 152 201 435
f 152 200 199
f 323 321 436
f 436 321 437
f 436 318 308
f 308 310 436
f 436 310 314
f 436 314 438
f 438 314 307
f 339 338 439
f 439 338 337
f 439 337 328
f 328 326 439
f 439 326 325
f 439 325 436
f 436 325 324
f 436 324 323
f 367 362 440
f 379 378 188
f 388 386 188
f 188 386 441
f 188 385 379
f 378 376 188
f 188 376 374
f 188 374 371
f 371 191 188
f 188 191 190
f 188 190 368
f 362 361 440
f 440 361 350
f 440 350 352
f 352 354 440
f 440 354 355
f 440 355 357
f 357 356 440
f 440 356 344
f 440 344 341
f 341 340 440
f 440 340 335
f 440 335 439
f 439 335 334
f 439 334 339
f 395 392 187
f 412 410 186
f 186 410 398
f 186 398 187
f 187 398 403
f 187 403 406
f 406 405 187
f 187 405 404
f 187 404 395
f 392 384 187
f 187 384 391
f 187 391 188
f 188 391 389
f 188 389 388
f 422 186 423
f 424 186 185
f 424 185 417
f 422 420 186
f 186 420 419
f 186 419 412
f 208 206 184
f 184 206 205
f 184 205 196
f 196 198 184
f 184 198 202
f 184 202 185
f 185 202 204
f 185 204 417
f 224 223 183
f 183 223 222
f 183 222 213
f 213 211 183
f 183 211 210
f 183 210 184
f 184 210 209
f 184 209 208
f 254 248 182
f 265 264 442
f 274 272 442
f 442 272 271
f 442 271 265
f 264 262 442
f 442 262 443
f 442 261 258
f 254 182 255
f 258 194 442
f 442 194 193
f 442 193 255
f 248 246 182
f 182 246 235
f 182 235 237
f 237 239 182
f 182 239 240
f 182 240 242
f 242 241 182
f 182 241 229
f 182 229 226
f 226 225 182
f 182 225 220
f 182 220 183
f 183 220 219
f 183 219 224
f 281 278 444
f 296 294 445
f 445 294 284
f 445 284 444
f 444 284 289
f 444 289 292
f 292 291 444
f 444 291 290
f 444 290 281
f 278 270 444
f 444 270 277
f 444 277 442
f 442 277 275
f 442 446 274
f 307 305 438
f 438 305 304
f 438 304 445
f 445 304 302
f 302 300 445
f 445 300 447
f 445 299 296
f 255 182 442
f 442 182 181
f 442 181 448
f 448 181 179
f 448 180 449
f 450 180 451
f 450 178 452
f 453 178 133
f 453 134 454
f 455 134 132
f 455 132 456
f 456 132 131
f 456 131 457
f 457 131 130
f 457 130 458
f 458 130 129
f 458 129 459
f 459 129 128
f 459 128 460
f 460 128 127
f 460 127 461
f 461 127 126
f 461 126 462
f 462 126 125
f 462 125 463
f 463 125 145
f 463 145 464
f 464 145 144
f 464 144 465
f 465 144 143
f 465 143 466
f 466 143 142
f 466 142 467
f 467 142 141
f 467 141 468
f 468 141 140
f 468 140 469
f 469 140 138
f 469 139 470
f 471 139 136
f 471 137 472
f 473 137 156
f 473 135 474
f 475 135 155
f 475 155 476
f 476 155 154
f 476 154 433
f 433 154 250
f 433 250 253
f 364 148 426
f 426 148 147
f 426 147 477
f 477 147 146
f 477 146 478
f 478 146 167
f 478 167 479
f 479 167 166
f 479 166 480
f 480 166 165
f 480 165 481
f 481 165 163
f 481 164 482
f 483 164 162
f 483 162 484
f 484 162 161
f 484 161 485
f 485 161 160
f 485 160 486
f 486 160 159
f 486 159 487
f 487 159 158
f 487 158 488
f 488 158 157
f 488 157 489
f 489 157 177
f 489 177 490
f 490 177 176
f 490 176 491
f 491 176 175
f 491 175 492
f 492 175 174
f 492 174 493
f 493 174 172
f 493 173 494
f 495 173 171
f 495 171 496
f 496 171 170
f 496 170 497
f 497 170 169
f 497 169 498
f 498 169 168
f 498 168 499
f 499 168 189
f 499 189 500
f 500 189 188
f 500 188 440
f 440 188 368
f 440 368 367
f 501 488 502
f 502 488 489
f 502 489 503
f 503 489 490
f 503 490 504
f 504 490 491
f 504 491 505
f 505 491 492
f 505 492 506
f 506 492 493
f 506 493 507
f 507 493 494
f 507 495 508
f 508 495 496
f 508 496 509
f 509 496 497
f 509 497 510
f 511 478 512
f 513 478 479
f 513 479 514
f 514 479 480
f 514 480 515
f 515 480 481
f 515 481 516
f 516 481 482
f 516 483 517
f 517 483 484
f 517 484 518
f 518 484 485
f 518 485 519
f 519 485 486
f 519 486 501
f 501 486 487
f 501 487 488
f 520 475 521
f 521 475 476
f 521 476 522
f 522 476 433
f 522 433 523
f 523 433 432
f 523 432 524
f 524 432 431
f 524 431 525
f 525 431 430
f 525 430 526
f 526 430 429
f 526 429 527
f 527 429 428
f 527 428 528
f 528 428 426
f 528 426 529
f 511 426 477
f 511 477 478
f 530 462 531
f 531 462 463
f 531 463 532
f 532 463 464
f 532 464 533
f 533 464 465
f 533 465 534
f 534 465 466
f 534 466 535
f 536 466 467
f 536 467 537
f 538 467 468
f 538 468 539
f 539 468 469
f 539 469 540
f 540 469 470
f 540 471 541
f 520 471 472
f 520 473 474
f 497 498 510
f 542 498 499
f 542 499 543
f 544 499 500
f 544 500 545
f 545 500 440
f 545 440 546
f 546 440 439
f 546 439 547
f 547 439 436
f 547 436 548
f 548 436 438
f 548 438 549
f 549 438 445
f 549 445 550
f 550 445 444
f 550 444 551
f 551 444 442
f 551 442 552
f 442 448 552
f 552 448 449
f 552 450 553
f 554 450 452
f 554 453 555
f 555 453 454
f 555 455 556
f 556 455 456
f 556 456 557
f 558 456 457
f 558 457 559
f 560 457 458
f 560 458 561
f 561 458 459
f 561 459 562
f 562 459 460
f 562 460 530
f 530 460 461
f 530 461 462
f 563 548 564
f 564 548 549
f 564 549 565
f 565 549 550
f 565 550 566
f 566 550 551
f 566 551 567
f 567 551 552
f 567 552 568
f 568 552 553
f 568 554 569
f 570 554 555
f 570 555 571
f 571 555 556
f 571 556 572
f 572 556 557
f 572 558 573
f 574 558 559
f 574 560 575
f 576 560 561
f 576 561 577
f 577 561 562
f 577 562 578
f 578 562 530
f 578 530 579
f 579 530 531
f 579 531 580
f 580 531 532
f 580 532 581
f 581 532 533
f 581 533 582
f 582 533 534
f 582 534 583
f 583 534 535
f 583 536 584
f 585 536 537
f 585 538 586
f 587 538 539
f 587 539 588
f 588 539 540
f 588 540 589
f 589 540 541
f 589 520 590
f 591 520 521
f 591 521 592
f 592 521 522
f 592 522 593
f 593 522 523
f 593 523 594
f 594 523 524
f 594 524 595
f 595 524 525
f 595 525 596
f 596 525 526
f 596 526 597
f 597 526 527
f 597 527 598
f 598 527 528
f 598 528 599
f 599 528 529
f 599 511 600
f 601 511 512
f 601 513 602
f 603 513 514
f 603 514 604
f 604 514 515
f 604 515 605
f 605 515 516
f 605 516 606
f 606 516 517
f 606 517 607
f 607 517 518
f 607 518 608
f 608 518 519
f 608 519 609
f 609 519 501
f 609 501 610
f 610 501 502
f 610 502 611
f 611 502 503
f 611 503 612
f 612 503 504
f 612 504 613
f 613 504 505
f 613 505 614
f 614 505 506
f 614 506 615
f 615 506 507
f 615 507 616
f 616 507 508
f 616 508 617
f 617 508 509
f 617 509 618
f 618 509 510
f 618 542 619
f 620 542 543
f 620 544 621
f 622 544 545
f 622 545 623
f 623 545 546
f 623 546 624
f 624 546 547
f 624 547 563
f 563 547 548
f 606 607 608
f 574 576 577
f 601 567 599
f 599 567 568
f 606 608 567
f 567 608 609
f 567 609 610
f 574 577 599
f 599 577 578
f 599 578 579
f 605 606 604
f 604 606 567
f 604 567 602
f 603 567 600
f 613 614 612
f 612 614 567
f 612 567 611
f 611 567 610
f 615 623 614
f 614 623 624
f 614 624 563
f 572 574 571
f 571 574 599
f 571 599 569
f 570 599 568
f 582 583 581
f 581 583 599
f 581 599 580
f 580 599 579
f 585 587 593
f 585 593 583
f 583 593 594
f 583 594 595
f 620 622 618
f 618 622 623
f 618 623 617
f 617 623 615
f 617 615 616
f 566 567 565
f 565 567 614
f 565 614 564
f 564 614 563
f 592 593 590
f 591 593 586
f 591 587 589
f 589 587 588
f 598 599 597
f 597 599 583
f 597 583 596
f 596 583 595

