# https://github.com/mikedh/trimesh
v 0.03370211 -0.13800001 -0.00944287
v 0.02990469 -0.13800001 -0.01818547
v 0.02388941 -0.13800001 -0.02557915
v -0.03210240 -0.13800001 0.01394412
v -0.02714990 -0.13800001 0.02208814
v -0.02018380 -0.13800001 0.02859393
v 0.01610230 -0.13800001 -0.03107595
v 0.02388941 -0.13800001 -0.02557927
v -0.01172079 -0.13800001 0.03297922
v -0.01172079 -0.13800001 0.03297916
v -0.00238851 -0.13800001 0.03491840
v 0.00712100 -0.13800001 0.03426793
v 0.01610230 -0.13800001 0.03107604
v 0.02388941 -0.13800001 0.02557924
v 0.00712100 -0.13800001 -0.03426787
v -0.00238851 -0.13800001 -0.03491837
v -0.01172079 -0.13800001 -0.03297907
v -0.03210240 -0.13800001 -0.01394397
v -0.03467400 -0.13800001 -0.00476578
v -0.03467400 -0.13800001 0.00476584
v -0.02714990 -0.13800001 -0.02208808
v -0.02018380 -0.13800001 -0.02859387
v 0.03500000 -0.13800001 0.00000003
v 0.03370211 -0.13800001 0.00944293
v 0.02990469 -0.13800001 0.01818553
v -0.02267250 -0.11000001 0.49464586
v -0.01621920 -0.11000001 0.50023770
v -0.00845200 -0.11000001 0.50378489
v -0.00845200 -0.11000001 0.44621524
v -0.01621920 -0.11000001 0.44976243
v 0.00000000 -0.11000001 0.44500002
v -0.02267250 -0.11000001 0.45535424
v -0.02728900 -0.11000001 0.46253768
v -0.02728900 -0.11000001 0.46253750
v -0.02728900 -0.11000001 0.48746243
v -0.02969460 -0.11000001 0.47073063
v -0.02969460 -0.11000001 0.47926953
v 0.00000000 -0.11000001 0.50500000
v 0.00845200 -0.11000001 0.50378489
v 0.02267250 -0.11000001 0.45535424
v 0.01621920 -0.11000001 0.50023770
v 0.00845200 -0.11000001 0.44621524
v 0.01621920 -0.11000001 0.44976243
v 0.02267250 -0.11000001 0.49464586
v 0.02728900 -0.11000001 0.48746243
v 0.02728900 -0.11000001 0.46253768
v 0.02728900 -0.11000001 0.46253750
v 0.02969460 -0.11000001 0.47926953
v 0.02969460 -0.11000001 0.47073063
v 0.03500000 -0.14300001 0.00000003
v 0.03370211 -0.14300001 -0.00944287
v 0.02990469 -0.14300001 -0.01818538
v 0.02990469 -0.14300001 -0.01818547
v 0.02990469 -0.13800001 -0.01818538
v 0.02388941 -0.14300001 -0.02557915
v 0.02388941 -0.14300001 -0.02557927
v 0.01610230 -0.14300001 -0.03107595
v 0.00712100 -0.14300001 -0.03426787
v -0.00238851 -0.14300001 -0.03491837
v -0.01172079 -0.14300001 -0.03297907
v -0.02018380 -0.14300001 -0.02859387
v -0.02714990 -0.14300001 -0.02208808
v -0.03210240 -0.14300001 -0.01394397
v -0.03467400 -0.14300001 -0.00476578
v -0.03467400 -0.14300001 0.00476584
v -0.03210240 -0.14300001 0.01394412
v -0.02714990 -0.14300001 0.02208814
v -0.02018380 -0.14300001 0.02859393
v -0.01172079 -0.14300001 0.03297922
v -0.01172079 -0.14300001 0.03297916
v -0.00238851 -0.14300001 0.03491840
v 0.00712100 -0.14300001 0.03426793
v 0.01610230 -0.14300001 0.03107604
v 0.02388941 -0.14300001 0.02557924
v 0.02990469 -0.14300001 0.01818553
v 0.03370211 -0.14300001 0.00944293
v -0.04198690 -0.17050001 -0.08372337
v -0.04273690 -0.17050001 -0.08502239
v -0.04198690 -0.20454161 -0.08372337
v -0.04273690 -0.20454161 -0.08502239
v -0.05226316 -0.17050001 -0.07952237
v -0.05151314 -0.17050001 -0.07822338
v -0.05226316 -0.20454161 -0.07952237
v -0.05151314 -0.20454161 -0.07822338
v 0.00000000 -0.11500000 0.44500002
v -0.00845200 -0.11500000 0.44621524
v -0.01621920 -0.11500000 0.44976243
v -0.02267250 -0.11500000 0.45535424
v -0.02728900 -0.11500000 0.46253768
v -0.02728900 -0.11500000 0.46253750
v -0.02969460 -0.11500000 0.47073063
v -0.02969460 -0.11500000 0.47926953
v -0.02728900 -0.11500000 0.48746243
v -0.02267250 -0.11500000 0.49464586
v -0.01621920 -0.11500000 0.50023770
v -0.00845200 -0.11500000 0.50378489
v 0.00000000 -0.11500000 0.50500000
v 0.00845200 -0.11500000 0.50378489
v 0.01621920 -0.11500000 0.50023770
v 0.02267250 -0.11500000 0.49464586
v 0.02728900 -0.11500000 0.48746243
v 0.02969460 -0.11500000 0.47926953
v 0.02969460 -0.11500000 0.47073063
v 0.02728900 -0.11500000 0.46253768
v 0.02728900 -0.11500000 0.46253750
v 0.02267250 -0.11500000 0.45535424
v 0.01621920 -0.11500000 0.44976243
v 0.00845200 -0.11500000 0.44621524
v 0.01782340 -0.14300001 0.05880156
v 0.01418930 -0.14300001 0.06357422
v 0.00908870 -0.14300001 0.06719723
v 0.00908870 -0.14300001 0.06719711
v 0.00312820 -0.14300001 0.06909874
v -0.00312820 -0.14300001 0.06909874
v -0.00908870 -0.14300001 0.06719711
v -0.01418930 -0.14300001 0.06357422
v -0.01782340 -0.14300001 0.05880156
v -0.02721500 -0.14300001 0.05508754
v -0.00609501 -0.14300001 -0.06114027
v -0.05345034 -0.14300001 0.03030434
v -0.04641590 -0.14300001 0.04025987
v -0.03755450 -0.14300001 0.04863068
v 0.00609501 -0.14300001 -0.06114027
v 0.01804511 -0.14300001 -0.05873376
v -0.05906556 -0.14300001 -0.01692769
v -0.06124494 -0.14300001 -0.00493407
v -0.06101371 -0.14300001 0.00725371
v -0.05838097 -0.14300001 0.01915595
v -0.01804510 -0.14300001 -0.05873376
v -0.02928489 -0.14300001 -0.05401558
v -0.03937210 -0.14300001 -0.04717118
v -0.04790960 -0.14300001 -0.03847018
v -0.05456135 -0.14300001 -0.02825508
v -0.05456135 -0.14300001 -0.02825499
v 0.02928489 -0.14300001 -0.05401558
v 0.03937210 -0.14300001 -0.04717118
v 0.04790962 -0.14300001 -0.03847018
v 0.05456141 -0.14300001 -0.02825508
v 0.02721500 -0.14300001 0.05508754
v 0.03755450 -0.14300001 0.04863068
v 0.04641590 -0.14300001 0.04025987
v 0.05456141 -0.14300001 -0.02825499
v 0.05906560 -0.14300001 -0.01692769
v 0.06124490 -0.14300001 -0.00493407
v 0.06101371 -0.14300001 0.00725371
v 0.05838101 -0.14300001 0.01915595
v 0.05345030 -0.14300001 0.03030434
v -0.03710770 -0.17050001 -0.08827236
v -0.03710770 -0.20454161 -0.08827236
v -0.04984830 -0.17050001 -0.07642907
v -0.04984830 -0.20454161 -0.07642907
v -0.04756970 -0.17050001 -0.07553476
v -0.04756970 -0.20454161 -0.07553476
v -0.04512880 -0.17050001 -0.07571769
v -0.04512880 -0.20454161 -0.07571769
v -0.04300901 -0.17050001 -0.07694158
v -0.04300901 -0.20454161 -0.07694158
v -0.04163020 -0.17050001 -0.07896397
v -0.04163020 -0.20454161 -0.07896397
v -0.04126541 -0.17050001 -0.08138436
v -0.04126541 -0.20454161 -0.08138436
v -0.05789231 -0.17050001 -0.07627237
v -0.05789231 -0.20454161 -0.07627237
v -0.02713460 -0.11000580 0.40180066
v -0.02713460 -0.11350001 0.40553924
v -0.01671989 -0.11350001 0.40232596
v 0.02713460 -0.11000580 0.40180066
v 0.02713460 -0.10650001 0.39807275
v 0.01828940 -0.10650001 0.39550415
v -0.02713460 -0.10650001 0.39807275
v -0.01828940 -0.10650001 0.39550415
v -0.01378120 -0.11350001 0.40187958
v -0.00614290 -0.10650001 0.39365903
v -0.00561580 -0.11350001 0.40063915
v -0.00614290 -0.10650001 0.39365891
v 0.00000000 -0.11350001 0.40063915
v 0.00614290 -0.10650001 0.39365903
v 0.02713460 -0.11350001 0.40553924
v 0.01671989 -0.11350001 0.40232596
v 0.01378120 -0.11350001 0.40187958
v 0.00614290 -0.10650001 0.39365891
v 0.00561580 -0.11350001 0.40063915
v 0.00550000 -0.11500000 0.54052603
v 0.00550000 -0.11500000 0.54000008
v 0.00512950 -0.11923531 0.54092801
v 0.00475630 -0.12350000 0.54000008
v 0.00475630 -0.12350000 0.54132998
v -0.00475630 -0.12350000 0.54132998
v -0.00475630 -0.12350000 0.54000008
v -0.00512950 -0.11923531 0.54092801
v -0.00550000 -0.11500000 0.54000008
v -0.00550000 -0.11500000 0.54052603
v 0.04011710 -0.11500000 0.51092482
v 0.04688120 -0.11500000 0.50149775
v 0.05146891 -0.11500000 0.49084046
v 0.01965301 -0.11500000 0.42486295
v -0.00832330 -0.11500000 0.54022801
v -0.01113100 -0.11500000 0.53980803
v -0.01113100 -0.11500000 0.52768803
v -0.00476311 -0.11500000 0.53725004
v -0.00274999 -0.11500000 0.53523707
v 0.00832331 -0.11500000 0.54022801
v 0.01113100 -0.11500000 0.53980803
v 0.00476311 -0.11500000 0.53725004
v 0.01113100 -0.11500000 0.52768803
v 0.00274999 -0.11500000 0.53523707
v 0.00000000 -0.11500000 0.53450000
v -0.02140240 -0.11500000 0.52441609
v -0.01698241 -0.11500000 0.41911522
v -0.01965299 -0.11500000 0.42486295
v -0.02924540 -0.11500000 0.42978194
v -0.05146892 -0.11500000 0.49084046
v -0.04688121 -0.11500000 0.50149775
v -0.04011711 -0.11500000 0.51092482
v -0.03149060 -0.11500000 0.51868403
v -0.03825250 -0.11500000 0.43709603
v -0.04548381 -0.11500000 0.44616970
v -0.05060371 -0.11500000 0.45658180
v -0.05337442 -0.11500000 0.46784887
v -0.05366735 -0.11500000 0.47944793
v 0.02924541 -0.11500000 0.42978194
v 0.03825250 -0.11500000 0.43709603
v 0.04548380 -0.11500000 0.44616970
v 0.02140230 -0.11500000 0.52441609
v 0.03149061 -0.11500000 0.51868403
v -0.00656210 -0.11500000 0.41113630
v -0.01242991 -0.11500000 0.41426685
v 0.00000000 -0.11500000 0.41005453
v 0.05366741 -0.11500000 0.47944793
v 0.05337441 -0.11500000 0.46784887
v 0.05060370 -0.11500000 0.45658180
v 0.00656210 -0.11500000 0.41113630
v 0.01242991 -0.11500000 0.41426685
v 0.01698241 -0.11500000 0.41911522
v 0.01980561 -0.14724101 0.06129250
v -0.01980561 -0.14724101 0.06129250
v -0.02173540 -0.15150000 0.06379417
v -0.01834120 -0.15150000 0.06783864
v 0.02173540 -0.15150000 0.06379417
v 0.01834120 -0.15150000 0.06783864
v 0.01174809 -0.15150000 0.07252184
v 0.00404350 -0.15150000 0.07497963
v -0.00404350 -0.15150000 0.07497963
v -0.01174809 -0.15150000 0.07252184
v -0.00908870 -0.14300001 0.06719723
v 0.02985120 -0.15150000 0.06042364
v -0.02173540 -0.15150000 0.06379405
v 0.04119231 -0.15150000 0.05334142
v 0.05091201 -0.15150000 0.04415962
v 0.05862790 -0.15150000 0.03323969
v 0.06403610 -0.15150000 0.02101156
v 0.06692380 -0.15150000 0.00795633
v 0.06717750 -0.15150000 -0.00541207
v 0.06478700 -0.15150000 -0.01856738
v 0.05984651 -0.15150000 -0.03099197
v 0.05255041 -0.15150000 -0.04219666
v 0.04318590 -0.15150000 -0.05174050
v 0.03212160 -0.15150000 -0.05924779
v 0.01979311 -0.15150000 -0.06442308
v 0.00668539 -0.15150000 -0.06706268
v -0.00668539 -0.15150000 -0.06706268
v -0.01979300 -0.15150000 -0.06442308
v -0.03212160 -0.15150000 -0.05924779
v -0.04318590 -0.15150000 -0.05174050
v -0.05255040 -0.15150000 -0.04219666
v -0.05984648 -0.15150000 -0.03099197
v -0.06478699 -0.15150000 -0.01856738
v -0.06717748 -0.15150000 -0.00541207
v -0.06692386 -0.15150000 0.00795633
v -0.06403609 -0.15150000 0.02101156
v -0.05862785 -0.15150000 0.03323969
v -0.05091202 -0.15150000 0.04415962
v -0.04119230 -0.15150000 0.05334142
v -0.02985120 -0.15150000 0.06042364
v 0.02713460 -0.10650001 0.38603118
v 0.03297330 -0.10650001 0.36681393
v 0.02519099 -0.10650001 0.36444959
v -0.02713460 -0.10650001 0.38603118
v -0.02519100 -0.10650001 0.36444959
v -0.03297330 -0.10650001 0.36681393
v -0.01281260 -0.10650001 0.36796227
v 0.00000000 -0.10650001 0.36914656
v 0.01281261 -0.10650001 0.36796227
v 0.07150000 -0.15605801 0.35047385
v 0.07150000 -0.17100541 0.35047385
v 0.07150000 -0.15605801 0.33552638
v 0.07150000 -0.15605801 0.33552626
v 0.07150000 -0.17100541 0.33552638
v -0.05416941 -0.21450001 0.43880519
v -0.04606730 -0.21450001 0.42893276
v -0.03619480 -0.21450001 0.42083070
v -0.01270990 -0.21450001 0.41110280
v 0.00000000 -0.21450001 0.40985104
v -0.04606730 -0.21450001 0.52106702
v 0.04606731 -0.21450001 0.52106702
v 0.04606731 -0.21450001 0.42893276
v 0.05416940 -0.21450001 0.51119483
v 0.06389721 -0.21450001 0.48771009
v 0.06018981 -0.21450001 0.49993142
v 0.03619480 -0.21450001 0.52916908
v 0.02493140 -0.21450001 0.53518999
v 0.01270990 -0.21450001 0.53889704
v 0.00000000 -0.21450001 0.54014909
v 0.06389721 -0.21450001 0.46229014
v 0.06514901 -0.21450001 0.47500005
v 0.06018981 -0.21450001 0.45006868
v 0.06018981 -0.21450001 0.45006850
v 0.05416940 -0.21450001 0.43880519
v -0.05416941 -0.21450001 0.51119483
v -0.06018982 -0.21450001 0.49993142
v -0.06389717 -0.21450001 0.48771009
v -0.06514899 -0.21450001 0.47500005
v -0.06389717 -0.21450001 0.46229014
v 0.03619480 -0.21450001 0.42083070
v 0.02493140 -0.21450001 0.41481021
v 0.01270990 -0.21450001 0.41110280
v -0.03619480 -0.21450001 0.52916908
v -0.02493140 -0.21450001 0.53518999
v -0.01270990 -0.21450001 0.53889704
v -0.02493140 -0.21450001 0.41481021
v -0.06018982 -0.21450001 0.45006868
v -0.07500000 -0.15150000 0.05741778
v -0.07500000 -0.16361141 0.05636743
v -0.07500000 -0.17214191 0.05561879
v 0.06057250 -0.14300001 0.07305554
v 0.07057001 -0.14300001 0.06345096
v 0.07055321 -0.14725001 0.06313601
v -0.07500000 -0.17550001 0.05532411
v -0.07889512 -0.17550001 0.04961172
v -0.06576842 -0.15150000 0.06779608
v -0.07622804 -0.14300001 0.05652812
v -0.08303466 -0.14300001 0.04594985
v -0.08269722 -0.15932430 0.04478464
v -0.08269722 -0.15932430 0.04478452
v -0.08235602 -0.17550001 0.04362628
v -0.06607860 -0.14300001 0.06811574
v -0.05418816 -0.14300001 0.07790884
v -0.05393379 -0.15150000 0.07754311
v -0.04087000 -0.14300001 0.08564922
v -0.04067820 -0.15150000 0.08524713
v -0.02647509 -0.14300001 0.09113291
v -0.02635080 -0.15150000 0.09070513
v -0.01138259 -0.14300001 0.09421560
v -0.01132910 -0.15150000 0.09377334
v 0.00400980 -0.14300001 0.09481594
v 0.00399099 -0.15150000 0.09437093
v 0.00399099 -0.15150000 0.09437081
v 0.01929650 -0.14300001 0.09291813
v 0.01929650 -0.14300001 0.09291825
v 0.01920600 -0.15150000 0.09248200
v 0.03407490 -0.14300001 0.08857223
v 0.03391491 -0.15150000 0.08815655
v 0.04795541 -0.14300001 0.08189276
v 0.04773031 -0.15150000 0.08150831
v 0.06028819 -0.15150000 0.07271263
v 0.07053600 -0.15150000 0.06282082
v -0.05407888 -0.17050001 -0.06878749
v -0.05407888 -0.20454161 -0.06878749
v -0.04877830 -0.20454161 -0.07264248
v -0.03586900 -0.20454161 -0.07981017
v -0.03253230 -0.20454161 -0.08122748
v -0.03253230 -0.20454161 -0.08122736
v -0.03253230 -0.17050001 -0.08122736
v -0.04877830 -0.17050001 -0.07264248
v -0.03586900 -0.17050001 -0.07981017
v -0.03253230 -0.17050001 -0.08122748
v -0.01988910 -0.25250000 -0.06773618
v -0.00671060 -0.25250000 -0.07027620
v 0.00671060 -0.25250000 -0.07027608
v 0.03234892 -0.25250000 -0.06274796
v 0.01336031 -0.25250000 0.06932017
v 0.00000000 -0.25250000 0.07059583
v -0.05750564 -0.25250000 0.04094961
v -0.06421620 -0.25250000 0.02932665
v -0.06860582 -0.25250000 0.01664361
v 0.01988910 -0.25250000 -0.06773618
v 0.00671060 -0.25250000 -0.07027620
v -0.06113775 -0.25250000 -0.03529790
v 0.04363941 -0.25250000 -0.05549198
v 0.05335280 -0.25250000 -0.04623038
v 0.06987721 -0.25250000 -0.01004678
v 0.06671311 -0.25250000 -0.02308956
v 0.06113781 -0.25250000 -0.03529790
v 0.02623780 -0.25250000 0.06553885
v 0.04871671 -0.25250000 0.05109259
v 0.03816701 -0.25250000 0.05938902
v -0.04871670 -0.25250000 0.05109259
v -0.03816700 -0.25250000 0.05938902
v -0.02623780 -0.25250000 0.06553885
v -0.01336040 -0.25250000 0.06932005
v 0.05750561 -0.25250000 0.04094961
v 0.06421621 -0.25250000 0.02932665
v 0.06860581 -0.25250000 0.01664361
v 0.07051580 -0.25250000 0.00335914
v -0.06671309 -0.25250000 -0.02308956
v -0.06987723 -0.25250000 -0.01004678
v -0.07051584 -0.25250000 0.00335914
v -0.03234890 -0.25250000 -0.06274796
v -0.04363940 -0.25250000 -0.05549198
v -0.05335275 -0.25250000 -0.04623038
v 0.02713460 -0.12350000 0.40553924
v 0.01380600 -0.12350000 0.40171644
v 0.00000000 -0.12350000 0.40042737
v -0.01380600 -0.12350000 0.40171644
v -0.02713460 -0.12350000 0.40553924
v -0.02713460 -0.12350000 0.38603118
v 0.02713460 -0.12350000 0.38603118
v 0.00832760 -0.12350000 0.54097712
v 0.01150280 -0.11924991 0.54012001
v 0.01150280 -0.11924991 0.54012096
v 0.01187469 -0.12350000 0.54043198
v 0.00411910 -0.12350000 0.53762197
v 0.00237821 -0.12350000 0.53588104
v 0.00000000 -0.12350000 0.53524399
v -0.00237821 -0.12350000 0.53588104
v -0.00411910 -0.12350000 0.53762197
v -0.01150280 -0.11924991 0.54012001
v -0.01187469 -0.12350000 0.54043198
v -0.00832760 -0.12350000 0.54097712
v -0.01150280 -0.11924991 0.54012096
v -0.01187469 -0.12350000 0.52828801
v -0.01150149 -0.11923490 0.52798796
v -0.01995631 -0.11921300 0.42458621
v -0.02026320 -0.12350000 0.42430469
v -0.02964930 -0.12350000 0.42915753
v -0.02169791 -0.12350000 0.52509809
v -0.03192550 -0.12350000 0.51928699
v -0.04067110 -0.12350000 0.51142097
v -0.04752860 -0.12350000 0.50186360
v -0.05217967 -0.12350000 0.49105915
v -0.05440846 -0.12350000 0.47950932
v -0.05411148 -0.12350000 0.46775004
v -0.05411148 -0.12350000 0.46775016
v -0.05130251 -0.12350000 0.45632747
v -0.04611200 -0.12350000 0.44577155
v -0.03878080 -0.12350000 0.43657264
v 0.01995701 -0.11922271 0.42458561
v 0.02026320 -0.12350000 0.42430469
v 0.01760010 -0.12350000 0.41870114
v -0.01760010 -0.12350000 0.41870114
v -0.01760010 -0.12350000 0.41870102
v -0.01288201 -0.12350000 0.41367641
v -0.00680080 -0.12350000 0.41043195
v 0.00000000 -0.12350000 0.40931097
v 0.00680080 -0.12350000 0.41043195
v 0.01288201 -0.12350000 0.41367641
v 0.01760010 -0.12350000 0.41870102
v 0.01995701 -0.11922271 0.42458555
v 0.01150180 -0.11923800 0.52798796
v 0.01187469 -0.12350000 0.52828801
v 0.02169791 -0.12350000 0.52509809
v 0.03192551 -0.12350000 0.51928699
v 0.04067110 -0.12350000 0.51142097
v 0.04752859 -0.12350000 0.50186360
v 0.05217971 -0.12350000 0.49105915
v 0.05440849 -0.12350000 0.47950932
v 0.05411150 -0.12350000 0.46775004
v 0.05411150 -0.12350000 0.46775016
v 0.05130251 -0.12350000 0.45632747
v 0.04611200 -0.12350000 0.44577155
v 0.03878081 -0.12350000 0.43657264
v 0.02964932 -0.12350000 0.42915753
v 0.08151050 -0.15150000 0.03181657
v 0.08569980 -0.15150000 0.01765755
v 0.08744870 -0.15150000 0.00299582
v 0.07500000 -0.15150000 0.06684026
v 0.07010171 -0.15150000 -0.05236417
v 0.07500000 -0.15150000 0.04506943
v 0.07500000 -0.15150000 0.04506931
v 0.08670731 -0.15150000 -0.01175129
v 0.08349679 -0.15150000 -0.02616367
v -0.07500000 -0.15150000 0.04506931
v 0.07790850 -0.15150000 -0.03983107
v -0.07500000 -0.15150000 0.04506943
v -0.04877830 -0.15150000 -0.07264248
v -0.06029854 -0.15150000 -0.06340608
v -0.07010166 -0.15150000 -0.05236417
v -0.07790851 -0.15150000 -0.03983107
v -0.08349678 -0.15150000 -0.02616367
v -0.08670732 -0.15150000 -0.01175129
v -0.08151049 -0.15150000 0.03181657
v -0.08569983 -0.15150000 0.01765755
v -0.08744870 -0.15150000 0.00299582
v 0.06029850 -0.15150000 -0.06340608
v 0.04877831 -0.15150000 -0.07264248
v 0.03586900 -0.15150000 -0.07981017
v 0.02193829 -0.15150000 -0.08470508
v 0.00738280 -0.15150000 -0.08718798
v -0.00738280 -0.15150000 -0.08718798
v -0.02193829 -0.15150000 -0.08470508
v -0.03586900 -0.15150000 -0.07981017
v 0.02173540 -0.15150000 0.06379405
v 0.10044351 -0.14300001 0.09034905
v 0.10284039 -0.17550001 0.09021530
v 0.07500000 -0.17550001 0.06514761
v 0.10163951 -0.15919091 0.09028414
v 0.08937490 -0.14300001 0.10131124
v 0.07443221 -0.14300001 0.11274615
v 0.05804560 -0.14300001 0.12199405
v -0.11819321 -0.14300001 0.06543848
v -0.10987428 -0.14300001 0.07860968
v -0.09788682 -0.14300001 0.09311298
v -0.08400058 -0.14300001 0.10580990
v -0.06848492 -0.14300001 0.11645445
v -0.06848492 -0.14300001 0.11645457
v -0.05164083 -0.14300001 0.12484011
v -0.03379500 -0.14300001 0.13080409
v -0.01529370 -0.14300001 0.13423094
v 0.00350431 -0.14300001 0.13505390
v 0.02223441 -0.14300001 0.13325712
v 0.04053310 -0.14300001 0.12887552
v -0.12049864 -0.17550001 0.06476900
v -0.11934403 -0.15919091 0.06510624
v -0.11934403 -0.15919091 0.06510636
v -0.03102430 -0.12350000 0.37322876
v -0.03297330 -0.12420040 0.36681393
v -0.02519100 -0.12445851 0.36444959
v -0.01279430 -0.12408221 0.36789635
v 0.00000979 -0.12395971 0.36901817
v -0.01208200 -0.12406061 0.36809447
v 0.02519099 -0.12445851 0.36444959
v 0.01499531 -0.12412340 0.36751917
v 0.01279111 -0.12409471 0.36778203
v 0.00148480 -0.12394741 0.36913070
v 0.00000979 -0.12395971 0.36901805
v 0.03297330 -0.12420040 0.36681393
v 0.03102431 -0.12350000 0.37322876
v 0.06600000 -0.13553169 0.37100002
v 0.06600000 -0.13553169 0.31500003
v 0.07150000 -0.17100541 0.33552626
v 0.06600000 -0.19153170 0.31500003
v 0.06600000 -0.19153170 0.37100002
v 0.07150000 -0.17100541 0.35047373
v 0.05500001 -0.20350000 0.43182215
v 0.05500001 -0.12350000 0.43182215
v 0.06230710 -0.12350000 0.44326434
v 0.06230710 -0.20350000 0.44326434
v 0.06726541 -0.12350000 0.45590284
v 0.06726541 -0.20350000 0.45590284
v 0.06968790 -0.12350000 0.46926132
v 0.06968790 -0.20350000 0.46926132
v 0.06948331 -0.12350000 0.48283622
v 0.06948331 -0.20350000 0.48283622
v 0.06665930 -0.12350000 0.49611565
v 0.06665930 -0.20350000 0.49611565
v 0.06132241 -0.12350000 0.50859892
v 0.06132241 -0.20350000 0.50859892
v 0.05367380 -0.12350000 0.51981604
v 0.05367380 -0.20350000 0.51981604
v 0.04400180 -0.12350000 0.52934301
v 0.04400180 -0.20350000 0.52934301
v 0.03267100 -0.12350000 0.53682208
v 0.03267100 -0.20350000 0.53682208
v 0.02010860 -0.12350000 0.54197001
v 0.02010860 -0.20350000 0.54197001
v 0.00678819 -0.12350000 0.54459310
v 0.00678819 -0.12350000 0.54459405
v 0.00678819 -0.20350000 0.54459310
v 0.00678819 -0.20350000 0.54459405
v -0.00678819 -0.12350000 0.54459310
v -0.00678819 -0.12350000 0.54459405
v -0.00678819 -0.20350000 0.54459310
v -0.00678819 -0.20350000 0.54459405
v -0.02010860 -0.12350000 0.54197001
v -0.02010860 -0.20350000 0.54197001
v -0.03267100 -0.12350000 0.53682208
v -0.03267100 -0.20350000 0.53682208
v -0.04400180 -0.12350000 0.52934301
v -0.04400180 -0.20350000 0.52934301
v -0.05367382 -0.12350000 0.51981604
v -0.05367382 -0.20350000 0.51981604
v -0.06132244 -0.12350000 0.50859892
v -0.06132244 -0.20350000 0.50859892
v -0.06665931 -0.12350000 0.49611565
v -0.06665931 -0.20350000 0.49611565
v -0.06948328 -0.12350000 0.48283622
v -0.06948328 -0.20350000 0.48283622
v -0.06968787 -0.12350000 0.46926132
v -0.06968787 -0.20350000 0.46926132
v -0.06726538 -0.12350000 0.45590284
v -0.06726538 -0.20350000 0.45590284
v -0.06230711 -0.12350000 0.44326434
v -0.06230711 -0.20350000 0.44326434
v -0.05500000 -0.12350000 0.43182215
v -0.05500000 -0.20350000 0.43182215
v -0.06446258 -0.20350000 0.48782244
v -0.06072243 -0.20350000 0.50015211
v -0.05464874 -0.20350000 0.51151514
v -0.04647490 -0.20350000 0.52147496
v -0.03651510 -0.20350000 0.52964902
v -0.02515210 -0.20350000 0.53572202
v -0.01282240 -0.20350000 0.53946304
v 0.00000000 -0.20350000 0.54072499
v 0.01282240 -0.20350000 0.53946304
v 0.02515210 -0.20350000 0.53572202
v 0.03651510 -0.20350000 0.52964902
v 0.04647490 -0.20350000 0.52147496
v 0.05464870 -0.20350000 0.51151514
v 0.06072240 -0.20350000 0.50015211
v 0.06446260 -0.20350000 0.48782244
v 0.06572551 -0.20350000 0.47500005
v 0.06446260 -0.20350000 0.46217766
v 0.06072240 -0.20350000 0.44984809
v 0.05464870 -0.20350000 0.43848500
v 0.04647490 -0.20350000 0.42852512
v 0.03651510 -0.20350000 0.42035124
v 0.03651510 -0.20350000 0.42035136
v 0.02515210 -0.20350000 0.41427764
v 0.01282240 -0.20350000 0.41053745
v 0.00000000 -0.20350000 0.40927455
v -0.01282240 -0.20350000 0.41053745
v -0.02515210 -0.20350000 0.41427764
v -0.03651510 -0.20350000 0.42035124
v -0.03651510 -0.20350000 0.42035136
v -0.04647490 -0.20350000 0.42852512
v -0.05464874 -0.20350000 0.43848500
v -0.06072243 -0.20350000 0.44984809
v -0.06018982 -0.21450001 0.45006850
v -0.06446258 -0.20350000 0.46217766
v -0.06572548 -0.20350000 0.47500005
v -0.07479461 -0.15150000 0.11304054
v -0.07475101 -0.15150000 0.11490193
v -0.07183394 -0.15150000 0.11494473
v -0.07183394 -0.15150000 0.11494461
v -0.07470322 -0.15150000 0.11677131
v -0.06882482 -0.15150000 0.11677131
v -0.11125951 -0.17550001 0.07960060
v -0.11125951 -0.17550001 0.07960072
v -0.09912091 -0.17550001 0.09428683
v -0.09912091 -0.17550001 0.09428671
v -0.07500000 -0.17550001 0.09500006
v -0.08505961 -0.17550001 0.10714397
v -0.07493854 -0.17550001 0.10478523
v -0.07475910 -0.17550001 0.11456892
v -0.05500000 -0.12350000 0.39500007
v -0.05500000 -0.20350000 0.39500007
v -0.07500000 -0.24150001 0.04506943
v -0.07500000 -0.24150001 0.04506931
v -0.07500000 -0.24150001 0.09500006
v -0.02193829 -0.24150001 -0.08470508
v -0.03586900 -0.24150001 -0.07981017
v -0.04877830 -0.24150001 -0.07264248
v -0.06029854 -0.24150001 -0.06340608
v -0.08151049 -0.24150001 0.03181657
v -0.08569983 -0.24150001 0.01765755
v -0.08744870 -0.24150001 0.00299582
v -0.08670732 -0.24150001 -0.01175129
v -0.08349678 -0.24150001 -0.02616367
v -0.07790851 -0.24150001 -0.03983107
v -0.07010166 -0.24150001 -0.05236417
v -0.00738280 -0.24150001 -0.08718798
v 0.00738280 -0.24150001 -0.08718798
v 0.02193829 -0.24150001 -0.08470508
v 0.03586900 -0.24150001 -0.07981017
v 0.04877831 -0.24150001 -0.07264248
v 0.06029850 -0.24150001 -0.06340608
v 0.07010171 -0.24150001 -0.05236417
v 0.07790850 -0.24150001 -0.03983107
v 0.08349679 -0.24150001 -0.02616367
v 0.08670731 -0.24150001 -0.01175129
v 0.08744870 -0.24150001 0.00299582
v 0.08569980 -0.24150001 0.01765755
v 0.08151050 -0.24150001 0.03181657
v 0.07500000 -0.24150001 0.04506943
v 0.01365289 -0.24150001 0.07083812
v 0.02681239 -0.24150001 0.06697413
v 0.03900281 -0.24150001 0.06068954
v 0.04978350 -0.24150001 0.05221143
v 0.05876489 -0.24150001 0.04184636
v 0.06562240 -0.24150001 0.02996883
v 0.07010821 -0.24150001 0.01700810
v 0.07206000 -0.24150001 0.00343275
v 0.07206000 -0.24150001 0.00343260
v 0.07140739 -0.24150001 -0.01026678
v 0.06817400 -0.24150001 -0.02359518
v 0.06247659 -0.24150001 -0.03607085
v 0.05452111 -0.24150001 -0.04724276
v 0.04459509 -0.24150001 -0.05670720
v 0.03305730 -0.24150001 -0.06412208
v 0.02032471 -0.24150001 -0.06921950
v 0.00685750 -0.24150001 -0.07181507
v -0.00685750 -0.24150001 -0.07181507
v -0.00671060 -0.25250000 -0.07027608
v -0.02032471 -0.24150001 -0.06921950
v -0.03305729 -0.24150001 -0.06412208
v -0.04459510 -0.24150001 -0.05670720
v -0.05452111 -0.24150001 -0.04724276
v -0.06247660 -0.24150001 -0.03607085
v -0.06817400 -0.24150001 -0.02359518
v -0.07140745 -0.24150001 -0.01026678
v -0.07206005 -0.24150001 0.00343275
v -0.07206005 -0.24150001 0.00343260
v -0.07010818 -0.24150001 0.01700810
v -0.06562244 -0.24150001 0.02996883
v -0.05876493 -0.24150001 0.04184636
v -0.04978351 -0.24150001 0.05221143
v -0.03900280 -0.24150001 0.06068954
v -0.02681240 -0.24150001 0.06697413
v -0.01365289 -0.24150001 0.07083812
v -0.01336040 -0.25250000 0.06932017
v 0.00000000 -0.24150001 0.07214174
v 0.01336031 -0.25250000 0.06932005
v -0.05529679 -0.12350000 0.37322876
v -0.05513121 -0.12350000 0.38138822
v -0.05507591 -0.12350000 0.38411334
v -0.05513121 -0.12350000 0.38138834
v 0.05529590 -0.12350000 0.37322876
v 0.05507581 -0.12350000 0.38404694
v 0.05500001 -0.12350000 0.39486703
v 0.05500001 -0.20350000 0.39500007
v 0.05500001 -0.20350000 0.39486703
v 0.07500000 -0.17550001 0.09500006
v 0.07500000 -0.24150001 0.09500006
v 0.07500000 -0.17550001 0.06514773
v 0.07500000 -0.24150001 0.04506931
v 0.07537051 -0.17550001 0.11416754
v 0.07475910 -0.17550001 0.11456880
v 0.07486980 -0.17550001 0.10853139
v 0.09050170 -0.17550001 0.10258839
v 0.07493851 -0.17550001 0.10478523
v 0.07479461 -0.15150000 0.11304054
v 0.07478900 -0.15537392 0.11328742
v 0.07477722 -0.16350001 0.11380532
v 0.07475910 -0.17550001 0.11456892
v 0.07467760 -0.15150000 0.11311784
v 0.07467760 -0.15150000 0.11311796
v 0.06882480 -0.15150000 0.11677131
v 0.05808601 -0.15091930 0.12209025
v 0.04054719 -0.15017180 0.12893662
v 0.05179460 -0.15057911 0.12520644
v 0.00350010 -0.14950141 0.13507679
v 0.01506059 -0.14955311 0.13460281
v 0.02223539 -0.14969620 0.13329276
v 0.03375611 -0.14992592 0.13118908
v 0.04054719 -0.15017180 0.12893674
v -0.03381030 -0.14996351 0.13084474
v -0.02284031 -0.14967251 0.13350931
v -0.01530130 -0.14959110 0.13425568
v -0.00392810 -0.14946821 0.13538143
v -0.00392810 -0.14946821 0.13538131
v -0.06870804 -0.15149321 0.11683342
v -0.05897150 -0.15092801 0.12201086
v -0.05167392 -0.15061161 0.12490806
v -0.04130800 -0.15016229 0.12902340
v -0.07477719 -0.16350001 0.11380532
v -0.07475910 -0.17550001 0.11456880
v 0.07470320 -0.15150000 0.11677131
v 0.07475100 -0.15150000 0.11490193
v 0.05548090 -0.12417071 0.36708543
v 0.05593321 -0.12526640 0.35704973
v 0.05650041 -0.12664051 0.34446445
v -0.06027760 -0.13215190 0.29398468
v -0.06008159 -0.13192791 0.29603562
v -0.07406791 -0.14973681 0.13292125
v -0.07451686 -0.15082401 0.12296322
v -0.06649543 -0.13914549 0.22992906
v -0.06500001 -0.13750000 0.24500003
v -0.06410461 -0.13652401 0.25393942
v -0.05617105 -0.12596281 0.35067138
v -0.05655661 -0.12665161 0.34436253
v -0.05770674 -0.12870631 0.32554314
v -0.05770674 -0.12870631 0.32554325
v -0.07349735 -0.14835501 0.14557663
v -0.07196762 -0.14580470 0.16893598
v 0.07382891 -0.14903721 0.13932869
v 0.06991839 -0.14307210 0.19396445
v 0.07229331 -0.14629371 0.16445693
v 0.07229331 -0.14629371 0.16445681
v 0.05808601 -0.15091930 0.12209031
v 0.07344851 -0.14835751 0.14555392
v 0.06589541 -0.13847600 0.23606077
v 0.06973830 -0.14286631 0.19584873
v 0.05803020 -0.12919201 0.32109419
v 0.05823210 -0.12946211 0.31862077
v 0.06000981 -0.13183931 0.29684773
v -0.01279430 -0.12408221 0.36789647
v -0.02284031 -0.14967251 0.13350943
v 0.06236470 -0.13460030 0.27155861
v 0.06351691 -0.13586810 0.25994673
v 0.06500000 -0.13750000 0.24500003
v 0.06589541 -0.13847600 0.23606065
v -0.07177420 -0.14554611 0.17130437
v -0.06998843 -0.14315860 0.19317213
v -0.06763429 -0.14039861 0.21845135
v -0.06763429 -0.14039861 0.21845147
v -0.06649543 -0.13914549 0.22992894
v -0.06410461 -0.13652401 0.25393930
v 0.05821940 -0.13553169 0.31861976
v 0.05800059 -0.13553169 0.32149240
v 0.05635010 -0.13553169 0.34721419
v 0.05535810 -0.13553169 0.37100002
v 0.05593990 -0.13553169 0.35704973
v 0.05849491 -0.13553169 0.31500003
v 0.05849491 -0.19153170 0.31500003
v 0.05824171 -0.19153170 0.31862125
v 0.05683400 -0.19153170 0.33874831
v 0.05535810 -0.19153170 0.37100002
v 0.05591130 -0.19153170 0.35704896
v 0.05567731 -0.19153170 0.36169258
v -0.07411297 -0.23922351 0.13292333
v -0.07499061 -0.24147741 0.09880158
v -0.07487823 -0.24120072 0.10756704
v -0.07482812 -0.24107741 0.11147591
v -0.07482812 -0.24107741 0.11147586
v -0.07447583 -0.24018101 0.12416384
v -0.07421683 -0.23949762 0.13041595
v -0.07421683 -0.23949762 0.13041607
v -0.07394961 -0.23879251 0.13686672
v -0.07325371 -0.23703952 0.14979514
v -0.07325371 -0.23703952 0.14979526
v -0.07298048 -0.23644480 0.15399626
v -0.07237978 -0.23513731 0.16323277
v -0.07177378 -0.23395361 0.17130443
v -0.07132687 -0.23308071 0.17725709
v -0.07112659 -0.23271951 0.17964807
v -0.07010074 -0.23086941 0.19189426
v -0.06941368 -0.22968571 0.19958541
v -0.06863882 -0.22842082 0.20760909
v -0.06648351 -0.22490242 0.22992781
v -0.06577372 -0.22374371 0.23727784
v -0.06171853 -0.21718311 0.27867755
v -0.06171853 -0.21718311 0.27867767
v -0.05653635 -0.20741691 0.34436110
v -0.05682536 -0.20814870 0.33889034
v -0.05870592 -0.21199261 0.31233177
v -0.06029160 -0.21479371 0.29398575
v -0.06083583 -0.21575511 0.28768906
v -0.05639757 -0.20706552 0.34698817
v -0.05589434 -0.20579141 0.35651442
v -0.05540454 -0.20451020 0.36948028
v -0.05537020 -0.20442371 0.37094018
v -0.05512440 -0.20380491 0.38138816
v -0.05510290 -0.20375071 0.38230208
v -0.05510290 -0.20375071 0.38230190
v 0.07346790 -0.23759831 0.14555547
v 0.07410401 -0.23920532 0.13352337
v 0.07422140 -0.23951180 0.13041809
v 0.07459541 -0.24048881 0.12052193
v 0.07489820 -0.24125141 0.10756865
v 0.07489820 -0.24125141 0.10756877
v 0.07489730 -0.24124911 0.10768703
v 0.07487740 -0.24119911 0.10853150
v 0.06419480 -0.22122921 0.25303695
v 0.06864549 -0.22842412 0.20760974
v 0.07317160 -0.23684971 0.15116003
v 0.07297070 -0.23643991 0.15399548
v 0.07128850 -0.23300891 0.17773858
v 0.07112341 -0.23271781 0.17964789
v 0.06972259 -0.23024821 0.19584742
v 0.06915621 -0.22924970 0.20239732
v 0.06352800 -0.22013901 0.25994775
v 0.06352800 -0.22013901 0.25994787
v 0.06172080 -0.21718441 0.27867773
v 0.06055389 -0.21527672 0.29077092
v 0.05823191 -0.21106771 0.31862065
v 0.05867510 -0.21193501 0.31271759
v 0.05990100 -0.21414931 0.29808590
v 0.05605260 -0.20621571 0.35308686
v 0.05638130 -0.20704462 0.34698531
v 0.05674860 -0.20797092 0.34016654
v 0.05762240 -0.20987540 0.32673582
v 0.05500910 -0.20352320 0.39114043
v 0.05517200 -0.20392491 0.37846413
v 0.05538170 -0.20445772 0.37094286
v 0.05552560 -0.20482340 0.36578009
v 0.05588821 -0.20578131 0.35704765
v -0.07298048 -0.23644480 0.15399614
v 0.07346790 -0.23759831 0.14555535
v -0.05512440 -0.20380491 0.38138822
f 1 2 3
f 4 5 6
f 7 6 3
f 8 6 9
f 8 10 11
f 11 12 3
f 8 12 13
f 8 13 14
f 7 15 6
f 6 15 16
f 6 16 17
f 18 19 20
f 20 4 18
f 18 4 6
f 18 6 21
f 21 6 17
f 21 17 22
f 23 1 24
f 24 1 3
f 24 8 25
f 25 8 14
f 26 27 28
f 29 30 31
f 31 30 26
f 30 32 26
f 26 32 33
f 26 34 35
f 35 34 36
f 35 36 37
f 38 39 40
f 40 39 41
f 42 31 43
f 43 31 26
f 43 26 40
f 40 26 28
f 40 28 38
f 41 44 40
f 40 44 45
f 40 45 46
f 47 45 48
f 47 48 49
f 24 50 23
f 23 50 51
f 23 51 1
f 1 51 52
f 1 53 54
f 2 53 55
f 2 56 3
f 8 56 57
f 8 57 7
f 7 57 58
f 7 58 15
f 15 58 59
f 15 59 16
f 16 59 60
f 16 60 17
f 17 60 61
f 17 61 22
f 22 61 62
f 22 62 21
f 21 62 63
f 21 63 18
f 18 63 64
f 18 64 19
f 19 64 65
f 19 65 20
f 20 65 66
f 20 66 4
f 4 66 67
f 4 67 5
f 5 67 68
f 5 68 6
f 6 68 69
f 6 70 9
f 10 70 71
f 10 71 11
f 11 71 72
f 11 72 12
f 12 72 73
f 12 73 13
f 13 73 74
f 13 74 14
f 14 74 75
f 14 75 25
f 25 75 76
f 25 76 24
f 24 76 50
f 77 78 79
f 79 78 80
f 81 82 83
f 83 82 84
f 42 85 31
f 31 85 86
f 31 86 29
f 29 86 87
f 29 87 30
f 30 87 88
f 30 88 32
f 32 88 89
f 32 90 33
f 34 90 91
f 34 91 36
f 36 91 92
f 36 92 37
f 37 92 93
f 37 93 35
f 35 93 94
f 35 94 26
f 26 94 95
f 26 95 27
f 27 95 96
f 27 96 28
f 28 96 97
f 28 97 38
f 38 97 98
f 38 98 39
f 39 98 99
f 39 99 41
f 41 99 100
f 41 100 44
f 44 100 101
f 44 101 45
f 45 101 102
f 45 102 48
f 48 102 103
f 48 103 49
f 49 103 104
f 49 105 46
f 47 105 106
f 47 106 40
f 40 106 107
f 40 107 43
f 43 107 108
f 43 108 42
f 42 108 85
f 109 76 75
f 75 74 109
f 109 74 73
f 109 73 110
f 110 73 72
f 110 72 111
f 112 72 71
f 112 71 113
f 113 71 114
f 115 114 116
f 116 114 71
f 116 71 117
f 117 71 69
f 117 70 118
f 118 70 68
f 60 59 119
f 66 120 67
f 67 120 121
f 67 121 68
f 68 121 122
f 68 122 118
f 119 59 123
f 123 59 58
f 123 58 124
f 63 125 64
f 64 125 126
f 64 126 65
f 65 126 127
f 65 127 66
f 66 127 128
f 66 128 120
f 119 129 60
f 60 129 130
f 60 130 61
f 61 130 131
f 61 131 62
f 62 131 132
f 62 132 63
f 63 132 133
f 63 134 125
f 124 58 135
f 135 58 57
f 135 57 136
f 136 57 55
f 136 56 137
f 137 56 52
f 137 53 138
f 109 139 76
f 76 139 140
f 76 140 141
f 142 53 143
f 143 53 51
f 143 51 144
f 144 51 50
f 144 50 145
f 145 50 76
f 145 76 146
f 146 76 141
f 146 141 147
f 78 148 80
f 80 148 149
f 84 82 150
f 84 150 151
f 151 150 152
f 151 152 153
f 153 152 154
f 153 154 155
f 155 154 156
f 155 156 157
f 157 156 158
f 157 158 159
f 159 158 160
f 159 160 161
f 161 160 77
f 161 77 79
f 162 81 163
f 163 81 83
f 164 165 166
f 167 168 169
f 164 166 170
f 170 166 171
f 171 166 172
f 171 172 173
f 172 174 173
f 175 174 176
f 175 176 177
f 178 167 179
f 179 167 169
f 179 169 180
f 180 169 177
f 180 181 182
f 182 181 176
f 183 184 185
f 185 184 186
f 185 186 187
f 188 189 190
f 190 189 191
f 190 191 192
f 193 194 195
f 196 87 86
f 197 192 198
f 198 192 191
f 198 191 199
f 199 191 200
f 199 200 201
f 183 202 184
f 184 202 203
f 184 203 204
f 204 203 205
f 204 205 206
f 206 101 100
f 97 207 98
f 98 207 206
f 98 206 99
f 99 206 100
f 95 208 96
f 96 208 199
f 96 199 97
f 97 199 201
f 97 201 207
f 196 209 87
f 87 209 210
f 87 210 88
f 211 91 210
f 210 91 89
f 210 90 88
f 92 212 93
f 93 212 213
f 93 213 94
f 94 213 214
f 94 214 95
f 95 214 215
f 95 215 208
f 216 217 211
f 211 217 218
f 211 218 91
f 91 218 219
f 91 219 92
f 92 219 220
f 92 220 212
f 86 85 196
f 196 85 108
f 196 108 221
f 221 108 107
f 221 107 222
f 222 107 106
f 222 106 223
f 223 106 104
f 206 205 101
f 101 205 224
f 101 224 225
f 226 227 228
f 228 227 209
f 225 193 101
f 101 193 195
f 101 195 102
f 102 195 229
f 102 229 103
f 103 229 230
f 103 230 104
f 105 230 231
f 105 231 223
f 232 228 233
f 233 228 209
f 233 209 234
f 234 209 196
f 235 109 110
f 236 237 238
f 239 235 240
f 240 235 110
f 240 110 241
f 241 110 111
f 241 112 242
f 242 112 113
f 242 113 243
f 243 113 114
f 243 114 244
f 244 114 245
f 244 115 238
f 238 115 116
f 238 116 236
f 236 116 117
f 236 117 118
f 235 239 246
f 236 118 247
f 109 235 139
f 139 235 246
f 139 246 140
f 140 246 248
f 140 248 141
f 141 248 249
f 141 249 147
f 147 249 250
f 147 250 146
f 146 250 251
f 146 251 145
f 145 251 252
f 145 252 144
f 144 252 253
f 144 253 143
f 143 253 254
f 143 254 138
f 142 254 255
f 142 255 137
f 137 255 256
f 137 256 136
f 136 256 257
f 136 257 135
f 135 257 258
f 135 258 124
f 124 258 259
f 124 259 123
f 123 259 260
f 123 260 119
f 119 260 261
f 119 261 129
f 129 261 262
f 129 262 130
f 130 262 263
f 130 263 131
f 131 263 264
f 131 264 132
f 132 264 265
f 132 265 133
f 134 265 266
f 134 266 125
f 125 266 267
f 125 267 126
f 126 267 268
f 126 268 127
f 127 268 269
f 127 269 128
f 128 269 270
f 128 270 120
f 120 270 271
f 120 271 121
f 121 271 272
f 121 272 122
f 122 272 273
f 122 273 118
f 118 273 274
f 118 274 247
f 169 168 275
f 275 276 277
f 170 171 278
f 278 171 173
f 278 175 275
f 275 175 177
f 275 181 169
f 279 280 281
f 281 280 278
f 281 278 282
f 282 278 275
f 282 275 283
f 283 275 277
f 284 285 286
f 287 285 288
f 289 290 291
f 292 293 294
f 295 296 297
f 297 296 298
f 297 298 299
f 295 300 301
f 295 301 296
f 296 301 302
f 296 302 303
f 304 305 306
f 307 305 298
f 307 298 308
f 308 298 296
f 309 310 311
f 309 311 294
f 294 311 312
f 294 312 313
f 314 296 315
f 315 296 294
f 315 294 316
f 316 294 293
f 317 294 318
f 318 294 296
f 318 296 319
f 319 296 303
f 320 292 291
f 291 292 294
f 291 294 289
f 289 294 313
f 289 313 321
f 322 323 324
f 325 326 327
f 324 328 329
f 330 322 331
f 331 322 324
f 331 324 332
f 332 324 329
f 332 329 333
f 334 329 335
f 331 336 330
f 330 336 337
f 330 337 338
f 338 337 339
f 338 339 340
f 340 339 341
f 340 341 342
f 342 341 343
f 342 343 344
f 344 343 345
f 344 345 346
f 347 345 348
f 347 349 350
f 350 349 351
f 350 351 352
f 352 351 353
f 352 353 354
f 354 353 325
f 354 325 355
f 355 325 327
f 355 327 356
f 357 162 358
f 358 162 163
f 359 358 151
f 151 358 84
f 84 358 163
f 84 163 83
f 151 153 359
f 359 153 155
f 359 155 360
f 155 157 360
f 360 157 159
f 360 159 361
f 362 159 161
f 362 161 149
f 149 161 79
f 149 79 80
f 148 363 149
f 149 363 361
f 148 78 77
f 364 152 357
f 357 152 150
f 357 150 162
f 162 150 82
f 162 82 81
f 365 156 364
f 364 156 154
f 364 154 152
f 148 77 366
f 363 77 160
f 363 160 365
f 365 160 158
f 365 158 156
f 367 368 369
f 370 371 372
f 373 374 370
f 370 374 375
f 376 370 369
f 377 370 378
f 370 379 380
f 381 370 382
f 382 370 380
f 382 380 383
f 371 370 384
f 384 370 385
f 384 385 386
f 387 373 388
f 388 373 370
f 388 370 389
f 389 370 372
f 389 372 390
f 391 385 392
f 392 385 370
f 392 370 393
f 393 370 381
f 393 381 394
f 395 378 396
f 396 378 370
f 396 370 397
f 397 370 375
f 398 367 399
f 399 367 369
f 399 377 400
f 400 377 378
f 178 179 401
f 401 179 402
f 179 180 402
f 402 180 182
f 402 182 403
f 182 176 403
f 403 176 174
f 403 174 404
f 165 405 166
f 166 405 404
f 166 404 172
f 172 404 174
f 170 278 164
f 164 278 406
f 164 406 165
f 165 406 405
f 178 401 167
f 167 401 407
f 167 407 168
f 168 407 275
f 185 187 408
f 409 203 202
f 183 185 202
f 202 185 408
f 202 408 410
f 409 408 411
f 186 184 412
f 412 184 204
f 412 204 413
f 413 204 206
f 413 206 414
f 414 206 207
f 414 207 415
f 415 207 201
f 415 201 416
f 416 201 200
f 416 200 189
f 189 200 191
f 417 418 419
f 190 192 197
f 419 188 190
f 190 197 419
f 419 197 198
f 419 198 420
f 421 418 422
f 422 418 420
f 422 417 199
f 199 417 198
f 422 199 208
f 423 424 425
f 421 422 426
f 426 422 208
f 426 208 427
f 427 208 215
f 427 215 428
f 428 215 214
f 428 214 429
f 429 214 213
f 429 213 430
f 430 213 212
f 430 212 431
f 431 212 220
f 431 220 432
f 433 220 219
f 433 219 434
f 434 219 218
f 434 218 435
f 435 218 217
f 435 217 436
f 436 217 216
f 436 216 425
f 425 216 211
f 425 211 423
f 423 211 210
f 423 210 209
f 437 438 439
f 424 423 440
f 441 423 209
f 441 209 442
f 442 209 227
f 442 227 443
f 443 227 226
f 443 226 444
f 444 226 228
f 444 228 445
f 445 228 232
f 445 232 446
f 446 232 233
f 446 233 439
f 447 233 234
f 447 234 448
f 437 234 196
f 437 196 221
f 449 450 451
f 437 221 438
f 205 449 224
f 224 449 451
f 224 451 225
f 225 451 452
f 225 452 193
f 193 452 453
f 193 453 194
f 194 453 454
f 194 454 195
f 195 454 455
f 195 455 229
f 229 455 456
f 229 456 230
f 230 456 457
f 230 458 231
f 231 458 459
f 231 459 223
f 223 459 460
f 223 460 222
f 222 460 461
f 222 461 221
f 221 461 462
f 221 462 438
f 205 203 449
f 449 203 410
f 449 409 450
f 450 409 411
f 338 340 342
f 463 464 465
f 356 466 467
f 467 466 468
f 467 469 463
f 465 470 471
f 238 472 244
f 244 472 322
f 244 322 330
f 463 465 467
f 467 465 471
f 467 471 473
f 256 255 467
f 238 237 474
f 472 237 274
f 472 274 273
f 256 467 257
f 263 475 264
f 264 475 476
f 264 476 265
f 265 476 477
f 265 477 266
f 266 477 478
f 266 478 267
f 267 478 479
f 267 479 268
f 268 479 480
f 268 480 269
f 255 254 467
f 467 254 253
f 467 253 356
f 356 253 252
f 356 252 251
f 273 272 474
f 472 272 271
f 472 271 481
f 481 271 270
f 481 270 482
f 482 270 269
f 482 269 483
f 483 269 480
f 467 484 257
f 257 484 485
f 257 485 258
f 258 485 486
f 258 486 259
f 259 486 487
f 259 487 260
f 260 487 488
f 260 488 261
f 261 488 489
f 261 489 262
f 262 489 490
f 262 490 263
f 263 490 491
f 263 491 475
f 251 250 356
f 356 250 249
f 356 249 355
f 355 249 248
f 355 248 354
f 330 338 244
f 244 338 342
f 244 342 243
f 243 342 344
f 243 344 242
f 242 344 346
f 242 347 241
f 241 347 350
f 241 350 240
f 240 350 352
f 240 352 492
f 239 352 354
f 239 354 246
f 246 354 248
f 327 326 493
f 494 495 496
f 496 495 466
f 496 466 493
f 493 466 356
f 493 356 327
f 493 326 497
f 497 326 325
f 497 325 498
f 498 325 353
f 498 353 499
f 499 353 351
f 332 500 331
f 331 500 501
f 331 501 336
f 336 501 502
f 336 502 337
f 502 503 337
f 337 503 504
f 337 505 339
f 339 505 506
f 339 506 341
f 341 506 507
f 341 507 343
f 343 507 508
f 343 508 345
f 345 508 509
f 345 509 348
f 349 509 510
f 349 510 351
f 351 510 511
f 351 511 499
f 335 512 333
f 334 512 513
f 334 514 332
f 332 514 500
f 406 278 515
f 515 278 280
f 515 280 516
f 279 517 280
f 280 517 516
f 279 281 517
f 517 281 518
f 282 519 281
f 281 519 520
f 281 520 518
f 283 277 521
f 521 522 283
f 283 522 523
f 283 523 282
f 282 523 524
f 282 524 525
f 276 526 277
f 277 526 521
f 275 407 276
f 276 407 527
f 276 527 526
f 528 284 529
f 529 284 286
f 530 531 286
f 287 531 529
f 285 532 288
f 530 532 531
f 284 528 533
f 285 528 532
f 534 535 536
f 534 536 537
f 537 536 538
f 537 538 539
f 539 538 540
f 539 540 541
f 541 540 542
f 541 542 543
f 543 542 544
f 543 544 545
f 545 544 546
f 545 546 547
f 547 546 548
f 547 548 549
f 549 548 550
f 549 550 551
f 551 550 552
f 551 552 553
f 553 552 554
f 553 554 555
f 555 554 556
f 555 557 558
f 559 557 560
f 559 561 562
f 563 561 564
f 563 564 565
f 565 564 566
f 565 566 567
f 567 566 568
f 567 568 569
f 569 568 570
f 569 570 571
f 571 570 572
f 571 572 573
f 573 572 574
f 573 574 575
f 575 574 576
f 575 576 577
f 577 576 578
f 577 578 579
f 579 578 580
f 579 580 581
f 581 580 582
f 581 582 583
f 583 582 584
f 583 584 585
f 586 311 587
f 587 311 310
f 587 310 588
f 588 310 309
f 588 309 589
f 589 309 294
f 589 294 590
f 590 294 317
f 590 317 591
f 591 317 318
f 591 318 592
f 592 318 319
f 592 319 593
f 593 319 303
f 593 303 594
f 594 303 302
f 594 302 595
f 595 302 301
f 595 301 596
f 596 301 300
f 596 300 597
f 597 300 295
f 597 295 598
f 598 295 297
f 598 297 599
f 599 297 299
f 599 299 600
f 600 299 298
f 600 298 601
f 601 298 305
f 601 305 602
f 602 305 304
f 602 304 603
f 603 304 306
f 603 307 604
f 604 307 308
f 604 308 605
f 605 308 296
f 605 296 606
f 607 296 314
f 607 314 608
f 608 314 315
f 608 315 609
f 609 315 316
f 609 316 610
f 610 316 293
f 610 293 611
f 611 293 292
f 611 292 612
f 612 292 320
f 612 320 613
f 614 320 291
f 614 291 615
f 615 291 290
f 615 290 616
f 616 290 289
f 616 289 617
f 617 289 321
f 617 618 619
f 619 618 313
f 619 313 620
f 620 313 312
f 620 312 586
f 586 312 311
f 621 622 623
f 624 622 625
f 624 625 626
f 627 512 335
f 335 329 628
f 627 329 328
f 627 328 629
f 630 328 631
f 630 631 632
f 632 631 633
f 632 633 634
f 584 635 585
f 585 635 636
f 323 322 324
f 324 322 474
f 324 472 328
f 328 472 637
f 328 638 631
f 631 638 639
f 362 363 490
f 362 640 360
f 360 640 641
f 360 641 642
f 490 363 491
f 364 357 476
f 643 358 642
f 642 358 359
f 642 359 360
f 363 365 491
f 491 365 364
f 491 364 475
f 475 364 476
f 638 472 481
f 638 481 644
f 644 481 482
f 644 482 645
f 645 482 483
f 645 483 646
f 646 483 480
f 646 480 647
f 647 480 479
f 647 479 648
f 648 479 478
f 648 478 649
f 649 478 477
f 649 477 650
f 650 477 476
f 650 476 643
f 643 476 357
f 643 357 358
f 362 490 640
f 640 490 489
f 640 489 651
f 651 489 488
f 651 488 652
f 652 488 487
f 652 487 653
f 653 487 486
f 653 486 654
f 654 486 485
f 654 485 655
f 655 485 484
f 655 484 656
f 656 484 467
f 656 467 657
f 657 467 473
f 657 473 658
f 658 473 471
f 658 471 659
f 659 471 470
f 659 470 660
f 660 470 465
f 660 465 661
f 661 465 464
f 661 464 662
f 662 464 463
f 662 463 663
f 663 463 468
f 663 469 664
f 665 371 666
f 666 371 384
f 666 384 667
f 667 384 386
f 667 386 668
f 668 386 385
f 668 385 669
f 669 385 391
f 669 391 670
f 670 391 392
f 670 392 671
f 671 392 393
f 671 393 672
f 673 393 394
f 673 394 674
f 674 394 381
f 674 381 675
f 675 381 382
f 675 382 676
f 676 382 383
f 676 383 677
f 677 383 380
f 677 380 678
f 678 380 379
f 678 379 679
f 679 379 370
f 679 370 680
f 680 370 376
f 680 376 681
f 681 376 369
f 681 377 682
f 682 377 683
f 682 368 684
f 684 368 367
f 684 367 685
f 685 367 398
f 685 398 686
f 686 398 399
f 686 399 687
f 687 399 400
f 687 400 688
f 688 400 378
f 688 378 689
f 689 378 395
f 689 395 690
f 690 395 396
f 690 396 691
f 692 396 397
f 692 397 693
f 693 397 375
f 693 375 694
f 694 375 374
f 694 374 695
f 695 374 373
f 695 373 696
f 696 373 387
f 696 387 697
f 697 387 388
f 697 388 698
f 698 388 389
f 698 389 699
f 699 389 390
f 699 700 701
f 701 700 372
f 701 372 665
f 665 372 702
f 187 186 412
f 703 704 515
f 515 704 406
f 407 401 535
f 582 580 584
f 584 580 405
f 584 405 635
f 635 405 406
f 635 406 705
f 705 406 706
f 707 527 708
f 708 527 407
f 708 407 709
f 709 407 535
f 188 187 189
f 189 187 412
f 189 412 416
f 416 412 413
f 416 413 415
f 415 413 414
f 554 411 556
f 557 411 408
f 418 564 419
f 419 564 560
f 419 561 188
f 188 561 556
f 188 557 187
f 187 557 408
f 401 446 439
f 580 434 435
f 461 538 401
f 401 538 536
f 401 536 535
f 580 435 405
f 405 435 436
f 405 436 425
f 447 438 401
f 401 438 462
f 401 462 461
f 434 580 432
f 433 580 578
f 433 578 431
f 431 578 576
f 431 576 430
f 430 576 574
f 430 574 429
f 429 574 572
f 429 572 428
f 428 572 570
f 428 570 427
f 427 570 568
f 427 568 426
f 446 401 445
f 445 401 402
f 445 402 444
f 444 402 403
f 444 403 443
f 443 403 404
f 443 404 442
f 442 404 405
f 442 405 440
f 441 405 425
f 441 425 424
f 418 421 564
f 564 421 426
f 564 426 566
f 566 426 568
f 461 460 538
f 538 460 459
f 538 459 540
f 540 459 457
f 540 458 542
f 542 458 456
f 542 456 544
f 544 456 455
f 544 455 546
f 546 455 454
f 546 454 548
f 548 454 453
f 548 453 550
f 550 453 452
f 550 452 552
f 552 452 451
f 552 451 554
f 554 451 450
f 554 450 411
f 535 534 709
f 709 534 710
f 709 710 711
f 712 713 714
f 495 713 664
f 495 715 466
f 466 715 468
f 716 717 718
f 716 718 719
f 719 718 720
f 719 720 494
f 494 720 712
f 494 712 714
f 514 512 628
f 496 493 497
f 719 494 496
f 497 721 722
f 496 497 719
f 719 497 722
f 719 722 716
f 716 722 723
f 716 723 724
f 721 497 725
f 726 497 498
f 726 498 727
f 727 498 499
f 727 499 728
f 511 729 499
f 499 729 730
f 499 730 728
f 510 509 731
f 731 732 510
f 510 732 733
f 510 733 511
f 511 733 734
f 511 734 735
f 508 507 736
f 736 737 508
f 508 737 738
f 508 738 509
f 509 738 739
f 509 740 731
f 506 505 741
f 741 742 506
f 506 742 743
f 506 743 507
f 507 743 744
f 507 744 736
f 626 741 623
f 624 741 504
f 624 505 621
f 621 505 503
f 621 503 745
f 746 745 632
f 632 745 503
f 632 503 629
f 630 503 502
f 630 502 628
f 627 502 501
f 627 501 513
f 514 501 500
f 727 747 725
f 726 747 748
f 726 748 721
f 526 527 707
f 707 749 526
f 526 749 750
f 526 750 521
f 521 750 751
f 752 753 517
f 754 742 741
f 754 741 755
f 755 741 626
f 755 626 625
f 756 757 758
f 703 515 759
f 759 515 516
f 759 516 760
f 760 516 517
f 760 517 761
f 762 517 753
f 754 763 742
f 742 763 764
f 742 764 743
f 747 727 765
f 765 727 728
f 729 766 730
f 730 766 767
f 730 768 728
f 769 768 770
f 769 770 765
f 734 771 735
f 729 771 772
f 729 772 766
f 751 773 521
f 521 773 774
f 521 774 775
f 775 733 521
f 521 733 732
f 521 732 522
f 522 732 731
f 522 731 523
f 524 523 525
f 519 523 731
f 519 731 520
f 520 731 739
f 520 740 518
f 776 740 738
f 776 738 517
f 517 738 777
f 517 737 752
f 775 778 733
f 733 778 779
f 733 779 734
f 734 779 780
f 734 780 781
f 764 782 743
f 743 782 783
f 743 783 744
f 744 783 784
f 744 785 736
f 736 785 786
f 736 756 777
f 737 756 758
f 737 787 752
f 788 789 790
f 791 528 792
f 792 528 529
f 792 529 790
f 790 529 793
f 790 793 788
f 793 529 794
f 794 529 531
f 794 531 795
f 795 531 532
f 795 532 796
f 796 532 797
f 796 797 798
f 798 797 799
f 797 532 791
f 791 532 528
f 604 605 534
f 534 605 710
f 710 605 606
f 710 607 608
f 608 609 710
f 710 609 610
f 710 610 636
f 636 610 611
f 636 611 612
f 594 559 593
f 593 559 562
f 593 563 592
f 592 563 565
f 592 565 591
f 591 565 567
f 591 567 590
f 590 567 569
f 590 569 589
f 589 569 571
f 589 571 588
f 588 571 573
f 588 573 587
f 587 573 575
f 587 575 586
f 586 575 577
f 586 577 620
f 620 577 579
f 620 579 619
f 619 579 581
f 619 581 617
f 617 581 583
f 617 583 616
f 616 583 585
f 616 585 615
f 615 585 636
f 615 636 613
f 614 636 612
f 604 534 603
f 603 534 537
f 603 537 602
f 602 537 539
f 602 539 601
f 601 539 541
f 601 541 600
f 600 541 543
f 600 543 599
f 599 543 545
f 599 545 598
f 598 545 547
f 598 547 597
f 597 547 549
f 597 549 596
f 596 549 551
f 596 551 595
f 595 551 553
f 595 553 594
f 594 553 555
f 594 555 558
f 754 755 800
f 800 755 625
f 622 621 745
f 801 802 639
f 639 802 803
f 639 804 631
f 631 804 805
f 631 805 633
f 633 805 806
f 633 807 634
f 746 807 800
f 746 800 745
f 745 800 625
f 745 625 622
f 800 808 754
f 754 808 809
f 754 810 763
f 810 811 763
f 763 811 812
f 763 812 764
f 764 812 813
f 764 813 782
f 782 813 814
f 782 814 815
f 815 816 782
f 782 816 817
f 782 817 783
f 783 817 818
f 783 818 784
f 785 818 819
f 785 819 786
f 756 819 757
f 757 819 820
f 757 820 758
f 787 820 821
f 787 822 752
f 823 760 824
f 824 760 761
f 824 762 825
f 825 762 753
f 825 753 826
f 826 753 752
f 826 752 827
f 827 752 821
f 823 828 760
f 760 828 829
f 760 829 759
f 759 829 703
f 829 830 703
f 703 830 831
f 703 831 706
f 831 832 706
f 704 832 833
f 704 834 705
f 705 834 636
f 705 636 635
f 697 698 639
f 639 698 699
f 639 699 713
f 699 701 713
f 713 701 665
f 713 665 666
f 666 667 713
f 713 667 668
f 713 668 664
f 715 668 669
f 715 669 663
f 663 669 670
f 663 670 662
f 662 670 671
f 662 671 661
f 661 671 672
f 661 673 660
f 660 673 674
f 660 674 659
f 659 674 675
f 659 675 658
f 658 675 676
f 658 676 657
f 657 676 677
f 657 677 656
f 656 677 678
f 644 690 637
f 638 690 691
f 638 692 693
f 693 694 637
f 638 694 695
f 638 695 639
f 639 695 696
f 639 696 697
f 687 643 686
f 686 643 642
f 686 642 685
f 685 642 641
f 685 641 684
f 684 641 640
f 684 640 682
f 682 640 651
f 682 651 681
f 681 651 652
f 681 652 680
f 680 652 653
f 680 653 679
f 679 653 654
f 679 654 678
f 678 654 655
f 678 655 656
f 644 645 646
f 644 646 690
f 690 646 647
f 690 647 689
f 689 647 648
f 689 648 688
f 688 648 649
f 688 649 687
f 687 649 650
f 687 650 643
f 717 835 836
f 836 837 724
f 717 837 838
f 717 838 718
f 721 748 722
f 722 748 747
f 770 835 765
f 765 835 724
f 765 717 747
f 747 717 723
f 747 723 722
f 713 712 839
f 840 712 720
f 840 720 841
f 841 720 718
f 841 718 842
f 842 718 838
f 843 844 772
f 845 835 846
f 846 835 770
f 846 770 847
f 847 770 767
f 847 768 848
f 848 768 766
f 848 766 849
f 849 766 772
f 849 772 850
f 850 772 844
f 772 771 843
f 843 771 780
f 843 780 851
f 852 780 779
f 852 779 853
f 853 779 778
f 853 778 854
f 795 855 794
f 794 855 856
f 778 775 854
f 854 775 794
f 854 794 857
f 857 794 856
f 798 858 859
f 798 859 796
f 796 859 860
f 796 860 795
f 795 860 861
f 795 861 855
f 709 711 862
f 862 863 797
f 797 863 864
f 797 864 799
f 799 864 865
f 799 865 798
f 798 865 866
f 798 866 858
f 709 862 708
f 708 862 797
f 708 797 791
f 707 708 749
f 749 708 791
f 749 791 750
f 750 791 792
f 750 792 751
f 751 792 790
f 751 790 773
f 773 790 789
f 773 789 774
f 774 789 788
f 774 788 775
f 775 788 793
f 775 793 794
f 813 812 867
f 639 713 801
f 801 713 839
f 801 840 802
f 840 841 802
f 802 841 842
f 802 842 803
f 804 842 838
f 815 814 847
f 847 814 846
f 814 813 846
f 846 813 867
f 846 811 845
f 845 811 809
f 845 810 868
f 835 810 808
f 835 808 836
f 836 808 800
f 836 800 837
f 837 800 806
f 837 807 838
f 838 807 805
f 838 805 803
f 847 848 815
f 815 848 849
f 815 849 816
f 816 849 850
f 816 850 817
f 817 850 844
f 817 844 818
f 824 860 823
f 823 860 859
f 823 859 828
f 828 859 829
f 825 855 824
f 824 855 861
f 824 861 860
f 818 844 819
f 819 844 843
f 819 843 820
f 820 843 851
f 820 852 821
f 822 852 853
f 822 853 827
f 827 853 854
f 827 854 826
f 826 854 857
f 826 857 825
f 825 857 856
f 825 856 855
f 863 862 636
f 636 862 711
f 636 711 710
f 859 858 829
f 829 858 866
f 829 866 830
f 830 866 865
f 830 865 831
f 831 865 864
f 831 864 869
f 832 864 863
f 832 863 833
f 834 863 636

