# https://github.com/mikedh/trimesh
v -0.06499998 0.00176925 -0.00831419
v -0.06499998 0.00000200 -0.00849992
v -0.06499998 -0.00176525 -0.00831419
v -0.06499998 0.00176925 0.00831419
v -0.06499998 0.00176925 0.00831431
v -0.06499998 -0.00176525 0.00831419
v -0.06499998 -0.00176525 0.00831431
v -0.06499998 0.00000200 0.00850004
v -0.06499998 0.00345926 0.00776511
v -0.06499998 0.00499818 0.00687665
v -0.06499998 0.00631873 0.00568765
v -0.06499998 -0.00345526 -0.00776500
v -0.06499998 -0.00499417 -0.00687665
v -0.06499998 -0.00499417 -0.00687653
v -0.06499998 -0.00631473 -0.00568765
v -0.06499998 -0.00845144 0.00088853
v -0.06499998 -0.00808198 0.00262660
v -0.06499998 -0.00845144 -0.00088841
v -0.06499998 -0.00808198 -0.00262672
v -0.06499998 -0.00808198 -0.00262660
v -0.06499998 -0.00735922 -0.00424999
v -0.06499998 -0.00345526 0.00776511
v -0.06499998 -0.00499417 0.00687665
v -0.06499998 -0.00631473 0.00568765
v -0.06499998 -0.00735922 0.00424999
v -0.06499998 0.00845544 -0.00088841
v -0.06499998 0.00808598 -0.00262660
v -0.06499998 0.00845544 0.00088853
v -0.06499998 0.00808598 0.00262660
v -0.06499998 0.00736322 0.00424999
v -0.06499998 0.00345926 -0.00776500
v -0.06499998 0.00499818 -0.00687665
v -0.06499998 0.00499818 -0.00687653
v -0.06499998 0.00808598 -0.00262672
v -0.06499998 0.00631873 -0.00568765
v -0.06499998 0.00736322 -0.00424999
v -0.01311390 -0.00102256 0.00843805
v -0.01311390 -0.00203218 0.00825316
v -0.01311390 -0.00176306 0.00830239
v -0.01311390 -0.00394815 0.00752646
v -0.01311390 -0.00344893 0.00775105
v -0.06499998 -0.00345526 0.00776523
v -0.01311390 -0.00301214 0.00794762
v -0.01311390 -0.00203218 0.00825304
v -0.01311390 -0.00563454 0.00636250
v -0.01311390 -0.00498805 0.00686878
v -0.01311390 -0.00482655 0.00699550
v -0.01311390 -0.00734742 0.00424296
v -0.01311390 -0.00699336 0.00482863
v -0.01311390 -0.00636034 0.00563663
v -0.01311390 -0.00636034 0.00563651
v -0.01311390 -0.00631200 0.00568491
v -0.01311390 -0.00752438 0.00395018
v -0.01311390 -0.00794564 0.00301415
v -0.01311390 -0.00843603 0.00102454
v -0.01311390 -0.00825101 0.00203425
v -0.01311390 -0.00806777 0.00262219
v -0.01311390 -0.00806777 0.00262231
v -0.01311390 -0.00844428 0.00088805
v -0.01311390 -0.00844428 0.00088817
v -0.01311390 -0.00849800 0.00000006
v -0.01311390 -0.00844428 -0.00088805
v -0.01311390 -0.00843603 -0.00102454
v -0.01311390 -0.00843603 -0.00102443
v -0.01311390 -0.00825101 -0.00203413
v -0.01311390 -0.00794564 -0.00301415
v -0.01311390 -0.00806777 -0.00262219
v -0.01311390 -0.00699336 -0.00482863
v -0.01311390 -0.00734742 -0.00424284
v -0.01311390 -0.00752438 -0.00395006
v -0.01311390 -0.00563454 -0.00636226
v -0.01311390 -0.00631200 -0.00568479
v -0.01311390 -0.00636034 -0.00563639
v -0.01311390 -0.00699336 -0.00482851
v -0.01311390 -0.00344893 -0.00775093
v -0.01311390 -0.00394815 -0.00752646
v -0.01311390 -0.00482655 -0.00699538
v -0.01311390 -0.00498805 -0.00686890
v -0.01311390 -0.00498805 -0.00686878
v -0.01311390 -0.00301214 -0.00794750
v -0.01311390 -0.00203218 -0.00825292
v -0.01311390 -0.00102256 -0.00843793
v -0.01311390 -0.00176306 -0.00830227
v -0.01311390 -0.00176306 -0.00830239
v -0.01311390 0.00102656 -0.00843793
v -0.01311390 0.00000200 -0.00849992
v -0.01311390 0.00203618 -0.00825292
v -0.01311390 0.00176706 -0.00830227
v -0.01311390 0.00176706 -0.00830239
v -0.01311390 0.00395215 -0.00752646
v -0.01311390 0.00345293 -0.00775093
v -0.01311390 0.00301614 -0.00794750
v -0.01311390 0.00563854 -0.00636226
v -0.01311390 0.00499205 -0.00686890
v -0.01311390 0.00499205 -0.00686878
v -0.01311390 0.00483055 -0.00699538
v -0.01311390 0.00395215 -0.00752634
v -0.01311390 0.00735142 -0.00424284
v -0.01311390 0.00699736 -0.00482863
v -0.01311390 0.00636434 -0.00563639
v -0.01311390 0.00631600 -0.00568479
v -0.01311390 0.00752838 -0.00395006
v -0.01311390 0.00794964 -0.00301415
v -0.01311390 0.00844003 -0.00102443
v -0.01311390 0.00825501 -0.00203413
v -0.01311390 0.00807177 -0.00262219
v -0.01311390 0.00844828 -0.00088805
v -0.01311390 0.00850200 0.00000006
v -0.01311390 0.00844828 0.00088805
v -0.01311390 0.00844828 0.00088817
v -0.01311390 0.00844003 0.00102454
v -0.01311390 0.00825501 0.00203425
v -0.01311390 0.00794964 0.00301427
v -0.01311390 0.00807177 0.00262219
v -0.01311390 0.00807177 0.00262231
v -0.01311390 0.00699736 0.00482863
v -0.01311390 0.00735142 0.00424296
v -0.01311390 0.00752838 0.00395018
v -0.01311390 0.00794964 0.00301415
v -0.01311390 0.00563854 0.00636250
v -0.01311390 0.00631600 0.00568491
v -0.01311390 0.00636434 0.00563663
v -0.01311390 0.00636434 0.00563651
v -0.01311390 0.00345293 0.00775105
v -0.01311390 0.00395215 0.00752646
v -0.06499998 0.00345926 0.00776523
v -0.01311390 0.00483055 0.00699550
v -0.01311390 0.00499205 0.00686878
v -0.01311390 0.00301614 0.00794762
v -0.01311390 0.00203618 0.00825304
v -0.01311390 0.00000200 0.00850004
v -0.01311390 0.00102656 0.00843805
v -0.01311390 0.00176706 0.00830239
v -0.00900118 0.01161780 0.02213210
v -0.00900118 0.01420083 0.02057070
v -0.00900118 -0.00886138 0.02337080
v -0.00900118 -0.00597972 0.02426881
v -0.00900118 -0.01161380 -0.02213210
v -0.00900118 -0.01419683 -0.02057058
v -0.01081626 0.01157524 -0.01341146
v -0.01080839 0.01155458 -0.01347131
v -0.01073651 0.01147908 -0.01391166
v -0.01065545 0.01147598 -0.01433331
v -0.01064329 0.01148461 -0.01438826
v -0.01055793 0.01154567 -0.01477736
v -0.01045422 0.01168491 -0.01519459
v -0.01041643 0.01175713 -0.01533037
v -0.00900118 0.01420083 -0.02057058
v -0.01034336 0.01189666 -0.01559275
v -0.01022808 0.01218029 -0.01595837
v -0.01017217 0.01234838 -0.01611203
v -0.01011769 0.01251222 -0.01626164
v -0.01000504 0.01291746 -0.01651925
v -0.00994281 0.01318113 -0.01662844
v -0.00990765 0.01333088 -0.01669043
v -0.00981300 0.01380416 -0.01679546
v -0.00966279 0.01481686 -0.01672167
v -0.00900118 0.01657681 -0.01870900
v -0.00968985 0.01458800 -0.01677996
v -0.00975470 0.01414414 -0.01681715
v -0.00975470 0.01414414 -0.01681703
v -0.01088171 0.01286938 -0.01179034
v -0.01089077 0.01274067 -0.01187509
v -0.01090805 0.01249066 -0.01203936
v -0.01091270 0.01216672 -0.01234061
v -0.01090364 0.01201632 -0.01253539
v -0.01089685 0.01190103 -0.01268464
v -0.01086037 0.01169097 -0.01307565
v -0.01084904 0.01166139 -0.01316136
v -0.00971763 0.01680444 -0.01438838
v -0.00972347 0.01681144 -0.01434499
v -0.00900118 0.02057256 -0.01419884
v -0.00979297 0.01680936 -0.01391369
v -0.00987737 0.01673362 -0.01347119
v -0.00989084 0.01671282 -0.01341146
v -0.00989084 0.01671282 -0.01341158
v -0.00997011 0.01658900 -0.01305658
v -0.01007311 0.01637224 -0.01266187
v -0.01011221 0.01627193 -0.01253551
v -0.01018278 0.01609057 -0.01230711
v -0.01029484 0.01575466 -0.01200622
v -0.01035564 0.01554689 -0.01187652
v -0.01041131 0.01535666 -0.01175779
v -0.01051919 0.01494121 -0.01158863
v -0.01311390 0.00699736 -0.00482851
v -0.01058964 0.01463357 -0.01152235
v -0.01062743 0.01446845 -0.01148683
v -0.01069371 0.01414414 -0.01146704
v -0.01077287 0.01370196 -0.01150388
v -0.01077287 0.01370196 -0.01150399
v -0.01078002 0.01365351 -0.01151615
v -0.01083629 0.01327383 -0.01161259
v -0.01084857 0.01316481 -0.01166052
v -0.00963931 0.01501748 -0.01667041
v -0.00900118 0.01657681 -0.01870912
v -0.00963144 0.01510787 -0.01663071
v -0.00960366 0.01542478 -0.01649052
v -0.00960366 0.01542478 -0.01649064
v -0.00958376 0.01580011 -0.01624292
v -0.00958221 0.01594005 -0.01611227
v -0.00958221 0.01594005 -0.01611239
v -0.00900118 0.01871110 -0.01657480
v -0.00958030 0.01612604 -0.01593870
v -0.00959305 0.01639353 -0.01558977
v -0.00961213 0.01653128 -0.01533061
v -0.00962190 0.01660293 -0.01519567
v -0.00966124 0.01672936 -0.01481920
v -0.00966470 0.01674031 -0.01478666
v -0.00971763 0.01680444 -0.01438850
v -0.01084654 0.01318037 0.01165515
v -0.01080815 0.01347544 0.01155216
v -0.01074128 0.01388681 0.01147956
v -0.01074128 0.01388681 0.01147968
v -0.01069371 0.01414414 0.01146716
v -0.01069371 0.01414414 0.01146728
v -0.01060061 0.01459190 0.01150495
v -0.01049261 0.01504744 0.01162440
v -0.01047651 0.01510846 0.01165229
v -0.01038317 0.01545747 0.01181179
v -0.01026790 0.01583975 0.01207322
v -0.00900118 0.02057256 0.01419884
v -0.00900118 0.02057256 0.01419896
v -0.01023309 0.01594060 0.01217109
v -0.01015644 0.01616254 0.01238674
v -0.01004212 0.01644271 0.01277393
v -0.00999729 0.01653035 0.01295394
v -0.00994174 0.01663876 0.01317650
v -0.00984304 0.01677212 0.01364285
v -0.00979774 0.01679865 0.01389629
v -0.00966279 0.01672380 0.01481491
v -0.00900118 0.01871110 0.01657480
v -0.00969271 0.01678567 0.01456410
v -0.00976364 0.01681856 0.01408654
v -0.01088111 0.01178824 0.01287514
v -0.01090734 0.01202896 0.01250464
v -0.01091294 0.01233266 0.01217383
v -0.01091246 0.01234263 0.01216608
v -0.01089720 0.01268211 0.01190203
v -0.01086287 0.01305525 0.01169878
v -0.01084857 0.01316487 0.01166052
v -0.00972156 0.01435925 0.01680845
v -0.00975470 0.01414414 0.01681715
v -0.00968508 0.01463440 0.01676387
v -0.00983314 0.01369689 0.01677948
v -0.00984196 0.01365349 0.01676816
v -0.00992601 0.01324790 0.01666254
v -0.01002555 0.01283796 0.01647669
v -0.01005356 0.01274010 0.01641029
v -0.01013319 0.01246172 0.01622182
v -0.01024441 0.01213626 0.01590973
v -0.01029436 0.01201745 0.01574832
v -0.01029436 0.01201745 0.01574820
v -0.01036040 0.01186021 0.01553470
v -0.01047044 0.01165937 0.01513284
v -0.01053385 0.01158145 0.01487130
v -0.01058213 0.01152210 0.01467186
v -0.01067655 0.01147055 0.01422900
v -0.01067655 0.01147055 0.01422912
v -0.01073770 0.01149011 0.01389593
v -0.01076584 0.01149910 0.01374298
v -0.01083080 0.01160114 0.01331228
v -0.01084773 0.01166419 0.01316494
v -0.01087229 0.01175523 0.01295227
v -0.00965600 0.01670965 0.01487237
v -0.00964122 0.01667910 0.01499635
v -0.00960378 0.01649357 0.01542109
v -0.00958614 0.01627577 0.01575226
v -0.00958388 0.01624870 0.01579326
v -0.00900118 0.01657681 0.01870912
v -0.00958030 0.01594457 0.01612049
v -0.00959305 0.01559084 0.01639229
v -0.00959615 0.01555078 0.01641363
v -0.00962107 0.01520738 0.01659673
v -0.00966136 0.01482102 0.01672703
v -0.00966518 0.01478396 0.01673955
v -0.00972347 -0.01680744 0.01434499
v -0.00979297 -0.01680537 0.01391381
v -0.00900118 -0.02056856 0.01419884
v -0.00900118 -0.02056856 0.01419896
v -0.00979643 -0.01680226 0.01389569
v -0.00987737 -0.01672962 0.01347119
v -0.00997011 -0.01658500 0.01305658
v -0.00999705 -0.01652826 0.01295334
v -0.01007311 -0.01636824 0.01266199
v -0.01018278 -0.01608657 0.01230723
v -0.01023297 -0.01593599 0.01217228
v -0.01029484 -0.01575066 0.01200634
v -0.01051919 -0.01493721 0.01158863
v -0.01047604 -0.01510305 0.01165622
v -0.01047604 -0.01510305 0.01165611
v -0.01041131 -0.01535266 0.01175767
v -0.01062743 -0.01446445 0.01148695
v -0.01069371 -0.01414014 0.01146716
v -0.01069371 -0.01414014 0.01146728
v -0.01077287 -0.01369796 0.01150388
v -0.01084857 -0.01316081 0.01166064
v -0.01084678 -0.01317642 0.01165372
v -0.01083629 -0.01326983 0.01161259
v -0.01083629 -0.01326983 0.01161271
v -0.00963931 -0.01501348 0.01667064
v -0.00960366 -0.01542078 0.01649076
v -0.00900118 -0.01657281 0.01870912
v -0.00959711 -0.01554375 0.01640946
v -0.00958376 -0.01579611 0.01624304
v -0.00900118 -0.01870710 0.01657480
v -0.00958030 -0.01612204 0.01593870
v -0.00958721 -0.01626771 0.01574880
v -0.00959305 -0.01638953 0.01558977
v -0.00962190 -0.01659893 0.01519567
v -0.00965564 -0.01670755 0.01487237
v -0.00966124 -0.01672536 0.01481932
v -0.00966470 -0.01673631 0.01478666
v -0.01045422 -0.01168091 0.01519471
v -0.01034336 -0.01189266 0.01559275
v -0.00900118 -0.01419683 0.02057070
v -0.01073651 -0.01147508 0.01391166
v -0.01065545 -0.01147198 0.01433331
v -0.01055793 -0.01154167 0.01477748
v -0.01053445 -0.01157329 0.01487225
v -0.01029436 -0.01201318 0.01574820
v -0.01022808 -0.01217629 0.01595837
v -0.01011769 -0.01250822 0.01626176
v -0.01005404 -0.01273762 0.01640755
v -0.01000504 -0.01291346 0.01651937
v -0.00990765 -0.01332688 0.01669055
v -0.00990765 -0.01332688 0.01669067
v -0.00984304 -0.01365066 0.01676232
v -0.00981300 -0.01380016 0.01679546
v -0.00975470 -0.01414014 0.01681715
v -0.00968985 -0.01458400 0.01678008
v -0.00968425 -0.01463078 0.01676816
v -0.00966279 -0.01481286 0.01672167
v -0.01088171 -0.01286538 0.01179045
v -0.01090805 -0.01248666 0.01203948
v -0.01091020 -0.01234415 0.01217192
v -0.01091270 -0.01216272 0.01234061
v -0.01089685 -0.01189703 0.01268476
v -0.01087169 -0.01175255 0.01295346
v -0.01086037 -0.01168697 0.01307553
v -0.01084904 -0.01165739 0.01316136
v -0.01080839 -0.01155058 0.01347142
v -0.01073913 -0.01147785 0.01389569
v -0.01047044 -0.01165537 -0.01513284
v -0.01058213 -0.01151810 -0.01467174
v -0.01041631 -0.01175402 -0.01533026
v -0.00972156 -0.01435525 -0.01680845
v -0.00975470 -0.01414014 -0.01681703
v -0.00983314 -0.01369289 -0.01677948
v -0.00992601 -0.01324389 -0.01666242
v -0.00994246 -0.01317598 -0.01663166
v -0.01002555 -0.01283396 -0.01647657
v -0.01013319 -0.01245772 -0.01622182
v -0.01017205 -0.01234399 -0.01611263
v -0.01024441 -0.01213226 -0.01590961
v -0.01036040 -0.01185621 -0.01553470
v -0.01064269 -0.01148505 -0.01438802
v -0.01067655 -0.01146655 -0.01422900
v -0.01076584 -0.01149510 -0.01374286
v -0.00960378 -0.01648957 -0.01542109
v -0.00900118 -0.01870710 -0.01657480
v -0.00961165 -0.01652857 -0.01533180
v -0.00964122 -0.01667510 -0.01499623
v -0.00958388 -0.01624470 -0.01579326
v -0.00958030 -0.01594213 -0.01611871
v -0.00900118 -0.01657281 -0.01870912
v -0.00958030 -0.01594057 -0.01612049
v -0.00900118 -0.01657281 -0.01870900
v -0.00959305 -0.01558684 -0.01639217
v -0.00962107 -0.01520338 -0.01659662
v -0.00963144 -0.01510431 -0.01663011
v -0.00966136 -0.01481702 -0.01672691
v -0.00966518 -0.01477996 -0.01673943
v -0.01077919 -0.01365000 -0.01152056
v -0.01074128 -0.01388281 -0.01147956
v -0.01069371 -0.01414014 -0.01146704
v -0.01060061 -0.01458790 -0.01150483
v -0.01026790 -0.01583575 -0.01207310
v -0.01015644 -0.01615854 -0.01238674
v -0.00900118 -0.02056856 -0.01419884
v -0.01059048 -0.01463077 -0.01151603
v -0.01049261 -0.01504344 -0.01162428
v -0.01038317 -0.01545347 -0.01181167
v -0.01035576 -0.01554424 -0.01187378
v -0.01011245 -0.01626662 -0.01253599
v -0.01004212 -0.01643871 -0.01277393
v -0.00994174 -0.01663476 -0.01317650
v -0.00989167 -0.01670243 -0.01341301
v -0.00984304 -0.01676812 -0.01364285
v -0.00976364 -0.01681456 -0.01408643
v -0.00971882 -0.01679377 -0.01438814
v -0.00969271 -0.01678167 -0.01456386
v -0.00966279 -0.01671980 -0.01481491
v -0.01081590 -0.01157359 -0.01341158
v -0.01083080 -0.01159714 -0.01331216
v -0.01083080 -0.01159714 -0.01331228
v -0.01084773 -0.01166019 -0.01316494
v -0.01088111 -0.01178424 -0.01287514
v -0.01090555 -0.01200750 -0.01253134
v -0.01090734 -0.01202496 -0.01250452
v -0.01091294 -0.01232866 -0.01217383
v -0.01089720 -0.01267811 -0.01190192
v -0.01089196 -0.01273399 -0.01187152
v -0.01086287 -0.01305125 -0.01169878
v -0.01084857 -0.01316087 -0.01166052
v -0.01080815 -0.01347144 -0.01155192
v -0.01080815 -0.01347144 -0.01155216
v -0.01079182 -0.00192043 0.01770896
v -0.01083188 -0.00175108 0.01756567
v -0.01090114 -0.00135088 0.01732236
v -0.01091389 -0.00125931 0.01727802
v -0.01093952 -0.00102091 0.01718944
v -0.01093952 -0.00102091 0.01718956
v -0.01096098 -0.00082093 0.01711518
v -0.01001386 -0.00290773 0.02073032
v -0.01006453 -0.00294314 0.02051944
v -0.01006453 -0.00294314 0.02051932
v -0.01012735 -0.00298676 0.02025944
v -0.01024441 -0.00299023 0.01978415
v -0.01026087 -0.00298468 0.01971763
v -0.01026087 -0.00298468 0.01971775
v -0.01032095 -0.00294307 0.01948076
v -0.01037984 -0.00290213 0.01924759
v -0.01049630 -0.00274705 0.01879889
v -0.01051681 -0.00271167 0.01872104
v -0.01051681 -0.00271167 0.01872092
v -0.01057450 -0.00258796 0.01850468
v -0.01057450 -0.00258796 0.01850456
v -0.01062648 -0.00247638 0.01830953
v -0.01072685 -0.00218053 0.01794177
v -0.01072805 -0.00217596 0.01793712
v -0.01074688 -0.00210974 0.01786917
v -0.01074688 -0.00210974 0.01786906
v -0.00950222 0.00031446 0.02298361
v -0.00949864 0.00000200 0.02300006
v -0.00900118 0.00000200 0.02499515
v -0.00950675 -0.00046915 0.02296287
v -0.00900118 -0.00301083 0.02481300
v -0.00953405 -0.00097365 0.02283698
v -0.00953881 -0.00102257 0.02281564
v -0.00957553 -0.00140776 0.02264816
v -0.00963728 -0.00183916 0.02236861
v -0.00965409 -0.00192179 0.02229327
v -0.00970881 -0.00218973 0.02204853
v -0.00980048 -0.00250720 0.02164429
v -0.00983481 -0.00258847 0.02149576
v -0.00984113 -0.00260367 0.02146810
v -0.00989692 -0.00273581 0.02122658
v -0.01001386 -0.00290773 0.02073044
v -0.00983505 0.00259200 0.02149540
v -0.00979070 0.00248304 0.02168649
v -0.00900118 0.00301483 0.02481300
v -0.00970738 0.00218798 0.02205461
v -0.00969164 0.00212004 0.02212459
v -0.00965457 0.00192438 0.02229112
v -0.00962345 0.00176054 0.02243048
v -0.00956933 0.00135887 0.02267557
v -0.00956123 0.00128245 0.02271301
v -0.00953989 0.00102486 0.02281064
v -0.00952475 0.00084117 0.02288026
v -0.00950377 0.00038090 0.02297610
v -0.00950222 0.00031446 0.02298373
v -0.01039509 0.00289019 0.01918858
v -0.01038091 0.00290499 0.01924330
v -0.00900118 0.00598372 0.02426881
v -0.01051097 0.00272586 0.01874286
v -0.01032095 0.00294706 0.01948076
v -0.01026206 0.00298828 0.01971358
v -0.01026206 0.00298828 0.01971346
v -0.01014452 0.00299607 0.02018851
v -0.01012485 0.00298985 0.02026969
v -0.01006453 0.00294717 0.02051944
v -0.01006453 0.00294717 0.02051932
v -0.01001196 0.00290973 0.02073830
v -0.00990634 0.00275735 0.02118665
v -0.00988559 0.00271742 0.02127534
v -0.00984113 0.00260765 0.02146786
v -0.01098792 -0.00036429 0.01702243
v -0.01099043 -0.00028511 0.01701385
v -0.01099460 0.00000200 0.01700002
v -0.01098387 0.00046920 0.01703662
v -0.01094811 0.00096654 0.01715928
v -0.01094060 0.00102632 0.01718503
v -0.01094060 0.00102632 0.01718491
v -0.01089446 0.00139937 0.01734525
v -0.01081781 0.00182198 0.01761514
v -0.01079206 0.00192517 0.01770765
v -0.01057450 0.00259197 0.01850456
v -0.01311390 0.00203618 0.00825316
v -0.01062183 0.00249209 0.01832694
v -0.01062183 0.00249209 0.01832682
v -0.01072793 0.00218015 0.01793796
v -0.01072960 0.00217530 0.01793200
v -0.00900118 0.02481486 -0.00301284
v -0.00900118 0.02499710 0.00000006
v -0.00900118 0.02427078 -0.00598162
v -0.00900118 0.02337282 -0.00886339
v -0.00900118 0.02213406 -0.01161581
v -0.01311390 0.00735142 -0.00424272
v -0.01041131 0.01535666 -0.01175767
v -0.00900118 0.01161780 -0.02213210
v -0.01311390 0.00345293 -0.00775105
v -0.00900118 0.00886538 -0.02337080
v -0.00900118 0.00301483 -0.02481276
v -0.00900118 0.00598372 -0.02426881
v -0.00900118 0.00598372 -0.02426869
v -0.00900118 -0.00597972 -0.02426869
v -0.00900118 -0.00301083 -0.02481276
v -0.00900118 0.00000200 -0.02499515
v -0.01311390 -0.00344893 -0.00775105
v -0.00900118 -0.00886138 -0.02337080
v -0.00900118 -0.00597972 -0.02426881
v -0.01038317 -0.01545347 -0.01181179
v -0.01311390 -0.00734742 -0.00424272
v -0.00900118 -0.02213006 -0.01161581
v -0.00900118 -0.02336882 -0.00886339
v -0.00900118 -0.02426678 -0.00598162
v -0.00900118 -0.02481085 -0.00301284
v -0.00900118 -0.02499310 0.00000006
v -0.00900118 -0.02481085 0.00301284
v -0.00900118 -0.02426678 0.00598174
v -0.00900118 -0.02426678 0.00598186
v -0.00900118 -0.02336882 0.00886339
v -0.01311390 -0.00794564 0.00301427
v -0.00900118 -0.02213006 0.01161581
v -0.00900118 -0.01161380 0.02213210
v -0.00900118 -0.00886138 0.02337092
v -0.00900118 0.00886538 0.02337092
v -0.00900118 0.00886538 0.02337080
v -0.00900118 0.02213406 0.01161581
v -0.00900118 0.02427078 0.00598186
v -0.00900118 0.02337282 0.00886339
v -0.00900118 0.02481486 0.00301284
v -0.00900118 0.02427078 0.00598174
v 0.00000007 -0.01419683 0.02057070
v 0.00000007 -0.01161380 0.02213210
v 0.00000007 -0.00886138 0.02337092
v 0.00000007 -0.00886138 0.02337080
v 0.00000007 -0.00723157 0.02387875
v 0.00000007 -0.01870710 0.01657480
v 0.00000007 -0.01837335 0.01690871
v 0.00000007 -0.01657281 0.01870912
v 0.00000007 -0.02336882 -0.00886339
v 0.00000007 -0.02426678 -0.00598162
v 0.00000007 -0.02481085 -0.00301284
v 0.00000007 -0.02499310 0.00000006
v 0.00000007 -0.02481085 0.00301284
v 0.00000007 -0.02426678 0.00598174
v 0.00000007 -0.02426678 0.00598186
v 0.00000007 -0.02336882 0.00886339
v 0.00000007 -0.02213006 0.01161581
v 0.00000007 -0.02090412 0.01364368
v 0.00000007 -0.02056856 0.01419884
v 0.00000007 -0.02056856 0.01419896
v 0.00000007 -0.02090412 -0.01364368
v 0.00000007 -0.02213006 -0.01161581
v 0.00000007 -0.01161380 -0.02213210
v 0.00000007 -0.01419683 -0.02057058
v 0.00000007 -0.01657281 -0.01870912
v 0.00000007 -0.01657281 -0.01870900
v 0.00000007 -0.01870710 -0.01657480
v 0.00000007 -0.02056856 -0.01419884
v 0.00000007 -0.02060284 -0.01414210
v 0.00000007 -0.02090412 -0.01364380
v 0.00000007 0.00301483 -0.02481276
v 0.00000007 0.00000200 -0.02499515
v 0.00000007 -0.00301083 -0.02481276
v 0.00000007 -0.00597972 -0.02426881
v 0.00000007 -0.00597972 -0.02426869
v 0.00000007 -0.00723157 -0.02387875
v 0.00000007 -0.00886138 -0.02337080
v 0.00000007 0.01871110 -0.01657480
v 0.00000007 0.01657681 -0.01870912
v 0.00000007 0.01657681 -0.01870900
v 0.00000007 0.01420083 -0.02057058
v 0.00000007 0.01161780 -0.02213210
v 0.00000007 0.00886538 -0.02337080
v 0.00000007 0.00723557 -0.02387875
v 0.00000007 0.00598372 -0.02426881
v 0.00000007 0.00598372 -0.02426869
v 0.00000007 0.02057256 0.01419896
v 0.00000007 0.02213406 0.01161581
v 0.00000007 0.02337282 0.00886339
v 0.00000007 0.02427078 0.00598174
v 0.00000007 0.02427078 0.00598186
v 0.00000007 0.02481486 0.00301284
v 0.00000007 0.02499710 0.00000006
v 0.00000007 0.02481486 -0.00301284
v 0.00000007 0.02427078 -0.00598162
v 0.00000007 0.02337282 -0.00886339
v 0.00000007 0.02213406 -0.01161581
v 0.00000007 0.02060684 -0.01414210
v 0.00000007 0.02057256 -0.01419884
v 0.00000007 0.01161780 0.02213210
v 0.00000007 0.01420083 0.02057070
v 0.00000007 0.01657681 0.01870912
v 0.00000007 0.01837735 0.01690871
v 0.00000007 0.01871110 0.01657480
v 0.00000007 0.02057256 0.01419884
v 0.00000007 -0.00597972 0.02426881
v 0.00000007 -0.00301083 0.02481300
v 0.00000007 0.00000200 0.02499515
v 0.00000007 0.00301483 0.02481300
v 0.00000007 0.00598372 0.02426881
v 0.00000007 0.00723557 0.02387875
v 0.00000007 0.00886538 0.02337092
v 0.00000007 0.00886538 0.02337080
v 0.00000007 -0.01554834 0.01641649
v 0.00000007 -0.01273193 0.01641649
v 0.00000007 -0.01414014 0.01146728
v 0.00000007 -0.01317381 0.01164776
v 0.00000007 -0.01317381 0.01164788
v 0.00000007 -0.01233800 0.01216537
v 0.00000007 -0.01174557 0.01294988
v 0.00000007 -0.01147655 0.01389533
v 0.00000007 -0.01156725 0.01487428
v 0.00000007 -0.01200544 0.01575428
v 0.00000007 -0.01364861 0.01677161
v 0.00000007 -0.01463167 0.01677161
v 0.00000007 -0.01627483 0.01575428
v 0.00000007 -0.01671302 0.01487428
v 0.00000007 -0.01680372 0.01389533
v 0.00000007 -0.01653470 0.01294988
v 0.00000007 -0.01594227 0.01216537
v 0.00000007 -0.01510646 0.01164776
v 0.00000007 -0.01510646 0.01164788
v 0.00000007 -0.01414014 0.01146716
v 0.00000007 0.00000200 0.01700002
v 0.00000007 0.00102806 0.01718098
v 0.00000007 0.00193036 0.01770180
v 0.00000007 0.00260008 0.01850003
v 0.00000007 0.00193036 0.01770192
v 0.00000007 0.00295642 0.01947910
v 0.00000007 0.00295642 0.02052099
v 0.00000007 0.00260008 0.02150005
v 0.00000007 0.00193036 0.02229816
v 0.00000007 0.00193036 0.02229828
v 0.00000007 0.00102806 0.02281910
v 0.00000007 0.00000200 0.02300006
v 0.00000007 -0.00102406 0.02281910
v 0.00000007 -0.00192636 0.02229816
v 0.00000007 -0.00192636 0.02229828
v 0.00000007 -0.00259608 0.02150005
v 0.00000007 -0.00295242 0.02052099
v 0.00000007 -0.00295242 0.01947910
v 0.00000007 -0.00259608 0.01850003
v 0.00000007 -0.00192636 0.01770192
v 0.00000007 -0.00192636 0.01770180
v 0.00000007 -0.00102406 0.01718098
v -0.01083188 -0.00175108 0.01756555
v 0.00000007 0.01680772 0.01389533
v 0.00000007 0.01653870 0.01294988
v 0.00000007 0.01511046 0.01164788
v 0.00000007 0.01594627 0.01216537
v 0.00000007 0.01414414 0.01146728
v 0.00000007 0.01511046 0.01164776
v 0.00000007 0.01671702 0.01487428
v -0.00966279 0.01672380 0.01481503
v 0.00000007 0.01627883 0.01575428
v 0.00000007 0.01463566 0.01677161
v 0.00000007 0.01555234 0.01641649
v 0.00000007 0.01273593 0.01641649
v 0.00000007 0.01365261 0.01677161
v 0.00000007 0.01200944 0.01575428
v 0.00000007 0.01157125 0.01487428
v 0.00000007 0.01148055 0.01389533
v 0.00000007 0.01174957 0.01294988
v 0.00000007 0.01234200 0.01216537
v 0.00000007 0.01414414 0.01146716
v 0.00000007 0.01317781 0.01164776
v 0.00000007 0.01317781 0.01164788
v 0.00000007 0.01317781 -0.01663643
v 0.00000007 0.01234200 -0.01611894
v 0.00000007 0.01511046 -0.01663643
v 0.00000007 0.01414414 -0.01681715
v 0.00000007 0.01414414 -0.01681703
v 0.00000007 0.01594627 -0.01611894
v 0.00000007 0.01653870 -0.01533443
v 0.00000007 0.01680772 -0.01438886
v 0.00000007 0.01671702 -0.01341003
v -0.00972347 0.01681144 -0.01434487
v 0.00000007 0.01678485 -0.01414210
v 0.00000007 0.01627883 -0.01253003
v 0.00000007 0.01555234 -0.01186782
v 0.00000007 0.01555234 -0.01186794
v 0.00000007 0.01463566 -0.01151270
v 0.00000007 0.01365261 -0.01151270
v 0.00000007 0.01273593 -0.01186794
v 0.00000007 0.01273593 -0.01186782
v 0.00000007 0.01200944 -0.01253003
v 0.00000007 0.01157125 -0.01341003
v -0.01086037 0.01169097 -0.01307553
v 0.00000007 0.01150342 -0.01414210
v 0.00000007 0.01148055 -0.01438886
v 0.00000007 0.01174957 -0.01533443
v -0.01045422 0.01168491 -0.01519471
v 0.00000007 -0.01653470 -0.01533443
v 0.00000007 -0.01627483 -0.01253003
v 0.00000007 -0.01554834 -0.01186782
v 0.00000007 -0.01414014 -0.01681703
v 0.00000007 -0.01317381 -0.01663643
v 0.00000007 -0.01233800 -0.01611894
v 0.00000007 -0.01174557 -0.01533443
v -0.01017205 -0.01234399 -0.01611274
v 0.00000007 -0.01147655 -0.01438886
v 0.00000007 -0.01156725 -0.01341003
v 0.00000007 -0.01149942 -0.01414210
v 0.00000007 -0.01200544 -0.01253003
v 0.00000007 -0.01273193 -0.01186782
v 0.00000007 -0.01273193 -0.01186794
v 0.00000007 -0.01364861 -0.01151270
v 0.00000007 -0.01463167 -0.01151270
v 0.00000007 -0.01554834 -0.01186794
v 0.00000007 -0.01671302 -0.01341003
v 0.00000007 -0.01680372 -0.01438886
v -0.00971882 -0.01679377 -0.01438826
v 0.00000007 -0.01678085 -0.01414210
v 0.00000007 -0.01594227 -0.01611894
v 0.00000007 -0.01510646 -0.01663643
v 0.00000007 -0.01414014 -0.01681715
v 0.00000007 -0.02090412 0.00000006
v 0.00000007 -0.00723157 0.01690871
v 0.00000007 0.00723557 0.01690871
v 0.00000007 0.00723557 0.00000006
v 0.00000007 0.00723557 -0.01414210
v 0.00000007 -0.00723157 -0.01414210
v 0.00000007 -0.00723157 0.00000006
f 1 2 3
f 1 3 4
f 5 3 6
f 5 7 8
f 5 9 1
f 1 9 10
f 1 10 11
f 3 12 6
f 7 12 13
f 7 14 15
f 16 17 18
f 18 17 6
f 18 7 19
f 20 7 15
f 20 15 21
f 22 7 23
f 23 7 17
f 23 17 24
f 24 17 25
f 26 27 28
f 28 27 1
f 28 1 29
f 29 1 11
f 29 11 30
f 31 1 32
f 33 1 34
f 33 27 35
f 35 27 36
f 8 7 37
f 22 38 6
f 7 38 39
f 7 39 37
f 40 41 42
f 22 41 43
f 22 43 44
f 24 45 23
f 23 45 46
f 23 46 42
f 22 46 47
f 22 47 40
f 48 49 25
f 25 49 50
f 25 51 24
f 24 51 52
f 24 52 45
f 48 25 53
f 53 25 17
f 53 17 54
f 55 56 17
f 17 56 57
f 17 58 54
f 55 17 59
f 60 17 16
f 60 16 61
f 61 16 18
f 61 18 62
f 62 18 63
f 64 18 19
f 64 20 65
f 21 66 19
f 20 66 67
f 20 67 65
f 68 69 21
f 21 69 70
f 21 70 66
f 14 71 15
f 15 71 72
f 15 72 21
f 21 72 73
f 21 73 74
f 75 76 12
f 12 76 77
f 12 77 13
f 14 77 78
f 14 79 71
f 75 12 80
f 80 12 3
f 80 3 81
f 2 82 3
f 3 82 83
f 3 84 81
f 1 85 2
f 2 85 86
f 2 86 82
f 31 87 1
f 1 87 88
f 1 89 85
f 90 91 31
f 31 91 92
f 31 92 87
f 35 93 32
f 33 93 94
f 33 95 31
f 31 95 96
f 31 96 97
f 98 99 36
f 36 99 100
f 36 100 35
f 35 100 101
f 35 101 93
f 98 36 102
f 102 36 34
f 102 27 103
f 104 105 34
f 27 105 106
f 27 106 103
f 104 27 107
f 107 27 26
f 107 26 108
f 108 26 28
f 108 28 109
f 110 28 111
f 111 28 29
f 111 29 112
f 30 113 29
f 29 113 114
f 29 115 112
f 116 117 30
f 30 117 118
f 30 118 119
f 10 120 11
f 11 120 121
f 11 121 30
f 30 121 122
f 30 123 116
f 124 125 126
f 9 125 127
f 9 127 10
f 10 127 128
f 10 128 120
f 124 9 129
f 129 9 4
f 129 5 130
f 37 131 8
f 8 131 132
f 8 132 4
f 5 132 133
f 5 133 130
f 134 135 127
f 136 137 44
f 138 139 77
f 93 140 94
f 95 140 141
f 95 141 96
f 96 141 142
f 142 143 96
f 96 143 144
f 96 144 145
f 146 147 148
f 148 147 149
f 148 149 150
f 150 151 148
f 148 151 152
f 148 152 153
f 153 154 148
f 148 154 155
f 148 155 156
f 157 158 159
f 159 158 148
f 159 148 160
f 161 148 156
f 162 163 100
f 100 163 164
f 100 164 101
f 101 164 165
f 101 165 93
f 93 165 166
f 93 166 167
f 167 168 93
f 93 168 169
f 93 169 140
f 170 171 172
f 171 173 172
f 172 173 174
f 172 174 175
f 176 177 172
f 172 177 178
f 172 178 179
f 179 180 172
f 172 180 181
f 172 181 182
f 183 184 185
f 99 184 186
f 186 187 185
f 99 187 188
f 99 188 189
f 190 191 185
f 99 191 192
f 99 192 100
f 100 192 193
f 100 193 162
f 157 194 195
f 158 194 196
f 158 196 197
f 198 199 195
f 158 199 200
f 158 201 202
f 201 203 202
f 202 203 204
f 202 204 205
f 205 206 202
f 202 206 207
f 202 207 172
f 172 207 208
f 172 208 209
f 210 116 122
f 210 211 116
f 116 211 212
f 116 213 214
f 215 216 116
f 116 216 217
f 116 217 218
f 219 220 221
f 222 220 223
f 223 224 221
f 222 224 225
f 222 225 226
f 226 227 221
f 222 227 228
f 222 228 229
f 230 231 232
f 232 231 221
f 232 222 233
f 233 222 229
f 120 234 235
f 120 235 121
f 121 235 236
f 121 236 122
f 123 236 237
f 123 237 238
f 238 239 122
f 123 239 240
f 123 240 210
f 241 242 135
f 241 135 243
f 242 244 135
f 135 244 245
f 135 245 246
f 246 247 135
f 135 247 248
f 135 248 249
f 249 250 135
f 135 250 251
f 135 252 127
f 252 253 127
f 127 253 254
f 127 254 255
f 255 256 127
f 127 256 257
f 127 258 259
f 259 260 127
f 127 260 261
f 127 261 128
f 128 261 262
f 128 262 120
f 120 262 263
f 120 263 234
f 230 264 231
f 231 264 265
f 231 265 266
f 266 267 231
f 231 267 268
f 231 268 269
f 268 270 269
f 269 270 271
f 269 271 272
f 272 273 269
f 269 273 274
f 269 274 135
f 135 274 275
f 135 275 243
f 276 277 278
f 279 277 280
f 279 280 281
f 281 282 278
f 279 282 283
f 279 283 284
f 284 285 278
f 279 285 286
f 279 286 287
f 288 49 289
f 290 49 291
f 288 292 49
f 49 292 293
f 49 294 295
f 296 51 297
f 297 51 49
f 297 49 298
f 299 49 295
f 300 301 302
f 301 303 302
f 302 303 304
f 302 304 305
f 305 304 306
f 306 307 305
f 305 307 308
f 305 308 309
f 309 310 305
f 305 310 311
f 305 311 278
f 279 311 312
f 279 312 276
f 313 314 315
f 316 317 47
f 47 317 318
f 47 318 319
f 314 320 315
f 315 320 321
f 315 321 322
f 322 323 315
f 315 323 324
f 315 324 325
f 326 327 315
f 315 327 328
f 315 328 329
f 329 330 315
f 315 330 331
f 315 331 302
f 302 331 332
f 302 332 300
f 296 333 50
f 51 333 334
f 51 334 52
f 52 334 335
f 52 335 45
f 335 336 45
f 45 336 337
f 45 337 338
f 338 339 45
f 45 339 340
f 45 340 46
f 46 340 341
f 46 341 47
f 47 341 342
f 47 342 316
f 343 344 77
f 343 77 345
f 346 347 139
f 139 347 348
f 139 348 349
f 349 350 139
f 139 350 351
f 139 351 352
f 352 353 139
f 139 353 354
f 139 354 77
f 77 354 355
f 77 355 345
f 344 356 77
f 77 356 357
f 77 357 358
f 359 360 361
f 361 360 362
f 359 363 360
f 360 363 364
f 360 364 365
f 364 366 365
f 367 366 368
f 367 368 369
f 369 370 365
f 367 370 371
f 367 371 139
f 139 371 372
f 139 372 346
f 373 374 74
f 68 374 375
f 68 375 376
f 377 378 379
f 376 380 74
f 68 380 381
f 68 381 382
f 377 379 383
f 378 384 379
f 379 384 385
f 379 385 386
f 386 387 379
f 379 387 388
f 379 388 389
f 389 390 379
f 379 390 391
f 379 391 360
f 360 391 392
f 360 392 362
f 358 393 77
f 77 393 394
f 77 395 78
f 79 395 396
f 79 396 71
f 71 396 397
f 397 398 71
f 71 398 399
f 71 399 72
f 72 399 400
f 72 400 73
f 73 400 401
f 73 401 402
f 402 403 73
f 73 403 404
f 73 404 74
f 68 404 405
f 68 406 373
f 407 408 37
f 37 408 409
f 409 410 37
f 37 410 411
f 37 412 413
f 137 414 415
f 416 417 137
f 137 417 418
f 137 418 419
f 420 421 137
f 137 421 422
f 137 422 44
f 422 423 44
f 38 423 424
f 38 425 426
f 427 428 44
f 38 428 429
f 38 429 39
f 39 429 430
f 39 430 37
f 37 430 431
f 37 432 407
f 433 434 435
f 435 434 436
f 435 436 437
f 437 436 438
f 438 439 437
f 437 439 440
f 437 440 441
f 441 442 437
f 437 442 443
f 437 443 444
f 444 445 437
f 437 445 446
f 437 446 137
f 137 446 447
f 137 447 448
f 449 450 451
f 450 452 451
f 451 452 453
f 451 453 454
f 454 455 451
f 451 455 456
f 451 456 457
f 457 458 451
f 451 458 459
f 451 459 435
f 435 459 460
f 435 460 461
f 462 463 464
f 462 464 465
f 463 466 464
f 464 466 467
f 464 468 469
f 469 470 464
f 464 470 471
f 464 472 473
f 473 474 464
f 464 474 475
f 464 475 451
f 451 475 476
f 451 476 449
f 413 477 37
f 37 477 478
f 37 478 131
f 131 478 479
f 131 479 132
f 479 480 132
f 132 480 481
f 132 481 482
f 483 484 132
f 132 484 485
f 132 485 486
f 487 488 489
f 490 488 133
f 490 133 491
f 491 133 132
f 491 132 492
f 492 132 486
f 493 104 107
f 493 107 494
f 104 493 105
f 105 493 495
f 105 495 106
f 106 495 496
f 106 496 103
f 103 496 102
f 102 496 497
f 102 497 498
f 98 497 172
f 98 172 185
f 99 172 182
f 99 182 499
f 145 146 96
f 96 146 148
f 96 148 97
f 90 148 500
f 90 500 501
f 91 500 502
f 503 89 504
f 505 89 87
f 505 87 502
f 502 87 92
f 502 92 501
f 506 84 507
f 507 84 82
f 507 82 508
f 508 82 86
f 508 86 503
f 503 86 85
f 503 85 88
f 77 76 138
f 138 76 509
f 138 75 510
f 510 75 80
f 510 80 511
f 506 80 81
f 506 81 83
f 512 383 74
f 68 383 379
f 68 379 513
f 69 379 514
f 69 514 70
f 70 514 66
f 66 514 515
f 66 515 67
f 67 515 516
f 67 516 65
f 65 516 63
f 64 516 517
f 64 517 62
f 62 517 518
f 62 518 61
f 61 518 59
f 60 518 519
f 60 519 55
f 55 519 56
f 56 519 520
f 56 521 57
f 58 521 522
f 58 522 54
f 523 522 53
f 53 522 524
f 53 524 48
f 48 524 278
f 48 279 49
f 49 279 287
f 49 287 291
f 319 313 47
f 47 313 315
f 47 315 40
f 40 315 525
f 40 525 41
f 41 525 526
f 41 136 43
f 43 136 44
f 487 465 130
f 488 465 464
f 488 464 129
f 129 464 527
f 129 528 124
f 124 528 134
f 124 134 125
f 125 134 127
f 218 219 116
f 116 219 221
f 116 222 117
f 117 222 529
f 530 115 531
f 531 115 119
f 531 113 529
f 529 113 118
f 529 118 117
f 107 108 494
f 494 108 109
f 494 110 532
f 532 110 111
f 532 111 533
f 530 111 112
f 530 112 114
f 302 534 315
f 315 534 535
f 315 535 525
f 525 535 536
f 525 537 526
f 136 537 538
f 136 538 137
f 279 539 305
f 305 539 540
f 305 540 302
f 302 540 541
f 302 541 534
f 514 542 515
f 515 542 543
f 515 543 516
f 516 543 544
f 516 544 517
f 517 544 545
f 517 545 518
f 518 545 546
f 518 546 519
f 519 546 547
f 519 548 520
f 521 548 549
f 521 549 522
f 522 549 550
f 522 550 524
f 524 550 551
f 524 551 278
f 279 551 552
f 279 553 539
f 379 554 514
f 514 554 555
f 514 555 542
f 510 556 138
f 138 556 557
f 138 557 139
f 139 557 558
f 139 559 365
f 367 559 560
f 367 560 360
f 360 560 561
f 360 561 379
f 379 561 562
f 379 562 563
f 505 564 503
f 503 564 565
f 503 565 508
f 508 565 566
f 508 566 507
f 507 566 567
f 507 568 511
f 506 568 569
f 506 569 510
f 510 569 570
f 510 570 556
f 172 571 202
f 202 571 572
f 202 573 195
f 158 573 574
f 158 574 148
f 148 574 575
f 148 575 500
f 500 575 576
f 500 576 502
f 502 576 577
f 502 577 504
f 505 577 578
f 505 579 564
f 231 580 221
f 222 580 581
f 222 581 529
f 529 581 582
f 529 582 531
f 531 582 583
f 531 584 533
f 530 584 585
f 530 585 532
f 532 585 586
f 532 586 494
f 494 586 587
f 494 587 493
f 493 587 588
f 493 588 495
f 495 588 589
f 495 589 496
f 496 589 590
f 496 590 497
f 497 590 591
f 497 591 172
f 172 591 592
f 172 592 571
f 528 593 134
f 134 593 594
f 134 594 135
f 135 594 595
f 135 595 269
f 269 595 596
f 269 596 231
f 231 596 597
f 231 597 598
f 538 599 137
f 137 599 600
f 137 600 437
f 437 600 601
f 437 601 435
f 435 601 602
f 435 602 451
f 451 602 603
f 451 603 464
f 464 603 604
f 464 604 527
f 528 604 605
f 528 606 593
f 304 303 607
f 324 323 608
f 294 609 295
f 295 609 610
f 295 611 298
f 299 611 297
f 297 611 296
f 296 611 612
f 296 612 333
f 336 335 612
f 612 335 334
f 612 334 333
f 340 613 341
f 341 613 614
f 340 339 613
f 613 339 338
f 613 338 612
f 612 338 337
f 612 337 336
f 317 316 614
f 614 316 342
f 614 342 341
f 314 615 320
f 320 615 616
f 320 616 321
f 314 313 615
f 615 313 319
f 615 319 614
f 614 319 318
f 614 318 317
f 608 323 616
f 616 323 322
f 616 322 321
f 329 328 617
f 617 328 327
f 617 327 608
f 608 327 325
f 608 326 324
f 607 303 618
f 618 303 301
f 618 301 300
f 300 332 618
f 618 332 331
f 618 331 617
f 617 331 330
f 617 330 329
f 304 607 306
f 306 607 619
f 306 619 307
f 307 619 308
f 308 619 620
f 308 620 309
f 277 276 620
f 620 276 312
f 312 311 620
f 620 311 310
f 620 310 309
f 277 620 280
f 280 620 621
f 280 621 281
f 281 621 622
f 281 622 282
f 286 285 623
f 623 285 284
f 623 284 622
f 622 284 283
f 622 283 282
f 286 623 287
f 287 623 624
f 287 625 291
f 294 292 626
f 609 292 288
f 609 288 624
f 625 288 289
f 625 290 291
f 481 627 482
f 483 627 628
f 483 628 484
f 491 629 489
f 490 629 630
f 491 492 631
f 629 492 486
f 629 486 628
f 628 486 485
f 628 485 484
f 462 465 630
f 630 465 487
f 630 487 489
f 469 468 632
f 632 468 466
f 632 466 630
f 630 466 463
f 630 463 462
f 474 473 633
f 633 473 471
f 633 472 632
f 632 472 470
f 632 470 469
f 634 476 633
f 633 476 475
f 633 475 474
f 452 450 634
f 634 450 449
f 634 449 476
f 456 455 635
f 636 455 454
f 636 454 634
f 634 454 453
f 634 453 452
f 460 459 637
f 637 459 458
f 637 458 635
f 636 458 457
f 636 457 456
f 460 637 461
f 433 637 638
f 433 638 434
f 434 638 436
f 436 638 639
f 436 639 438
f 442 441 640
f 641 441 440
f 641 440 639
f 639 440 439
f 639 439 438
f 442 641 443
f 443 641 642
f 443 642 444
f 414 447 643
f 643 447 446
f 643 446 642
f 642 446 445
f 642 445 444
f 420 418 644
f 644 418 417
f 644 417 643
f 643 417 415
f 643 416 448
f 425 423 645
f 645 423 422
f 645 422 644
f 644 422 421
f 644 421 419
f 432 430 646
f 430 429 646
f 647 429 428
f 647 428 645
f 645 428 426
f 645 427 424
f 410 409 648
f 648 409 649
f 648 408 646
f 647 408 407
f 647 407 431
f 481 480 627
f 627 480 479
f 627 479 478
f 478 477 627
f 627 477 413
f 627 413 648
f 648 413 411
f 648 412 410
f 233 229 650
f 227 226 651
f 220 652 223
f 223 652 653
f 223 653 224
f 217 654 218
f 218 654 655
f 218 652 219
f 219 652 220
f 651 226 653
f 653 226 225
f 653 225 224
f 650 229 651
f 651 229 228
f 651 228 227
f 265 264 656
f 656 264 657
f 656 230 650
f 650 230 232
f 650 232 233
f 270 268 658
f 658 268 267
f 658 267 656
f 656 267 266
f 656 266 265
f 275 274 659
f 659 274 273
f 659 273 660
f 660 273 272
f 660 272 658
f 658 272 271
f 658 271 270
f 242 241 659
f 659 241 243
f 659 243 275
f 248 247 661
f 661 247 246
f 661 246 662
f 662 246 245
f 662 245 659
f 659 245 244
f 659 244 242
f 248 661 249
f 249 661 663
f 249 663 250
f 255 254 664
f 664 254 253
f 664 253 663
f 663 253 251
f 663 252 250
f 255 664 256
f 256 664 665
f 256 665 257
f 262 261 666
f 666 261 260
f 666 260 665
f 665 260 259
f 665 259 257
f 236 235 667
f 667 235 234
f 667 234 666
f 666 234 263
f 666 263 262
f 239 238 667
f 667 238 237
f 667 237 236
f 217 216 668
f 654 216 214
f 654 215 669
f 670 215 212
f 213 211 669
f 670 211 210
f 670 210 667
f 667 210 240
f 667 240 239
f 155 154 671
f 152 151 672
f 198 196 673
f 673 196 674
f 675 196 194
f 675 194 157
f 198 673 199
f 199 673 676
f 199 676 200
f 677 205 204
f 677 204 676
f 676 204 203
f 676 203 200
f 205 677 206
f 206 677 678
f 206 678 207
f 679 176 174
f 174 173 679
f 679 173 680
f 679 171 681
f 681 171 209
f 681 170 678
f 678 170 208
f 678 208 207
f 176 679 177
f 177 679 682
f 177 682 178
f 182 181 683
f 684 181 180
f 684 180 682
f 682 180 179
f 682 179 178
f 182 684 499
f 183 684 685
f 183 685 184
f 190 188 686
f 686 188 187
f 686 187 685
f 685 187 186
f 685 186 184
f 687 163 162
f 162 193 688
f 687 193 192
f 687 192 686
f 686 192 191
f 686 191 189
f 163 687 164
f 164 687 689
f 164 689 165
f 168 167 689
f 689 167 166
f 689 166 165
f 142 141 690
f 690 141 140
f 690 140 689
f 689 140 169
f 689 169 691
f 142 690 143
f 143 690 692
f 143 692 144
f 144 692 693
f 144 693 145
f 151 150 672
f 672 150 149
f 672 149 694
f 694 149 147
f 694 147 693
f 693 147 695
f 693 146 145
f 671 154 672
f 672 154 153
f 672 153 152
f 157 159 674
f 675 159 160
f 675 161 671
f 671 161 156
f 671 156 155
f 359 361 696
f 385 384 697
f 377 383 698
f 347 699 348
f 348 699 700
f 348 700 349
f 349 700 350
f 350 700 351
f 351 700 701
f 351 701 352
f 345 355 702
f 702 355 354
f 702 354 701
f 701 354 703
f 701 353 352
f 345 702 343
f 343 702 704
f 343 704 344
f 705 358 706
f 706 358 357
f 706 357 704
f 704 357 356
f 704 356 344
f 397 396 707
f 707 396 394
f 707 395 705
f 705 395 393
f 705 393 358
f 707 401 400
f 400 399 707
f 707 399 398
f 707 398 397
f 401 707 402
f 402 707 708
f 402 709 403
f 374 373 710
f 710 373 405
f 710 406 708
f 709 406 404
f 709 404 403
f 381 380 711
f 711 380 376
f 711 376 710
f 710 376 375
f 710 375 374
f 712 383 711
f 711 383 382
f 711 512 381
f 697 384 698
f 712 384 378
f 712 378 377
f 713 387 697
f 697 387 386
f 697 386 385
f 392 391 714
f 714 391 715
f 714 390 716
f 716 390 389
f 716 389 713
f 713 389 388
f 713 388 387
f 696 361 714
f 714 361 362
f 714 362 392
f 717 364 696
f 696 364 363
f 696 363 359
f 370 369 718
f 718 369 368
f 718 368 717
f 717 368 366
f 717 366 364
f 347 346 719
f 699 346 372
f 699 372 718
f 718 372 371
f 718 371 370
f 555 554 720
f 648 647 721
f 648 721 627
f 630 629 722
f 722 629 628
f 538 642 599
f 599 642 640
f 599 641 600
f 600 641 639
f 600 639 601
f 601 639 638
f 601 638 602
f 647 645 721
f 721 645 644
f 721 644 538
f 538 644 643
f 538 643 642
f 638 637 602
f 602 637 635
f 602 636 603
f 603 636 634
f 603 634 604
f 604 634 633
f 604 633 722
f 722 633 632
f 722 632 630
f 606 604 593
f 593 604 722
f 593 722 594
f 594 722 596
f 594 596 595
f 653 652 586
f 723 654 669
f 664 663 722
f 663 661 722
f 722 661 662
f 722 662 596
f 596 662 659
f 670 667 723
f 723 667 666
f 723 666 722
f 722 666 665
f 722 665 664
f 586 585 653
f 653 585 583
f 653 584 651
f 659 660 596
f 596 660 658
f 596 658 597
f 597 658 656
f 597 656 598
f 580 656 650
f 580 650 581
f 581 650 651
f 581 651 582
f 582 651 583
f 687 686 723
f 723 686 586
f 723 586 668
f 654 586 655
f 590 589 679
f 679 589 682
f 724 690 723
f 723 690 689
f 723 689 688
f 589 588 682
f 682 588 587
f 682 587 683
f 684 587 586
f 684 586 685
f 685 586 686
f 694 693 724
f 724 693 692
f 724 692 690
f 590 679 591
f 591 679 681
f 591 681 592
f 592 681 678
f 592 678 571
f 571 678 677
f 571 677 572
f 677 676 572
f 573 676 673
f 573 673 574
f 574 673 674
f 574 675 575
f 575 675 671
f 575 671 576
f 576 671 672
f 576 672 577
f 577 672 694
f 565 564 724
f 694 724 577
f 577 724 564
f 577 564 578
f 700 699 557
f 725 706 704
f 704 569 725
f 725 569 567
f 725 568 566
f 557 699 558
f 557 556 700
f 700 556 570
f 700 570 701
f 701 570 569
f 701 569 702
f 702 569 704
f 726 709 707
f 726 707 725
f 725 707 705
f 725 705 706
f 697 720 713
f 713 720 563
f 713 554 716
f 716 554 562
f 716 562 714
f 714 562 561
f 714 561 696
f 696 561 560
f 696 560 717
f 717 560 558
f 717 559 718
f 718 559 719
f 697 712 720
f 720 712 711
f 720 711 726
f 726 711 710
f 726 710 708
f 543 542 544
f 544 542 545
f 551 550 720
f 720 550 549
f 542 555 545
f 545 555 720
f 545 720 546
f 546 720 549
f 546 549 547
f 612 611 726
f 726 611 626
f 726 609 720
f 721 608 616
f 620 619 540
f 609 625 720
f 720 625 623
f 720 623 551
f 619 607 540
f 540 607 618
f 540 618 721
f 721 618 617
f 721 617 608
f 616 615 721
f 721 615 614
f 721 614 726
f 726 614 613
f 726 613 612
f 623 622 551
f 551 622 621
f 551 621 552
f 553 621 620
f 553 620 539
f 539 620 540
f 541 540 534
f 534 540 721
f 534 721 535
f 535 721 538
f 535 538 536
f 628 627 722
f 722 627 721
f 722 721 723
f 723 721 726
f 723 726 724
f 724 726 725
f 724 725 565
f 565 725 566

